<svg width="200" height="50" viewBox="0 0 200 50" fill="none" xmlns="http://www.w3.org/2000/svg">
<path d="M30.1 25.2C30.1 26.1 30.8 26.8 31.7 26.8C32.6 26.8 33.3 26.1 33.3 25.2C33.3 24.3 32.6 23.6 31.7 23.6C30.8 23.6 30.1 24.3 30.1 25.2ZM43.6 23.6C42.7 23.6 42 24.3 42 25.2C42 26.1 42.7 26.8 43.6 26.8C44.5 26.8 45.2 26.1 45.2 25.2C45.2 24.3 44.5 23.6 43.6 23.6ZM43.6 35.7C42.7 35.7 42 36.4 42 37.3C42 38.2 42.7 38.9 43.6 38.9C44.5 38.9 45.2 38.2 45.2 37.3C45.2 36.4 44.5 35.7 43.6 35.7Z" fill="#F3BB2D"/>
<path d="M47 10.2999C45.4 8.29994 42.5 8.19994 40.8 9.79994L40.6 9.99994L40.2 10.2999C38.6 11.5999 36.2 11.4999 34.7 9.99994V9.89994C34.2 9.39994 33.5 8.99994 32.8 8.79994C32.7 8.79994 32.5 8.69994 32.4 8.69994H30.8C30.7 8.69994 30.6 8.69994 30.5 8.79994H30.3C30.2 8.79994 30.1 8.89994 30 8.89994C30 8.89994 29.9 8.89994 29.9 8.99994C29.8 8.99994 29.7 9.09994 29.6 9.09994C29.6 9.09994 29.5 9.09994 29.5 9.19994C29.4 9.29994 29.3 9.29994 29.2 9.39994C29.2 9.39994 29.1 9.39994 29.1 9.49994C29 9.59994 28.9 9.59994 28.8 9.69994L28.7 9.79994L28.5 9.99994L28.1 10.2999C26.5 11.5999 24.1 11.4999 22.7 9.99994C22.7 9.99994 22.6 9.99994 22.6 9.89994L22.4 9.69994C21.8 9.19994 21.1 8.79994 20.3 8.69994H18.5C18.5 8.79994 18.4 8.79994 18.3 8.89994H18.2C17.7 9.09994 17.2 9.29994 16.8 9.69994L16.7 9.79994L16.4 10.0999C16 10.4999 15.8 10.9999 15.6 11.3999C15.6 11.4999 15.5 11.5999 15.5 11.6999C15.5 11.7999 15.4 11.8999 15.4 12.0999C15.3 12.7999 15.3 13.4999 15.5 14.1999C15.5 14.2999 15.6 14.3999 15.6 14.4999V14.5999C15.6 14.6999 15.7 14.7999 15.7 14.8999C15.8 14.9999 15.8 15.0999 15.9 15.2999C16.1 15.3999 16.3 15.5999 16.4 15.6999L16.6 15.8999L16.8 16.0999C18.3 17.5999 18.3 20.1999 16.7 21.7999C16.5 21.9999 16.2 22.2999 16.1 22.4999C16 22.5999 16 22.6999 15.9 22.8999V22.9999C15.8 23.0999 15.8 23.1999 15.7 23.2999V23.3999C15.7 23.4999 15.6 23.5999 15.6 23.6999V23.7999C15.6 23.8999 15.6 23.9999 15.5 24.0999V25.5999C15.5 25.6999 15.5 25.7999 15.6 25.8999V25.9999C15.8 26.6999 16.2 27.3999 16.8 27.9999C18.4 29.5999 18.4 32.1999 16.8 33.7999L16.7 33.8999L16.5 34.0999V34.1999C16.4 34.2999 16.3 34.3999 16.3 34.4999C16.3 34.4999 16.3 34.5999 16.2 34.5999C16.1 34.6999 16.1 34.7999 16 34.8999L15.9 34.9999C15.9 35.0999 15.8 35.0999 15.8 35.1999C15.8 35.2999 15.7 35.2999 15.7 35.3999C15.7 35.4999 15.7 35.4999 15.6 35.5999C15.4 35.9999 15.3 36.4999 15.3 36.8999V37.6999C15.4 37.9999 15.4 38.2999 15.6 38.4999C15.6 38.5999 15.7 38.6999 15.7 38.6999C15.7 38.6999 15.7 38.7999 15.8 38.7999C15.8 38.8999 15.9 38.9999 15.9 39.0999C15.9 39.0999 15.9 39.1999 16 39.1999C16.1 39.3999 16.2 39.4999 16.3 39.5999C16.3 39.5999 16.3 39.6999 16.4 39.6999C16.4 39.6999 16.4 39.7999 16.5 39.7999C16.5 39.8999 16.6 39.8999 16.6 39.8999L16.7 39.9999C16.8 40.0999 16.9 40.0999 16.9 40.1999L17 40.2999C17 40.2999 17.1 40.2999 17.1 40.3999C17.2 40.4999 17.3 40.5999 17.4 40.5999C17.4 40.5999 17.5 40.5999 17.5 40.6999C17.6 40.7999 17.7 40.7999 17.8 40.8999H17.9C18 40.9999 18.1 40.9999 18.3 40.9999C18.4 40.9999 18.6 41.0999 18.7 41.0999H18.8C18.9 41.0999 19 41.0999 19.1 41.1999H20C20.3 41.1999 20.5 41.0999 20.8 41.0999H20.9C21 41.0999 21.1 40.9999 21.2 40.9999H21.3C21.4 40.9999 21.5 40.8999 21.6 40.8999H21.7C21.9 40.7999 22.2 40.5999 22.4 40.4999L22.7 40.1999L22.8 40.0999C24.4 38.3999 27 38.3999 28.6 40.0999C30.4 41.9999 33.4 41.8999 35.1 39.7999C36.3 38.2999 36.3 36.0999 35.1 34.4999C33.5 32.4999 30.6 32.3999 28.9 33.9999L28.7 34.1999L28.3 34.4999C26.7 35.7999 24.3 35.6999 22.8 34.1999L22.6 33.9999L22.3 33.5999C21 31.9999 21.1 29.5999 22.6 28.0999C23.5 27.2999 23.9 26.1999 23.9 25.0999V24.7999C23.9 23.7999 23.5 22.7999 22.7 22.0999C22.7 21.9999 22.6 21.9999 22.6 21.8999L22.3 21.4999C21 19.8999 21.1 17.4999 22.6 15.9999L22.7 15.8999L22.8 15.7999C24.4 14.0999 27 14.0999 28.6 15.7999L28.7 15.8999L28.8 15.9999L29 16.1999C29.1 16.1999 29.1 16.2999 29.2 16.2999C29.3 16.2999 29.3 16.3999 29.4 16.3999C29.5 16.3999 29.5 16.4999 29.6 16.4999C29.7 16.4999 29.7 16.5999 29.8 16.5999C29.9 16.5999 29.9 16.6999 30 16.6999C30.1 16.6999 30.1 16.7999 30.2 16.7999C30.3 16.7999 30.3 16.7999 30.4 16.8999C30.5 16.8999 30.5 16.8999 30.6 16.9999H32.3C32.4 16.9999 32.5 16.9999 32.6 16.8999H32.8C32.9 16.8999 33 16.7999 33.1 16.7999H33.2C33.3 16.7999 33.4 16.6999 33.6 16.5999C34 16.3999 34.4 16.0999 34.7 15.7999L34.8 15.6999C36.4 13.9999 39 13.9999 40.6 15.6999C42.3 17.6999 45.4 17.5999 47 15.4999C48.2 13.9999 48.2 11.7999 47 10.2999Z" fill="#F3BB2D"/>
<path d="M69.8 22.7C69.2 22.1 68.7 21.7 68 21.4C67.4 21.1 66.7 20.9 65.8 20.9C65 20.9 64.2 21.1 63.6 21.4C63 21.7 62.5 22.1 62.1 22.7C61.7 23.2 61.4 23.8 61.2 24.5C61 25.2 60.9 25.9 60.9 26.6C60.9 27.3 61 28 61.3 28.7C61.5 29.4 61.9 29.9 62.3 30.4C62.7 30.9 63.3 31.3 63.9 31.6C64.5 31.9 65.2 32 66 32C66.9 32 67.6 31.8 68.2 31.5C68.8 31.2 69.4 30.8 69.9 30.2L72 32.4C71.2 33.3 70.3 33.9 69.3 34.3C68.3 34.7 67.2 34.9 66 34.9C64.8 34.9 63.6 34.7 62.6 34.3C61.6 33.9 60.7 33.3 60 32.6C59.3 31.9 58.7 31 58.3 30C57.9 29 57.7 27.8 57.7 26.6C57.7 25.4 57.9 24.2 58.3 23.2C58.7 22.2 59.3 21.3 60 20.5C60.7 19.8 61.6 19.2 62.6 18.8C63.6 18.4 64.8 18.2 66 18.2C67.2 18.2 68.3 18.4 69.3 18.8C70.4 19.2 71.3 19.9 72.1 20.7L69.8 22.7ZM76.6 26.4C76.6 27.2 76.7 28 77 28.6C77.2 29.3 77.6 29.9 78 30.4C78.4 30.9 79 31.3 79.6 31.5C80.2 31.8 81 31.9 81.8 31.9C82.6 31.9 83.3 31.8 84 31.5C84.6 31.2 85.2 30.8 85.6 30.4C86 29.9 86.4 29.3 86.6 28.6C86.8 27.9 87 27.2 87 26.4C87 25.6 86.9 24.8 86.6 24.2C86.4 23.5 86 22.9 85.6 22.4C85.2 21.9 84.6 21.5 84 21.3C83.4 21 82.6 20.9 81.8 20.9C81 20.9 80.3 21 79.6 21.3C79 21.6 78.4 22 78 22.4C77.6 22.9 77.2 23.5 77 24.2C76.8 24.9 76.6 25.6 76.6 26.4ZM73.4 26.4C73.4 25.2 73.6 24.1 74 23.1C74.4 22.1 75 21.2 75.8 20.4C76.6 19.6 77.4 19 78.5 18.6C79.5 18.2 80.6 17.9 81.8 17.9C83 17.9 84.1 18.1 85.1 18.6C86.1 19 87 19.6 87.8 20.4C88.6 21.2 89.1 22.1 89.6 23.1C90 24.1 90.2 25.2 90.2 26.4C90.2 27.6 90 28.7 89.6 29.7C89.2 30.7 88.6 31.6 87.8 32.4C87 33.2 86.2 33.7 85.1 34.2C84.1 34.6 83 34.9 81.8 34.9C80.6 34.9 79.5 34.7 78.5 34.2C77.5 33.8 76.6 33.2 75.8 32.4C75 31.6 74.5 30.8 74 29.7C73.7 28.7 73.4 27.6 73.4 26.4ZM93.3 34.5H96.3V18.5H93.3V34.5ZM92.6 12.7C92.6 12.1 92.8 11.6 93.2 11.1C93.6 10.7 94.1 10.4 94.7 10.4C95.3 10.4 95.8 10.6 96.2 11.1C96.6 11.5 96.8 12.1 96.8 12.7C96.8 13.3 96.6 13.8 96.2 14.3C95.8 14.7 95.3 15 94.7 15C94.1 15 93.6 14.8 93.2 14.3C92.8 13.9 92.6 13.3 92.6 12.7ZM100.5 18.5H103.5V21H103.6C104 20.1 104.6 19.4 105.6 18.9C106.5 18.4 107.6 18.1 108.9 18.1C109.7 18.1 110.4 18.2 111.1 18.5C111.8 18.7 112.4 19.1 112.9 19.6C113.4 20.1 113.8 20.7 114.2 21.5C114.5 22.3 114.7 23.2 114.7 24.3V34.6H111.7V25.1C111.7 24.4 111.6 23.7 111.4 23.2C111.2 22.7 110.9 22.2 110.6 21.9C110.3 21.6 109.9 21.3 109.4 21.2C109 21.1 108.5 21 108 21C107.4 21 106.8 21.1 106.3 21.3C105.8 21.5 105.3 21.8 104.9 22.3C104.5 22.7 104.2 23.3 104 24C103.8 24.7 103.7 25.5 103.7 26.4V34.7H100.7V18.5H100.5ZM125.8 32C126.6 32 127.3 31.9 128 31.6C128.7 31.3 129.2 30.9 129.7 30.4C130.1 29.9 130.5 29.3 130.7 28.6C130.9 27.9 131.1 27.2 131.1 26.3C131.1 25.5 131 24.7 130.7 24C130.5 23.3 130.1 22.7 129.7 22.2C129.2 21.7 128.7 21.3 128 21C127.3 20.7 126.6 20.6 125.8 20.6C125 20.6 124.3 20.7 123.6 21C122.9 21.3 122.4 21.7 121.9 22.2C121.5 22.7 121.1 23.3 120.9 24C120.7 24.7 120.5 25.4 120.5 26.3C120.5 27.1 120.6 27.9 120.9 28.6C121.1 29.3 121.5 29.9 121.9 30.4C122.3 30.9 122.9 31.3 123.6 31.6C124.2 31.8 125 32 125.8 32ZM134.1 34.4H131.1V32.1H131C130.4 33 129.6 33.6 128.6 34.1C127.6 34.6 126.5 34.8 125.4 34.8C124.2 34.8 123 34.6 122 34.2C121 33.8 120.1 33.2 119.4 32.4C118.7 31.6 118.1 30.7 117.8 29.7C117.4 28.7 117.2 27.6 117.2 26.4C117.2 25.2 117.4 24.1 117.8 23C118.2 22 118.7 21.1 119.4 20.3C120.1 19.5 121 18.9 122 18.5C123 18.1 124.1 17.9 125.4 17.9C126.5 17.9 127.6 18.1 128.6 18.6C129.6 19.1 130.4 19.8 130.9 20.6H131V8.59998H134V34.4H134.1ZM149.4 25.1C149.4 24.4 149.3 23.8 149.1 23.2C148.9 22.6 148.6 22.1 148.2 21.7C147.8 21.3 147.3 21 146.8 20.7C146.2 20.5 145.6 20.3 144.8 20.3C144.1 20.3 143.4 20.4 142.8 20.7C142.2 21 141.7 21.3 141.2 21.8C140.8 22.2 140.4 22.7 140.2 23.3C140 23.9 139.8 24.4 139.8 24.9H149.4V25.1ZM139.8 27.6C139.8 28.3 140 28.9 140.3 29.5C140.6 30.1 141 30.6 141.5 31C142 31.4 142.6 31.7 143.2 31.9C143.9 32.1 144.5 32.2 145.2 32.2C146.1 32.2 147 32 147.7 31.5C148.4 31.1 149 30.5 149.6 29.8L151.9 31.6C150.2 33.8 147.8 34.9 144.8 34.9C143.5 34.9 142.4 34.7 141.4 34.3C140.4 33.9 139.5 33.3 138.8 32.5C138.1 31.7 137.5 30.9 137.2 29.8C136.8 28.8 136.6 27.7 136.6 26.5C136.6 25.3 136.8 24.2 137.2 23.2C137.6 22.2 138.2 21.3 138.9 20.5C139.6 19.7 140.5 19.2 141.5 18.7C142.5 18.3 143.6 18.1 144.8 18.1C146.2 18.1 147.4 18.3 148.4 18.8C149.4 19.3 150.2 19.9 150.8 20.7C151.4 21.5 151.9 22.4 152.2 23.4C152.5 24.4 152.6 25.4 152.6 26.5V27.6H139.8ZM164.4 22.5C164 22.1 163.6 21.7 163.1 21.4C162.6 21.1 161.9 20.9 161.2 20.9C160.5 20.9 159.9 21.1 159.3 21.4C158.8 21.7 158.5 22.1 158.5 22.7C158.5 23.2 158.7 23.6 159 23.8C159.3 24.1 159.7 24.3 160.1 24.5C160.5 24.7 161 24.8 161.4 24.9C161.9 25 162.3 25.1 162.6 25.1C163.2 25.3 163.9 25.4 164.4 25.7C165 25.9 165.5 26.2 165.9 26.6C166.3 27 166.6 27.4 166.9 27.9C167.1 28.4 167.3 29 167.3 29.8C167.3 30.7 167.1 31.5 166.7 32.1C166.3 32.7 165.8 33.3 165.2 33.7C164.6 34.1 163.9 34.4 163.1 34.6C162.3 34.8 161.5 34.9 160.8 34.9C159.5 34.9 158.3 34.7 157.3 34.3C156.3 33.9 155.4 33.2 154.6 32.1L156.9 30.2C157.4 30.7 157.9 31.1 158.5 31.5C159.1 31.9 159.8 32.1 160.7 32.1C161.1 32.1 161.5 32.1 161.9 32C162.3 31.9 162.6 31.8 162.9 31.6C163.2 31.4 163.4 31.2 163.6 31C163.8 30.7 163.9 30.4 163.9 30.1C163.9 29.7 163.8 29.3 163.5 29C163.2 28.7 162.9 28.5 162.5 28.3C162.1 28.1 161.7 28 161.3 27.9L160.1 27.6C159.5 27.4 158.8 27.3 158.3 27.1C157.7 26.9 157.2 26.6 156.8 26.3C156.4 26 156 25.5 155.7 25C155.4 24.5 155.3 23.8 155.3 23.1C155.3 22.3 155.5 21.5 155.8 20.9C156.1 20.3 156.6 19.8 157.2 19.4C157.8 19 158.4 18.7 159.1 18.5C159.8 18.3 160.6 18.2 161.3 18.2C162.4 18.2 163.4 18.4 164.4 18.8C165.4 19.2 166.2 19.9 166.8 20.8L164.4 22.5ZM170.2 8.99998H173.2V25.2L180 18.4H184.1L176.8 25.6L184.8 34.2H180.5L173.2 26V34.2H170.2V8.99998Z" fill="black"/>
</svg>
