<svg width="190" height="38" viewBox="0 0 190 38" fill="none" xmlns="http://www.w3.org/2000/svg">
<g clip-path="url(#clip0)">
<path d="M43.4467 12.92H49.4V28.3733H53.0733V12.92H59.0267V9.7533H43.4467V12.92Z" fill="#231F20"/>
<path d="M73.4667 17.2266H65.36V9.7533H61.56V28.3733H65.36V20.52H73.4667V28.3733H77.2667V9.7533H73.4667V17.2266Z" fill="#231F20"/>
<path d="M84.1066 20.3933H92.2133V17.3533H84.1066V12.92H93.2266V9.7533H80.3066V28.3733H93.48V25.2066H84.1066V20.3933Z" fill="#231F20"/>
<path d="M113.873 18.62C114.887 18.24 116.66 16.9734 116.66 14.3134C116.66 11.6534 114.633 9.62671 111.467 9.62671H103.233V28.2467H111.847C115.013 28.2467 117.42 26.22 117.42 23.18C117.293 20.6467 115.52 19.1267 113.873 18.62ZM106.78 12.6667H110.327C111.973 12.6667 112.987 13.4267 112.987 15.0734C112.987 16.5934 112.1 17.48 110.453 17.48H106.907V12.6667H106.78ZM110.833 25.46H106.78V20.2667H110.707C112.48 20.2667 113.62 21.1534 113.62 22.9267C113.493 24.5734 112.48 25.46 110.833 25.46Z" fill="#231F20"/>
<path d="M123.627 9.7533H119.953V28.3733H132.747V25.08H123.627V9.7533Z" fill="#231F20"/>
<path d="M142.88 9.62671C137.56 9.62671 133.633 13.3 133.633 19.1267C133.633 24.9534 137.56 28.5 142.88 28.5C148.2 28.5 152.127 24.8267 152.127 19C152.127 13.1734 148.073 9.62671 142.88 9.62671ZM142.88 25.2067C139.84 25.2067 137.433 22.9267 137.433 19C137.433 15.0734 139.84 12.7934 142.88 12.7934C145.92 12.7934 148.327 15.0734 148.327 19C148.327 22.9267 145.92 25.2067 142.88 25.2067Z" fill="#231F20"/>
<path d="M163.02 12.7933C166.06 12.7933 167.327 14.5667 167.707 16.5933H171.38C171 12.54 168.34 9.5 163.02 9.5C157.953 9.5 154.28 13.3 154.28 19C154.28 24.8267 157.953 28.5 163.02 28.5C168.467 28.5 171 25.46 171.38 21.4067H167.707C167.453 23.4333 166.187 25.2067 163.147 25.2067C160.233 25.2067 158.08 22.9267 158.08 19C157.953 15.2 160.233 12.7933 163.02 12.7933Z" fill="#231F20"/>
<path d="M182.653 17.7333L189.493 9.7533H185.06L177.46 19V9.7533H173.787V28.3733H177.46V23.4333L180.12 20.3933L185.693 28.3733H190L182.653 17.7333Z" fill="#231F20"/>
<path d="M15.7067 35.9733L0.633333 29.7667C0.126667 29.5133 0 29.5133 0 28.88V8.86668C0 8.36002 0.126667 8.23335 0.633333 7.98002L15.7067 2.15335C16.2133 2.02668 16.34 2.02668 16.8467 2.15335L31.92 7.98002C32.4267 8.23335 32.5533 8.36002 32.5533 8.86668V29.0067C32.5533 29.5133 32.4267 29.64 31.92 29.8933L16.8467 35.9733C16.34 36.1 16.2133 36.2267 15.7067 35.9733ZM16.2133 34.3267L29.3867 29.1333L16.2133 24.32L3.04 29.0067L16.2133 34.3267ZM1.77333 27.74L13.68 23.3067L11.5267 22.42C11.4 22.2933 11.2733 22.1667 11.2733 22.04V15.8333C11.2733 15.58 11.4 15.4533 11.5267 15.4533L13.68 14.5667L1.77333 10.0067V27.74ZM30.6533 27.74V10.1333L18.7467 14.5667L20.9 15.4533C21.0267 15.58 21.1533 15.7067 21.1533 15.8333V22.04C21.1533 22.1667 21.0267 22.42 20.9 22.42L18.7467 23.3067L30.6533 27.74ZM16.2133 22.2933L19.38 21.0267V16.5933L16.2133 15.3267L13.0467 16.5933V21.0267L16.2133 22.2933ZM16.2133 13.5533L29.3867 8.74002L16.2133 3.67335L3.04 8.74002L16.2133 13.5533Z" fill="#231F20"/>
<path d="M31.7933 8.10661L16.72 2.15328C16.5933 2.15328 16.34 2.02661 16.2133 2.02661C16.0866 2.02661 15.8333 2.02661 15.7066 2.15328L0.633315 8.10661C0.379981 8.10661 0.126648 8.48661 0.126648 8.86661V29.0066C0.126648 29.3866 0.379981 29.6399 0.633315 29.7666L15.58 35.8466C15.7066 35.8466 15.96 35.9733 16.0866 35.9733C16.2133 35.9733 16.4666 35.9733 16.5933 35.8466L31.54 29.7666C31.7933 29.6399 32.0466 29.3866 32.0466 29.0066V8.86661C32.3 8.48661 32.0466 8.10661 31.7933 8.10661ZM16.2133 3.54661L29.7666 8.73994L16.2133 13.6799L2.65998 8.73994L16.2133 3.54661ZM16.2133 15.1999L19.5066 16.5933V21.1533L16.2133 22.5466L12.92 21.1533V16.5933L16.2133 15.1999ZM1.64665 9.87994L14.06 14.5666L11.5266 15.5799C11.4 15.5799 11.2733 15.7066 11.2733 15.8333V22.0399C11.2733 22.1666 11.4 22.2933 11.4 22.2933L13.9333 23.3066L1.64665 27.8666V9.87994ZM16.2133 34.4533L2.65998 29.0066L16.2133 24.0666L29.7666 29.0066L16.2133 34.4533ZM30.78 27.8666L18.3666 23.3066L20.9 22.2933C21.0266 22.2933 21.0266 22.1666 21.0266 22.0399V15.7066C21.0266 15.5799 20.9 15.4533 20.9 15.4533L18.3666 14.4399L30.78 9.75328V27.8666Z" fill="#231F20"/>
</g>
<defs>
<clipPath id="clip0">
<rect width="190" height="38" fill="white"/>
</clipPath>
</defs>
</svg>
