<svg width="20" height="20" viewBox="0 0 20 20" fill="none" xmlns="http://www.w3.org/2000/svg">
<path d="M16.8571 13.0477V6.95243C16.8569 6.68521 16.7863 6.42276 16.6526 6.19141C16.5189 5.96006 16.3266 5.76795 16.0952 5.63434L10.7619 2.58672C10.5302 2.45298 10.2675 2.38257 9.99999 2.38257C9.73251 2.38257 9.46974 2.45298 9.23809 2.58672L3.90476 5.63434C3.67334 5.76795 3.48112 5.96006 3.34739 6.19141C3.21367 6.42276 3.14313 6.68521 3.14285 6.95243V13.0477C3.14313 13.3149 3.21367 13.5773 3.34739 13.8087C3.48112 14.04 3.67334 14.2322 3.90476 14.3658L9.23809 17.4134C9.46974 17.5471 9.73251 17.6175 9.99999 17.6175C10.2675 17.6175 10.5302 17.5471 10.7619 17.4134L16.0952 14.3658C16.3266 14.2322 16.5189 14.04 16.6526 13.8087C16.7863 13.5773 16.8569 13.3149 16.8571 13.0477Z" stroke="#4F4F4F" stroke-width="2" stroke-linecap="round" stroke-linejoin="round"/>
<path d="M3.34857 6.16003L10 10.0077L16.6514 6.16003" stroke="#4F4F4F" stroke-width="2" stroke-linecap="round" stroke-linejoin="round"/>
<path d="M10 17.68V10" stroke="#4F4F4F" stroke-width="2" stroke-linecap="round" stroke-linejoin="round"/>
</svg>
