<svg width="1440" height="753" viewBox="0 0 1440 753" fill="none" xmlns="http://www.w3.org/2000/svg">
<g opacity="0.1">
<mask id="mask0" mask-type="alpha" maskUnits="userSpaceOnUse" x="0" y="0" width="1440" height="753">
<rect width="1440" height="752.581" fill="url(#paint0_linear)"/>
</mask>
<g mask="url(#mask0)">
<line x1="32.6223" y1="2.18557e-08" x2="32.6223" y2="752.581" stroke="#747474"/>
<line x1="78.5115" y1="2.18557e-08" x2="78.5114" y2="752.581" stroke="#747474"/>
<line x1="124.401" y1="2.18557e-08" x2="124.401" y2="752.581" stroke="#747474"/>
<line x1="170.29" y1="2.18557e-08" x2="170.29" y2="752.581" stroke="#747474"/>
<line x1="216.179" y1="2.18557e-08" x2="216.179" y2="752.581" stroke="#747474"/>
<line x1="262.068" y1="2.18557e-08" x2="262.068" y2="752.581" stroke="#747474"/>
<line x1="307.957" y1="2.18557e-08" x2="307.957" y2="752.581" stroke="#747474"/>
<line x1="353.846" y1="2.18557e-08" x2="353.846" y2="752.581" stroke="#747474"/>
<line x1="399.735" y1="2.18557e-08" x2="399.735" y2="752.581" stroke="#747474"/>
<line x1="445.624" y1="2.18557e-08" x2="445.624" y2="752.581" stroke="#747474"/>
<line x1="491.513" y1="2.18557e-08" x2="491.513" y2="752.581" stroke="#747474"/>
<line x1="537.402" y1="2.18557e-08" x2="537.402" y2="752.581" stroke="#747474"/>
<line x1="583.292" y1="2.18557e-08" x2="583.291" y2="752.581" stroke="#747474"/>
<line x1="629.181" y1="2.18557e-08" x2="629.181" y2="752.581" stroke="#747474"/>
<line x1="675.07" y1="2.18557e-08" x2="675.07" y2="752.581" stroke="#747474"/>
<line x1="720.959" y1="2.18557e-08" x2="720.959" y2="752.581" stroke="#747474"/>
<line x1="766.848" y1="2.18557e-08" x2="766.848" y2="752.581" stroke="#747474"/>
<line x1="812.737" y1="2.18557e-08" x2="812.737" y2="752.581" stroke="#747474"/>
<line x1="858.626" y1="2.18557e-08" x2="858.626" y2="752.581" stroke="#747474"/>
<line x1="904.515" y1="2.18557e-08" x2="904.515" y2="752.581" stroke="#747474"/>
<line x1="950.404" y1="2.18557e-08" x2="950.404" y2="752.581" stroke="#747474"/>
<line x1="996.293" y1="2.18557e-08" x2="996.293" y2="752.581" stroke="#747474"/>
<line x1="1042.18" y1="2.18557e-08" x2="1042.18" y2="752.581" stroke="#747474"/>
<line x1="1088.07" y1="2.18557e-08" x2="1088.07" y2="752.581" stroke="#747474"/>
<line x1="1133.96" y1="2.18557e-08" x2="1133.96" y2="752.581" stroke="#747474"/>
<line x1="1179.85" y1="2.18557e-08" x2="1179.85" y2="752.581" stroke="#747474"/>
<line x1="1225.74" y1="2.18557e-08" x2="1225.74" y2="752.581" stroke="#747474"/>
<line x1="1271.63" y1="2.18557e-08" x2="1271.63" y2="752.581" stroke="#747474"/>
<line x1="1317.52" y1="2.18557e-08" x2="1317.52" y2="752.581" stroke="#747474"/>
<line x1="1363.41" y1="2.18557e-08" x2="1363.41" y2="752.581" stroke="#747474"/>
<line x1="1409.3" y1="2.18557e-08" x2="1409.3" y2="752.581" stroke="#747474"/>
<line x1="1440" y1="32.6223" x2="-8.3638e-08" y2="32.6222" stroke="#747474"/>
<line x1="1440" y1="78.5115" x2="-8.3638e-08" y2="78.5114" stroke="#747474"/>
<line x1="1440" y1="124.401" x2="-8.3638e-08" y2="124.401" stroke="#747474"/>
<line x1="1440" y1="170.29" x2="-8.3638e-08" y2="170.29" stroke="#747474"/>
<line x1="1440" y1="216.179" x2="-8.3638e-08" y2="216.179" stroke="#747474"/>
<line x1="1440" y1="262.068" x2="-8.3638e-08" y2="262.068" stroke="#747474"/>
<line x1="1440" y1="307.957" x2="-8.3638e-08" y2="307.957" stroke="#747474"/>
<line x1="1440" y1="353.846" x2="-8.3638e-08" y2="353.846" stroke="#747474"/>
<line x1="1440" y1="399.735" x2="-8.3638e-08" y2="399.735" stroke="#747474"/>
<line x1="1440" y1="445.624" x2="-8.3638e-08" y2="445.624" stroke="#747474"/>
<line x1="1440" y1="491.513" x2="-8.3638e-08" y2="491.513" stroke="#747474"/>
<line x1="1440" y1="537.403" x2="-8.3638e-08" y2="537.402" stroke="#747474"/>
<line x1="1440" y1="583.292" x2="-8.3638e-08" y2="583.292" stroke="#747474"/>
<line x1="1440" y1="629.181" x2="-8.3638e-08" y2="629.181" stroke="#747474"/>
<line x1="1440" y1="675.07" x2="-8.3638e-08" y2="675.07" stroke="#747474"/>
<line x1="1440" y1="720.959" x2="-8.3638e-08" y2="720.959" stroke="#747474"/>
</g>
</g>
<defs>
<linearGradient id="paint0_linear" x1="720" y1="0" x2="720" y2="752.581" gradientUnits="userSpaceOnUse">
<stop offset="0.260417" stop-color="#C4C4C4" stop-opacity="0.85"/>
<stop offset="0.473106" stop-color="#C4C4C4"/>
<stop offset="0.776042" stop-color="#C4C4C4" stop-opacity="0.87"/>
<stop offset="1" stop-color="#C4C4C4" stop-opacity="0"/>
</linearGradient>
</defs>
</svg>
