<svg width="161" height="14" viewBox="0 0 161 14" fill="none" xmlns="http://www.w3.org/2000/svg">
<path d="M157.061 13.8529C156.361 13.8529 155.723 13.5167 155.351 12.9562L148.708 2.83365L147.68 2.82664V13.8529H144.891V2.02454C144.891 0.966749 145.797 0.105103 146.91 0.105103H148.83C149.53 0.105103 150.167 0.441355 150.539 1.00528L157.183 11.1279L158.211 11.1349V0.105103H161V11.9335C161 12.9913 160.093 13.8529 158.981 13.8529H157.061Z" fill="black"/>
<path d="M100.539 13.958V9.22942H91.1804V13.9615H88.347V2.9282C88.347 1.37303 89.6771 0.108582 91.3131 0.108582H100.41C102.046 0.108582 103.376 1.37303 103.376 2.9282V13.9615H100.539V13.958ZM100.539 2.8021H91.1804V6.5359H100.539V2.8021Z" fill="black"/>
<path d="M78.9404 11.1664C79.7436 11.1664 80.4805 10.9807 81.1585 10.6095C81.8328 10.2382 82.367 9.7303 82.7576 9.08932C83.1482 8.44834 83.3435 7.74431 83.3435 6.98074C83.3435 6.21716 83.1482 5.51664 82.7576 4.87215C82.367 4.23117 81.8328 3.72329 81.1585 3.35201C80.4842 2.98074 79.7436 2.7951 78.9404 2.7951H74.2425V11.1699H78.9404V11.1664ZM71.3022 0H78.9367C80.2668 0 81.4975 0.311734 82.6213 0.935201C83.7451 1.55867 84.6368 2.4063 85.2926 3.47461C85.9485 4.54641 86.2764 5.71278 86.2764 6.97723C86.2764 8.37478 85.8785 9.64974 85.0789 10.8091C84.5299 11.6077 83.8077 12.2907 82.9713 12.8161C81.7517 13.5762 80.4069 13.958 78.9367 13.958H71.3022V0Z" fill="black"/>
<path d="M124.917 0H121.98V13.958H124.917V0Z" fill="black"/>
<path d="M2.71371 0H15.0939V2.79159H3.63486V5.58319H15.0939V8.37478H3.63486V13.958H0.698242V1.91594C0.698242 0.858143 1.60097 0 2.71371 0Z" fill="black"/>
<path d="M15.0944 5.54834H0.731934V8.40999H15.0944V5.54834Z" fill="black"/>
<path d="M130.684 13.958C129.099 13.958 127.81 12.732 127.81 11.2259V2.73205C127.81 1.22592 129.099 0 130.684 0H139.589C141.174 0 142.463 1.22592 142.463 2.73205V11.2294C142.463 12.7356 141.174 13.9615 139.589 13.9615H130.684V13.958ZM139.803 2.51489H130.47V11.4431H139.803V2.51489Z" fill="black"/>
<path d="M105.333 0V2.79159H111.207V13.958H114.143V2.79159H120.017V0H105.333Z" fill="black"/>
<path d="M20.6284 13.958C19.044 13.958 17.7544 12.732 17.7544 11.2259V2.73205C17.7544 1.22592 19.044 0 20.6284 0H29.534C31.1184 0 32.4043 1.22592 32.4043 2.73205V11.2294C32.4043 12.7356 31.1147 13.9615 29.534 13.9615H20.6284V13.958ZM29.7477 2.51489H20.4147V11.4431H29.7477V2.51489Z" fill="black"/>
<path d="M35.1416 0V0.728546V11.2294C35.1416 12.7356 36.4312 13.9615 38.0156 13.9615H46.9212C48.5056 13.9615 49.7952 12.7356 49.7952 11.2294V0H46.9581L47.006 11.3065H37.9345V0H35.1416Z" fill="black"/>
<path d="M64.49 13.8528C63.7899 13.8528 63.1525 13.5165 62.7804 12.9561L56.1371 2.83353L55.1091 2.82652V13.8528H52.3198V2.02442C52.3198 0.966627 53.2262 0.10498 54.339 0.10498H56.2586C56.9587 0.10498 57.5962 0.441233 57.9683 1.00516L64.6116 11.1277L65.6396 11.1348V0.10498H68.4288V11.9334C68.4288 12.9911 67.5224 13.8528 66.4097 13.8528H64.49Z" fill="black"/>
</svg>
