<svg width="192" height="14" viewBox="0 0 192 14" fill="none" xmlns="http://www.w3.org/2000/svg">
<g clip-path="url(#clip0_41_141)">
<path d="M188.061 13.8528C187.361 13.8528 186.723 13.5165 186.351 12.9561L179.708 2.83353L178.68 2.82652V13.8528H175.891V2.02442C175.891 0.966627 176.797 0.10498 177.91 0.10498H179.829C180.53 0.10498 181.167 0.441233 181.539 1.00516L188.182 11.1277L189.21 11.1348V0.10498H192V11.9334C192 12.9911 191.093 13.8528 189.98 13.8528H188.061Z" fill="black"/>
<path d="M131.539 13.9578V9.22924H122.181V13.9613H119.347V2.92801C119.347 1.37285 120.677 0.108398 122.313 0.108398H131.41C133.046 0.108398 134.377 1.37285 134.377 2.92801V13.9613H131.539V13.9578ZM131.539 2.80192H122.181V6.53572H131.539V2.80192Z" fill="black"/>
<path d="M109.94 11.1664C110.744 11.1664 111.481 10.9807 112.159 10.6095C112.833 10.2382 113.367 9.7303 113.758 9.08932C114.148 8.44834 114.343 7.74431 114.343 6.98074C114.343 6.21716 114.148 5.51664 113.758 4.87215C113.367 4.23117 112.833 3.72329 112.159 3.35201C111.484 2.98074 110.744 2.7951 109.94 2.7951H105.243V11.1699H109.94V11.1664ZM102.302 0H109.937C111.267 0 112.497 0.311734 113.621 0.935201C114.745 1.55867 115.637 2.4063 116.293 3.47461C116.948 4.54641 117.276 5.71278 117.276 6.97723C117.276 8.37478 116.878 9.64974 116.079 10.8091C115.53 11.6077 114.808 12.2907 113.971 12.8161C112.752 13.5762 111.407 13.958 109.937 13.958H102.302V0Z" fill="black"/>
<path d="M155.917 0H152.98V13.958H155.917V0Z" fill="black"/>
<path d="M33.7137 0H46.0939V2.79159H34.6349V5.58319H46.0939V8.37478H34.6349V13.958H31.6982V1.91594C31.6982 0.858144 32.601 0 33.7137 0Z" fill="black"/>
<path d="M46.0944 5.54834H31.7319V8.40999H46.0944V5.54834Z" fill="black"/>
<path d="M161.684 13.958C160.099 13.958 158.81 12.732 158.81 11.2259V2.73205C158.81 1.22592 160.099 0 161.684 0H170.589C172.174 0 173.463 1.22592 173.463 2.73205V11.2294C173.463 12.7356 172.174 13.9615 170.589 13.9615H161.684V13.958ZM170.803 2.51489H161.47V11.4431H170.803V2.51489Z" fill="black"/>
<path d="M136.333 0V2.79159H142.207V13.958H145.143V2.79159H151.017V0H136.333Z" fill="black"/>
<path d="M51.6284 13.958C50.044 13.958 48.7544 12.732 48.7544 11.2259V2.73205C48.7544 1.22592 50.044 0 51.6284 0H60.534C62.1184 0 63.4043 1.22592 63.4043 2.73205V11.2294C63.4043 12.7356 62.1147 13.9615 60.534 13.9615H51.6284V13.958ZM60.7477 2.51489H51.4147V11.4431H60.7477V2.51489Z" fill="black"/>
<path d="M66.1416 0V0.728546V11.2294C66.1416 12.7356 67.4312 13.9615 69.0156 13.9615H77.9212C79.5056 13.9615 80.7952 12.7356 80.7952 11.2294V0H77.9581L78.006 11.3065H68.9345V0H66.1416Z" fill="black"/>
<path d="M95.49 13.8528C94.7899 13.8528 94.1525 13.5165 93.7804 12.9561L87.1371 2.83353L86.1091 2.82652V13.8528H83.3198V2.02442C83.3198 0.966627 84.2262 0.10498 85.339 0.10498H87.2586C87.9587 0.10498 88.5962 0.441233 88.9683 1.00516L95.6116 11.1277L96.6396 11.1348V0.10498H99.4288V11.9334C99.4288 12.9911 98.5224 13.8528 97.4097 13.8528H95.49Z" fill="black"/>
<path d="M3.05442 10.6866C3.16865 10.578 3.3234 10.515 3.48552 10.515H18.4818C18.7544 10.515 18.8908 10.8302 18.6992 11.0123L15.7368 13.8285C15.6225 13.937 15.4678 14.0001 15.3057 14.0001H0.305725C0.0330654 14.0001 -0.106949 13.6848 0.0883342 13.5027L3.05442 10.6866Z" fill="url(#paint0_linear_41_141)"/>
<path d="M3.0533 0.171629C3.16752 0.0630473 3.32227 0 3.4844 0H18.4807C18.7533 0 18.8896 0.315236 18.698 0.497373L15.7356 3.30998C15.6214 3.41856 15.4667 3.48161 15.3045 3.48161H0.304599C0.0319396 3.48161 -0.108075 3.16637 0.0872084 2.98424L3.0533 0.171629Z" fill="url(#paint1_linear_41_141)"/>
<path d="M15.7367 5.3941C15.6225 5.28552 15.4677 5.22248 15.3056 5.22248H0.305683C0.0330234 5.22248 -0.103306 5.53771 0.0882922 5.71985L3.0507 8.53246C3.16492 8.64104 3.31967 8.70409 3.48179 8.70409H18.4781C18.7507 8.70409 18.8907 8.38885 18.6954 8.20672L15.7367 5.3941Z" fill="url(#paint2_linear_41_141)"/>
</g>
<defs>
<linearGradient id="paint0_linear_41_141" x1="1.85318" y1="1.94538" x2="17.922" y2="7.2287" gradientUnits="userSpaceOnUse">
<stop stop-color="#FF623A"/>
<stop offset="1" stop-color="#9945FF"/>
</linearGradient>
<linearGradient id="paint1_linear_41_141" x1="1.85318" y1="1.94538" x2="17.922" y2="7.2287" gradientUnits="userSpaceOnUse">
<stop stop-color="#FF623A"/>
<stop offset="1" stop-color="#9945FF"/>
</linearGradient>
<linearGradient id="paint2_linear_41_141" x1="1.85318" y1="1.94538" x2="17.922" y2="7.2287" gradientUnits="userSpaceOnUse">
<stop stop-color="#FF623A"/>
<stop offset="1" stop-color="#9945FF"/>
</linearGradient>
<clipPath id="clip0_41_141">
<rect width="192" height="14" fill="white"/>
</clipPath>
</defs>
</svg>
