<svg width="192" height="14" viewBox="0 0 192 14" fill="none" xmlns="http://www.w3.org/2000/svg">
<g clip-path="url(#clip0)">
<path d="M188.061 13.8529C187.361 13.8529 186.724 13.5167 186.351 12.9562L179.708 2.83365L178.68 2.82664V13.8529H175.891V2.02454C175.891 0.966749 176.797 0.105103 177.91 0.105103H179.83C180.53 0.105103 181.167 0.441355 181.539 1.00528L188.183 11.1279L189.211 11.1349V0.105103H192V11.9335C192 12.9913 191.093 13.8529 189.981 13.8529H188.061Z" fill="black"/>
<path d="M131.539 13.9579V9.22936H122.18V13.9614H119.347V2.92813C119.347 1.37297 120.677 0.108521 122.313 0.108521H131.41C133.046 0.108521 134.376 1.37297 134.376 2.92813V13.9614H131.539V13.9579ZM131.539 2.80204H122.18V6.53584H131.539V2.80204Z" fill="black"/>
<path d="M109.941 11.1664C110.744 11.1664 111.481 10.9807 112.159 10.6095C112.833 10.2382 113.367 9.7303 113.758 9.08932C114.148 8.44834 114.344 7.74431 114.344 6.98074C114.344 6.21716 114.148 5.51664 113.758 4.87215C113.367 4.23117 112.833 3.72329 112.159 3.35201C111.484 2.98074 110.744 2.7951 109.941 2.7951H105.243V11.1699H109.941V11.1664ZM102.302 0H109.937C111.267 0 112.498 0.311734 113.621 0.935201C114.745 1.55867 115.637 2.4063 116.293 3.47461C116.949 4.54641 117.277 5.71278 117.277 6.97723C117.277 8.37478 116.879 9.64974 116.079 10.8091C115.53 11.6077 114.808 12.2907 113.971 12.8161C112.752 13.5762 111.407 13.958 109.937 13.958H102.302V0Z" fill="black"/>
<path d="M155.917 0H152.98V13.958H155.917V0Z" fill="black"/>
<path d="M33.714 0H46.0942V2.79159H34.6351V5.58319H46.0942V8.37478H34.6351V13.958H31.6985V1.91594C31.6985 0.858144 32.6012 0 33.714 0Z" fill="black"/>
<path d="M46.0942 5.54822H31.7317V8.40986H46.0942V5.54822Z" fill="black"/>
<path d="M161.683 13.958C160.099 13.958 158.809 12.732 158.809 11.2259V2.73205C158.809 1.22592 160.099 0 161.683 0H170.589C172.173 0 173.463 1.22592 173.463 2.73205V11.2294C173.463 12.7356 172.173 13.9615 170.589 13.9615H161.683V13.958ZM170.803 2.51489H161.47V11.4431H170.803V2.51489Z" fill="black"/>
<path d="M136.333 0V2.79159H142.206V13.958H145.143V2.79159H151.016V0H136.333Z" fill="black"/>
<path d="M51.6282 13.958C50.0439 13.958 48.7543 12.732 48.7543 11.2259V2.73205C48.7543 1.22592 50.0439 0 51.6282 0H60.5339C62.1183 0 63.4042 1.22592 63.4042 2.73205V11.2294C63.4042 12.7356 62.1146 13.9615 60.5339 13.9615H51.6282V13.958ZM60.7476 2.51489H51.4145V11.4431H60.7476V2.51489Z" fill="black"/>
<path d="M66.1417 0V0.728546V11.2294C66.1417 12.7356 67.4313 13.9615 69.0157 13.9615H77.9213C79.5057 13.9615 80.7953 12.7356 80.7953 11.2294V0H77.9582L78.0061 11.3065H68.9346V0H66.1417Z" fill="black"/>
<path d="M95.4898 13.8529C94.7897 13.8529 94.1523 13.5167 93.7801 12.9562L87.1368 2.83365L86.1088 2.82664V13.8529H83.3196V2.02454C83.3196 0.966749 84.226 0.105103 85.3387 0.105103H87.2584C87.9585 0.105103 88.5959 0.441355 88.9681 1.00528L95.6114 11.1279L96.6394 11.1349V0.105103H99.4286V11.9335C99.4286 12.9913 98.5222 13.8529 97.4094 13.8529H95.4898Z" fill="black"/>
<path d="M3.0543 10.6866C3.16852 10.578 3.32328 10.515 3.4854 10.515H18.4817C18.7543 10.515 18.8906 10.8302 18.699 11.0123L15.7366 13.8285C15.6224 13.937 15.4677 14.0001 15.3055 14.0001H0.305603C0.0329433 14.0001 -0.107071 13.6848 0.0882121 13.5027L3.0543 10.6866Z" fill="url(#paint0_linear)"/>
<path d="M3.05318 0.171629C3.1674 0.0630473 3.32215 0 3.48427 0H18.4805C18.7532 0 18.8895 0.315236 18.6979 0.497373L15.7355 3.30998C15.6213 3.41856 15.4665 3.48161 15.3044 3.48161H0.304477C0.0318176 3.48161 -0.108197 3.16637 0.0870863 2.98424L3.05318 0.171629Z" fill="url(#paint1_linear)"/>
<path d="M15.7366 5.3941C15.6224 5.28552 15.4676 5.22248 15.3055 5.22248H0.30556C0.0329013 5.22248 -0.103428 5.53771 0.0881701 5.71985L3.05058 8.53246C3.1648 8.64104 3.31955 8.70409 3.48167 8.70409H18.4779C18.7506 8.70409 18.8906 8.38885 18.6953 8.20672L15.7366 5.3941Z" fill="url(#paint2_linear)"/>
</g>
<defs>
<linearGradient id="paint0_linear" x1="1.85305" y1="1.94538" x2="17.9219" y2="7.2287" gradientUnits="userSpaceOnUse">
<stop stop-color="#FF623A"/>
<stop offset="1" stop-color="#9945FF"/>
</linearGradient>
<linearGradient id="paint1_linear" x1="1.85305" y1="1.94538" x2="17.9219" y2="7.2287" gradientUnits="userSpaceOnUse">
<stop stop-color="#FF623A"/>
<stop offset="1" stop-color="#9945FF"/>
</linearGradient>
<linearGradient id="paint2_linear" x1="1.85305" y1="1.94538" x2="17.9219" y2="7.2287" gradientUnits="userSpaceOnUse">
<stop stop-color="#FF623A"/>
<stop offset="1" stop-color="#9945FF"/>
</linearGradient>
<clipPath id="clip0">
<rect width="192" height="14" fill="white"/>
</clipPath>
</defs>
</svg>
