<svg width="192" height="15" viewBox="0 0 192 15" fill="none" xmlns="http://www.w3.org/2000/svg">
<g clip-path="url(#clip0_1059_806)">
<path d="M188.062 13.8567C187.362 13.8567 186.724 13.5204 186.352 12.96L179.709 2.83743L178.681 2.83043V13.8567H175.892V2.02833C175.892 0.970533 176.798 0.108887 177.911 0.108887H179.83C180.53 0.108887 181.168 0.445139 181.54 1.00906L188.183 11.1317L189.211 11.1387V0.108887H192.001V11.9373C192.001 12.9951 191.094 13.8567 189.981 13.8567H188.062Z" fill="#F9F9FC"/>
<path d="M131.54 13.9617V9.23315H122.181V13.9652H119.348V2.93192C119.348 1.37675 120.678 0.112305 122.314 0.112305H131.411C133.047 0.112305 134.377 1.37675 134.377 2.93192V13.9652H131.54V13.9617ZM131.54 2.80582H122.181V6.53963H131.54V2.80582Z" fill="#F9F9FC"/>
<path d="M109.941 11.1703C110.744 11.1703 111.481 10.9846 112.159 10.6134C112.833 10.2421 113.368 9.7342 113.758 9.09322C114.149 8.45224 114.344 7.74821 114.344 6.98464C114.344 6.22107 114.149 5.52054 113.758 4.87606C113.368 4.23508 112.833 3.7272 112.159 3.35592C111.485 2.98464 110.744 2.799 109.941 2.799H105.243V11.1738H109.941V11.1703ZM102.303 0.00390625H109.937C111.267 0.00390625 112.498 0.31564 113.622 0.939108C114.746 1.56258 115.637 2.41021 116.293 3.47851C116.949 4.55032 117.277 5.71669 117.277 6.98114C117.277 8.37869 116.879 9.65364 116.079 10.813C115.53 11.6116 114.808 12.2946 113.972 12.82C112.752 13.5801 111.407 13.9619 109.937 13.9619H102.303V0.00390625Z" fill="#F9F9FC"/>
<path d="M155.917 0.00390625H152.98V13.9619H155.917V0.00390625Z" fill="#F9F9FC"/>
<path d="M33.7137 0.00390625H46.0939V2.7955H34.6349V5.58709H46.0939V8.37869H34.6349V13.9619H31.6982V1.91984C31.6982 0.86205 32.601 0.00390625 33.7137 0.00390625Z" fill="#F9F9FC"/>
<path d="M46.094 5.55225H31.7314V8.41389H46.094V5.55225Z" fill="#F9F9FC"/>
<path d="M161.684 13.9619C160.099 13.9619 158.81 12.736 158.81 11.2298V2.73596C158.81 1.22983 160.099 0.00390625 161.684 0.00390625H170.589C172.174 0.00390625 173.463 1.22983 173.463 2.73596V11.2333C173.463 12.7395 172.174 13.9654 170.589 13.9654H161.684V13.9619ZM170.803 2.51879H161.47V11.447H170.803V2.51879Z" fill="#F9F9FC"/>
<path d="M136.333 0.00390625V2.7955H142.207V13.9619H145.143V2.7955H151.017V0.00390625H136.333Z" fill="#F9F9FC"/>
<path d="M51.6284 13.9619C50.044 13.9619 48.7544 12.736 48.7544 11.2298V2.73596C48.7544 1.22983 50.044 0.00390625 51.6284 0.00390625H60.534C62.1184 0.00390625 63.4043 1.22983 63.4043 2.73596V11.2333C63.4043 12.7395 62.1147 13.9654 60.534 13.9654H51.6284V13.9619ZM60.7477 2.51879H51.4147V11.447H60.7477V2.51879Z" fill="#F9F9FC"/>
<path d="M66.1416 0.00390625V0.732453V11.2333C66.1416 12.7395 67.4312 13.9654 69.0156 13.9654H77.9212C79.5056 13.9654 80.7952 12.7395 80.7952 11.2333V0.00390625H77.9581L78.006 11.3104H68.9345V0.00390625H66.1416Z" fill="#F9F9FC"/>
<path d="M95.49 13.8567C94.7899 13.8567 94.1525 13.5204 93.7804 12.96L87.1371 2.83743L86.1091 2.83043V13.8567H83.3198V2.02833C83.3198 0.970533 84.2262 0.108887 85.339 0.108887H87.2586C87.9587 0.108887 88.5962 0.445139 88.9683 1.00906L95.6116 11.1317L96.6396 11.1387V0.108887H99.4288V11.9373C99.4288 12.9951 98.5224 13.8567 97.4097 13.8567H95.49Z" fill="#F9F9FC"/>
<path d="M3.05428 10.6907C3.1685 10.5821 3.32325 10.519 3.48537 10.519H18.4816C18.7543 10.519 18.8906 10.8343 18.699 11.0164L15.7366 13.8325C15.6224 13.9411 15.4676 14.0042 15.3055 14.0042H0.305575C0.0329162 14.0042 -0.107098 13.6889 0.088185 13.5068L3.05428 10.6907Z" fill="#F9F9FC"/>
<path d="M3.0533 0.175535C3.16752 0.0669535 3.32227 0.00390625 3.4844 0.00390625H18.4807C18.7533 0.00390625 18.8896 0.319143 18.698 0.501279L15.7356 3.31389C15.6214 3.42247 15.4667 3.48552 15.3045 3.48552H0.304599C0.0319396 3.48552 -0.108075 3.17028 0.0872084 2.98814L3.0533 0.175535Z" fill="#F9F9FC"/>
<path d="M15.7369 5.39819C15.6227 5.28961 15.468 5.22656 15.3058 5.22656H0.305892C0.033233 5.22656 -0.103097 5.5418 0.0885018 5.72394L3.05091 8.53655C3.16513 8.64513 3.31988 8.70818 3.482 8.70818H18.4783C18.7509 8.70818 18.8909 8.39294 18.6957 8.2108L15.7369 5.39819Z" fill="#F9F9FC"/>
</g>
<defs>
<clipPath id="clip0_1059_806">
<rect width="192" height="14" fill="white" transform="translate(0 0.00390625)"/>
</clipPath>
</defs>
</svg>
