<svg viewBox="0 0 192 11" fill="none" xmlns="http://www.w3.org/2000/svg">
<g clip-path="url(#clip0)">
<path d="M188.061 10.8844C187.361 10.8844 186.724 10.6202 186.351 10.1798L179.708 2.22638L178.68 2.22087V10.8844H175.891V1.59065C175.891 0.759527 176.797 0.0825195 177.91 0.0825195H179.83C180.53 0.0825195 181.167 0.346718 181.539 0.7898L188.183 8.74327L189.211 8.74877V0.0825195H192V9.37624C192 10.2074 191.093 10.8844 189.981 10.8844H188.061Z" fill="currentColor"/>
<path d="M131.539 10.9671V7.25182H122.181V10.9699H119.347V2.30086C119.347 1.07894 120.677 0.0854492 122.313 0.0854492H131.41C133.046 0.0854492 134.377 1.07894 134.377 2.30086V10.9699H131.539V10.9671ZM131.539 2.20179H122.181V5.13549H131.539V2.20179Z" fill="currentColor"/>
<path d="M109.941 8.77358C110.744 8.77358 111.481 8.62772 112.159 8.336C112.833 8.04428 113.367 7.64523 113.758 7.14161C114.148 6.63798 114.344 6.08481 114.344 5.48486C114.344 4.88491 114.148 4.3345 113.758 3.82812C113.367 3.32449 112.833 2.92544 112.159 2.63372C111.484 2.34201 110.744 2.19615 109.941 2.19615H105.243V8.77633H109.941V8.77358ZM102.302 0H109.937C111.267 0 112.498 0.244934 113.621 0.734801C114.745 1.22467 115.637 1.89067 116.293 2.73005C116.949 3.57218 117.277 4.48862 117.277 5.48211C117.277 6.58018 116.879 7.58194 116.079 8.49287C115.53 9.12034 114.808 9.65699 113.971 10.0698C112.752 10.667 111.407 10.967 109.937 10.967H102.302V0Z" fill="currentColor"/>
<path d="M155.917 0H152.98V10.967H155.917V0Z" fill="currentColor"/>
<path d="M33.7139 0H46.0941V2.19339H34.6351V4.38679H46.0941V6.58018H34.6351V10.967H31.6985V1.50538C31.6985 0.674256 32.6012 0 33.7139 0Z" fill="currentColor"/>
<path d="M46.0942 4.35938H31.7317V6.60781H46.0942V4.35938Z" fill="currentColor"/>
<path d="M161.683 10.967C160.099 10.967 158.809 10.0038 158.809 8.82037V2.14661C158.809 0.963222 160.099 0 161.683 0H170.589C172.173 0 173.463 0.963222 173.463 2.14661V8.82312C173.463 10.0065 172.173 10.9697 170.589 10.9697H161.683V10.967ZM170.803 1.97598H161.47V8.99099H170.803V1.97598Z" fill="currentColor"/>
<path d="M136.333 0V2.19339H142.207V10.967H145.143V2.19339H151.016V0H136.333Z" fill="currentColor"/>
<path d="M51.6282 10.967C50.0439 10.967 48.7543 10.0038 48.7543 8.82037V2.14661C48.7543 0.963222 50.0439 0 51.6282 0H60.5339C62.1183 0 63.4042 0.963222 63.4042 2.14661V8.82312C63.4042 10.0065 62.1146 10.9697 60.5339 10.9697H51.6282V10.967ZM60.7476 1.97598H51.4145V8.99099H60.7476V1.97598Z" fill="currentColor"/>
<path d="M66.1417 0V0.572429V8.82312C66.1417 10.0065 67.4313 10.9697 69.0157 10.9697H77.9213C79.5057 10.9697 80.7953 10.0065 80.7953 8.82312V0H77.9582L78.0061 8.88366H68.9346V0H66.1417Z" fill="currentColor"/>
<path d="M95.4898 10.8844C94.7897 10.8844 94.1523 10.6202 93.7801 10.1798L87.1368 2.22638L86.1088 2.22087V10.8844H83.3196V1.59065C83.3196 0.759527 84.226 0.0825195 85.3387 0.0825195H87.2584C87.9585 0.0825195 88.5959 0.346718 88.9681 0.7898L95.6114 8.74327L96.6394 8.74877V0.0825195H99.4286V9.37624C99.4286 10.2074 98.5222 10.8844 97.4094 10.8844H95.4898Z" fill="currentColor"/>
<path d="M3.05428 8.39657C3.1685 8.31126 3.32325 8.26172 3.48537 8.26172H18.4816C18.7543 8.26172 18.8906 8.5094 18.699 8.65251L15.7366 10.8652C15.6224 10.9505 15.4676 11 15.3055 11H0.305575C0.0329162 11 -0.107098 10.7523 0.088185 10.6092L3.05428 8.39657Z" fill="currentColor"/>
<path d="M3.05315 0.134851C3.16737 0.0495372 3.32212 0 3.48424 0H18.4805C18.7532 0 18.8895 0.247686 18.6979 0.390793L15.7355 2.6007C15.6213 2.68601 15.4665 2.73555 15.3044 2.73555H0.304446C0.031787 2.73555 -0.108227 2.48787 0.0870558 2.34476L3.05315 0.134851Z" fill="currentColor"/>
<path d="M15.7366 4.23837C15.6223 4.15305 15.4676 4.10352 15.3055 4.10352H0.305526C0.0328668 4.10352 -0.103463 4.3512 0.0881356 4.49431L3.05054 6.70422C3.16476 6.78953 3.31952 6.83907 3.48164 6.83907H18.4779C18.7506 6.83907 18.8906 6.59138 18.6953 6.44828L15.7366 4.23837Z" fill="currentColor"/>
</g>
<defs>
<clipPath id="clip0">
<rect width="192" height="11" fill="white"/>
</clipPath>
</defs>
</svg>
