<svg width="26" height="32" viewBox="0 0 26 32" fill="none" xmlns="http://www.w3.org/2000/svg">
<path fill-rule="evenodd" clip-rule="evenodd" d="M11.3922 17.9857C14.5317 18.4889 17.4847 16.3517 17.9879 13.2121C18.4911 10.0725 16.3539 7.11952 13.2144 6.61634C10.0748 6.11315 7.12177 8.25035 6.61859 11.3899C6.1154 14.5295 8.2526 17.4825 11.3922 17.9857ZM10.9802 20.5563C15.5394 21.287 19.8278 18.1834 20.5585 13.6241C21.2892 9.06485 18.1856 4.77648 13.6263 4.04575C9.0671 3.31503 4.77872 6.41866 4.048 10.9779C3.31727 15.5372 6.42091 19.8255 10.9802 20.5563Z" fill="white"/>
<path fill-rule="evenodd" clip-rule="evenodd" d="M18.2971 20.9155C18.8794 20.494 19.6932 20.6245 20.1147 21.2068L23.5589 25.9657C23.9804 26.5481 23.8499 27.3619 23.2676 27.7834C22.6852 28.2049 21.8714 28.0745 21.4499 27.4921L18.0057 22.7332C17.5842 22.1508 17.7147 21.337 18.2971 20.9155Z" fill="white"/>
</svg>
