<svg width="200" height="100" viewBox="0 0 200 100" fill="none" xmlns="http://www.w3.org/2000/svg">
<path d="M38.2046 66.31C35.2954 66.3076 32.4414 65.516 29.9466 64.0196C27.4518 62.5231 25.4097 60.3778 24.0379 57.8124C22.6661 55.2469 22.016 52.3573 22.1568 49.4516C22.2977 46.5458 23.2242 43.7326 24.8377 41.3119C26.4512 38.8911 28.6912 36.9534 31.319 35.7052C33.9468 34.4571 36.8641 33.9452 39.7599 34.2241C42.6556 34.5031 45.4215 35.5624 47.7628 37.2893C50.104 39.0161 51.9329 41.3458 53.0546 44.03H57.4346C55.9635 39.444 52.9023 35.5345 48.8029 33.0065C44.7035 30.4785 39.8358 29.4984 35.0775 30.2428C30.3192 30.9873 25.9834 33.4075 22.8521 37.0668C19.7208 40.7261 18 45.3838 18 50.2C18 55.0162 19.7208 59.674 22.8521 63.3333C25.9834 66.9926 30.3192 69.4128 35.0775 70.1572C39.8358 70.9017 44.7035 69.9216 48.8029 67.3936C52.9023 64.8656 55.9635 60.9561 57.4346 56.37H53.0546C51.8378 59.3083 49.7781 61.8204 47.1353 63.5894C44.4924 65.3584 41.3849 66.3051 38.2046 66.31Z" fill="black"/>
<path d="M45.7546 52.29C45.2556 54.1226 44.1082 55.7117 42.5258 56.762C40.9434 57.8124 39.0335 58.2526 37.1509 58.0008C35.2684 57.7491 33.5412 56.8225 32.2904 55.3933C31.0396 53.964 30.3501 52.1293 30.3501 50.23C30.3501 48.3307 31.0396 46.496 32.2904 45.0668C33.5412 43.6375 35.2684 42.7109 37.1509 42.4592C39.0335 42.2074 40.9434 42.6476 42.5258 43.698C44.1082 44.7484 45.2556 46.3375 45.7546 48.17H54.1546C53.9742 46.7471 53.6043 45.3548 53.0546 44.03H48.4246C47.0751 41.7788 45.0246 40.0322 42.5875 39.0577C40.1504 38.0832 37.461 37.9347 34.9313 38.6348C32.4017 39.335 30.1714 40.8452 28.5821 42.9341C26.9929 45.0229 26.1323 47.5753 26.1323 50.2C26.1323 52.8247 26.9929 55.3771 28.5821 57.466C30.1714 59.5549 32.4017 61.0651 34.9313 61.7652C37.461 62.4654 40.1504 62.3168 42.5875 61.3423C45.0246 60.3679 47.0751 58.6212 48.4246 56.37H53.0546C53.6017 55.0548 53.9716 53.6727 54.1546 52.26L45.7546 52.29ZM57.4346 56.41H61.6946C62.045 55.0592 62.2792 53.6808 62.3946 52.29H58.2646C58.133 53.6886 57.8548 55.0695 57.4346 56.41ZM58.2746 48.17H62.3946C62.2785 46.772 62.0409 45.3868 61.6846 44.03H57.4346C57.8611 45.3762 58.1427 46.7641 58.2746 48.17Z" fill="black"/>
<path d="M58.3745 50.23C58.3745 49.53 58.3745 48.85 58.2745 48.17H54.1545C54.3278 49.5379 54.3278 50.9222 54.1545 52.29H58.2745C58.3345 51.61 58.3745 50.92 58.3745 50.23Z" fill="black"/>
<path d="M38.1846 53.41C39.963 53.41 41.4046 51.9684 41.4046 50.19C41.4046 48.4117 39.963 46.97 38.1846 46.97C36.4062 46.97 34.9646 48.4117 34.9646 50.19C34.9646 51.9684 36.4062 53.41 38.1846 53.41Z" fill="black"/>
<path d="M66.4645 48.17H62.4045C62.4545 48.84 62.4945 49.51 62.4945 50.17C62.4945 50.83 62.4945 51.58 62.3945 52.27H66.4545C66.5145 51.6034 66.5445 50.9034 66.5445 50.17C66.5445 49.51 66.5145 48.84 66.4645 48.17ZM80.8045 57.2C79.5892 57.2021 78.3942 56.8876 77.3373 56.2877C76.2804 55.6877 75.3978 54.8229 74.7766 53.7783C74.1553 52.7337 73.8167 51.5454 73.7941 50.3303C73.7715 49.1151 74.0656 47.915 74.6476 46.8481C75.2296 45.7811 76.0793 44.8841 77.1132 44.2452C78.1471 43.6063 79.3295 43.2477 80.5441 43.2045C81.7587 43.1613 82.9636 43.4351 84.0403 43.9989C85.1169 44.5627 86.0282 45.3971 86.6845 46.42C87.1396 47.0773 87.4498 47.8238 87.5945 48.61H84.0045C83.7673 47.9344 83.3284 47.3477 82.7473 46.9293C82.1661 46.5108 81.4706 46.2807 80.7545 46.27C80.258 46.2826 79.7691 46.3949 79.317 46.6004C78.8648 46.8059 78.4587 47.1004 78.1228 47.4662C77.7868 47.832 77.528 48.2617 77.3616 48.7296C77.1953 49.1976 77.1248 49.6943 77.1545 50.19C77.1249 50.6914 77.1955 51.1937 77.3621 51.6675C77.5288 52.1413 77.7882 52.5772 78.1253 52.9496C78.4623 53.322 78.8702 53.6235 79.325 53.8365C79.7799 54.0495 80.2727 54.1697 80.7745 54.19C81.4772 54.1739 82.1592 53.9495 82.7342 53.5454C83.3092 53.1413 83.7513 52.5756 84.0045 51.92H87.5945C87.2294 53.4398 86.3585 54.7902 85.1246 55.7497C83.8908 56.7092 82.3674 57.2206 80.8045 57.2ZM151.005 57.15C149.179 57.1741 147.417 56.4745 146.106 55.2041C144.794 53.9337 144.039 52.1957 144.005 50.37C143.998 49.3917 144.178 48.4212 144.535 47.51C144.752 46.9712 145.045 46.4661 145.405 46.01C146.113 45.0439 147.058 44.2758 148.149 43.7793C149.239 43.2828 150.439 43.0746 151.633 43.1746C152.827 43.2746 153.975 43.6794 154.968 44.3502C155.961 45.0211 156.765 45.9356 157.303 47.0062C157.841 48.0768 158.096 49.2676 158.042 50.4646C157.988 51.6616 157.628 52.8248 156.996 53.8428C156.364 54.8607 155.481 55.6994 154.432 56.2785C153.383 56.8575 152.203 57.1576 151.005 57.15ZM151.005 46.26C150.505 46.2674 150.011 46.3755 149.554 46.5778C149.097 46.7801 148.685 47.0725 148.344 47.4374C148.002 47.8024 147.738 48.2325 147.566 48.702C147.394 49.1715 147.319 49.6708 147.345 50.17C147.295 50.6761 147.352 51.1869 147.511 51.6699C147.67 52.1528 147.928 52.5973 148.268 52.9751C148.609 53.3528 149.024 53.6555 149.488 53.8638C149.952 54.0721 150.454 54.1815 150.962 54.185C151.471 54.1885 151.974 54.086 152.441 53.8841C152.908 53.6821 153.327 53.3852 153.672 53.0121C154.018 52.6391 154.282 52.1982 154.448 51.7174C154.613 51.2367 154.677 50.7267 154.635 50.22C154.662 49.7261 154.591 49.2317 154.426 48.7652C154.262 48.2986 154.007 47.8691 153.676 47.5013C153.346 47.1334 152.946 46.8344 152.499 46.6214C152.053 46.4084 151.569 46.2856 151.075 46.26H151.005ZM106.725 46.97C106.091 46.955 105.466 47.1215 104.925 47.45C104.402 47.7865 104.005 48.2855 103.795 48.87V47.16H100.695V56.92H103.895V52.09C103.894 51.7903 103.945 51.4926 104.045 51.21C104.142 50.9326 104.299 50.6799 104.505 50.47C104.721 50.2556 104.975 50.0827 105.255 49.96C105.578 49.8509 105.914 49.787 106.255 49.77H106.745L106.725 46.97ZM114.315 49.79H112.315V53.67C112.294 53.8128 112.312 53.9586 112.366 54.0922C112.421 54.2258 112.51 54.3425 112.625 54.43C112.882 54.558 113.168 54.6166 113.455 54.6H113.875C114.011 54.5901 114.148 54.5901 114.285 54.6V56.95L113.415 57C113.121 57.0148 112.828 57.0148 112.535 57C111.97 57.0096 111.406 56.9525 110.855 56.83C110.458 56.7536 110.094 56.5589 109.81 56.2715C109.526 55.9841 109.336 55.6176 109.265 55.22C109.154 54.6738 109.104 54.1172 109.115 53.56V49.79H108.075V47.03H109.145V44.21H112.345V47.03H114.345L114.315 49.79ZM125.655 56.92H122.555V55.58C122.247 56.0878 121.803 56.4998 121.275 56.77C120.753 57.0442 120.174 57.1915 119.585 57.2C118.991 57.217 118.4 57.1185 117.845 56.91C117.387 56.7292 116.989 56.4244 116.695 56.03C116.404 55.6386 116.202 55.1879 116.105 54.71C115.99 54.1574 115.933 53.5944 115.935 53.03V47.16H119.135V52.82C119.107 53.0619 119.129 53.3068 119.197 53.5403C119.266 53.7739 119.381 53.9913 119.535 54.18C119.862 54.4589 120.285 54.5988 120.715 54.57C120.905 54.5684 121.095 54.5346 121.275 54.47C121.487 54.3995 121.681 54.2835 121.845 54.13C122.03 53.9351 122.18 53.7081 122.285 53.46C122.416 53.1192 122.477 52.7552 122.465 52.39V47.16H125.655V56.92ZM130.415 53.7C130.406 53.9104 130.448 54.1197 130.539 54.3096C130.63 54.4996 130.766 54.6646 130.935 54.79C131.095 54.9119 131.279 55.0003 131.475 55.05C131.687 55.1025 131.905 55.1294 132.125 55.13C132.29 55.1281 132.454 55.108 132.615 55.07C132.782 55.039 132.944 54.9817 133.095 54.9C133.24 54.8184 133.369 54.7098 133.475 54.58C133.576 54.441 133.629 54.2722 133.625 54.1C133.63 53.9304 133.569 53.7653 133.455 53.64C133.341 53.5183 133.205 53.4198 133.055 53.35C132.894 53.2682 132.722 53.2109 132.545 53.18L132.065 53.06C131.565 52.94 131.065 52.83 130.515 52.73C130.007 52.6355 129.513 52.4776 129.045 52.26C128.62 52.0654 128.247 51.7744 127.955 51.41C127.648 50.9573 127.5 50.4157 127.535 49.87C127.513 49.3507 127.66 48.8384 127.955 48.41C128.244 48.0319 128.613 47.7214 129.035 47.5C129.49 47.2667 129.979 47.1048 130.485 47.02C130.983 46.931 131.488 46.8841 131.995 46.88C132.524 46.8815 133.053 46.9284 133.575 47.02C134.072 47.1043 134.551 47.2698 134.995 47.51C135.425 47.7473 135.787 48.0918 136.045 48.51C136.33 48.9839 136.483 49.5265 136.485 50.08H133.485C133.497 49.9137 133.465 49.747 133.391 49.5975C133.317 49.448 133.204 49.321 133.065 49.23C132.76 49.0576 132.414 48.9745 132.065 48.99C131.918 48.9803 131.771 48.9803 131.625 48.99C131.471 48.9987 131.32 49.029 131.175 49.08C131.045 49.1292 130.928 49.2079 130.835 49.31C130.786 49.362 130.748 49.4234 130.724 49.4905C130.7 49.5576 130.69 49.6289 130.695 49.7C130.698 49.8161 130.732 49.9293 130.793 50.0278C130.855 50.1263 130.941 50.2065 131.045 50.26C131.323 50.4295 131.627 50.5544 131.945 50.63C132.295 50.72 132.685 50.81 133.115 50.88L134.305 51.11C134.734 51.1903 135.144 51.3497 135.515 51.58C135.808 51.7655 136.066 52.0026 136.275 52.28C136.455 52.5079 136.588 52.7697 136.665 53.05C136.738 53.2729 136.779 53.5054 136.785 53.74C136.804 54.3201 136.654 54.8932 136.355 55.39C136.08 55.8275 135.707 56.1941 135.265 56.46C134.801 56.7374 134.294 56.9336 133.765 57.04C133.219 57.1587 132.663 57.219 132.105 57.22C131.531 57.2223 130.958 57.1687 130.395 57.06C129.86 56.9603 129.346 56.7709 128.875 56.5C128.429 56.2294 128.055 55.8555 127.785 55.41C127.488 54.896 127.329 54.3137 127.325 53.72L130.415 53.7ZM138.745 53.42H142.245V56.92H138.745V53.42ZM159.505 47.16H162.605V48.5C162.757 48.2471 162.945 48.0179 163.165 47.82C163.395 47.6185 163.651 47.4471 163.925 47.31C164.199 47.1724 164.487 47.0651 164.785 46.99C165.073 46.9202 165.368 46.8833 165.665 46.88C166.33 46.8472 166.994 46.9813 167.595 47.27C168.025 47.5065 168.387 47.8512 168.645 48.27C168.877 48.6448 169.031 49.0635 169.095 49.5C169.151 49.8943 169.181 50.2918 169.185 50.69V56.95H166.005V51.25C166.013 50.9571 165.965 50.6653 165.865 50.39C165.777 50.142 165.612 49.9283 165.395 49.78C165.095 49.5956 164.745 49.5115 164.395 49.54C164.124 49.5334 163.855 49.5953 163.615 49.72C163.402 49.835 163.218 49.9955 163.075 50.19C162.932 50.3929 162.827 50.6199 162.765 50.86C162.696 51.1108 162.662 51.37 162.665 51.63V56.95H159.465L159.505 47.16ZM99.2245 52.03C99.2608 51.3266 99.1544 50.6231 98.9116 49.9619C98.6688 49.3007 98.2948 48.6955 97.8119 48.1827C97.3291 47.6699 96.7474 47.2601 96.102 46.978C95.4566 46.6959 94.7608 46.5474 94.0565 46.5413C93.3522 46.5352 92.6539 46.6717 92.0037 46.9427C91.3536 47.2136 90.7649 47.6133 90.2733 48.1177C89.7817 48.6221 89.3972 49.2207 89.1431 49.8776C88.889 50.5346 88.7704 51.2361 88.7945 51.94C88.8057 53.2825 89.3297 54.5699 90.2593 55.5386C91.1889 56.5072 92.4536 57.0837 93.7945 57.15H94.4845C94.9008 57.1512 95.3162 57.111 95.7245 57.03C96.2283 56.9119 96.7108 56.7162 97.1545 56.45C97.5858 56.1879 97.9654 55.849 98.2745 55.45C98.6199 55.0139 98.8687 54.5095 99.0045 53.97H96.0045C95.8685 54.3178 95.6084 54.6028 95.2745 54.77C94.9392 54.9491 94.5646 55.0419 94.1845 55.04C93.8937 55.0581 93.6023 55.0139 93.3298 54.9104C93.0574 54.807 92.8101 54.6466 92.6045 54.44C92.4777 54.304 92.373 54.1487 92.2945 53.98C92.1094 53.621 92.0101 53.2239 92.0045 52.82H99.1645C99.2094 52.5592 99.2295 52.2947 99.2245 52.03ZM94.0545 49.03C94.3065 49.0245 94.5566 49.0735 94.7879 49.1736C95.0192 49.2737 95.2261 49.4226 95.3945 49.61C95.7652 49.9925 95.9824 50.4979 96.0045 51.03H92.0045C92.0769 50.4913 92.3145 49.9882 92.6845 49.59C92.8617 49.4069 93.0749 49.2626 93.3107 49.1662C93.5466 49.0698 93.7999 49.0234 94.0545 49.03ZM181.005 52.03C181.041 51.3266 180.934 50.6231 180.692 49.9619C180.449 49.3007 180.075 48.6955 179.592 48.1827C179.109 47.6699 178.527 47.2601 177.882 46.978C177.237 46.6959 176.541 46.5474 175.837 46.5413C175.132 46.5352 174.434 46.6717 173.784 46.9427C173.134 47.2136 172.545 47.6133 172.053 48.1177C171.562 48.6221 171.177 49.2207 170.923 49.8776C170.669 50.5346 170.55 51.2361 170.575 51.94C170.586 53.2825 171.11 54.5699 172.039 55.5386C172.969 56.5072 174.234 57.0837 175.575 57.15H176.265C176.681 57.1498 177.096 57.1096 177.505 57.03C178.006 56.9137 178.485 56.7179 178.925 56.45C179.361 56.1914 179.745 55.852 180.055 55.45C180.389 55.0211 180.631 54.5273 180.765 54H177.765C177.625 54.3458 177.366 54.6298 177.035 54.8C176.696 54.9791 176.318 55.0719 175.935 55.07C175.645 55.0899 175.355 55.0466 175.083 54.943C174.812 54.8394 174.567 54.678 174.365 54.47C174.238 54.3317 174.13 54.177 174.045 54.01C173.863 53.6502 173.767 53.2531 173.765 52.85H180.925C180.978 52.58 181.005 52.3053 181.005 52.03ZM175.835 49.03C176.086 49.0245 176.337 49.0735 176.568 49.1736C176.799 49.2737 177.006 49.4226 177.175 49.61C177.525 49.9974 177.724 50.498 177.735 51.02H173.735C173.806 50.479 174.047 49.9746 174.425 49.58C174.607 49.3936 174.827 49.2482 175.07 49.1534C175.313 49.0585 175.574 49.0165 175.835 49.03Z" fill="black"/>
</svg>
