<svg width="200" height="100" viewBox="0 0 200 100" fill="none" xmlns="http://www.w3.org/2000/svg">
<path d="M94.6912 38.617V63.353H90.6115V61.0542C89.9245 61.8939 89.0273 62.5409 88.0038 62.9538C86.9243 63.3806 85.7607 63.6008 84.5971 63.587C82.9568 63.6146 81.3305 63.2154 79.9005 62.4583C78.5266 61.715 77.391 60.6 76.6339 59.251C75.8348 57.8607 75.4563 56.2777 75.4563 54.4745C75.4563 52.6713 75.8488 51.0883 76.6339 49.7117C77.391 48.3627 78.5266 47.2478 79.9005 46.5182C81.3445 45.7474 82.9568 45.3619 84.5971 45.3895C85.7187 45.3757 86.8402 45.5822 87.8917 45.9951C88.8731 46.3806 89.7563 47 90.4433 47.7984V38.6308L94.6912 38.617ZM87.8777 59.3198C88.7048 58.8656 89.3637 58.1911 89.8124 57.3652C90.7517 55.5206 90.7517 53.332 89.8124 51.4874C89.3637 50.6753 88.6908 50.0008 87.8777 49.5328C86.1533 48.6243 84.0924 48.6243 82.368 49.5328C81.5408 49.987 80.8819 50.6615 80.4333 51.4874C79.4939 53.332 79.4939 55.5206 80.4333 57.3652C80.8819 58.1773 81.5548 58.8518 82.368 59.3198C83.2091 59.7741 84.1625 60.0219 85.1298 60.0081C86.0832 60.0219 87.0365 59.7878 87.8777 59.3198Z" fill="currentColor"/>
<path d="M104.954 44.6049V45.6648H109.945V48.996H105.094V63.3255H100.846V49.0097H97.8596V45.6785H100.846V44.5498C100.846 42.6364 101.421 41.136 102.542 40.0211C103.664 38.9198 105.276 38.3692 107.323 38.3692C108.949 38.3692 110.225 38.6996 111.164 39.3328L109.987 42.4575C109.3 41.9757 108.486 41.7279 107.645 41.7142C105.837 41.7417 104.954 42.6915 104.954 44.6049Z" fill="currentColor"/>
<path d="M130.343 45.5409V63.3393H126.305V61.068C125.618 61.8802 124.749 62.5134 123.754 62.9126C122.716 63.353 121.595 63.5733 120.459 63.5733C118.034 63.5733 116.127 62.9125 114.739 61.5911C113.351 60.2696 112.65 58.315 112.65 55.6996V45.5409H116.898V55.149C116.898 56.7457 117.263 57.9433 117.992 58.7279C118.735 59.5126 119.772 59.9117 121.132 59.9117C122.646 59.9117 123.866 59.4437 124.749 58.5352C125.632 57.6267 126.081 56.2777 126.081 54.5433V45.5409H130.343Z" fill="currentColor"/>
<path d="M137.199 63.0089C135.797 62.6235 134.675 62.1417 133.834 61.5773L135.46 58.4113C136.372 58.9757 137.353 59.4162 138.39 59.6915C139.484 60.0081 140.633 60.1733 141.769 60.1733C144.307 60.1733 145.568 59.5125 145.568 58.2049C145.568 57.5717 145.246 57.1587 144.601 56.9109C143.942 56.6632 142.919 56.4291 141.503 56.2089C140.269 56.0437 139.049 55.7822 137.858 55.4381C136.918 55.149 136.077 54.6259 135.404 53.9239C134.703 53.1943 134.381 52.2032 134.381 50.9093C134.381 49.2162 135.11 47.881 136.54 46.8623C137.97 45.8437 139.918 45.3482 142.358 45.3482C143.62 45.3482 144.867 45.4858 146.087 45.7749C147.321 46.0502 148.358 46.4356 149.143 46.8899L147.517 50.0559C145.947 49.1611 144.152 48.6931 142.33 48.7206C141.096 48.7206 140.143 48.8996 139.498 49.2713C138.853 49.6429 138.531 50.1247 138.531 50.7166C138.531 51.3911 138.881 51.8453 139.554 52.1344C140.241 52.4235 141.306 52.6713 142.764 52.919C143.97 53.0842 145.162 53.3457 146.325 53.6899C147.237 53.9652 148.064 54.4745 148.723 55.149C149.396 55.8372 149.718 56.8146 149.718 58.081C149.718 59.7466 148.975 61.0818 147.503 62.0866C146.031 63.0777 144.026 63.587 141.489 63.587C140.045 63.5733 138.601 63.3806 137.199 63.0089Z" fill="currentColor"/>
<path d="M170.383 55.7684H156.153C156.363 57.021 157.064 58.136 158.102 58.8794C159.153 59.6502 160.471 60.0219 162.027 60.0219C164.018 60.0219 165.658 59.3749 166.948 58.081L169.219 60.6551C168.392 61.6186 167.327 62.3619 166.135 62.83C164.901 63.3255 163.485 63.5733 161.915 63.5733C159.924 63.5733 158.172 63.1879 156.658 62.417C155.186 61.6874 153.966 60.5587 153.139 59.1684C151.499 56.2502 151.485 52.6988 153.111 49.7668C153.896 48.404 155.046 47.2753 156.448 46.5182C157.864 45.7336 159.476 45.3619 161.27 45.3619C163.037 45.3619 164.607 45.7474 165.995 46.5044C167.369 47.2615 168.504 48.3765 169.247 49.7393C170.033 51.1296 170.411 52.7263 170.411 54.5571C170.439 54.9563 170.425 55.3692 170.383 55.7684ZM157.836 49.8494C156.896 50.6478 156.321 51.6939 156.125 53.0016H166.401C166.219 51.7215 165.658 50.6615 164.733 49.8769C163.808 49.0923 162.644 48.6793 161.27 48.6793C159.924 48.6793 158.775 49.0648 157.836 49.8494Z" fill="currentColor"/>
<path d="M45.0339 37.0478C50.5717 37.0478 54.9318 41.37 54.9318 46.8899C54.9318 52.2721 50.2773 56.8421 44.7535 56.8421H35.1361V46.7109C35.1501 41.2737 39.4962 37.0478 45.0339 37.0478ZM45.0339 30.5506C35.6548 30.5506 28.3506 37.7223 28.3506 46.6834V63.3393H44.7535C54.1326 63.3393 61.7453 55.8648 61.7453 46.9036C61.7733 37.8874 54.3429 30.5781 45.1741 30.5506C45.118 30.5506 45.076 30.5506 45.0339 30.5506Z" fill="currentColor"/>
</svg>
