<svg width="200" height="100" viewBox="0 0 200 100" fill="none" xmlns="http://www.w3.org/2000/svg">
<path d="M39.9043 56.0874L45.6226 62.9277L38.5599 57.5156C36.918 56.2628 34.5514 57.3276 34.3779 59.401L33.2504 73L31.4413 59.708C31.1563 57.5971 28.6471 56.6824 27.0921 58.1169L12 72.0604L25.2397 56.5572C26.6337 54.9286 25.6114 52.3854 23.4863 52.2038L12.0867 51.0888L23.7837 49.2347C25.8221 48.9528 26.7514 46.5037 25.4255 44.9126L19.7071 38.0724L26.7637 43.4844C28.4056 44.7372 30.7721 43.6724 30.9457 41.599L32.0794 28L33.8823 41.292C34.1734 43.4029 36.6826 44.3176 38.2315 42.8831L53.3297 28.9396L40.0839 44.4428C38.6899 46.0714 39.7184 48.6146 41.8434 48.7962L53.2431 49.9112L41.5399 51.7653C39.5015 52.0472 38.5785 54.4963 39.9043 56.0874Z" fill="currentColor"/>
<path d="M73.5209 51.001C73.2978 50.6815 73.05 50.4059 72.765 50.1741C72.48 49.9424 72.1826 49.7545 71.8667 49.6041C71.5507 49.4538 71.2348 49.3411 70.9187 49.2721C70.6027 49.2033 70.2992 49.1594 70.0142 49.1532H69.9956H63.9241C63.4223 49.1532 63.0319 49.0028 62.7531 48.7084C62.4743 48.4078 62.3318 48.0068 62.3318 47.4933C62.3318 46.9859 62.4743 46.5786 62.7531 46.2717C63.0319 45.9648 63.4223 45.8082 63.9241 45.8082H72.9074V43.1397H63.9241C63.4966 43.1397 63.0382 43.215 62.5425 43.3716C62.0469 43.5282 61.5884 43.7724 61.1671 44.1232C60.7458 44.4677 60.3927 44.9187 60.1139 45.47C59.8351 46.0212 59.6926 46.6977 59.6926 47.4995C59.6926 48.3012 59.8351 48.9778 60.1139 49.529C60.3927 50.0802 60.7458 50.5312 61.1671 50.8757C61.5884 51.2203 62.0469 51.4645 62.5425 51.6211C63.0382 51.7777 63.4966 51.8529 63.9241 51.8529H69.9956C70.2373 51.8529 70.4602 51.8967 70.6586 51.9782C70.8567 52.0596 71.0303 52.1787 71.1666 52.329C71.3029 52.4793 71.4143 52.6547 71.4888 52.8614C71.5631 53.0681 71.6002 53.2937 71.6002 53.5379C71.6002 54.0453 71.4577 54.4462 71.1789 54.7468C70.9001 55.0475 70.5036 55.1978 69.9956 55.1978H59.8103V57.8662H69.9956C70.2807 57.8662 70.5842 57.8349 70.9064 57.7661C71.2285 57.6971 71.5445 57.5907 71.8542 57.4466C72.1641 57.3025 72.4677 57.1209 72.7588 56.8953C73.05 56.6699 73.304 56.3943 73.5209 56.0748C73.7377 55.7553 73.9112 55.3795 74.0412 54.9598C74.1714 54.5402 74.2395 54.0641 74.2395 53.5379C74.2395 53.0117 74.1775 52.5419 74.0474 52.1222C73.9174 51.6963 73.7438 51.3267 73.5209 51.001Z" fill="currentColor"/>
<path d="M89.9883 44.6746C89.4493 44.1296 88.8049 43.7037 88.0615 43.3968C87.318 43.0898 86.5127 42.9332 85.639 42.9332H82.0643C81.1907 42.9332 80.3791 43.0898 79.6357 43.3968C78.8922 43.7037 78.2479 44.1296 77.709 44.6746C77.1699 45.2195 76.7424 45.871 76.4327 46.6226C76.1229 47.3743 75.968 48.2012 75.968 49.0906V51.9031C75.968 52.7989 76.1229 53.6257 76.4327 54.3773C76.7424 55.1291 77.1637 55.7806 77.709 56.3255C78.2479 56.8705 78.8922 57.2964 79.6357 57.6033C80.3791 57.9102 81.1907 58.0606 82.0643 58.0606H85.639C86.5127 58.0606 87.318 57.9102 88.0615 57.6033C88.8049 57.2964 89.4431 56.8705 89.9883 56.3255C90.5273 55.7806 90.9548 55.1291 91.2584 54.3773C91.562 53.6257 91.7168 52.7989 91.7168 51.9031V49.0906C91.7168 48.2012 91.562 47.3806 91.2584 46.6226C90.9548 45.8647 90.5273 45.2195 89.9883 44.6746ZM89.0714 51.9094C89.0714 52.4356 88.9908 52.9116 88.8235 53.3438C88.6563 53.7697 88.4209 54.1394 88.1173 54.44C87.8137 54.7469 87.4481 54.9788 87.0269 55.1479C86.6056 55.3169 86.1348 55.3984 85.6205 55.3984H82.0643C81.5501 55.3984 81.0792 55.3169 80.6579 55.1479C80.2366 54.9788 79.8712 54.7469 79.5675 54.44C79.2639 54.1331 79.0285 53.7697 78.8613 53.3438C78.694 52.9179 78.6134 52.4418 78.6134 51.9094V49.0969C78.6134 48.5708 78.694 48.0947 78.8613 47.6624C79.0285 47.2365 79.2639 46.867 79.5675 46.5662C79.8712 46.2593 80.2366 46.0276 80.6579 45.8584C81.0792 45.6893 81.5501 45.6079 82.0643 45.6079H85.639C86.1471 45.6079 86.6118 45.6893 87.033 45.8584C87.4543 46.0276 87.8199 46.2593 88.1173 46.5662C88.4209 46.8733 88.6501 47.2365 88.8174 47.6624C88.9846 48.0884 89.0651 48.5645 89.0651 49.0969V51.9094H89.0714Z" fill="currentColor"/>
<path d="M96.9577 43.1397H94.3184V56.5133C94.3184 56.7075 94.3494 56.8829 94.4176 57.0456C94.4856 57.2085 94.5786 57.3527 94.6964 57.4717C94.8141 57.5906 94.9566 57.6846 95.1177 57.7535C95.2787 57.8225 95.4583 57.8537 95.6442 57.8537H107.688V55.1853H96.9577V43.1397Z" fill="currentColor"/>
<path d="M110.433 43.2399C110.272 43.3089 110.129 43.4028 110.012 43.5282C109.894 43.6534 109.801 43.7975 109.733 43.9604C109.665 44.1232 109.634 44.2986 109.634 44.4866V57.86H112.273V51.8466H122.849V49.1593H112.273V45.8145H122.855V43.146H110.966C110.774 43.1398 110.594 43.1711 110.433 43.2399Z" fill="currentColor"/>
<path d="M127.625 43.1397H124.987V56.5133C124.987 56.7075 125.017 56.8829 125.085 57.0456C125.154 57.2085 125.247 57.3527 125.364 57.4717C125.482 57.5906 125.624 57.6846 125.786 57.7535C125.946 57.8225 126.127 57.8537 126.313 57.8537H138.356V55.1853H127.625V43.1397Z" fill="currentColor"/>
<path d="M154.191 43.5282C154.068 43.4029 153.926 43.3089 153.764 43.24C153.603 43.1711 153.43 43.1397 153.244 43.1397H147.296C146.249 43.1397 145.277 43.3214 144.39 43.6848C143.505 44.0481 142.737 44.5554 142.086 45.2069C141.435 45.8583 140.928 46.635 140.562 47.537C140.197 48.4391 140.016 49.4287 140.016 50.5061V57.8662H142.656V54.2457H151.937V57.86H154.576V44.4865C154.576 44.3049 154.545 44.1295 154.477 43.9603C154.409 43.7975 154.316 43.6534 154.191 43.5282ZM151.937 51.5772H142.662V50.4999C142.662 49.7545 142.767 49.1218 142.972 48.5957C143.176 48.0695 143.443 47.6373 143.758 47.2865C144.074 46.9357 144.427 46.6664 144.805 46.4659C145.184 46.2654 145.543 46.1214 145.89 46.0275C146.231 45.9335 146.534 45.8709 146.795 45.8458C147.055 45.8207 147.228 45.8082 147.308 45.8082H151.949V51.5772H151.937Z" fill="currentColor"/>
<path d="M168.348 52.9303C168.719 52.8551 169.085 52.7361 169.445 52.567C169.803 52.3978 170.151 52.1849 170.485 51.928C170.82 51.665 171.112 51.3581 171.365 50.9885C171.619 50.6252 171.823 50.1992 171.973 49.7231C172.121 49.2471 172.196 48.7022 172.196 48.0883V46.3845C172.196 46.0588 172.14 45.7017 172.027 45.3258C171.917 44.9501 171.73 44.5993 171.477 44.2735C171.223 43.9478 170.894 43.6785 170.485 43.4655C170.077 43.2526 169.58 43.1397 168.992 43.1397H158.974C158.783 43.1397 158.609 43.1711 158.447 43.24C158.286 43.3089 158.144 43.4029 158.026 43.5282C157.908 43.6534 157.815 43.7975 157.748 43.9603C157.68 44.1232 157.648 44.2986 157.648 44.4865V57.86H160.288V53.043H163.243L168.744 57.86H172.827L167.314 53.043C167.635 53.043 167.983 53.0054 168.348 52.9303ZM160.281 50.3746V45.8082H168.992C169.048 45.8082 169.104 45.8144 169.172 45.8207C169.234 45.827 169.296 45.8521 169.352 45.8897C169.408 45.9273 169.457 45.9836 169.494 46.0651C169.531 46.1464 169.55 46.2593 169.55 46.4096V48.0946C169.55 48.4454 169.494 48.7523 169.389 49.0216C169.283 49.2909 169.129 49.5228 168.925 49.7169C168.726 49.9111 168.491 50.0614 168.212 50.1741C167.939 50.2869 167.635 50.3558 167.301 50.3871H160.281V50.3746Z" fill="currentColor"/>
<path d="M188 45.8082V43.1397H176.11C175.919 43.1397 175.745 43.1711 175.585 43.24C175.423 43.3089 175.281 43.4029 175.163 43.5282C175.045 43.6534 174.952 43.7975 174.884 43.9603C174.816 44.1232 174.785 44.2986 174.785 44.4865V54.1141C174.785 54.8032 174.909 55.3857 175.156 55.8618C175.404 56.3379 175.715 56.7263 176.08 57.0207C176.451 57.3213 176.848 57.5342 177.282 57.6596C177.716 57.7911 178.113 57.8537 178.478 57.8537H188V55.1853H178.496C178.143 55.1853 177.877 55.0913 177.697 54.9097C177.517 54.728 177.424 54.4587 177.424 54.1079V51.8404H187.919V49.1532H177.424V45.8082H188Z" fill="currentColor"/>
</svg>
