<svg width="200" height="100" viewBox="0 0 200 100" fill="none" xmlns="http://www.w3.org/2000/svg">
<path d="M70.4155 40.9176V33.2125H100.767V45.8083H92.2411V40.8193H84.0082V46.6963H91.0726V53.8081H84.0082V60.1802H92.3875V54.5498H100.913V67.7869H70.4155V60.082H74.02V40.9176H70.4155Z" fill="currentColor"/>
<path d="M102.716 40.9176V33.2125H133.067V45.8083H124.541V40.8193H116.309V46.6963H123.373V53.8081H116.309V60.1802H124.688V54.5498H133.213V67.7869H102.716V60.082H106.32V40.9176H102.716Z" fill="currentColor"/>
<path d="M152.799 48.3259C154.211 48.3259 154.746 48.2276 155.039 47.9311C155.478 47.4379 155.575 46.6963 155.575 44.5736C155.575 42.4488 155.478 41.7093 155.039 41.2141C154.746 40.9176 154.211 40.8193 152.799 40.8193H148.609V48.3259H152.799ZM163.81 53.7597C162.493 55.1429 160.447 55.6361 157.427 55.6361H148.609V60.082H152.457V67.7869H135.017V60.082H138.621V40.9176H135.017V33.2125H157.427C160.447 33.2125 162.493 33.7075 163.81 35.0905C165.368 36.7202 166 38.448 166 44.4253C166 50.4006 165.368 52.1303 163.81 53.7597Z" fill="currentColor"/>
<path d="M68.6124 40.9176V33.2125H51.4152V40.8193H54.0941L48.7836 47.0912H46.5929V40.8193H49.612V33.2125H45.5314V36.065H43.323V33.2125H39.2896V36.065H37.0811V33.2125H33V40.9176H36.6044V60.082H33V67.7869H49.612V60.1802H46.5929V53.9082H48.7836L54.0941 60.1802H51.4152V67.7869H68.6124V60.082H65.9334L57.8383 50.4997L65.9334 40.9176H68.6124Z" fill="currentColor"/>
</svg>
