<svg width="200" height="100" viewBox="0 0 200 100" fill="none" xmlns="http://www.w3.org/2000/svg">
<path d="M12.4428 58.2801C9.70255 58.2801 7.79898 55.6894 7.79898 51.9666C7.79898 48.6139 9.57704 46.3062 12.1709 46.3062C14.9949 46.3062 16.9403 48.897 16.9403 52.6197C16.9403 55.9724 15.0995 58.2801 12.4428 58.2801ZM11.7944 59.3904C15.7479 59.3904 18.802 56.0377 18.802 51.7054C18.802 47.7431 16.3755 45 12.8821 45C9.01224 45 6 48.3527 6 52.6633C6 56.6473 8.36377 59.3904 11.7944 59.3904V59.3904Z" fill="black"/>
<path d="M23.2245 59.1292C24.2914 59.1292 25.1281 59.3469 26.0485 59.3469C28.6842 59.3469 30.9643 57.4093 30.9643 55.1451C30.9643 53.5341 29.7511 52.2932 27.722 51.836C29.2699 51.1393 30.1485 49.9202 30.1485 48.4833C30.1485 46.3498 28.6842 45.1742 26.0276 45.1742C26.0276 45.1742 24.3332 45.2612 23.5592 45.2612C22.7643 45.2612 21.2373 45.1959 21.2373 45.1959L21.0909 46.1538L21.1327 46.2409C21.1327 46.2409 21.5929 46.1974 21.8439 46.1974C22.4715 46.1974 22.6179 46.4369 22.6179 47.373L22.597 56.5167C22.597 57.7358 22.2623 58.1277 20.9654 58.389L20.8398 59.3904C20.8398 59.3904 22.1786 59.1292 23.2245 59.1292V59.1292ZM26.3414 52.598C28.2031 52.9463 29.1653 53.9695 29.1653 55.537C29.1653 57.1916 28.1403 58.2366 26.4669 58.2366C24.7307 58.2366 24.0822 57.8229 24.0822 56.7126L24.1659 52.6415L26.3414 52.598ZM24.2077 51.4877C24.2495 49.6807 24.3123 48.0261 24.396 46.611C24.4169 46.2192 24.4796 46.1103 24.7725 46.1103C27.2827 46.1103 28.4541 46.9811 28.4541 48.8534C28.4541 51.1829 26.4878 51.6618 26.4878 51.6618C26.174 51.6618 24.2077 51.4877 24.2077 51.4877V51.4877Z" fill="black"/>
<path d="M36.7096 59.3904C39.7427 59.3904 41.8764 57.627 41.8764 55.1451C41.8764 53.164 39.8264 52.1626 38.0065 51.1829C36.5213 50.3774 35.1616 49.5718 35.1616 48.2656C35.1616 47.0682 36.2703 46.1756 37.7973 46.1756C39.68 46.1756 40.2866 46.6763 40.2866 48.2003C40.2866 48.8752 40.2239 49.3324 40.2239 49.3324L40.3494 49.4412L41.1652 49.3541C41.2907 47.3512 41.6254 45.6749 41.6254 45.6749L41.5626 45.5443C41.5626 45.5443 40.2239 45 38.3621 45C35.6427 45 33.5509 46.7634 33.5509 49.0493C33.5509 50.9434 35.2871 51.9448 36.9606 52.8592C38.5713 53.73 40.1402 54.5138 40.1402 55.9289C40.1402 57.4093 38.9688 58.3237 37.2325 58.3237C34.9734 58.3237 34.5131 57.6705 34.5131 54.5356L33.5718 54.6444C33.5718 56.7562 33.3208 58.4325 33.3208 58.4325L33.4254 58.6502C33.4254 58.6502 34.7432 59.3904 36.7096 59.3904V59.3904Z" fill="black"/>
<path d="M47.9491 47.2859C47.9909 46.4586 48.2838 46.1974 49.4552 46.045L49.5389 45.0653C49.5389 45.0653 48.0955 45.2612 47.1333 45.2612C46.2756 45.2612 44.644 45.1959 44.644 45.1959L44.4976 46.1538L44.5394 46.2409C44.5394 46.2409 45.1042 46.1974 45.418 46.1974C46.0455 46.1974 46.192 46.4586 46.192 47.373L46.171 56.5167C46.171 57.7358 45.8154 58.1277 44.4976 58.389L44.3721 59.3904C44.3721 59.3904 45.7318 59.1292 46.7986 59.1292C47.7818 59.1292 49.5389 59.1945 49.5389 59.1945L49.7272 58.193L49.6853 58.1059C49.6853 58.1059 49.0787 58.1713 48.5767 58.1713C47.8445 58.1713 47.6563 57.8665 47.6563 56.6909C47.6563 54.8839 47.8027 50.4427 47.9491 47.2859V47.2859Z" fill="black"/>
<path d="M57.3895 59.3904C61.4477 59.3904 64.6273 56.016 64.6273 51.6836C64.6273 47.8084 61.8242 45.1742 57.7451 45.1742C57.7451 45.1742 55.5278 45.2612 54.5656 45.2612C53.7707 45.2612 52.3691 45.1959 52.3691 45.1959L52.2227 46.1538L52.2645 46.2409C52.2645 46.2409 52.7247 46.1974 52.9758 46.1974C53.6033 46.1974 53.7497 46.4369 53.7497 47.373L53.7288 56.5167C53.7288 57.7358 53.3941 58.1277 52.0972 58.389L51.9717 59.3904C51.9717 59.3904 53.3314 59.1292 54.3773 59.1292C55.4441 59.1292 57.3895 59.3904 57.3895 59.3904V59.3904ZM56.3018 46.2409C60.4227 46.2409 62.7237 48.3745 62.7237 52.2061C62.7237 55.9724 60.8829 58.2801 57.8707 58.2801C55.7579 58.2801 55.2349 57.8665 55.2349 56.2772C55.2349 55.2975 55.3605 51.7489 55.5487 46.7199C55.5696 46.328 55.7161 46.2409 56.3018 46.2409V46.2409Z" fill="black"/>
<path d="M70.2157 47.2859C70.2575 46.4586 70.5504 46.1974 71.7218 46.045L71.8055 45.0653C71.8055 45.0653 70.3621 45.2612 69.3999 45.2612C68.5422 45.2612 66.9106 45.1959 66.9106 45.1959L66.7642 46.1538L66.806 46.2409C66.806 46.2409 67.3708 46.1974 67.6846 46.1974C68.3121 46.1974 68.4586 46.4586 68.4586 47.373L68.4377 56.5167C68.4377 57.7358 68.082 58.1277 66.7642 58.389L66.6387 59.3904C66.6387 59.3904 67.9984 59.1292 69.0652 59.1292C70.0484 59.1292 71.8055 59.1945 71.8055 59.1945L71.9938 58.193L71.9519 58.1059C71.9519 58.1059 71.3453 58.1713 70.8433 58.1713C70.1111 58.1713 69.9229 57.8665 69.9229 56.6909C69.9229 54.8839 70.0693 50.4427 70.2157 47.2859V47.2859Z" fill="black"/>
<path d="M83.3382 56.6691C81.7693 51.7707 80.0122 45 80.0122 45H79.8448L78.527 45.3701L74.4479 56.4949C73.9877 57.7141 73.5903 58.0842 72.8163 58.1713L72.6489 59.1945C72.6489 59.1945 73.9459 59.1292 74.9499 59.1292C76.3306 59.1292 77.8576 59.2816 77.8576 59.2816L77.9831 58.3454L77.9413 58.2583H76.7489C75.8704 58.2583 75.4938 57.9971 75.4938 57.3657C75.4938 57.1698 75.5566 56.9086 75.6821 56.5167L76.4561 54.2525C76.9372 54.1872 77.9203 54.0784 78.7362 54.0784C79.3219 54.0784 80.4096 54.0784 80.9117 54.1001L81.602 56.4732C81.7275 56.8868 81.7902 57.2351 81.7902 57.5181C81.7902 58.0406 81.3719 58.2366 79.9285 58.3454L79.8448 59.1945L79.9076 59.3469C79.9076 59.3469 81.4137 59.1292 83.0244 59.1292C83.7356 59.1292 85.2418 59.1945 85.2418 59.1945L85.3882 58.3019L85.3464 58.2148C84.1331 58.106 83.6729 57.7576 83.3382 56.6691ZM78.8198 47.373H78.9663L80.6188 53.0769C80.1377 53.1205 79.2382 53.1858 78.6734 53.1858H76.8326L78.8198 47.373Z" fill="black"/>
<path d="M96.6449 55.9724C96.6449 55.9724 93.0888 50.791 89.6164 45.1742C89.6164 45.1742 88.9052 45.2613 88.2149 45.2613C87.6291 45.2613 86.4159 45.1524 86.4159 45.1524L86.2485 45.9579L86.3113 46.0668C87.7128 46.2192 88.1312 46.524 88.1312 47.4166L87.8592 56.9303C87.8383 57.8229 87.42 58.193 86.5623 58.3019L86.4577 59.3034C86.4577 59.3034 87.5664 59.1292 88.4031 59.1292C89.3026 59.1292 90.6205 59.2163 90.6205 59.2163L90.8087 58.2366L90.7669 58.1495C90.7669 58.1495 89.9092 58.1713 89.7001 58.1713C89.2189 58.1713 89.0516 57.9536 89.0516 57.3005L89.1562 48.0044H89.2608C89.2608 48.0044 92.9633 53.3817 97.0424 60L97.649 59.6952L97.9419 47.4601C97.9628 46.611 98.4021 46.2192 99.3643 46.0885L99.4689 45.0871C99.4689 45.0871 98.2766 45.2613 97.398 45.2613C96.6868 45.2613 95.4108 45.1742 95.4108 45.1742L95.2225 46.1539L95.2643 46.2409C95.2643 46.2409 95.6827 46.2192 96.0592 46.2192C96.5194 46.2192 96.7495 46.524 96.7495 47.1553V55.9724H96.6449Z" fill="black"/>
<path d="M104.672 59.3904C105.488 59.3904 105.99 58.7808 105.99 58.0406C105.99 57.3658 105.572 56.7997 104.798 56.7997C104.003 56.7997 103.501 57.4093 103.501 58.1495C103.501 58.7808 103.878 59.3904 104.672 59.3904Z" fill="black" fill-opacity="0.2"/>
<path d="M113.903 59.3904C116.936 59.3904 119.07 57.627 119.07 55.1451C119.07 53.164 117.02 52.1626 115.2 51.1829C113.715 50.3774 112.355 49.5718 112.355 48.2656C112.355 47.0682 113.464 46.1756 114.991 46.1756C116.873 46.1756 117.48 46.6763 117.48 48.2003C117.48 48.8752 117.417 49.3324 117.417 49.3324L117.543 49.4412L118.359 49.3541C118.484 47.3512 118.819 45.6749 118.819 45.6749L118.756 45.5443C118.756 45.5443 117.417 45 115.555 45C112.836 45 110.744 46.7634 110.744 49.0493C110.744 50.9434 112.48 51.9448 114.154 52.8592C115.765 53.73 117.334 54.5138 117.334 55.9289C117.334 57.4093 116.162 58.3237 114.426 58.3237C112.167 58.3237 111.707 57.6705 111.707 54.5356L110.765 54.6444C110.765 56.7562 110.514 58.4325 110.514 58.4325L110.619 58.6502C110.619 58.6502 111.937 59.3904 113.903 59.3904V59.3904Z" fill="black"/>
<path d="M123.804 46.7852C123.804 46.2845 124.138 46.1103 125.394 46.0015L125.456 45.2395L125.394 45.0871C125.394 45.0871 123.595 45.2613 122.423 45.2613C121.461 45.2613 120.122 45.196 120.122 45.196L119.997 46.045L120.038 46.1321C121.67 46.2845 121.837 46.8505 122.674 48.6357L124.557 52.6198C125.059 53.6647 125.163 54.2308 125.163 55.0798V56.0377C125.163 57.6488 125.038 58.0842 123.532 58.389L123.406 59.3904C123.406 59.3904 124.745 59.1292 125.791 59.1292C126.711 59.1292 128.448 59.1945 128.448 59.1945L128.636 58.193L128.594 58.106C128.594 58.106 127.987 58.1713 127.569 58.1713C126.837 58.1713 126.628 57.8012 126.649 56.6909C126.69 54.3179 126.67 53.5777 127.109 52.7939L129.201 48.9623C130.33 46.8941 130.498 46.4151 131.941 46.1321L132.066 45.3266L131.983 45.1742C131.983 45.1742 130.874 45.2613 130.058 45.2613C129.284 45.2613 127.736 45.1089 127.736 45.1089L127.611 45.9579L127.653 46.045C128.552 46.1103 128.971 46.328 128.971 46.6981C128.971 47.0029 128.845 47.3948 128.636 47.7867L126.251 52.402H126.147C126.126 52.402 123.804 47.4166 123.804 46.7852V46.7852Z" fill="black"/>
<path d="M136.211 59.3904C139.244 59.3904 141.377 57.627 141.377 55.1451C141.377 53.164 139.327 52.1626 137.507 51.1829C136.022 50.3774 134.663 49.5718 134.663 48.2656C134.663 47.0682 135.771 46.1756 137.298 46.1756C139.181 46.1756 139.788 46.6763 139.788 48.2003C139.788 48.8752 139.725 49.3324 139.725 49.3324L139.85 49.4412L140.666 49.3541C140.792 47.3512 141.126 45.6749 141.126 45.6749L141.064 45.5443C141.064 45.5443 139.725 45 137.863 45C135.144 45 133.052 46.7634 133.052 49.0493C133.052 50.9434 134.788 51.9448 136.462 52.8592C138.072 53.73 139.641 54.5138 139.641 55.9289C139.641 57.4093 138.47 58.3237 136.734 58.3237C134.474 58.3237 134.014 57.6705 134.014 54.5356L133.073 54.6444C133.073 56.7562 132.822 58.4325 132.822 58.4325L132.926 58.6502C132.926 58.6502 134.244 59.3904 136.211 59.3904V59.3904Z" fill="black"/>
<path d="M147.575 55.6023C147.575 57.91 147.429 58.106 145.484 58.2801L145.316 59.2163C145.316 59.2163 147.157 59.1292 148.182 59.1292C149.165 59.1292 151.257 59.1945 151.257 59.1945L151.445 58.193L151.382 58.106C151.382 58.106 150.964 58.1713 150.232 58.1713C149.374 58.1713 149.04 57.7576 149.04 56.6909C149.04 53.164 149.207 47.852 149.374 46.1103C152.407 46.2627 152.491 46.328 152.91 48.9405L153.893 48.8534C153.893 48.8534 153.642 47.0247 153.579 45.1742L153.391 45L151.613 45.2395H145.128L143.392 45L143.203 45.1742C143.141 47.0247 142.89 48.9405 142.89 48.9405L143.873 48.8534C144.228 46.3062 144.291 46.2627 147.575 46.1103V55.6023Z" fill="black"/>
<path d="M158.597 56.8433C158.597 56.1248 158.618 55.0363 158.681 52.6851C159.036 52.6197 159.664 52.5327 160.291 52.5327C161.421 52.5327 163.22 52.598 163.22 52.598L163.513 51.3135L163.429 51.2046C163.429 51.2046 161.63 51.4441 160.877 51.4441C160.249 51.4441 159.183 51.4224 158.722 51.4224L158.89 47.1988C158.911 46.3933 158.994 46.3498 160.354 46.3498C163.303 46.3498 163.554 46.4804 163.554 47.8955C163.554 48.2003 163.513 48.8316 163.513 48.8316L164.517 48.7446C164.642 46.7417 164.998 45.1306 164.998 45.1306L164.935 45C163.554 45.1959 161.986 45.2612 158.66 45.2612C157.404 45.2612 155.752 45.1959 155.752 45.1959L155.606 46.1538L155.647 46.2409C155.647 46.2409 156.108 46.1974 156.359 46.1974C156.986 46.1974 157.133 46.4369 157.133 47.373L157.112 56.5167C157.112 57.7576 156.735 58.1713 155.48 58.3454L155.354 59.3469C155.354 59.3469 156.672 59.1292 158.262 59.1292C160.249 59.1292 164.6 59.2816 164.6 59.2816L164.705 59.1509C164.893 57.3004 165.27 55.4935 165.27 55.4935L165.207 55.3846L164.287 55.4935C163.952 57.8882 163.554 58.1495 160.249 58.1495C158.743 58.1495 158.597 58.0189 158.597 56.8433V56.8433Z" fill="black"/>
<path d="M175.327 59.3904L179.365 47.8084H179.469C179.469 47.8084 180.18 56.4731 180.18 57.2133C180.18 57.8665 179.804 58.193 178.946 58.3019L178.862 59.3033C178.862 59.3033 180.139 59.1292 181.038 59.1292C181.791 59.1292 183.025 59.1945 183.025 59.1945L183.214 58.2148L183.172 58.1277C183.172 58.1277 182.837 58.1713 182.586 58.1713C181.917 58.1713 181.749 57.8012 181.561 56.103C181.331 53.0551 181.017 47.852 181.017 47.2206C181.017 46.5022 181.456 46.1756 182.67 46.0232L182.774 45.2177L182.732 45.1306C182.732 45.1306 181.101 45.2612 180.473 45.2612C180.055 45.2612 179.093 45.1959 179.093 45.2177C177.105 51.4659 175.474 55.9724 175.474 55.9724H175.369C175.369 55.9724 173.717 51.5094 171.834 45.1742C171.834 45.1742 171.018 45.2612 170.411 45.2612C169.742 45.2612 168.131 45.1524 168.131 45.1524L167.964 45.9144L168.027 46.0232C169.303 46.1103 169.847 46.4586 169.847 47.2206C169.847 47.8737 169.094 55.0363 168.926 56.6255C168.801 57.8012 168.466 58.193 167.588 58.3019L167.483 59.3033C167.483 59.3033 168.445 59.1292 169.282 59.1292C169.972 59.1292 171.311 59.2162 171.311 59.2162L171.499 58.2366L171.457 58.1495C171.457 58.1495 170.809 58.1713 170.6 58.1713C170.16 58.1713 169.951 57.9535 169.951 57.4964C169.951 56.9303 170.663 47.8084 170.663 47.8084H170.767L174.825 59.5428L175.327 59.3904Z" fill="black"/>
<path d="M188.833 59.3904C191.866 59.3904 194 57.627 194 55.1451C194 53.164 191.95 52.1626 190.13 51.1829C188.645 50.3774 187.285 49.5718 187.285 48.2656C187.285 47.0682 188.394 46.1756 189.921 46.1756C191.804 46.1756 192.41 46.6763 192.41 48.2003C192.41 48.8752 192.347 49.3324 192.347 49.3324L192.473 49.4412L193.289 49.3541C193.414 47.3512 193.749 45.6749 193.749 45.6749L193.686 45.5443C193.686 45.5443 192.347 45 190.486 45C187.766 45 185.674 46.7634 185.674 49.0493C185.674 50.9434 187.411 51.9448 189.084 52.8592C190.695 53.73 192.264 54.5138 192.264 55.9289C192.264 57.4093 191.092 58.3237 189.356 58.3237C187.097 58.3237 186.637 57.6705 186.637 54.5356L185.695 54.6444C185.695 56.7562 185.444 58.4325 185.444 58.4325L185.549 58.6502C185.549 58.6502 186.867 59.3904 188.833 59.3904V59.3904Z" fill="black"/>
</svg>
