<svg width="200" height="100" viewBox="0 0 200 100" fill="none" xmlns="http://www.w3.org/2000/svg">
<path d="M140.59 47.5495C142.216 49.6056 143.045 52.4636 143.045 56.1234H127.709C127.87 58.0098 128.382 59.4696 129.263 60.4514C130.232 61.4799 131.612 62.0279 133.028 61.9472C134.224 61.9999 135.405 61.6682 136.395 61.0014C137.187 60.326 137.811 59.4781 138.218 58.5238H142.729C142.29 60.3624 141.294 62.0235 139.875 63.2837C137.965 64.8581 135.541 65.6845 133.059 65.607C130.009 65.607 127.59 64.6612 125.808 62.8159C123.908 60.8883 122.955 58.2514 122.955 54.8692C122.955 51.8416 123.825 49.3229 125.648 47.2771C127.393 45.1902 129.791 44.193 132.863 44.193C136.234 44.1673 138.808 45.2724 140.59 47.5495ZM129.455 49.0916C128.532 50.111 127.951 51.3899 127.792 52.7514H138.332C137.938 49.4463 136.151 47.8374 132.982 47.8374C131.682 47.7512 130.405 48.2034 129.455 49.0865V49.0916Z" fill="#001C3A"/>
<path fill-rule="evenodd" clip-rule="evenodd" d="M165 52.5098V65.0519H160.484V52.9005C160.484 49.5542 158.93 47.9042 155.823 47.9042C154.726 47.8979 153.672 48.323 152.891 49.0864C151.894 50.0816 151.308 51.411 151.249 52.8131V65.0467H146.733V44.7224H151.249V47.0818C151.981 46.1778 152.899 45.4399 153.942 44.9178C154.989 44.4083 156.143 44.1529 157.309 44.1724C162.411 44.1673 165 46.9224 165 52.5098Z" fill="#001C3A"/>
<path d="M121.639 65.057L113.533 53.3888C115.036 53.1735 116.46 52.5887 117.677 51.6874C119.422 50.2738 120.334 48.228 120.334 45.55C120.334 45.4626 120.334 45.3804 120.334 45.293C120.334 45.2056 120.334 45.1234 120.334 45.036C120.334 42.3631 119.422 40.3173 117.677 38.8986C116.014 37.6033 113.715 36.971 110.819 36.971H98.187V65.0519H102.848V53.6098H107.805L115.719 65.057H121.639ZM102.848 40.9033H110.182C112.005 40.9033 113.393 41.2991 114.326 42.0444C115.213 42.8874 115.689 44.0703 115.631 45.2879C115.689 46.5055 115.213 47.6883 114.326 48.5313C113.373 49.2766 111.99 49.6724 110.182 49.6724H102.848V40.9033Z" fill="#001C3A"/>
<path fill-rule="evenodd" clip-rule="evenodd" d="M42.5773 34.5654L46.6534 32.2421L47.2024 33.1776L62.2275 24.578L61.1295 23.9509L60.0263 23.3136L59.4773 23L35 37.0327V37.6598L42.0283 33.6248L42.5773 34.5654Z" fill="#001C3A"/>
<path fill-rule="evenodd" clip-rule="evenodd" d="M42.5773 43.4014L54.355 36.6472L54.904 37.5981L69.9291 28.9935L68.8311 28.3561L67.7279 27.729L67.1789 27.4206L35 45.8584V46.4855L42.0283 42.4505L42.5773 43.4014Z" fill="#001C3A"/>
<path fill-rule="evenodd" clip-rule="evenodd" d="M42.5773 47.8168L58.2032 38.8626L58.7574 39.8033L73.7773 31.1883L72.6793 30.5715L71.5813 29.9341L71.0271 29.6205L35 50.2635V50.9009L42.0283 46.871L42.5773 47.8168Z" fill="#001C3A"/>
<path fill-rule="evenodd" clip-rule="evenodd" d="M42.5773 52.2271L62.1653 41.0061L62.7195 41.9467L77.6307 33.4037L76.5327 32.7663L75.4295 32.1392L74.8805 31.8257L35 54.6841V55.3112L42.0283 51.2761L42.5773 52.2271Z" fill="#001C3A"/>
<path fill-rule="evenodd" clip-rule="evenodd" d="M42.5773 56.6323L66.0187 43.2061L66.5677 44.157L81.4789 35.6038L80.3809 34.9818L79.2829 34.3444L78.7287 34.0309L35 59.0893V59.7164L42.0283 55.6916L42.5773 56.6323Z" fill="#001C3A"/>
<path fill-rule="evenodd" clip-rule="evenodd" d="M83.1311 36.5547L82.5821 36.236L35 63.5098V64.1369L42.0283 60.1122L42.5773 61.0528L66.0187 47.6266L66.5677 48.5673L83.9546 38.6108V37.3463V37.0327L83.1311 36.5547Z" fill="#001C3A"/>
<path fill-rule="evenodd" clip-rule="evenodd" d="M38.0142 66.815L41.9557 64.5584L42.5047 65.4991L65.9047 52.0935L66.4537 53.0444L83.9545 43.0159V41.7514V40.4869V39.8598L37.4756 66.5014L38.0142 66.815Z" fill="#001C3A"/>
<path fill-rule="evenodd" clip-rule="evenodd" d="M65.9046 56.514L66.4536 57.4649L83.9544 47.4364V46.172V44.9075V44.2804L41.3237 68.7065L41.8779 69.0201L45.8763 66.7224L46.4305 67.6734" fill="#001C3A"/>
<path fill-rule="evenodd" clip-rule="evenodd" d="M45.7264 71.2304L49.7299 68.9276L50.2789 69.8785L65.9048 60.9191L66.4538 61.8701L83.9546 51.8416V50.5771V49.3229V48.6906L45.167 70.9065L45.7264 71.2304Z" fill="#001C3A"/>
<path fill-rule="evenodd" clip-rule="evenodd" d="M49.5744 73.4355L53.578 71.143L54.1322 72.0836L65.9047 65.3397L66.4537 66.2804L83.9545 56.2519V54.9977V53.7332V53.1061L49.0254 73.122L49.5744 73.4355Z" fill="#001C3A"/>
<path fill-rule="evenodd" clip-rule="evenodd" d="M52.8789 75.3271L53.4279 75.6406L57.4419 73.343L57.9805 74.2939L65.9048 69.7448L66.4538 70.6958L83.9546 60.6673V59.4028V58.1383V57.5112L52.8789 75.3271Z" fill="#001C3A"/>
<path fill-rule="evenodd" clip-rule="evenodd" d="M57.2761 77.8561L61.2796 75.5481L61.8286 76.4991L65.9047 74.1551L66.4537 75.1061L83.9545 65.0878V63.8234V62.5589V61.9318L56.7271 77.5425L57.2761 77.8561Z" fill="#001C3A"/>
<path fill-rule="evenodd" clip-rule="evenodd" d="M66.0809 26.7832L64.9777 26.1561L63.8797 25.529L63.3307 25.2051L35 41.4378V42.065L42.0283 38.0453L42.5773 38.9808L50.5016 34.4421L51.0661 35.393L66.0809 26.7832Z" fill="#001C3A"/>
</svg>
