<svg width="200" height="100" viewBox="0 0 200 100" fill="none" xmlns="http://www.w3.org/2000/svg">
<path d="M76.7334 72.5688V77.0282H85.681V81.4585H76.7334V88.4081H71V68.1385H86.8971V72.5688H76.7334Z" fill="currentColor"/>
<path d="M95.2369 72.6847H89.0112V68.1385H107.167V72.6847H100.97V88.4081H95.2369V72.6847Z" fill="currentColor"/>
<path d="M122.398 88.4081L118.199 82.1245L114.058 88.4081H107.514L114.898 78.1575L107.833 68.1385H114.29L118.344 73.9877L122.34 68.1385H128.537L121.471 77.9258L129 88.4081H122.398Z" fill="currentColor"/>
<path d="M100.852 47.923H87.4697V61.3048H100.852V47.923Z" fill="currentColor"/>
<path d="M112.712 29.4839H87.4697V42.8209H112.712H117.277V29.4839H112.712Z" fill="currentColor"/>
<path d="M128.913 11H87.4697V24.3818H128.913V11Z" fill="currentColor"/>
<path d="M84.3818 29.4839H71V42.8657H84.3818V29.4839Z" fill="currentColor"/>
</svg>
