<svg width="200" height="100" viewBox="0 0 200 100" fill="none" xmlns="http://www.w3.org/2000/svg">
<path d="M44.855 64.9644C38.0632 64.9644 32.5563 59.4237 32.5563 52.5902C32.5563 45.9415 43.6618 34.2137 44.1207 33.752L44.6714 33.1056L45.2221 33.752C45.681 34.2137 57.0619 45.9415 57.0619 52.5902C57.1537 59.4237 51.6468 64.9644 44.855 64.9644ZM44.7632 35.5065C43.7536 36.6147 41.7344 38.8309 39.7152 41.6013C36.1357 46.4032 34.2083 50.1893 34.2083 52.5902C34.2083 58.5003 38.981 63.3022 44.855 63.3022C50.729 63.3022 55.5016 58.5003 55.5016 52.5902C55.5016 50.1893 53.5742 46.4032 49.903 41.6013C47.8838 38.9233 45.7728 36.6147 44.7632 35.5065Z" fill="url(#paint0_linear)"/>
<path d="M44.7636 69.0488C35.7433 69.0488 28.4718 61.7577 28.4718 52.713C28.4718 43.9451 40.7137 31.6701 41.2659 31.1164C41.6341 30.8395 42.0943 30.8395 42.4625 31.1164C42.7387 31.4855 42.7387 31.947 42.4625 32.3162C42.2784 32.4085 30.1286 44.5912 30.1286 52.713C30.1286 60.8348 36.6637 67.3876 44.7636 67.3876C52.8635 67.3876 59.3987 60.8348 59.3987 52.713C59.3987 49.3904 57.2816 44.7758 53.2317 39.4228C50.1022 35.2696 46.9727 32.1316 46.9727 32.1316C46.6045 31.8547 46.6045 31.301 46.9727 30.9318C47.2488 30.5626 47.8011 30.5626 48.1693 30.9318C48.7215 31.4855 61.1475 43.9451 61.1475 52.713C61.0554 61.7577 53.784 69.0488 44.7636 69.0488Z" fill="url(#paint1_linear)"/>
<path d="M44.8096 72.9291C33.9374 72.9291 25 63.9847 25 53.104C25 48.5858 27.3034 43.0532 31.7261 36.5985C35.043 31.8959 38.2678 28.4841 38.4521 28.2997C38.7285 27.9308 39.2814 27.9308 39.6499 28.2997C40.0185 28.5763 40.0185 29.1296 39.6499 29.4984C39.6499 29.4984 36.333 32.9102 33.1081 37.6128C28.8698 43.6987 26.6585 49.0468 26.6585 53.1962C26.6585 63.2471 34.8587 71.3615 44.8096 71.3615C54.7605 71.3615 62.9608 63.0627 62.9608 53.104C62.9608 48.9546 60.7495 43.6065 56.5111 37.5206C53.2863 32.9102 49.9694 29.4984 49.9694 29.4062C49.6929 29.0374 49.6929 28.5763 49.9694 28.2075C50.3379 27.9308 50.7986 27.9308 51.1671 28.2075C51.6278 28.8529 64.6193 42.3155 64.6193 53.104C64.6193 63.9847 55.774 72.9291 44.8096 72.9291Z" fill="url(#paint2_linear)"/>
<path d="M84.6494 62.8094C89.9722 62.8094 92.6778 59.9862 92.6778 56.3984C92.6778 52.693 90.3839 51.105 86.9432 50.3698L83.9142 49.7228C81.6203 49.2228 80.6793 48.3406 80.6793 46.6349C80.6793 44.8704 82.2085 43.8117 84.4729 43.8117C87.2373 43.8117 88.9724 45.1939 89.6487 47.6054L92.6778 46.0174C91.7661 42.5472 88.6195 40.9297 84.6494 40.9297C79.9441 40.9297 77.0033 43.3118 77.0033 46.929C77.0033 50.4874 79.1795 52.2519 82.4732 52.9283L85.3846 53.5458C87.6784 54.0164 88.9135 54.7222 88.9135 56.7513C88.9135 58.9275 86.9138 59.7804 84.767 59.7804C81.5321 59.7804 79.8264 57.8982 79.1206 55.5456L75.8857 56.9572C76.7386 60.3685 79.7088 62.8094 84.6494 62.8094Z" fill="white"/>
<path d="M100.034 59.3392V53.0753H109.297V50.1345H100.034V44.3999H109.797V41.4297H96.2403V62.3095H110.003V59.3392H100.034Z" fill="white"/>
<path d="M126.362 62.3095H130.538L125.568 53.4282C128.656 52.546 129.95 50.1933 129.95 47.6936C129.95 44.2529 128.097 41.4297 122.715 41.4297H114.304V62.3095H118.098V53.9281H121.774L126.362 62.3095ZM118.098 44.3117H122.068C124.921 44.3117 125.979 45.6939 125.979 47.6936C125.979 49.664 124.921 51.105 122.068 51.105H118.098V44.3117Z" fill="white"/>
<path d="M133.279 41.4297V55.0162C133.279 59.7215 136.308 62.8094 141.66 62.8094C147.012 62.8094 150.071 59.7215 150.071 55.0162V41.4297H146.277V54.8104C146.277 57.7512 144.63 59.6039 141.66 59.6039C138.719 59.6039 137.072 57.7512 137.072 54.8104V41.4297H133.279Z" fill="white"/>
<path d="M154.855 62.3095H158.179V47.076C158.179 46.2232 158.149 45.488 158.061 44.7822H158.179C158.237 45.2821 158.473 46.3703 158.708 46.9878L163.707 62.3095H167.089L172.03 46.9878C172.236 46.3703 172.5 45.2821 172.559 44.7822H172.647C172.559 45.5174 172.53 46.2526 172.53 47.076V62.3095H176V41.4297H170.677L166.001 55.9279C165.678 56.9572 165.56 57.4277 165.472 58.1923H165.413C165.325 57.4277 165.207 56.9866 164.884 55.9573L160.149 41.4297H154.855V62.3095Z" fill="white"/>
<defs>
<linearGradient id="paint0_linear" x1="44.8728" y1="64.9761" x2="44.8728" y2="33.1519" gradientUnits="userSpaceOnUse">
<stop stop-color="#05AAC5"/>
<stop offset="1" stop-color="#71E0EC"/>
</linearGradient>
<linearGradient id="paint1_linear" x1="44.7816" y1="69.0407" x2="44.7816" y2="30.7122" gradientUnits="userSpaceOnUse">
<stop stop-color="#05AAC5"/>
<stop offset="1" stop-color="#71E0EC"/>
</linearGradient>
<linearGradient id="paint2_linear" x1="44.8276" y1="72.9068" x2="44.8276" y2="28.0231" gradientUnits="userSpaceOnUse">
<stop stop-color="#05AAC5"/>
<stop offset="1" stop-color="#71E0EC"/>
</linearGradient>
</defs>
</svg>
