<svg width="200" height="100" viewBox="0 0 200 100" fill="none" xmlns="http://www.w3.org/2000/svg">
<path d="M73.6999 49.3042C73.6553 48.0824 73.8595 46.8641 74.3003 45.7226C74.7411 44.5811 75.4095 43.54 76.2651 42.6619C77.1207 41.7837 78.1459 41.0865 79.2793 40.6122C80.4128 40.1379 81.6309 39.8963 82.8606 39.9018C87.494 39.9018 90.2364 42.6049 91.0638 45.7783L88.156 46.7538C87.9001 45.5707 87.2238 44.5189 86.2513 43.7914C85.2786 43.0639 84.0748 42.7095 82.8606 42.793C79.8582 42.793 76.856 44.9673 76.856 49.3629C76.856 53.7586 79.7874 55.8506 82.896 55.8506C84.1169 55.8858 85.3143 55.5123 86.2961 54.7897C87.2779 54.0672 87.9869 53.0377 88.3097 51.8663L91.1346 52.7832C90.651 54.5714 89.5665 56.1412 88.0612 57.2316C86.556 58.3221 84.7207 58.8674 82.8606 58.7771C81.6198 58.8002 80.3876 58.5682 79.2413 58.0955C78.095 57.6228 77.0593 56.9197 76.1993 56.0303C75.3392 55.1408 74.6731 54.0842 74.2431 52.9268C73.813 51.7693 73.6281 50.5361 73.6999 49.3042Z" fill="#375BD2"/>
<path d="M96.7374 58.3423H93.7588V39.8547H96.7374V47.1064C97.1713 46.5962 97.7157 46.1907 98.3299 45.9199C98.9441 45.6492 99.6121 45.5204 100.283 45.5432C103.369 45.5432 104.858 47.741 104.858 50.4796V58.3423H101.962V50.9849C102.016 50.627 101.989 50.2615 101.881 49.9156C101.774 49.5697 101.59 49.2523 101.342 48.987C101.095 48.7217 100.79 48.5152 100.451 48.3828C100.113 48.2506 99.7482 48.1959 99.3851 48.223C99.0249 48.2233 98.6687 48.298 98.3389 48.4423C98.0093 48.5867 97.7134 48.7976 97.47 49.0618C97.2266 49.3258 97.0412 49.6373 96.9252 49.9766C96.8092 50.3157 96.7654 50.6751 96.7965 51.0319L96.7374 58.3423Z" fill="#375BD2"/>
<path d="M111.513 51.22L114.716 50.7264C115.437 50.6323 115.638 50.268 115.638 49.8331C115.638 48.7871 114.929 47.9408 113.274 47.9408C112.955 47.9136 112.633 47.9511 112.329 48.051C112.025 48.151 111.745 48.3113 111.505 48.5224C111.265 48.7334 111.071 48.9907 110.934 49.2786C110.797 49.5666 110.721 49.8792 110.709 50.1974L107.99 49.5863C108.215 47.4355 110.177 45.5197 113.25 45.5197C117.104 45.5197 118.569 47.694 118.569 50.2209V56.3913C118.563 57.0605 118.614 57.729 118.723 58.3893H115.945C115.85 57.8661 115.81 57.3342 115.827 56.8027C115.412 57.435 114.838 57.9487 114.163 58.293C113.487 58.6372 112.732 58.8001 111.974 58.7654C111.445 58.8086 110.913 58.7448 110.409 58.5778C109.906 58.4107 109.442 58.1438 109.045 57.7934C108.649 57.4429 108.328 57.0161 108.102 56.5388C107.876 56.0614 107.749 55.5434 107.73 55.0162C107.73 52.7478 109.373 51.5256 111.513 51.22ZM115.638 53.2179V52.6539L112.376 53.1357C111.932 53.1508 111.512 53.335 111.201 53.6501C110.891 53.9653 110.715 54.3871 110.709 54.8282C110.713 55.0559 110.764 55.2803 110.859 55.4872C110.955 55.6942 111.093 55.8791 111.264 56.0305C111.435 56.1818 111.636 56.2963 111.853 56.3664C112.071 56.4366 112.301 56.4611 112.529 56.4383C112.96 56.482 113.394 56.4275 113.801 56.2791C114.207 56.1308 114.574 55.8922 114.873 55.5818C115.173 55.2715 115.398 54.8972 115.53 54.4877C115.662 54.0781 115.699 53.6439 115.638 53.2179Z" fill="#375BD2"/>
<path d="M123.628 39.5963C123.886 39.5931 124.143 39.641 124.382 39.7372C124.621 39.8332 124.839 39.9754 125.023 40.1559C125.206 40.3363 125.352 40.5511 125.452 40.788C125.551 41.0248 125.602 41.2789 125.602 41.5356C125.602 42.0467 125.398 42.537 125.035 42.8984C124.671 43.26 124.178 43.4631 123.664 43.4631C123.15 43.4631 122.657 43.26 122.293 42.8984C121.93 42.537 121.725 42.0467 121.725 41.5356C121.725 41.0293 121.924 40.543 122.28 40.1806C122.635 39.8183 123.119 39.6085 123.628 39.5963ZM122.175 58.4011V45.9077H125.118V58.3424L122.175 58.4011Z" fill="#375BD2"/>
<path d="M131.95 58.3423H128.971V45.9076H131.879V47.5648C132.256 46.9286 132.799 46.4051 133.45 46.0495C134.101 45.6937 134.836 45.5188 135.579 45.5432C138.628 45.5432 140.094 47.741 140.094 50.4795V58.3423H137.115V50.9849C137.115 49.457 136.418 48.223 134.55 48.223C134.179 48.2252 133.811 48.3056 133.473 48.4589C133.135 48.6122 132.833 48.8349 132.588 49.1123C132.342 49.3898 132.158 49.7158 132.048 50.069C131.938 50.422 131.905 50.7943 131.95 51.1612V58.3423Z" fill="#375BD2"/>
<path d="M143.723 58.3423V39.8547H146.701V58.3423H143.723Z" fill="#375BD2"/>
<path d="M152.021 39.5962C152.538 39.5962 153.034 39.8005 153.4 40.1643C153.766 40.5279 153.971 41.0211 153.971 41.5355C153.968 41.9156 153.853 42.2867 153.639 42.6019C153.425 42.9171 153.123 43.1622 152.769 43.3067C152.415 43.4512 152.026 43.4883 151.651 43.4136C151.276 43.3388 150.932 43.1555 150.662 42.8865C150.391 42.6177 150.207 42.2754 150.132 41.9026C150.057 41.5297 150.094 41.1433 150.239 40.7915C150.385 40.4398 150.631 40.1387 150.948 39.926C151.265 39.7133 151.638 39.5985 152.021 39.5962ZM150.555 58.401V45.9076H153.51V58.3423L150.555 58.401Z" fill="#375BD2"/>
<path d="M160.342 58.3423H157.364V45.9076H160.26V47.5648C160.638 46.9303 161.181 46.4083 161.832 46.0528C162.483 45.6973 163.218 45.5214 163.959 45.5432C167.02 45.5432 168.485 47.741 168.485 50.4795V58.3423H165.507V50.9848C165.562 50.627 165.534 50.2615 165.427 49.9156C165.32 49.5697 165.135 49.2523 164.888 48.9869C164.64 48.7217 164.336 48.5152 163.996 48.3828C163.658 48.2506 163.293 48.1958 162.93 48.2229C162.56 48.225 162.193 48.3054 161.855 48.4588C161.517 48.6122 161.216 48.835 160.971 49.1128C160.726 49.3904 160.544 49.7166 160.436 50.0698C160.327 50.423 160.295 50.7948 160.342 51.1612V58.3423Z" fill="#375BD2"/>
<path d="M178.674 51.1613L183.923 58.3423H180.27L176.594 53.2179L175.057 54.8282V58.354H172.102V39.8547H175.057V50.9378L179.858 45.9077H183.817L178.674 51.1613Z" fill="#375BD2"/>
<path d="M38.4049 34.8598L51.2889 42.2171V56.9906L38.4404 64.3951L25.5564 57.0495V42.2759L38.4049 34.8598ZM38.4049 24L33.6769 26.7267L20.8047 34.1429L16.0767 36.8696V42.2994V57.0612V62.491L20.8047 65.1943L33.6887 72.5516L38.4167 75.2548L43.1449 72.5281L55.9934 65.1121L60.7215 62.3971V56.9672V42.1936V36.7638L55.9934 34.0606L43.1094 26.7032L38.3814 24H38.4049Z" fill="#375BD2"/>
</svg>
