<svg width="200" height="100" viewBox="0 0 200 100" fill="none" xmlns="http://www.w3.org/2000/svg">
<g clip-path="url(#clip0)">
<path fill-rule="evenodd" clip-rule="evenodd" d="M145.095 63.3793L127.156 88.3857C124.334 92.3569 118.86 94.2689 111.743 93.6835C102.562 92.9255 90.3916 88.074 78.7265 79.7062C67.0613 71.3343 58.5549 61.3621 54.849 52.9186C52.0275 46.3744 52.0693 40.5967 54.9329 36.6213L72.8307 11.6148C75.6944 7.64357 81.1688 5.73164 88.2437 6.317C97.4242 7.07502 109.637 11.9307 121.302 20.2984C132.967 28.6661 141.474 38.6384 145.137 47.0819C148.001 53.6262 147.917 59.4081 145.095 63.3793ZM77.6317 15.0512C79.4846 12.4824 83.1904 11.8171 87.7806 12.1961C96.161 12.8867 107.195 17.4515 117.849 25.0907C128.503 32.7257 136.379 41.7252 139.748 49.4318C141.558 53.6557 142.147 57.3783 140.294 59.9471L142.695 61.6613L140.294 59.9471L122.355 84.9534C120.544 87.5181 116.838 88.1877 112.248 87.8044C103.867 87.118 92.7918 82.5489 82.1374 74.9139C71.483 67.2747 63.6078 58.2754 60.2809 50.573C58.4279 46.345 57.881 42.6221 59.7339 40.0575L77.6317 15.0512Z" fill="white"/>
<path fill-rule="evenodd" clip-rule="evenodd" d="M75.2635 13.9389C81.1172 5.7691 100.952 9.96358 119.565 23.2964C138.179 36.6333 148.539 54.0971 142.685 62.2669L124.788 87.2734C118.934 95.4432 99.0566 91.2488 80.4429 77.9119C61.8292 64.5749 51.4702 47.115 57.3238 38.9452L75.2635 13.9389Z" fill="white"/>
<path fill-rule="evenodd" clip-rule="evenodd" d="M73.9844 12.4251C76.5884 8.77945 81.6227 7.1739 88.1327 7.6947C97.1165 8.43251 109.008 13.2497 120.466 21.4089C131.88 29.6116 140.256 39.3767 143.815 47.6227C146.419 53.612 146.506 58.9065 143.902 62.5521L126.021 87.5508C123.417 91.1964 118.34 92.8019 111.873 92.2811C102.889 91.4999 90.9542 86.7263 79.54 78.5237C68.0823 70.3645 59.7494 60.5991 56.1472 52.3531C53.5432 46.3639 53.4567 41.0693 56.0607 37.4237L73.9844 12.4251ZM141.428 60.7729V60.7296C143.511 57.8652 143.077 53.6119 141.037 48.8379C137.609 40.9825 129.58 31.7381 118.643 23.9261C107.75 16.1141 96.4222 11.4703 87.8724 10.7759C82.6644 10.3419 78.5419 11.2969 76.4587 14.2047L76.3714 14.3781C74.4184 17.2859 74.8529 21.4089 76.8927 26.0961C80.3213 33.9949 88.3503 43.2391 99.2438 51.0511C110.137 58.8631 121.464 63.5072 130.014 64.2016C135.135 64.5922 139.171 63.6808 141.298 60.9466L141.428 60.7296V60.7729ZM113.566 31.0006C119.034 34.9066 123.07 39.5503 124.762 43.4997C125.761 45.7131 126.021 47.6662 125.023 49.0116C124.068 50.357 122.115 50.7476 119.728 50.5306C115.432 50.1834 109.79 47.8397 104.321 43.9337C98.8528 40.0277 94.8163 35.4273 93.1237 31.4778C92.1689 29.2644 91.9086 27.3114 92.8634 25.966C93.8182 24.6206 95.7716 24.2301 98.202 24.4037C102.455 24.7943 108.141 27.0946 113.566 31.0006Z" fill="#0E0F23"/>
<mask id="mask0" mask-type="alpha" maskUnits="userSpaceOnUse" x="54" y="7" width="92" height="86">
<path fill-rule="evenodd" clip-rule="evenodd" d="M73.9844 12.4251C76.5884 8.77945 81.6227 7.1739 88.1327 7.6947C97.1165 8.43251 109.008 13.2497 120.466 21.4089C131.88 29.6116 140.256 39.3767 143.815 47.6227C146.419 53.612 146.506 58.9065 143.902 62.5521L126.021 87.5508C123.417 91.1964 118.34 92.8019 111.873 92.2811C102.889 91.4999 90.9542 86.7263 79.54 78.5237C68.0823 70.3645 59.7494 60.5991 56.1472 52.3531C53.5432 46.3639 53.4567 41.0693 56.0607 37.4237L73.9844 12.4251ZM141.428 60.7729V60.7296C143.511 57.8652 143.077 53.6119 141.038 48.8379C137.609 40.9825 129.58 31.7381 118.643 23.9261C107.75 16.1141 96.4223 11.4703 87.8724 10.7759C82.6644 10.3419 78.5419 11.2969 76.4587 14.2047L76.3714 14.3781C74.4184 17.2859 74.8529 21.4089 76.8927 26.0961C80.3213 33.9949 88.3504 43.2391 99.2438 51.0511C110.137 58.8631 121.464 63.5072 130.014 64.2016C135.135 64.5922 139.171 63.6808 141.298 60.9466L141.428 60.7296V60.7729ZM113.566 31.0006C119.034 34.9066 123.07 39.5503 124.762 43.4997C125.761 45.7131 126.021 47.6662 125.023 49.0116C124.068 50.357 122.115 50.7476 119.728 50.5306C115.432 50.1834 109.79 47.8397 104.321 43.9337C98.8528 40.0277 94.8163 35.4273 93.1237 31.4778C92.1689 29.2644 91.9086 27.3114 92.8634 25.966C93.8182 24.6206 95.7716 24.2301 98.202 24.4037C102.455 24.7943 108.141 27.0946 113.566 31.0006Z" fill="#0E0F23"/>
</mask>
<g mask="url(#mask0)">
<path fill-rule="evenodd" clip-rule="evenodd" d="M50.3418 61.6126C50.8192 61.6126 51.6006 62.7443 52.0346 63.0532C53.5536 64.1855 55.0724 65.3185 56.6348 66.2449C61.1918 69.0243 65.9221 70.5676 70.6093 69.5382C77.9873 67.8912 84.6709 55.0242 92.0923 56.7742C96.2587 57.7007 99.2103 63.5683 102.856 67.5829C106.328 71.5976 110.147 73.3474 114.009 72.5239C125.51 70.2592 129.851 47.6123 141.525 48.8476C151.203 49.877 147.428 61.5091 156.715 65.6267C156.802 65.7296 179.153 46.0682 179.326 42.6711C179.977 29.5977 167.566 -124.401 168.13 -124.401L57.4163 -83.7397L50.3418 61.6126Z" fill="url(#paint0_linear)"/>
</g>
<path d="M72.1924 21.3745C72.6698 32.7887 83.9106 43.6819 92.5472 51.0599C104.569 61.3023 123.926 68.9844 134.733 67.2484" stroke="white" stroke-width="0.01302" stroke-linecap="round" stroke-linejoin="round" stroke-dasharray="0.03 0.03 0.33 0.33"/>
</g>
<defs>
<linearGradient id="paint0_linear" x1="89.9225" y1="7.56847" x2="102.035" y2="68.5449" gradientUnits="userSpaceOnUse">
<stop stop-color="#27B0E6"/>
<stop offset="0.52" stop-color="#C26BB3"/>
<stop offset="1" stop-color="#FA52A0"/>
</linearGradient>
<clipPath id="clip0">
<rect width="100" height="100" fill="white" transform="translate(50)"/>
</clipPath>
</defs>
</svg>
