<svg width="200" height="100" viewBox="0 0 200 100" fill="none" xmlns="http://www.w3.org/2000/svg">
<g clip-path="url(#clip0)">
<path d="M45.2074 28.9856L34.6246 39.5671L20.9194 53.2708L20.9511 74.8864L42.5667 74.9181L53.1525 64.3323L66.8547 50.6301L66.9194 28.9166L45.2074 28.9856ZM45.9722 30.8228L63.7684 30.7696L53.6916 40.8464H35.9499L45.9722 30.8228ZM32.7817 44.0133V61.7549L22.7882 71.7484L22.7609 54.0341L32.7817 44.0133ZM41.8049 73.0766L24.0906 73.0522L34.0841 63.0587H51.8257L41.8063 73.0781L41.8049 73.0766ZM34.6231 61.2173V42.6864H53.1525V61.2144H34.6231V61.2173ZM54.9925 59.8904V42.1474L65.0694 32.0705L65.0147 49.8668L54.9925 59.8904Z" fill="url(#paint0_linear)"/>
</g>
<path d="M80.2031 61V44.1953H84.9844C86.4375 44.1953 87.5898 44.5508 88.4414 45.2617C89.293 45.9727 89.7188 46.8984 89.7188 48.0391C89.7188 48.9922 89.4609 49.8203 88.9453 50.5234C88.4297 51.2266 87.7188 51.7266 86.8125 52.0234V52.0703C87.9453 52.2031 88.8516 52.6328 89.5312 53.3594C90.2109 54.0781 90.5508 55.0156 90.5508 56.1719C90.5508 57.6094 90.0352 58.7734 89.0039 59.6641C87.9727 60.5547 86.6719 61 85.1016 61H80.2031ZM82.1719 45.9766V51.4023H84.1875C85.2656 51.4023 86.1133 51.1445 86.7305 50.6289C87.3477 50.1055 87.6562 49.3711 87.6562 48.4258C87.6562 46.793 86.582 45.9766 84.4336 45.9766H82.1719ZM82.1719 53.1719V59.2188H84.8438C86 59.2188 86.8945 58.9453 87.5273 58.3984C88.168 57.8516 88.4883 57.1016 88.4883 56.1484C88.4883 54.1641 87.1367 53.1719 84.4336 53.1719H82.1719ZM100.734 61.2812C98.3516 61.2812 96.4414 60.4961 95.0039 58.9258C93.5742 57.3555 92.8594 55.3125 92.8594 52.7969C92.8594 50.0938 93.5898 47.9375 95.0508 46.3281C96.5117 44.7188 98.5 43.9141 101.016 43.9141C103.336 43.9141 105.203 44.6953 106.617 46.2578C108.039 47.8203 108.75 49.8633 108.75 52.3867C108.75 55.1289 108.023 57.2969 106.57 58.8906C105.117 60.4844 103.172 61.2812 100.734 61.2812ZM100.875 45.6953C99.1094 45.6953 97.6758 46.332 96.5742 47.6055C95.4727 48.8789 94.9219 50.5508 94.9219 52.6211C94.9219 54.6914 95.457 56.3594 96.5273 57.625C97.6055 58.8828 99.0078 59.5117 100.734 59.5117C102.578 59.5117 104.031 58.9102 105.094 57.707C106.156 56.5039 106.688 54.8203 106.688 52.6562C106.688 50.4375 106.172 48.7227 105.141 47.5117C104.109 46.3008 102.688 45.6953 100.875 45.6953ZM125.602 61H123.188L114.539 47.6055C114.32 47.2695 114.141 46.918 114 46.5508H113.93C113.992 46.9102 114.023 47.6797 114.023 48.8594V61H112.055V44.1953H114.609L123.023 57.3789C123.375 57.9258 123.602 58.3008 123.703 58.5039H123.75C123.672 58.0195 123.633 57.1953 123.633 56.0312V44.1953H125.602V61ZM138.539 45.9766H131.977V51.7891H138.047V53.5586H131.977V61H130.008V44.1953H138.539V45.9766ZM143.695 61H141.727V44.1953H143.695V61ZM148.125 61V44.1953H152.766C158.688 44.1953 161.648 46.9258 161.648 52.3867C161.648 54.9805 160.824 57.0664 159.176 58.6445C157.535 60.2148 155.336 61 152.578 61H148.125ZM150.094 45.9766V59.2188H152.602C154.805 59.2188 156.52 58.6289 157.746 57.4492C158.973 56.2695 159.586 54.5977 159.586 52.4336C159.586 48.1289 157.297 45.9766 152.719 45.9766H150.094ZM177.375 61H175.195L173.414 56.2891H166.289L164.613 61H162.422L168.867 44.1953H170.906L177.375 61ZM172.77 54.5195L170.133 47.3594C170.047 47.125 169.961 46.75 169.875 46.2344H169.828C169.75 46.7109 169.66 47.0859 169.559 47.3594L166.945 54.5195H172.77Z" fill="white"/>
<defs>
<linearGradient id="paint0_linear" x1="20.9194" y1="28.9181" x2="67.3032" y2="28.9181" gradientUnits="userSpaceOnUse">
<stop stop-color="#3333FF"/>
<stop offset="1" stop-color="#8080FF"/>
</linearGradient>
<clipPath id="clip0">
<rect width="46" height="46" fill="white" transform="translate(21 29)"/>
</clipPath>
</defs>
</svg>
