<svg width="200" height="100" viewBox="0 0 200 100" fill="none" xmlns="http://www.w3.org/2000/svg">
<g clip-path="url(#clip0)">
<path d="M85.6173 45.2771C85.1659 43.5125 84.0277 42.2214 81.8022 42.2214C78.5181 42.2214 77.1447 45.1256 77.1447 48.0729C77.1447 51.0202 78.5181 53.926 81.8022 53.926C84.1867 53.926 85.4933 52.1407 85.7063 49.9028H88.3244C88.1098 53.5817 85.514 56.1193 81.807 56.1193C77.2146 56.1193 74.4678 52.4611 74.4678 48.0713C74.4678 43.6815 77.2051 40.017 81.7975 40.017C85.2517 40.0377 87.9763 41.9536 88.299 45.2675L85.6173 45.2771Z" fill="white"/>
<path d="M89.9092 50.1737C89.9092 46.7738 91.9471 44.3223 95.5094 44.3223C99.0717 44.3223 101.11 46.7738 101.11 50.1737C101.11 53.5737 99.0717 56.0491 95.5094 56.0491C91.9471 56.0491 89.9092 53.596 89.9092 50.1737ZM98.6632 50.1737C98.6632 48.261 97.6983 46.2589 95.5094 46.2589C93.3205 46.2589 92.3556 48.2594 92.3556 50.1737C92.3556 52.0881 93.3205 54.1124 95.5094 54.1124C97.6983 54.1124 98.6632 52.1104 98.6632 50.1737Z" fill="white"/>
<path d="M103.213 40.3835H105.659V42.7076H103.213V40.3835ZM103.213 44.6235H105.659V55.7478H103.213V44.6235Z" fill="white"/>
<path d="M108.32 44.6236H110.638V46.259L110.681 46.302C111.032 45.6962 111.537 45.1941 112.144 44.8462C112.75 44.4984 113.438 44.3171 114.137 44.3207C116.54 44.3207 118.063 45.6118 118.063 48.1064V55.7463H115.617V48.7536C115.574 47.0114 114.887 46.259 113.45 46.259C111.819 46.259 110.767 47.5485 110.767 49.1839V55.7479H108.32V44.6236Z" fill="white"/>
<path d="M134.35 55.7479H132.633L132.226 53.9403C130.796 55.5757 129.479 56.1129 127.616 56.1129C123.027 56.1161 120.274 52.4499 120.274 48.0649C120.274 43.6799 123.027 40.017 127.613 40.017C130.951 40.017 133.771 41.8022 134.178 45.2675H131.56C131.303 43.2448 129.545 42.2119 127.613 42.2119C124.329 42.2119 122.956 45.1161 122.956 48.0633C122.956 51.0106 124.329 53.9164 127.613 53.9164C130.358 53.9594 131.861 52.3033 131.905 49.6988H127.828V47.6569H134.345L134.35 55.7479Z" fill="white"/>
<path d="M138.836 50.8193C138.836 52.5631 139.78 54.1124 141.818 54.1124C143.235 54.1124 144.093 53.4876 144.521 52.2618H146.84C146.304 54.6926 144.244 56.0491 141.818 56.0491C138.343 56.0491 136.39 53.6167 136.39 50.196C136.39 47.032 138.456 44.3223 141.755 44.3223C145.252 44.3223 147.398 47.4847 146.991 50.8193H138.836ZM144.544 49.2062C144.459 47.6569 143.406 46.2589 141.755 46.2589C140.058 46.2589 138.901 47.5485 138.836 49.2062H144.544Z" fill="white"/>
<path d="M156.347 48.3454C156.153 46.989 155.166 46.2589 153.815 46.2589C152.543 46.2589 150.768 46.9252 150.768 50.3028C150.768 52.1534 151.583 54.1124 153.707 54.1124C155.123 54.1124 156.11 53.1656 156.347 51.5732H158.794C158.342 54.4567 156.568 56.0491 153.707 56.0491C150.23 56.0491 148.321 53.5737 148.321 50.3028C148.321 46.9459 150.146 44.3223 153.793 44.3223C156.368 44.3223 158.562 45.6134 158.794 48.3454H156.347Z" fill="white"/>
<path d="M160.86 40.3835H163.306V49.1201L167.727 44.6235H170.731L166.482 48.7104L171.138 55.7478H168.15L164.759 50.3459L163.3 51.7661V55.751H160.86V40.3835Z" fill="white"/>
<path d="M171.798 50.1737C171.798 46.7738 173.836 44.3223 177.399 44.3223C180.961 44.3223 183 46.7738 183 50.1737C183 53.5737 180.961 56.0491 177.399 56.0491C173.836 56.0491 171.798 53.596 171.798 50.1737ZM180.554 50.1737C180.554 48.261 179.587 46.2589 177.399 46.2589C175.21 46.2589 174.245 48.2594 174.245 50.1737C174.245 52.0881 175.21 54.1124 177.399 54.1124C179.587 54.1124 180.554 52.1104 180.554 50.1737V50.1737Z" fill="white"/>
<path d="M60.8736 49.8994C60.8927 54.25 59.6248 58.5085 57.2303 62.1366C54.8358 65.7646 51.4221 68.5991 47.421 70.2816C43.4199 71.9642 39.011 72.4192 34.752 71.5892C30.493 70.7592 26.5751 68.6814 23.4937 65.6186C20.4124 62.5558 18.306 58.6455 17.4409 54.3822C16.5759 50.119 16.991 45.6942 18.6338 41.6675C20.2766 37.6409 23.0734 34.1931 26.6703 31.7603C30.2673 29.3274 34.5029 28.0188 38.8416 27.9998C44.6593 27.9744 50.2488 30.2674 54.3805 34.3743C58.5123 38.4812 60.8479 44.0658 60.8736 49.8994Z" fill="#8DC63F"/>
<path d="M59.2281 49.9076C59.2463 53.9313 58.0742 57.87 55.86 61.2256C53.6458 64.5813 50.4889 67.2032 46.7887 68.7598C43.0884 70.3163 39.0109 70.7377 35.0719 69.9705C31.1328 69.2034 27.5091 67.2821 24.6589 64.4498C21.8088 61.6175 19.8602 58.0013 19.0597 54.0585C18.2592 50.1157 18.6426 46.0234 20.1615 42.2991C21.6805 38.5748 24.2666 35.3858 27.593 33.1354C30.9194 30.885 34.8366 29.6742 38.8493 29.6562C44.2296 29.6325 49.3991 31.7526 53.2208 35.5504C57.0424 39.3481 59.2033 44.5125 59.2281 49.9076V49.9076Z" fill="#F9E988"/>
<path d="M39.3102 30.9743C40.5999 30.7448 41.9198 30.7448 43.2095 30.9743C44.5117 31.1811 45.7704 31.604 46.934 32.2256C48.0912 32.8632 49.0911 33.7287 50.0862 34.5401C51.0813 35.3514 52.0716 36.1818 53.0142 37.0904C53.9765 37.9848 54.8162 39.0032 55.5115 40.119C56.2274 41.2259 56.8141 42.4116 57.2601 43.6528C58.1073 46.149 58.4014 48.838 57.9786 51.4027H57.853C57.4286 48.8603 56.8531 46.4375 55.9455 44.1326C55.5194 42.9719 55.0182 41.8404 54.4449 40.7454C53.8467 39.6502 53.1876 38.5896 52.4706 37.5686C51.7414 36.5365 50.8478 35.6317 49.8255 34.8907C48.7954 34.1543 47.6111 33.6777 46.465 33.225C45.3189 32.7723 44.1823 32.3037 42.987 31.9594C41.7916 31.6151 40.5771 31.3569 39.3086 31.1066L39.3102 30.9743Z" fill="white"/>
<path d="M49.228 42.7267C47.756 42.2995 46.23 41.6938 44.6849 41.0817C44.5959 40.6928 44.2525 40.2082 43.5579 39.6169C42.5485 38.7386 40.6521 38.7609 39.0132 39.1498C37.2042 38.7226 35.4175 38.5712 33.7023 38.9904C19.674 42.8654 27.6284 52.3192 22.478 61.8225C23.2108 63.3814 31.1096 72.4766 42.5389 70.0362C42.5389 70.0362 38.6301 60.6174 47.4508 56.0969C54.6057 52.4165 59.7751 45.607 49.228 42.7267Z" fill="#8BC53F"/>
<path d="M50.9606 48.9129C50.9616 49.0816 50.9126 49.2467 50.82 49.3875C50.7273 49.5283 50.5951 49.6383 50.4401 49.7037C50.285 49.7691 50.1141 49.787 49.949 49.755C49.7838 49.723 49.6318 49.6427 49.5122 49.5241C49.3926 49.4055 49.3108 49.254 49.2771 49.0888C49.2433 48.9235 49.2592 48.752 49.3227 48.5958C49.3862 48.4396 49.4944 48.3058 49.6338 48.2113C49.7731 48.1168 49.9372 48.0659 50.1054 48.0649C50.3309 48.0641 50.5474 48.1529 50.7077 48.3118C50.868 48.4707 50.959 48.6869 50.9606 48.9129V48.9129Z" fill="white"/>
<path d="M39.0132 39.1434C40.0353 39.2168 43.7312 40.4186 44.6849 41.0753C43.8901 38.7641 41.2148 38.4564 39.0132 39.1434Z" fill="#009345"/>
<path d="M39.986 44.9886C39.9863 45.7667 39.7565 46.5275 39.3256 47.1746C38.8947 47.8217 38.2821 48.3262 37.5652 48.6242C36.8484 48.9222 36.0595 49.0003 35.2984 48.8487C34.5373 48.6971 33.8381 48.3226 33.2893 47.7725C32.7405 47.2224 32.3667 46.5214 32.2151 45.7583C32.0636 44.9951 32.1412 44.204 32.4381 43.4851C32.735 42.7662 33.2379 42.1517 33.8831 41.7194C34.5283 41.287 35.2868 41.0563 36.0628 41.0563C36.5779 41.0561 37.0881 41.1576 37.564 41.3551C38.04 41.5527 38.4725 41.8423 38.8368 42.2075C39.2011 42.5726 39.4901 43.0062 39.6873 43.4834C39.8845 43.9606 39.986 44.4721 39.986 44.9886Z" fill="white"/>
<path d="M38.8223 45.0237C38.8223 45.571 38.6605 46.106 38.3573 46.561C38.0541 47.0161 37.6231 47.3707 37.1188 47.5802C36.6146 47.7896 36.0597 47.8444 35.5244 47.7376C34.9891 47.6309 34.4974 47.3673 34.1115 46.9803C33.7255 46.5933 33.4627 46.1003 33.3562 45.5635C33.2498 45.0267 33.3044 44.4704 33.5133 43.9647C33.7221 43.4591 34.0758 43.0269 34.5297 42.7229C34.9835 42.4188 35.517 42.2565 36.0628 42.2565C36.7947 42.2565 37.4966 42.5481 38.0141 43.067C38.5316 43.5859 38.8223 44.2898 38.8223 45.0237V45.0237Z" fill="#58595B"/>
<path d="M54.1385 50.6472C50.9592 52.8931 47.3445 54.597 42.2164 54.597C39.8161 54.597 39.3296 52.0467 37.7432 53.2932C36.9246 53.9403 34.0378 55.3877 31.7472 55.2777C29.4566 55.1677 25.7432 53.8208 24.7084 48.9177C24.2983 53.8208 24.0884 57.4327 22.2524 61.5723C25.9085 67.4429 34.626 71.9713 42.5391 70.0203C41.6886 64.0668 46.8771 58.2361 49.8004 55.2522C50.9131 54.122 53.0273 52.2778 54.1385 50.644V50.6472Z" fill="#8BC53F"/>
<path d="M54.014 50.7939C53.0269 51.696 51.8522 52.3639 50.6568 52.9537C49.4468 53.5298 48.1855 53.9903 46.8894 54.3293C45.5923 54.6656 44.2395 54.9191 42.8693 54.7947C41.499 54.6704 40.0986 54.2034 39.1909 53.1737L39.2338 53.1242C40.3466 53.8479 41.631 54.1029 42.909 54.1396C44.2045 54.1791 45.5002 54.0722 46.7718 53.8208C48.0563 53.5512 49.3128 53.1616 50.5248 52.6572C51.7377 52.1551 52.9379 51.5733 53.9711 50.7444L54.014 50.7939Z" fill="#58595B"/>
</g>
<defs>
<clipPath id="clip0">
<rect width="166" height="44" fill="white" transform="translate(17 28)"/>
</clipPath>
</defs>
</svg>
