<svg width="200" height="100" viewBox="0 0 200 100" fill="none" xmlns="http://www.w3.org/2000/svg">
<path d="M30.4021 57.7397C31.5319 57.7397 32.4913 57.5753 33.2804 57.2466C34.0874 56.9178 34.742 56.4429 35.2441 55.8219C35.7641 55.2009 36.1407 54.4612 36.3739 53.6027C36.607 52.7443 36.7236 51.7763 36.7236 50.6986C36.7236 48.5434 36.2752 46.863 35.3786 45.6575C34.4819 44.4338 33.0114 43.8219 30.967 43.8219H27.2549V57.7397H30.4021ZM30.9401 41C32.3568 41 33.6301 41.2009 34.7599 41.6027C35.8897 41.9863 36.8491 42.5799 37.6382 43.3836C38.4272 44.1872 39.028 45.2009 39.4404 46.4247C39.8708 47.6301 40.086 49.0457 40.086 50.6712C40.086 52.2968 39.8619 53.7306 39.4135 54.9726C38.9652 56.1963 38.3196 57.2283 37.4768 58.0685C36.6339 58.8904 35.6027 59.5114 34.3833 59.9315C33.1818 60.3516 31.8189 60.5616 30.2945 60.5616H24V41H30.9401Z" fill="white"/>
<path d="M55.1118 56.3425C54.8608 57.8219 54.2421 58.9726 53.2558 59.7945C52.2694 60.5982 50.8527 61 49.0056 61C46.7819 61 45.0872 60.3516 43.9216 59.0548C42.7738 57.7397 42.2 55.895 42.2 53.5205C42.2 52.2968 42.3614 51.21 42.6842 50.2603C43.0249 49.3105 43.4912 48.516 44.083 47.8767C44.6927 47.2192 45.41 46.726 46.2349 46.3973C47.0778 46.0502 48.0013 45.8767 49.0056 45.8767C50.0816 45.8767 51.0141 46.0502 51.8032 46.3973C52.5922 46.726 53.2468 47.2009 53.7669 47.8219C54.2869 48.4247 54.6725 49.1553 54.9235 50.0137C55.1746 50.8539 55.3001 51.7945 55.3001 52.8356V54.2055H45.2665C45.3024 55.5023 45.6252 56.5525 46.2349 57.3562C46.8447 58.1598 47.7682 58.5616 49.0056 58.5616C49.974 58.5616 50.7003 58.3699 51.1845 57.9863C51.6687 57.6027 51.9915 57.0548 52.1529 56.3425H55.1118ZM52.3143 52.0411C52.3143 50.8721 52.0453 49.9498 51.5073 49.274C50.9693 48.5982 50.1085 48.2603 48.9249 48.2603C47.7951 48.2603 46.9343 48.6073 46.3425 49.3014C45.7507 49.9772 45.41 50.8904 45.3203 52.0411H52.3143Z" fill="white"/>
<path d="M70.3123 41V43.8493H61.3009V49.3836H69.7743V52.2603H61.3009V60.5616H58.046V41H70.3123Z" fill="white"/>
<path d="M75.2803 41V44.0959H72.1062V41H75.2803ZM75.2265 46.3151V60.5616H72.16V46.3151H75.2265Z" fill="white"/>
<path d="M89.5304 41H92.7584L100.075 60.5616H96.6051L94.8028 55.5753H87.3516L85.5762 60.5616H82.2137L89.5304 41ZM93.9151 52.8082L91.0637 44.7534L88.2393 52.8082H93.9151Z" fill="white"/>
<path d="M104.663 41V60.5616H101.596V41H104.663Z" fill="white"/>
<path d="M110.745 41V60.5616H107.678V41H110.745Z" fill="white"/>
<path d="M116.88 41V44.0959H113.706V41H116.88ZM116.827 46.3151V60.5616H113.76V46.3151H116.827Z" fill="white"/>
<path d="M126.271 53.9041C125.356 53.9589 124.612 54.0594 124.038 54.2055C123.482 54.3516 123.052 54.5434 122.747 54.7808C122.442 55 122.236 55.2648 122.128 55.5753C122.039 55.8676 121.994 56.1872 121.994 56.5342C121.994 57.1553 122.182 57.6393 122.559 57.9863C122.953 58.3333 123.527 58.5068 124.28 58.5068C125.625 58.5068 126.621 58.1598 127.266 57.4658C127.912 56.7717 128.235 55.831 128.235 54.6438V53.8219L126.271 53.9041ZM128.288 58.6986C127.768 59.3379 127.132 59.8676 126.378 60.2877C125.625 60.7078 124.711 60.9178 123.635 60.9178C122.971 60.9178 122.352 60.8265 121.779 60.6438C121.205 60.4795 120.703 60.2237 120.272 59.8767C119.86 59.5297 119.528 59.0913 119.277 58.5616C119.044 58.0137 118.927 57.3744 118.927 56.6438C118.927 55.6575 119.142 54.863 119.573 54.2603C120.003 53.6393 120.559 53.1553 121.241 52.8082C121.94 52.4612 122.72 52.2237 123.581 52.0959C124.442 51.9498 125.302 51.8584 126.163 51.8219L128.235 51.7123V51.1096C128.235 50.032 127.974 49.2922 127.454 48.8904C126.952 48.4703 126.289 48.2603 125.464 48.2603C124.513 48.2603 123.805 48.4247 123.339 48.7534C122.89 49.0822 122.595 49.5571 122.451 50.1781L119.654 49.8767C119.905 48.4886 120.523 47.4749 121.51 46.8356C122.496 46.1963 123.85 45.8767 125.571 45.8767C126.683 45.8767 127.598 46.0228 128.315 46.3151C129.05 46.6073 129.633 47.0091 130.064 47.5205C130.494 48.032 130.79 48.6438 130.951 49.3562C131.131 50.0502 131.22 50.8174 131.22 51.6575V60.5616H128.288V58.6986Z" fill="white"/>
<path d="M136.999 46.3151V48.3973C137.627 47.5205 138.326 46.8813 139.097 46.4795C139.886 46.0776 140.729 45.8767 141.626 45.8767C144.746 45.8767 146.307 47.6301 146.307 51.137V60.5616H143.24V51.6301C143.24 50.4795 143.034 49.6758 142.621 49.2192C142.209 48.7443 141.599 48.5068 140.792 48.5068C140.254 48.5068 139.752 48.6073 139.286 48.8082C138.837 48.9909 138.452 49.2466 138.129 49.5753C137.806 49.9041 137.546 50.2877 137.349 50.726C137.17 51.1461 137.08 51.5936 137.08 52.0685V60.5616H134.04V46.3151H136.999Z" fill="white"/>
<path d="M161.453 55.5753C161.273 57.274 160.672 58.6073 159.65 59.5753C158.646 60.5251 157.202 61 155.319 61C154.19 61 153.203 60.8265 152.36 60.4795C151.535 60.1142 150.845 59.6027 150.289 58.9452C149.733 58.2877 149.321 57.5023 149.052 56.589C148.783 55.6575 148.648 54.6256 148.648 53.4931C148.648 52.3607 148.801 51.3288 149.106 50.3973C149.41 49.4475 149.85 48.6438 150.424 47.9863C151.015 47.3105 151.733 46.79 152.576 46.4247C153.418 46.0594 154.378 45.8767 155.454 45.8767C156.44 45.8767 157.274 46.0137 157.956 46.2877C158.637 46.5434 159.202 46.8995 159.65 47.3562C160.099 47.7945 160.448 48.3059 160.699 48.8904C160.95 49.4749 161.13 50.0868 161.237 50.726L158.198 51.1918C158.054 50.3881 157.776 49.7215 157.364 49.1918C156.969 48.6621 156.297 48.3973 155.346 48.3973C154.665 48.3973 154.1 48.5434 153.652 48.8356C153.203 49.1279 152.845 49.5114 152.576 49.9863C152.307 50.4429 152.109 50.9726 151.984 51.5753C151.876 52.1781 151.822 52.79 151.822 53.411C151.822 54.1233 151.885 54.79 152.011 55.411C152.136 56.032 152.334 56.5708 152.603 57.0274C152.872 57.4658 153.23 57.8219 153.678 58.0959C154.127 58.3516 154.674 58.4795 155.319 58.4795C156.252 58.4795 156.96 58.2329 157.444 57.7397C157.929 57.2283 158.234 56.5068 158.359 55.5753H161.453Z" fill="white"/>
<path d="M175.812 56.3425C175.561 57.8219 174.942 58.9726 173.956 59.7945C172.969 60.5982 171.553 61 169.705 61C167.482 61 165.787 60.3516 164.621 59.0548C163.474 57.7397 162.9 55.895 162.9 53.5205C162.9 52.2968 163.061 51.21 163.384 50.2603C163.725 49.3105 164.191 48.516 164.783 47.8767C165.393 47.2192 166.11 46.726 166.935 46.3973C167.778 46.0502 168.701 45.8767 169.705 45.8767C170.781 45.8767 171.714 46.0502 172.503 46.3973C173.292 46.726 173.947 47.2009 174.467 47.8219C174.987 48.4247 175.372 49.1553 175.623 50.0137C175.874 50.8539 176 51.7945 176 52.8356V54.2055H165.966C166.002 55.5023 166.325 56.5525 166.935 57.3562C167.545 58.1598 168.468 58.5616 169.705 58.5616C170.674 58.5616 171.4 58.3699 171.884 57.9863C172.369 57.6027 172.691 57.0548 172.853 56.3425H175.812ZM173.014 52.0411C173.014 50.8721 172.745 49.9498 172.207 49.274C171.669 48.5982 170.808 48.2603 169.625 48.2603C168.495 48.2603 167.634 48.6073 167.042 49.3014C166.451 49.9772 166.11 50.8904 166.02 52.0411H173.014Z" fill="white"/>
</svg>
