<svg width="200" height="100" viewBox="0 0 200 100" fill="none" xmlns="http://www.w3.org/2000/svg">
<g clip-path="url(#clip0)">
<path d="M27.8876 46.087H13.8169V39.8261H21.6339V32H27.8876V46.087Z" fill="white"/>
<path d="M27.8877 53.913V39.826H34.1413V47.6521H41.9584V53.913H27.8877Z" fill="#8F68FC"/>
<path d="M20.0708 53.913H34.1415V60.1739H26.3244V68H20.0708V53.913Z" fill="#05D2DD"/>
<path d="M20.0707 46.0869V60.1739H13.817V52.3478H6L6 46.0869H20.0707Z" fill="#FF961C"/>
<path d="M56.1095 55.3819C55.2743 54.5978 54.8564 53.3433 54.8564 51.6184C54.8564 50.4684 55.0652 49.4752 55.483 48.6389C55.9008 47.8025 56.475 47.1753 57.2059 46.7571C57.9368 46.3389 58.72 46.1298 59.66 46.1298C60.7564 46.1298 61.696 46.3912 62.4792 46.9139V41.5822L65.2988 41.8435V56.3228H62.8447L62.6883 55.3819C62.2705 55.7478 61.8007 56.0614 61.2785 56.2183C60.7564 56.3751 60.1822 56.4796 59.4509 56.4796C58.0415 56.5319 56.8928 56.1137 56.1095 55.3819ZM61.4353 54.2319C61.8007 54.0751 62.1138 53.866 62.4273 53.5524V49.0048C61.8527 48.482 61.1742 48.2207 60.3909 48.2207C59.5033 48.2207 58.8768 48.5343 58.4069 49.1093C57.9891 49.632 57.728 50.4684 57.728 51.6184C57.728 52.6638 57.9368 53.3956 58.3546 53.8138C58.7724 54.2319 59.3989 54.441 60.2342 54.441C60.704 54.441 61.0694 54.3888 61.4353 54.2319Z" fill="white"/>
<path d="M68.7445 55.2252C67.7525 54.3366 67.2827 53.0298 67.2827 51.3048C67.2827 49.6843 67.7005 48.4298 68.5878 47.4889C69.4754 46.6003 70.7285 46.1299 72.347 46.1299C73.8611 46.1299 75.0622 46.548 75.8975 47.3321C76.7327 48.1162 77.1506 49.2139 77.1506 50.5207V52.3502H69.8932C70.0499 53.1343 70.363 53.657 70.9376 53.9706C71.5117 54.2843 72.347 54.4411 73.4437 54.4411C73.9659 54.4411 74.5401 54.3888 75.0622 54.2843C75.5844 54.1797 76.1062 54.0752 76.472 53.9184V55.9047C75.532 56.3228 74.3313 56.532 72.8172 56.532C71.1463 56.532 69.7365 56.1138 68.7445 55.2252ZM74.6444 50.573V50.0502C74.6444 48.7957 73.9135 48.2207 72.4517 48.2207C71.5117 48.2207 70.8852 48.4298 70.5198 48.7957C70.1543 49.1616 69.9456 49.7889 69.9456 50.6252H74.6444V50.573Z" fill="white"/>
<path d="M79.6569 48.5343H78.2471V46.3389H79.6569V44.823C79.6569 43.7776 79.9703 42.889 80.5445 42.2617C81.171 41.5822 82.0063 41.2686 83.155 41.2686C83.9906 41.2686 84.7215 41.4254 85.4001 41.6867V43.6208C84.9826 43.464 84.5648 43.4117 84.147 43.4117C83.5205 43.4117 83.103 43.5162 82.8939 43.7253C82.6328 43.9344 82.5285 44.3003 82.5285 44.8753V46.3389H84.4605L84.1994 48.5343H82.5808V56.3229H79.7612V48.5343H79.6569Z" fill="white"/>
<path d="M93.5972 46.3389H96.1033L96.26 47.2798C96.7299 46.9139 97.1997 46.6003 97.7218 46.4435C98.244 46.2344 98.8182 46.1821 99.5491 46.1821C101.063 46.1821 102.212 46.6003 102.943 47.3844C103.726 48.2207 104.092 49.4752 104.092 51.2525C104.092 53.0297 103.674 54.3365 102.838 55.2251C102.003 56.1137 100.855 56.5842 99.3404 56.5842C98.1916 56.5842 97.252 56.3229 96.4688 55.8001V60.9228H93.6495V46.3389H93.5972ZM100.541 53.657C100.959 53.1343 101.168 52.2979 101.168 51.2002C101.168 50.1548 100.959 49.3707 100.593 48.9002C100.176 48.4298 99.5491 48.2207 98.7138 48.2207C97.8262 48.2207 97.0953 48.5343 96.4688 49.1093V53.657C96.7822 53.9183 97.0953 54.0752 97.4607 54.232C97.7742 54.3365 98.1916 54.4411 98.6095 54.4411C99.4447 54.4411 100.124 54.1797 100.541 53.657Z" fill="#8F68FC"/>
<path d="M106.024 46.339H108.634L108.739 47.3844C109.209 47.0708 109.783 46.8094 110.41 46.6003C111.088 46.3912 111.715 46.2344 112.341 46.1299V48.273C111.715 48.3775 111.088 48.4821 110.41 48.6912C109.731 48.9003 109.157 49.1094 108.791 49.3185V56.2706H106.024V46.339Z" fill="#8F68FC"/>
<path d="M115.474 48.4298H113.96L114.221 46.3389H118.294V56.3228H115.474V48.4298Z" fill="#8F68FC"/>
<path d="M120.747 46.339H123.358L123.462 47.3321C124.506 46.548 125.655 46.1299 126.856 46.1299C127.535 46.1299 128.057 46.2344 128.475 46.4435C128.892 46.6526 129.153 46.9662 129.414 47.3844C129.936 46.9662 130.459 46.7049 131.085 46.4958C131.659 46.2867 132.39 46.1821 133.121 46.1821C134.27 46.1821 135.105 46.4958 135.68 47.0708C136.254 47.6458 136.515 48.5866 136.515 49.7889V56.3751H133.696V50.1025C133.696 49.4753 133.539 49.0048 133.278 48.6912C133.017 48.3775 132.547 48.273 131.92 48.273C131.503 48.273 131.137 48.3775 130.772 48.5344C130.406 48.6912 130.093 48.9003 129.832 49.2139C129.884 49.4753 129.936 49.7366 129.936 50.1025V56.4274H127.274V50.1548C127.274 49.5275 127.169 49.0571 126.96 48.7434C126.751 48.4298 126.334 48.3253 125.759 48.3253C125.028 48.3253 124.298 48.6912 123.567 49.423V56.4797H120.747V46.339Z" fill="#8F68FC"/>
<path d="M139.857 55.2252C138.865 54.3366 138.395 53.0298 138.395 51.3048C138.395 49.6843 138.812 48.4298 139.7 47.4889C140.588 46.6003 141.841 46.1299 143.459 46.1299C144.973 46.1299 146.175 46.548 147.01 47.3321C147.845 48.1162 148.263 49.2139 148.263 50.5207V52.3502H141.006C141.162 53.1343 141.475 53.657 142.049 53.9706C142.624 54.2843 143.459 54.4411 144.556 54.4411C145.078 54.4411 145.652 54.3888 146.175 54.2843C146.696 54.1797 147.219 54.0752 147.584 53.9184V55.9047C146.644 56.3228 145.443 56.532 143.929 56.532C142.259 56.532 140.849 56.1138 139.857 55.2252ZM145.757 50.573V50.0502C145.757 48.7957 145.026 48.2207 143.564 48.2207C142.624 48.2207 141.997 48.4298 141.632 48.7957C141.267 49.1616 141.057 49.7889 141.057 50.6252H145.757V50.573Z" fill="#8F68FC"/>
<path d="M157.347 55.2251C156.408 54.3365 155.938 53.0297 155.938 51.357C155.938 49.6321 156.46 48.3253 157.452 47.4889C158.444 46.6003 159.802 46.1821 161.577 46.1821C162.255 46.1821 162.882 46.2344 163.404 46.3389C163.926 46.4435 164.396 46.6003 164.866 46.8094V48.848C164.083 48.4821 163.195 48.3253 162.151 48.3253C161.055 48.3253 160.219 48.5343 159.697 49.0048C159.175 49.4752 158.862 50.2593 158.862 51.4093C158.862 52.507 159.123 53.2911 159.645 53.7615C160.167 54.232 161.002 54.4933 162.151 54.4933C163.195 54.4933 164.083 54.2842 164.918 53.9183V56.0092C163.978 56.4274 162.83 56.6365 161.524 56.6365C159.697 56.5319 158.339 56.0615 157.347 55.2251Z" fill="white"/>
<path d="M165.701 51.3048C165.701 49.6321 166.171 48.3253 167.059 47.4367C167.946 46.5481 169.304 46.0776 171.131 46.0776C172.959 46.0776 174.316 46.5481 175.204 47.4367C176.091 48.3253 176.561 49.6321 176.561 51.3048C176.561 54.7547 174.734 56.532 171.131 56.532C167.476 56.532 165.701 54.807 165.701 51.3048ZM173.063 53.448C173.428 53.0298 173.637 52.298 173.637 51.3048C173.637 50.3116 173.428 49.5798 173.063 49.1617C172.697 48.7435 172.019 48.5344 171.079 48.5344C170.191 48.5344 169.512 48.7435 169.147 49.1617C168.781 49.5798 168.573 50.3116 168.573 51.3048C168.573 52.298 168.781 53.0298 169.147 53.448C169.512 53.8661 170.191 54.0752 171.079 54.0752C172.019 54.1275 172.645 53.9184 173.063 53.448Z" fill="white"/>
<path d="M178.232 46.339H180.842L180.947 47.3321C181.991 46.548 183.14 46.1299 184.341 46.1299C185.019 46.1299 185.541 46.2344 185.959 46.4435C186.377 46.6526 186.638 46.9662 186.899 47.3844C187.421 46.9662 187.943 46.7049 188.57 46.4958C189.144 46.2867 189.875 46.1821 190.606 46.1821C191.755 46.1821 192.59 46.4958 193.164 47.0708C193.686 47.6458 194 48.5866 194 49.7889V56.3751H191.18V50.1025C191.18 49.4753 191.024 49.0048 190.763 48.6912C190.502 48.3775 190.032 48.273 189.405 48.273C188.987 48.273 188.622 48.3775 188.257 48.5344C187.891 48.6912 187.578 48.9003 187.317 49.2139C187.369 49.4753 187.421 49.7366 187.421 50.1025V56.4274H184.758V50.1548C184.758 49.5275 184.654 49.0571 184.445 48.7434C184.236 48.4298 183.818 48.3253 183.244 48.3253C182.513 48.3253 181.782 48.6912 181.051 49.423V56.4797H178.232V46.339Z" fill="white"/>
<path d="M118.346 41.6344H115.474V44.5094H118.346V41.6344Z" fill="#8F68FC"/>
<path d="M87.6452 48.4298H85.9224L86.1835 46.3389H90.5172V56.3228H87.6976V48.4298H87.6452Z" fill="white"/>
<path d="M153.693 53.5002H150.821V56.3751H153.693V53.5002Z" fill="white"/>
</g>
<defs>
<clipPath id="clip0">
<rect width="188" height="36" fill="white" transform="translate(6 32)"/>
</clipPath>
</defs>
</svg>
