<svg width="200" height="100" viewBox="0 0 200 100" fill="none" xmlns="http://www.w3.org/2000/svg">
<path fill-rule="evenodd" clip-rule="evenodd" d="M31.7858 44.7122C41.684 41.401 50.5324 42.0672 51.547 46.2012C52.5615 50.3351 45.3637 56.372 35.4654 59.6832C25.5672 62.9944 16.7188 62.3231 15.7042 58.1942C14.6897 54.0602 21.8875 48.0234 31.7858 44.7122Z" fill="url(#paint0_linear)"/>
<path fill-rule="evenodd" clip-rule="evenodd" d="M18.9143 33.5722C19.944 33.1785 22.9928 35.7376 24.825 37.0096C26.521 36.4241 29.1306 35.7881 31.4272 36.1515C32.679 36.3534 33.7895 36.6916 34.6476 37.156C35.6117 36.4948 40.8359 32.4769 41.1741 33.8599C41.4315 34.9149 41.4012 35.9446 41.2498 36.9389C40.9722 38.7712 40.4977 40.659 40.0182 42.5266C39.781 43.4503 39.3368 44.3437 39.251 45.1766C39.1197 46.4385 39.5488 47.7912 39.8617 48.9017C40.1797 50.0172 40.3412 51.2134 41.0883 51.9807C45.1717 55.1455 48.7757 59.6933 49.5278 61.9395C49.8458 62.8834 49.6893 63.6355 49.0685 64.1604C48.0337 65.0438 46.5901 64.8923 45.4595 64.0898C44.7377 63.5749 43.7736 62.5452 43.0063 61.7275C42.5773 61.2732 41.7848 60.5262 41.164 60.0063C40.8359 59.7388 40.6895 59.6984 40.4775 59.6732C40.1343 59.6277 39.4478 59.8953 38.9431 60.0315C37.5954 60.395 35.9499 60.6675 34.4104 60.8694C34.9959 61.5811 36.2527 62.5806 37.0199 63.4487C37.4591 63.9535 38.0749 64.6854 38.0951 65.599C38.1102 66.3763 37.2168 67.4918 34.8747 67.1738C34.2185 67.083 31.9724 66.1189 31.5736 65.8817C22.0186 60.2334 21.6198 54.8023 20.5245 45.6107C20.2217 43.0667 19.0658 39.8766 18.6064 37.0853C18.4146 35.9092 17.9704 33.9659 18.9143 33.5722Z" fill="#E7651A"/>
<path d="M58.8003 43.1121V60.0214C58.8003 60.0214 73.943 63.1357 73.943 51.5667C73.943 39.498 58.8003 43.1121 58.8003 43.1121ZM62.7222 57.0887V46.1406C62.7222 46.1406 69.9806 44.6263 69.9806 51.5819C69.9756 57.8307 62.7222 57.0887 62.7222 57.0887Z" fill="#E7651A"/>
<path d="M82.6449 46.6858C79.0157 46.6858 76.3506 49.7598 76.3506 53.5454C76.3506 57.3361 79.0157 60.4051 82.6449 60.4051C86.2741 60.4051 88.9039 57.3311 88.9039 53.5454C88.9039 49.7547 86.2741 46.6858 82.6449 46.6858ZM82.6348 57.3109C80.4795 57.3109 80.0101 55.1253 80.0101 53.5454C80.0101 51.9655 80.2624 49.8355 82.6348 49.8355C84.9617 49.8355 85.2444 51.9655 85.2444 53.5454C85.2444 55.1253 84.775 57.3109 82.6348 57.3109Z" fill="#E7651A"/>
<path d="M92.0586 47.5691V59.9608H95.5919V49.9919C95.5919 49.9919 97.7371 49.361 99.6602 50.2443C100.231 48.0991 100.357 47.3419 100.357 47.3419C100.357 47.3419 98.5598 46.5697 96.2077 46.7211C93.8555 46.8725 92.0586 47.5691 92.0586 47.5691Z" fill="#E7651A"/>
<path d="M108.287 46.6858C104.395 46.3527 102.608 47.3874 102.608 47.3874L102.947 50.1636C102.947 50.1636 105.188 49.25 107.595 49.6992C109.276 50.0172 109.15 52.0564 109.15 52.0564H105.904C104.905 52.0564 103.906 52.2836 103.047 52.7883C102.093 53.3436 101.301 54.2067 101.225 55.8219C101.079 58.9363 102.972 59.86 104.234 60.1325C105.819 60.1325 108.726 60.1881 110.079 60.1325C111.341 60.0821 112.416 59.542 112.416 59.542V49.9718C112.411 49.9718 112.179 47.0139 108.287 46.6858ZM109.15 57.3968H106.015C106.015 57.3968 104.774 57.2807 104.774 56.0491C104.774 54.9537 105.49 54.449 106.162 54.449C106.833 54.449 109.15 54.449 109.15 54.449V57.3968V57.3968Z" fill="#E7651A"/>
<path d="M140.273 46.6858C136.381 46.3527 134.595 47.3874 134.595 47.3874L134.933 50.1636C134.933 50.1636 137.174 49.25 139.582 49.6992C141.262 50.0172 141.136 52.0564 141.136 52.0564H137.891C136.891 52.0564 135.892 52.2836 135.034 52.7883C134.08 53.3436 133.287 54.2067 133.212 55.8219C133.065 58.9363 134.958 59.86 136.22 60.1325C137.805 60.1325 140.712 60.1881 142.065 60.1325C143.327 60.0821 144.402 59.542 144.402 59.542V49.9718C144.397 49.9718 144.165 47.0139 140.273 46.6858ZM141.136 57.3968H138.002C138.002 57.3968 136.76 57.2807 136.76 56.0491C136.76 54.9537 137.477 54.449 138.148 54.449C138.819 54.449 141.136 54.449 141.136 54.449V57.3968V57.3968Z" fill="#E7651A"/>
<path d="M126.478 42.8042V49.6537H120.012V42.8042H116.1V59.87H120.012V53.0205H126.478V59.87H130.39V42.8042H126.478Z" fill="#E7651A"/>
<path d="M157.647 47.4379L156.92 50.1485C156.92 50.1485 150.989 48.3869 151.05 53.5404C151.11 58.694 155.719 57.4977 157.137 56.7759C157.455 58.8908 157.642 59.7086 157.642 59.7086C157.642 59.7086 154.674 60.7584 152.089 60.1527C149.505 59.547 146.976 57.629 147.168 53.384C147.36 49.139 150.262 47.7155 151.65 47.1199C153.987 46.1104 157.647 47.4379 157.647 47.4379Z" fill="#E7651A"/>
<path d="M160.297 41.507L164.052 40.9366V51.6627L168.282 46.9937H172.386L167.338 52.7025C167.338 52.7025 171.694 57.7248 172.608 59.865C171.376 59.8297 168.348 59.865 168.348 59.865C168.348 59.865 167.02 56.6951 164.118 54.4439C164.118 57.21 164.118 59.865 164.118 59.865H160.428L160.297 41.507Z" fill="#E7651A"/>
<path d="M183.485 47.4025L182.758 50.0525C182.758 50.0525 178.17 48.7351 177.837 50.4008C177.584 51.6627 180.351 52.2886 181.022 52.6065C182.819 53.4596 184 54.3732 184 56.3316C184 58.2901 183.107 60.3394 178.624 60.3394C174.142 60.3394 173.859 59.4208 173.859 59.4208L174.586 56.579C174.586 56.579 176.302 57.7298 179.225 57.3866C181.022 57.1746 180.436 55.7865 178.932 55.1909C177.428 54.5902 173.496 53.7826 174.526 49.9212C175.914 44.7223 183.485 47.4025 183.485 47.4025Z" fill="#E7651A"/>
<path d="M36.354 43.5463C35.8694 43.6018 35.4757 44.4801 34.9205 44.8788C34.0977 45.4744 32.8863 45.2473 32.9469 44.7829C33.0074 44.3185 33.275 44.2832 33.9867 44.1772C34.7034 44.0712 35.9401 43.5059 35.5565 41.4818C35.2183 39.7101 33.2144 40.1089 33.2144 40.1089C33.2144 40.1089 32.856 39.4476 31.9727 39.382C31.0995 39.3164 30.3726 40.442 30.3726 40.442C30.3726 40.442 29.7972 40.7903 29.5246 40.0735C29.3883 39.7202 28.6464 39.1549 27.8943 39.4678C27.1321 39.7808 26.4608 40.548 26.6475 41.3758C26.8343 42.1935 27.6823 42.5166 28.2728 42.4711C28.8634 42.4257 29.2369 42.7488 29.1814 43.0213C29.0956 43.4605 27.9094 43.7785 26.7687 43.1223C26.1125 42.7488 25.8349 41.709 25.8551 41.4919C25.8954 40.967 25.8954 40.967 25.8954 40.967C25.8954 40.967 24.0632 40.967 23.6442 42.5014C23.2253 44.0359 24.2752 44.788 24.9061 44.7324C25.3251 44.6921 25.0071 44.1116 25.5169 43.6371C25.6582 43.5059 26.0721 43.415 26.2639 43.6674C26.4557 43.9198 26.38 44.2226 26.0872 44.3943C25.7945 44.5608 25.5724 45.3281 26.4103 45.8025C26.7889 46.0196 26.2134 47.1553 25.5421 46.2871C25.1534 45.7823 25.1888 45.5602 24.7698 45.6006C24.3509 45.641 23.8461 45.2372 23.7603 45.1766C23.6745 45.111 23.1849 45.3735 23.3767 45.9439C23.5685 46.5142 23.5433 47.2714 25.4563 47.3319C25.8551 47.3521 25.9863 47.4177 26.0721 47.7357C26.1579 48.0537 27.1068 49.4973 28.5151 48.72C29.9234 47.9427 29.0704 46.7212 28.4596 46.5445C28.0709 46.4284 27.8438 45.9287 28.1366 45.6309C28.2981 45.4694 28.4545 45.53 28.8785 45.7016C30.0799 46.1912 30.6351 47.6903 29.8527 48.3112C29.5246 48.5736 30.1909 49.0027 30.7411 49.0834C31.2913 49.1642 33.3961 48.9522 33.6283 47.7761C33.7293 47.2613 33.6636 46.9382 33.6788 46.6455C33.699 46.1003 34.4914 46.0347 34.5116 46.3931C34.5318 46.7515 34.5015 46.8322 34.6681 46.9837C35.1274 47.3976 36.359 46.8676 36.7174 46.0448C37.0707 45.2271 36.9748 43.4706 36.354 43.5463ZM30.8824 45.848C30.6603 45.848 30.3726 45.53 30.5291 45.3533C30.8875 44.9545 30.948 44.3892 30.9228 44.0409C30.8875 43.5766 30.6149 43.3948 30.5998 43.1273C30.5897 42.8901 30.7663 42.7437 30.9834 42.673C31.4478 42.5267 31.796 43.5816 31.7607 44.4801C31.7355 45.2019 31.3821 45.8429 30.8824 45.848ZM31.372 40.4975C31.5386 40.0685 31.8061 40.1139 31.9172 40.119C32.0282 40.124 32.3412 40.2452 32.326 40.5278C32.326 40.5278 32.1595 41.396 32.4926 41.6686C33.0024 42.0825 33.6737 41.9109 33.8352 41.9058C34.0573 41.9008 34.3148 42.4156 33.9463 42.6579C33.5778 42.9002 32.4775 42.986 31.8919 42.4005C31.2711 41.7746 31.2206 40.9013 31.372 40.4975Z" fill="white"/>
<defs>
<linearGradient id="paint0_linear" x1="26.0574" y1="44.6269" x2="41.1969" y2="59.7664" gradientUnits="userSpaceOnUse">
<stop stop-color="#DC631F"/>
<stop offset="0.9797" stop-color="#FCF5F0"/>
</linearGradient>
</defs>
</svg>
