<svg width="200" height="100" viewBox="0 0 200 100" fill="none" xmlns="http://www.w3.org/2000/svg">
<g clip-path="url(#clip0)">
<path fill-rule="evenodd" clip-rule="evenodd" d="M113.475 23L87.3808 77H85.4481L111.543 23H113.475ZM116.846 40.8759C116.846 39.3638 117.426 38.1342 118.584 37.1887C119.775 36.2436 121.304 35.7708 123.171 35.7708C124.395 35.7708 125.57 35.8969 126.696 36.1489C127.855 36.4009 129.206 36.8891 130.751 37.6147L129.883 39.2215C128.467 38.528 127.259 38.0399 126.262 37.7561C125.263 37.5041 124.249 37.3781 123.22 37.3781C121.836 37.3781 120.756 37.6935 119.984 38.3236C119.18 38.9536 118.777 39.789 118.777 40.8288C118.777 41.8373 119.099 42.7039 119.743 43.4287C120.419 44.1221 121.916 45.1302 124.234 46.4537C126.326 47.6517 127.839 48.6756 128.772 49.5264C129.738 50.4089 130.446 51.3544 130.897 52.3629C131.314 53.3714 131.524 54.5847 131.524 56.003C131.524 58.8078 130.736 61.0292 129.159 62.6682C127.581 64.2755 125.375 65.0787 122.544 65.0787C119.808 65.0787 117.618 64.3067 115.977 62.7634C114.367 61.25 113.562 59.218 113.562 56.6639C113.562 54.2689 114.254 52.3158 115.639 50.8032C116.99 49.259 119.163 48.1086 122.157 47.3521C120.162 46.2493 118.777 45.2091 118.005 44.2319C117.232 43.2238 116.846 42.1051 116.846 40.8759ZM138.384 37.7247L145.822 49.2565L153.357 37.7247H155.434L146.885 50.6269L156.109 64.7105H153.936L145.774 52.1396L137.466 64.7105H135.342L144.615 50.6269L136.211 37.7247H138.384ZM119.581 49.7132C118.614 50.1855 117.84 50.7524 117.26 51.4131C116.68 52.0429 116.244 52.7991 115.955 53.6798C115.633 54.5615 115.471 55.5531 115.471 56.6544C115.471 58.7019 116.116 60.3384 117.405 61.5668C118.693 62.7935 120.418 63.408 122.577 63.408C124.8 63.408 126.525 62.779 127.749 61.5189C128.974 60.2275 129.586 58.3709 129.586 55.947C129.586 54.3097 129.135 52.8933 128.232 51.6969C127.363 50.5006 125.864 49.3827 123.738 48.3435C121.9 48.7845 120.516 49.241 119.581 49.7132ZM57.1336 36.1489C58.2924 36.4009 59.6438 36.8891 61.1896 37.6147L60.3202 39.2215C58.9035 38.528 57.6966 38.0399 56.6989 37.7561C55.7012 37.5041 54.6869 37.3781 53.6568 37.3781C52.273 37.3781 51.1944 37.6935 50.4221 38.3236C49.6166 38.9536 49.2152 39.789 49.2152 40.8288C49.2152 41.8373 49.5365 42.7039 50.1809 43.4287C50.8564 44.1221 52.3536 45.1302 54.6712 46.4537C56.7633 47.6517 58.2762 48.6756 59.2091 49.5264C60.1753 50.4089 60.8836 51.3544 61.3341 52.3629C61.7526 53.3714 61.9618 54.5847 61.9618 56.003C61.9618 58.8078 61.173 61.0292 59.5961 62.6682C58.0188 64.2755 55.8133 65.0787 52.9809 65.0787C50.2448 65.0787 48.056 64.3067 46.4143 62.7634C44.8046 61.25 44 59.218 44 56.6639C44 54.2689 44.6921 52.3158 46.0764 50.8032C47.4282 49.259 49.6009 48.1086 52.5948 47.3521C50.599 46.2493 49.2152 45.2091 48.4421 44.2319C47.6694 43.2238 47.2833 42.1052 47.2833 40.8759C47.2833 39.3638 47.8629 38.1342 49.0217 37.1887C50.2128 36.2436 51.7416 35.7708 53.6087 35.7708C54.8318 35.7708 56.0068 35.8968 57.1336 36.1489ZM50.0466 49.7132C49.0798 50.1855 48.3067 50.7524 47.726 51.4131C47.1462 52.0429 46.711 52.7991 46.4213 53.6798C46.0988 54.5615 45.9379 55.5531 45.9379 56.6544C45.9379 58.7019 46.5821 60.3384 47.8715 61.5668C49.16 62.7935 50.8845 63.408 53.0438 63.408C55.2671 63.408 56.9912 62.779 58.2157 61.5189C59.4401 60.2275 60.0528 58.3709 60.0528 55.947C60.0528 54.3097 59.6014 52.8933 58.6991 51.6969C57.8291 50.5006 56.3303 49.3827 54.2039 48.3435C52.3671 48.7845 50.9809 49.241 50.0466 49.7132ZM86.3448 37.7247L77.1641 54.2667V64.7105H75.1821V54.4077L65.9533 37.7247H68.1759L76.1977 52.4704L84.2668 37.7247H86.3448Z" fill="white"/>
</g>
<defs>
<clipPath id="clip0">
<rect width="112" height="54" fill="white" transform="translate(44 23)"/>
</clipPath>
</defs>
</svg>
