<svg width="200" height="100" viewBox="0 0 200 100" fill="none" xmlns="http://www.w3.org/2000/svg">
<path fill-rule="evenodd" clip-rule="evenodd" d="M25.0435 52.4047C27.4093 46.9968 29.7864 41.5936 32.1251 36.1742C32.3834 35.5758 32.6786 35.3559 33.3369 35.3636C36.3091 35.4 39.2823 35.3907 42.2548 35.3698C42.8122 35.3659 43.1722 35.448 43.4237 36.0412C47.5403 45.7485 51.6831 55.4446 55.8156 65.1452C55.8616 65.2535 55.8484 65.3869 55.8761 65.6189C54.117 65.6189 52.3912 65.5813 50.6681 65.6356C49.8626 65.6609 49.8128 65.0582 49.6156 64.5949C46.363 56.9488 43.0996 49.3071 39.9151 41.6328C39.4984 40.6289 39.0068 40.2733 37.9664 40.3657C36.9117 40.4595 35.924 40.1569 35.3698 41.6555C34.0258 45.29 32.418 48.8276 30.9165 52.4043C28.9589 52.4045 27.0012 52.4046 25.0435 52.4047Z" fill="white"/>
<path fill-rule="evenodd" clip-rule="evenodd" d="M26.5342 57.6597C25.1311 57.66 23.8094 57.6604 22.6799 57.6604C21.528 60.2784 20.3753 62.8975 19.1772 65.6198C21.1067 65.6198 22.8161 65.5921 24.5238 65.6356C25.0902 65.65 25.3659 65.4567 25.5695 64.9687C26.5871 62.5273 27.6267 60.0945 28.659 57.6591C27.9465 57.6593 27.2338 57.6596 26.5342 57.6597Z" fill="white"/>
<path fill-rule="evenodd" clip-rule="evenodd" d="M86.1631 44.11C87.3042 41.4426 88.4506 38.7775 89.5786 36.1044C89.7031 35.8092 89.8455 35.7008 90.163 35.7046C91.5965 35.7225 93.0305 35.7179 94.4641 35.7076C94.733 35.7057 94.9066 35.7462 95.0279 36.0388C97.0133 40.8269 99.0114 45.6094 101.005 50.3941C101.027 50.4475 101.02 50.5133 101.034 50.6278C100.185 50.6278 99.3529 50.6092 98.5219 50.636C98.1334 50.6485 98.1094 50.3512 98.0143 50.1227C96.4455 46.3513 94.8716 42.5821 93.3357 38.7968C93.1347 38.3016 92.8976 38.1262 92.3958 38.1718C91.8872 38.2181 91.4108 38.0688 91.1435 38.808C90.4953 40.6007 89.7198 42.3456 88.9956 44.1098C88.0515 44.1098 87.1073 44.1099 86.1631 44.11Z" fill="white"/>
<path fill-rule="evenodd" clip-rule="evenodd" d="M130.57 44.11C131.711 41.4426 132.858 38.7775 133.986 36.1044C134.11 35.8092 134.253 35.7008 134.57 35.7046C136.004 35.7225 137.438 35.7179 138.871 35.7076C139.14 35.7057 139.314 35.7462 139.435 36.0388C141.421 40.8269 143.419 45.6094 145.412 50.3941C145.434 50.4475 145.428 50.5133 145.441 50.6278C144.593 50.6278 143.76 50.6092 142.929 50.636C142.541 50.6485 142.517 50.3512 142.421 50.1227C140.853 46.3513 139.279 42.5821 137.743 38.7968C137.542 38.3016 137.305 38.1262 136.803 38.1718C136.294 38.2181 135.818 38.0688 135.551 38.808C134.903 40.6007 134.127 42.3456 133.403 44.1098C132.459 44.1098 131.515 44.1099 130.57 44.11Z" fill="white"/>
<path fill-rule="evenodd" clip-rule="evenodd" d="M73.5961 43.7282C74.3732 43.7282 74.9112 43.6562 75.2102 43.5121C75.5086 43.3681 75.6582 43.1041 75.6582 42.7202V38.5682C75.6582 38.1841 75.5086 37.9202 75.2102 37.7762C74.9112 37.6322 74.3732 37.5602 73.5961 37.5602H69.2331V43.7282H73.5961ZM69.2331 50.5682H66.2446V35.5682H73.5664C74.9009 35.5682 75.9421 35.7282 76.6891 36.0483C77.4362 36.3685 77.9742 36.8924 78.3032 37.6201C78.6318 38.3485 78.796 39.3522 78.796 40.6322C78.796 42.4244 78.427 43.7042 77.6903 44.4722C76.9532 45.2403 75.7279 45.6242 74.0146 45.6242H69.2331V50.5682Z" fill="white"/>
<path fill-rule="evenodd" clip-rule="evenodd" d="M110.224 43.3681H114.73C115.505 43.3681 116.042 43.2961 116.341 43.1521C116.639 43.008 116.788 42.7442 116.788 42.3601V38.5682C116.788 38.1841 116.639 37.9202 116.341 37.7762C116.042 37.6322 115.505 37.5602 114.73 37.5602H110.224V43.3681ZM117.564 50.5682L114.461 45.2641H110.224V50.5682H107.241V35.5682H114.7C116.032 35.5682 117.071 35.7282 117.817 36.0483C118.563 36.3685 119.1 36.8924 119.429 37.6201C119.757 38.3485 119.921 39.3521 119.921 40.6322C119.921 41.8645 119.727 42.8281 119.339 43.5241C118.951 44.2202 118.32 44.7042 117.445 44.9761L120.816 50.5682H117.564Z" fill="white"/>
<path fill-rule="evenodd" clip-rule="evenodd" d="M155.797 50.5682H152.808V35.5682H162.972L162.643 37.5602H155.797V42.4322H161.776V44.3282H155.797V50.5682Z" fill="white"/>
<mask id="mask0" mask-type="alpha" maskUnits="userSpaceOnUse" x="55" y="28" width="127" height="45">
<path d="M55.6714 73H181.117V28H55.6714V73Z" fill="white"/>
</mask>
<g mask="url(#mask0)">
<path fill-rule="evenodd" clip-rule="evenodd" d="M170.885 50.5682H173.818V35.5682H170.885V50.5682Z" fill="white"/>
<path fill-rule="evenodd" clip-rule="evenodd" d="M84.9866 46.6143C84.4314 47.9121 83.8758 49.2105 83.2983 50.56C84.2284 50.56 85.0523 50.5462 85.8754 50.5678C86.1485 50.575 86.2814 50.4792 86.3795 50.2372C86.87 49.0269 87.3711 47.8209 87.8687 46.6136C87.5252 46.6138 87.1817 46.6139 86.8445 46.614C86.1682 46.6141 85.5311 46.6143 84.9866 46.6143Z" fill="white"/>
<path fill-rule="evenodd" clip-rule="evenodd" d="M131.334 46.614C130.653 46.6141 130.012 46.6143 129.465 46.6143C128.909 47.9122 128.352 49.2104 127.773 50.5601C128.702 50.5601 129.526 50.5463 130.348 50.5678C130.62 50.5749 130.753 50.4795 130.851 50.2383C131.343 49.0276 131.845 47.8213 132.344 46.6136C132.005 46.6138 131.667 46.6139 131.334 46.614Z" fill="white"/>
<path fill-rule="evenodd" clip-rule="evenodd" d="M74.4302 63.3838V61.1389C74.4302 60.4235 74.5898 59.9032 74.9087 59.5784C75.2278 59.2533 75.7352 59.0909 76.4312 59.0909H77.6008C78.1938 59.0909 78.6352 59.2173 78.9252 59.47C79.2152 59.7227 79.3762 60.1281 79.4085 60.686C79.4214 60.8567 79.3376 60.9419 79.1572 60.9419C79.0026 60.9419 78.9187 60.8567 78.9059 60.686C78.8801 60.2857 78.7705 60.0051 78.5772 59.8442C78.3839 59.6834 78.0584 59.6029 77.6008 59.6029H76.4312C76.0574 59.6029 75.7626 59.6522 75.5467 59.7506C75.3308 59.8491 75.1746 60.0083 75.0779 60.2282C74.9812 60.4482 74.933 60.7517 74.933 61.1389V63.3838C74.933 63.7713 74.9812 64.0747 75.0779 64.2945C75.1746 64.5146 75.3308 64.6736 75.5467 64.7722C75.7626 64.8705 76.0606 64.9199 76.441 64.9199H77.6008C78.0584 64.9199 78.3839 64.8411 78.5772 64.6836C78.7705 64.5259 78.8801 64.2438 78.9059 63.8368C78.9187 63.6661 79.0026 63.5807 79.1572 63.5807C79.3376 63.5807 79.4214 63.6693 79.4085 63.8466C79.3762 64.4046 79.2152 64.8082 78.9252 65.0577C78.6352 65.3072 78.1938 65.4318 77.6008 65.4318H76.441C75.7449 65.4318 75.2357 65.2678 74.9135 64.9395C74.5913 64.6114 74.4302 64.0927 74.4302 63.3838Z" fill="white"/>
<path fill-rule="evenodd" clip-rule="evenodd" d="M91.3841 63.2066H94.1073L92.7457 59.8982L91.3841 63.2066ZM95.4402 65.1955C95.4402 65.2809 95.3858 65.3498 95.2771 65.4022C95.2388 65.4219 95.1971 65.4318 95.1524 65.4318C95.0628 65.4318 94.9991 65.3793 94.9607 65.2743L94.3183 63.7186H94.2895H91.1827L90.5403 65.2743C90.4955 65.3793 90.4253 65.4318 90.3293 65.4318C90.2973 65.4318 90.2558 65.4219 90.2047 65.4022C90.1024 65.3629 90.0513 65.2907 90.0513 65.1856C90.0513 65.1332 90.0576 65.0938 90.0704 65.0675L92.4485 59.2878C92.4996 59.1565 92.5954 59.0909 92.736 59.0909H92.7552C92.8831 59.0909 92.9758 59.1565 93.0333 59.2878L95.4114 65.0675C95.4305 65.1134 95.4402 65.1561 95.4402 65.1955Z" fill="white"/>
<path fill-rule="evenodd" clip-rule="evenodd" d="M109.879 60.7943C109.879 60.3808 109.788 60.0789 109.605 59.8885C109.423 59.6981 109.126 59.6029 108.716 59.6029H106.717V62.2811H108.716C109.126 62.2811 109.423 62.1875 109.605 62.0005C109.788 61.8134 109.879 61.5098 109.879 61.0896V60.7943ZM109.956 59.5241C110.238 59.8131 110.379 60.2365 110.379 60.7943V61.0896C110.379 61.6476 110.24 62.071 109.961 62.3598C109.682 62.6488 109.267 62.793 108.716 62.793H106.717V65.1758C106.717 65.3466 106.634 65.4318 106.468 65.4318C106.301 65.4318 106.218 65.3466 106.218 65.1758V59.3469C106.218 59.1762 106.301 59.0909 106.468 59.0909H108.716C109.261 59.0909 109.674 59.2353 109.956 59.5241Z" fill="white"/>
<path fill-rule="evenodd" clip-rule="evenodd" d="M121.289 65.3629C121.246 65.317 121.225 65.2545 121.225 65.1758V59.3469C121.225 59.2682 121.246 59.2059 121.289 59.1598C121.332 59.114 121.39 59.0909 121.464 59.0909C121.537 59.0909 121.595 59.114 121.638 59.1598C121.681 59.2059 121.703 59.2682 121.703 59.3469V65.1758C121.703 65.2545 121.681 65.317 121.638 65.3629C121.595 65.4089 121.537 65.4318 121.464 65.4318C121.39 65.4318 121.332 65.4089 121.289 65.3629Z" fill="white"/>
<path fill-rule="evenodd" clip-rule="evenodd" d="M134.996 65.358C134.948 65.3089 134.924 65.2484 134.924 65.1762V59.602H132.868C132.797 59.602 132.737 59.5775 132.689 59.5284C132.641 59.4791 132.617 59.4187 132.617 59.3465C132.617 59.2678 132.641 59.2056 132.689 59.1596C132.737 59.114 132.797 59.0909 132.868 59.0909H137.482C137.559 59.0909 137.62 59.114 137.665 59.1596C137.71 59.2056 137.733 59.2678 137.733 59.3465C137.733 59.4187 137.71 59.4791 137.665 59.5284C137.62 59.5775 137.559 59.602 137.482 59.602H135.426V65.1762C135.426 65.2484 135.403 65.3089 135.358 65.358C135.313 65.4073 135.252 65.4318 135.175 65.4318C135.104 65.4318 135.044 65.4073 134.996 65.358Z" fill="white"/>
<path fill-rule="evenodd" clip-rule="evenodd" d="M147.797 63.2066H150.52L149.159 59.8982L147.797 63.2066ZM151.853 65.1955C151.853 65.2809 151.799 65.3498 151.69 65.4022C151.652 65.4219 151.61 65.4318 151.566 65.4318C151.476 65.4318 151.412 65.3793 151.374 65.2743L150.731 63.7186H150.703H147.596L146.953 65.2743C146.908 65.3793 146.838 65.4318 146.742 65.4318C146.71 65.4318 146.669 65.4219 146.618 65.4022C146.515 65.3629 146.464 65.2907 146.464 65.1856C146.464 65.1332 146.471 65.0938 146.483 65.0675L148.862 59.2878C148.913 59.1565 149.008 59.0909 149.149 59.0909H149.168C149.296 59.0909 149.389 59.1565 149.446 59.2878L151.824 65.0675C151.844 65.1134 151.853 65.1561 151.853 65.1955Z" fill="white"/>
<path fill-rule="evenodd" clip-rule="evenodd" d="M162.699 65.1758V59.347C162.699 59.1762 162.782 59.0909 162.949 59.0909C163.116 59.0909 163.199 59.1762 163.199 59.347V64.9199H166.133C166.299 64.9199 166.383 65.0052 166.383 65.1758C166.383 65.3466 166.299 65.4318 166.133 65.4318H162.949C162.782 65.4318 162.699 65.3466 162.699 65.1758Z" fill="white"/>
</g>
</svg>
