<svg width="200" height="100" viewBox="0 0 200 100" fill="none" xmlns="http://www.w3.org/2000/svg">
<path fill-rule="evenodd" clip-rule="evenodd" d="M31.3549 33.9807C31.2613 33.1259 31.7163 33.0321 31.9556 33.092C31.9556 33.092 35.9131 34.759 43.8162 34.8958C51.7193 35.0326 56.0687 33.1504 56.0687 33.1504C56.3081 33.0917 56.7627 33.1877 56.6649 34.0421C56.5671 34.8965 56.4173 37.365 56.3546 38.4924L60.903 38.5035C61.4618 38.485 62.4944 38.804 62.1556 40.2276C62.0867 40.5172 61.9857 41.0126 61.8558 41.6486C61.1882 44.9207 59.7609 51.9145 58.0526 53.7489C56.8522 55.1703 55.2347 55.8787 53.9771 56.1723C52.9296 56.4812 51.837 56.427 51.4593 56.4081C51.4051 56.4054 51.3657 56.4035 51.3433 56.4033C50.5023 57.6477 48.3531 60.3368 46.4838 61.1395C45.8744 61.3574 45.8793 61.577 45.8831 61.7497C45.8834 61.7638 45.8838 61.7775 45.8837 61.7908C45.9795 63.3934 46.3857 66.9791 47.2436 68.5004C47.3576 68.7274 47.3894 68.9003 47.4114 69.0187C47.4355 69.1483 47.4475 69.2132 47.5411 69.2134L48.6782 69.2161C48.7981 69.2163 49.0853 69.2171 49.2762 69.455C49.3782 69.5821 49.5573 69.5792 49.7519 69.5761C50.0125 69.5717 50.3016 69.5672 50.4722 69.8732C50.6546 70.201 50.6167 70.551 50.5972 70.7314C50.5928 70.7706 50.5895 70.8018 50.5895 70.8232L52.3849 70.8276C52.6044 70.828 53.0429 70.9358 53.0419 71.3631L53.0331 74.9241C53.0331 74.9889 53.0282 75.0419 53.0245 75.0853C53.0073 75.28 53.0073 75.28 53.5111 75.2812L55.0671 75.285C55.167 75.2854 55.3662 75.2976 55.365 75.8199L55.361 77.4223C55.3608 77.5411 55.3602 77.7783 54.8215 77.7771L32.9827 77.7241C32.4441 77.7229 32.4447 77.4854 32.445 77.3668L32.4489 75.7644C32.4502 75.2422 32.6496 75.2307 32.7495 75.231L34.3055 75.2347C34.8093 75.2359 34.8093 75.2359 34.793 75.0411C34.7894 74.9977 34.785 74.9447 34.7852 74.8799L34.7939 71.3189C34.795 70.8918 35.2341 70.786 35.4536 70.7864L37.249 70.7908C37.2491 70.7696 37.2458 70.7384 37.2418 70.699C37.2231 70.5186 37.1869 70.1684 37.3711 69.8416C37.5431 69.5362 37.832 69.5422 38.0927 69.5478C38.2874 69.5518 38.4663 69.5555 38.569 69.429C38.7611 69.192 39.0484 69.1928 39.1681 69.193L40.3052 69.1957C40.399 69.1961 40.4113 69.1313 40.4359 69.0019C40.4584 68.8835 40.4913 68.7108 40.6062 68.4844C41.4717 66.9672 41.8955 63.3836 41.9992 61.7814C41.9992 61.7682 41.9996 61.7544 42 61.7405V61.7403C42.0047 61.5677 42.0106 61.3481 41.4023 61.127C39.5371 60.3154 37.4012 57.6159 36.5664 56.3676C36.544 56.3676 36.5048 56.3692 36.451 56.3717H36.4508H36.4502H36.4501C36.0723 56.3888 34.9797 56.4378 33.9337 56.1239C32.6776 55.8241 31.0635 55.108 29.87 53.6808C28.1709 51.8381 26.7781 44.8374 26.1265 41.562C25.9998 40.9254 25.9012 40.4295 25.8337 40.1396C25.5021 38.7144 26.5362 38.4004 27.0948 38.4215L31.6432 38.4325C31.5861 37.3048 31.4485 34.8356 31.3549 33.9807ZM28.3201 40.4057C27.6203 40.3936 27.7865 41.2048 27.9129 41.822C27.9293 41.9022 27.9451 41.9788 27.9582 42.0503C28.0721 42.6713 28.6014 45.2311 29.9939 49.3493C31.3863 53.4676 34.078 53.7672 35.2498 53.4024C34.4477 51.6827 32.755 46.178 32.4139 44.2736C32.0728 42.3692 31.6486 40.4633 31.1493 40.4546L28.3201 40.4057ZM60.0368 42.0671C60.174 41.4521 60.3544 40.6439 59.6546 40.6439H56.825C56.3257 40.6439 55.868 42.542 55.4934 44.4402C55.1188 46.3384 53.3295 51.8129 52.4972 53.5187C53.6624 53.9037 56.3588 53.6507 57.8236 49.5572C59.2884 45.4636 59.8627 42.9135 59.9875 42.2944C60.002 42.2234 60.019 42.1469 60.0368 42.0671ZM48.0315 48.4493L43.9519 50.9952L39.89 48.4213L43.9399 54.2772V54.2789L43.9404 54.2781L43.941 54.2789V54.2772L48.0315 48.4493ZM43.9919 39.8295V39.8257L43.9908 39.8276L43.9897 39.8257L43.9897 39.8294L39.8695 46.8112L43.9566 49.353L43.9565 49.3543L43.9577 49.3536L43.9587 49.3543V49.353L48.0634 46.8395L43.9919 39.8295Z" fill="#FFB636"/>
<path d="M56.4966 33.2747C56.4865 34.4141 50.9267 35.2898 44.0783 35.2305C37.2298 35.1713 31.5198 34.1966 31.5298 33.0571C31.5398 31.9177 37.2661 31.0449 44.1146 31.1042C50.9631 31.1634 56.5066 32.1352 56.4966 33.2747Z" fill="#FFD469"/>
<path d="M52.9017 37.3365C53.5137 37.3365 53.6228 37.3365 54.7325 36.9514C54.5949 37.6835 53.8713 43.2322 53.6228 44.1031C52.9591 46.43 52.2093 50.0259 51.2375 50.721C51.0527 50.853 50.2388 50.721 49.9359 50.5274C49.633 50.3338 50.6827 48.339 51.9586 44.1031C52.6799 39.537 52.458 37.5566 52.9017 37.3365Z" fill="#FFCC4E"/>
<path d="M86.011 31.4919C93.5705 31.4919 99.6987 37.6703 99.6987 45.2918V53.2269C99.6987 60.8483 93.5705 67.0266 86.011 67.0266C84.8235 67.0266 83.6715 66.8744 82.5729 66.5877V67.5244C82.5729 73.0999 78.0683 77.6302 72.477 77.7204L72.3071 77.7216V47.3618L72.3228 47.3614L72.3233 45.2918C72.3233 37.6703 78.4515 31.4919 86.011 31.4919ZM147.308 31.4919C154.872 31.4919 161.003 37.7056 161.003 45.3707V53.3511C161.003 61.0161 154.872 67.2298 147.308 67.2298C139.744 67.2298 133.612 61.0161 133.612 53.3511V45.3707C133.612 37.7056 139.744 31.4919 147.308 31.4919ZM116.655 30.8361C124.219 30.8361 130.351 37.0499 130.351 44.7149V52.6953C130.351 60.3603 124.219 66.5742 116.655 66.5742C109.091 66.5742 102.96 60.3603 102.96 52.6953V44.7149C102.96 37.0499 109.091 30.8361 116.655 30.8361ZM174.699 21V56.2089C174.699 61.8762 170.12 66.4811 164.437 66.5727L164.264 66.5742V31.3652C164.264 25.6406 168.936 21 174.699 21ZM147.308 41.901C145.417 41.901 143.884 43.4545 143.884 45.3707V53.3511C143.884 55.2674 145.417 56.8207 147.308 56.8207C149.199 56.8207 150.732 55.2674 150.732 53.3511V45.3707C150.732 43.4545 149.199 41.901 147.308 41.901ZM86.011 41.8417C84.1211 41.8417 82.589 43.3863 82.589 45.2918V53.2269C82.589 55.1321 84.1211 56.6767 86.011 56.6767C87.9008 56.6767 89.4329 55.1321 89.4329 53.2269V45.2918C89.4329 43.3863 87.9008 41.8417 86.011 41.8417ZM116.655 41.2452C114.764 41.2452 113.231 42.7986 113.231 44.7149V52.6953C113.231 54.6115 114.764 56.165 116.655 56.165C118.546 56.165 120.079 54.6115 120.079 52.6953V44.7149C120.079 42.7986 118.546 41.2452 116.655 41.2452Z" fill="white"/>
<path d="M136.371 76.0588H136.086C135.803 76.0588 135.555 75.796 135.555 75.3868V73.4533H136.162C136.444 73.4533 136.66 73.2678 136.66 73.0039C136.66 72.8705 136.61 72.7519 136.518 72.6669C136.427 72.5826 136.301 72.5379 136.162 72.5379H135.555V71.4537C135.555 71.1577 135.332 70.9383 135.031 70.9383C134.731 70.9383 134.508 71.1577 134.508 71.4537V72.5379H134.227C134.087 72.5379 133.962 72.5826 133.871 72.6669C133.779 72.7519 133.729 72.8705 133.729 73.0039C133.729 73.2678 133.945 73.4533 134.227 73.4533H134.508V75.3868C134.508 76.3497 135.182 77.0895 136.086 77.0895H136.237C136.562 77.0895 136.836 76.8859 136.836 76.5742C136.836 76.2917 136.643 76.0588 136.371 76.0588Z" fill="white"/>
<path fill-rule="evenodd" clip-rule="evenodd" d="M142.684 74.7355V74.7348C142.675 73.3357 141.675 72.3401 140.276 72.3401C139.573 72.3401 138.967 72.5865 138.538 73.0126C138.108 73.4387 137.86 74.0389 137.86 74.7355C137.86 75.4281 138.108 76.026 138.538 76.451C138.967 76.8761 139.573 77.1225 140.276 77.1225C140.976 77.1225 141.579 76.8759 142.008 76.451C142.436 76.026 142.684 75.4281 142.684 74.7355ZM140.276 73.2883C140.684 73.2883 141.027 73.4385 141.268 73.6907C141.509 73.9435 141.654 74.305 141.654 74.7355C141.654 75.1659 141.509 75.5249 141.268 75.7757C141.027 76.026 140.685 76.1743 140.276 76.1743C139.868 76.1743 139.523 76.0258 139.28 75.7752C139.037 75.5245 138.89 75.1655 138.89 74.7355C138.89 73.88 139.468 73.2883 140.276 73.2883Z" fill="white"/>
<path fill-rule="evenodd" clip-rule="evenodd" d="M146.33 78.9612C145.506 78.9612 144.754 78.6363 144.255 78.0158C144.162 77.9038 144.127 77.7731 144.15 77.6479C144.172 77.5234 144.249 77.4139 144.361 77.3383L144.362 77.3377C144.613 77.1732 144.916 77.2473 145.081 77.4594C145.36 77.8101 145.788 78.0131 146.346 78.0131C146.722 78.0131 147.064 77.8766 147.313 77.6184C147.561 77.3603 147.724 76.9729 147.724 76.4587V76.3933C147.354 76.8526 146.815 77.1225 146.179 77.1225C145.523 77.1225 144.958 76.8742 144.559 76.4483C144.16 76.0229 143.93 75.4258 143.93 74.7355C143.93 74.0389 144.178 73.4387 144.607 73.0126C145.037 72.5865 145.642 72.3401 146.346 72.3401C147.745 72.3401 148.745 73.3357 148.754 74.7348V74.7355V76.5165C148.754 77.8712 147.765 78.9612 146.33 78.9612ZM146.346 76.1743C145.938 76.1743 145.593 76.0258 145.35 75.7752C145.107 75.5245 144.96 75.1655 144.96 74.7355C144.96 73.88 145.538 73.2883 146.346 73.2883C146.754 73.2883 147.097 73.4385 147.338 73.6907C147.579 73.9435 147.724 74.305 147.724 74.7355C147.724 75.1659 147.579 75.5249 147.338 75.7757C147.097 76.026 146.755 76.1743 146.346 76.1743Z" fill="white"/>
<path fill-rule="evenodd" clip-rule="evenodd" d="M154.057 75.9092C153.873 75.7599 153.601 75.7659 153.4 75.9144C153.191 76.0669 152.81 76.2071 152.491 76.2071C151.732 76.2071 151.171 75.7686 151.011 75.1271H154.066C154.202 75.1271 154.325 75.082 154.415 74.9976C154.505 74.9129 154.556 74.7945 154.556 74.6613C154.556 73.9901 154.355 73.4092 153.976 72.9948C153.596 72.5791 153.045 72.3401 152.366 72.3401C151.678 72.3401 151.085 72.587 150.664 73.0135C150.243 73.4395 150 74.0393 150 74.7355C150 75.4291 150.257 76.0274 150.701 76.4523C151.144 76.8767 151.768 77.1225 152.491 77.1225C153.023 77.1225 153.675 76.9097 154.072 76.5975C154.186 76.5098 154.249 76.3891 154.244 76.2585C154.24 76.1297 154.172 76.0075 154.059 75.9109L154.057 75.9092ZM152.366 73.2553C152.717 73.2553 152.994 73.372 153.195 73.5661C153.373 73.7381 153.497 73.9764 153.556 74.2614H151.02C151.092 73.9762 151.233 73.7389 151.434 73.5671C151.661 73.372 151.973 73.2553 152.366 73.2553Z" fill="white"/>
<path d="M157.91 76.0588H157.625C157.342 76.0588 157.094 75.796 157.094 75.3868V73.4533H157.701C157.983 73.4533 158.199 73.2678 158.199 73.0039C158.199 72.8705 158.149 72.7519 158.057 72.6669C157.966 72.5826 157.84 72.5379 157.701 72.5379H157.094V71.4537C157.094 71.1577 156.871 70.9383 156.57 70.9383C156.27 70.9383 156.047 71.1577 156.047 71.4537V72.5379H155.766C155.627 72.5379 155.501 72.5826 155.41 72.6669C155.318 72.7519 155.268 72.8705 155.268 73.0039C155.268 73.2678 155.484 73.4533 155.766 73.4533H156.047V75.3868C156.047 76.3497 156.721 77.0895 157.625 77.0895H157.776C158.102 77.0895 158.375 76.8859 158.375 76.5742C158.375 76.2917 158.182 76.0588 157.91 76.0588Z" fill="white"/>
<path d="M162.016 72.3319C161.511 72.3319 161.052 72.4875 160.697 72.7592V70.9672C160.697 70.8189 160.644 70.6867 160.547 70.5914C160.451 70.496 160.316 70.4437 160.166 70.4437C160.015 70.4437 159.881 70.496 159.784 70.5914C159.687 70.6867 159.634 70.8189 159.634 70.9672V76.5743C159.634 76.7226 159.687 76.8547 159.784 76.9501C159.881 77.0454 160.015 77.0978 160.166 77.0978C160.316 77.0978 160.451 77.0454 160.547 76.9501C160.644 76.8547 160.697 76.7226 160.697 76.5743V74.249C160.697 73.719 161.178 73.2966 161.849 73.2966C162.211 73.2966 162.515 73.3964 162.728 73.5952C162.94 73.7927 163.076 74.101 163.076 74.5458V76.5743C163.076 76.8703 163.307 77.0978 163.607 77.0978C163.908 77.0978 164.139 76.8703 164.139 76.5743V74.5458C164.139 73.8395 163.914 73.2838 163.53 72.9044C163.146 72.5253 162.613 72.3319 162.016 72.3319Z" fill="white"/>
<path fill-rule="evenodd" clip-rule="evenodd" d="M169.6 75.1271H166.546C166.706 75.7686 167.267 76.2071 168.026 76.2071C168.345 76.2071 168.726 76.0669 168.935 75.9142C169.136 75.7659 169.407 75.7599 169.591 75.9092L169.593 75.9109C169.706 76.0075 169.775 76.1297 169.779 76.2585C169.783 76.3891 169.721 76.5098 169.606 76.5975C169.209 76.9097 168.558 77.1225 168.026 77.1225C167.302 77.1225 166.679 76.8767 166.235 76.4523C165.792 76.0274 165.535 75.4291 165.535 74.7355C165.535 74.0393 165.778 73.4395 166.199 73.0135C166.619 72.587 167.213 72.3401 167.9 72.3401C168.58 72.3401 169.131 72.5791 169.511 72.9948C169.889 73.4092 170.09 73.9901 170.09 74.6613C170.09 74.7945 170.04 74.9129 169.95 74.9976C169.86 75.082 169.737 75.1271 169.6 75.1271ZM167.9 73.2553C168.252 73.2553 168.528 73.372 168.729 73.5661C168.908 73.7381 169.031 73.9764 169.091 74.2614H166.555C166.627 73.9762 166.768 73.7389 166.968 73.5671C167.196 73.372 167.508 73.2553 167.9 73.2553Z" fill="white"/>
<path d="M173.738 72.3236C173.239 72.3236 172.776 72.5031 172.431 72.801C172.418 72.6849 172.376 72.5837 172.299 72.5075C172.203 72.4127 172.067 72.3733 171.912 72.3733C171.759 72.3733 171.624 72.4158 171.528 72.5106C171.432 72.6051 171.389 72.7376 171.389 72.8885V76.5743C171.389 76.7285 171.432 76.8616 171.529 76.9559C171.626 77.0496 171.76 77.0895 171.912 77.0895C172.069 77.0895 172.204 77.0471 172.3 76.9516C172.395 76.8564 172.436 76.7237 172.436 76.5743V74.1665C172.436 73.8302 172.613 73.5751 172.918 73.4226C173.228 73.268 173.673 73.2194 174.193 73.3191C174.316 73.3468 174.443 73.3451 174.551 73.2921C174.664 73.2375 174.742 73.1355 174.777 72.9959C174.802 72.8993 174.792 72.8033 174.749 72.7156C174.707 72.6294 174.634 72.5573 174.542 72.5002C174.358 72.387 174.083 72.3236 173.738 72.3236Z" fill="white"/>
</svg>
