<svg width="200" height="100" viewBox="0 0 200 100" fill="none" xmlns="http://www.w3.org/2000/svg">
<path d="M136.655 47.6432C138.144 49.5396 138.903 52.1756 138.903 55.5512H124.864C125.011 57.2912 125.481 58.6376 126.287 59.5432C127.174 60.4918 128.437 60.9972 129.734 60.9228C130.828 60.9714 131.909 60.6655 132.815 60.0505C133.54 59.4275 134.111 58.6454 134.484 57.7653H138.613C138.211 59.4611 137.3 60.9932 136.001 62.1555C134.253 63.6077 132.034 64.3699 129.762 64.2984C126.969 64.2984 124.755 63.4261 123.125 61.7241C121.385 59.9462 120.512 57.514 120.512 54.3944C120.512 51.6019 121.309 49.2788 122.978 47.3919C124.575 45.467 126.77 44.5473 129.582 44.5473C132.668 44.5236 135.025 45.5429 136.655 47.6432ZM126.462 49.0655C125.617 50.0057 125.085 51.1853 124.94 52.4411H134.588C134.228 49.3926 132.592 47.9087 129.691 47.9087C128.502 47.8292 127.333 48.2463 126.462 49.0607V49.0655Z" fill="white"/>
<path fill-rule="evenodd" clip-rule="evenodd" d="M159 52.2183V63.7865H154.866V52.5786C154.866 49.4922 153.443 47.9704 150.599 47.9704C149.595 47.9645 148.63 48.3566 147.915 49.0608C147.003 49.9786 146.467 51.2048 146.413 52.498V63.7817H142.278V45.0357H146.413V47.2118C147.082 46.378 147.923 45.6974 148.878 45.2158C149.836 44.746 150.892 44.5103 151.96 44.5284C156.629 44.5236 159 47.0648 159 52.2183Z" fill="white"/>
<path d="M119.308 63.7911L111.889 53.029C113.264 52.8304 114.568 52.291 115.681 51.4597C117.279 50.1559 118.113 48.269 118.113 45.7989C118.113 45.7183 118.113 45.6424 118.113 45.5618C118.113 45.4812 118.113 45.4054 118.113 45.3248C118.113 42.8595 117.279 40.9725 115.681 39.664C114.159 38.4693 112.054 37.8861 109.404 37.8861H97.8408V63.7864H102.108V53.2328H106.645L113.889 63.7911H119.308ZM102.108 41.513H108.821C110.49 41.513 111.761 41.8781 112.614 42.5655C113.426 43.343 113.862 44.4341 113.809 45.5571C113.862 46.6801 113.426 47.7712 112.614 48.5487C111.742 49.2361 110.476 49.6012 108.821 49.6012H102.108V41.513Z" fill="white"/>
<path fill-rule="evenodd" clip-rule="evenodd" d="M46.9361 35.6673L50.6673 33.5244L51.1699 34.3873L64.9236 26.4555L63.9185 25.8771L62.9087 25.2892L62.4061 25L40 37.943V38.5214L46.4336 34.7997L46.9361 35.6673Z" fill="white"/>
<path fill-rule="evenodd" clip-rule="evenodd" d="M46.9361 43.8171L57.7173 37.5874L58.2198 38.4645L71.9735 30.528L70.9684 29.9401L69.9586 29.3617L69.4561 29.0773L40 46.0834V46.6618L46.4336 42.9401L46.9361 43.8171Z" fill="white"/>
<path fill-rule="evenodd" clip-rule="evenodd" d="M46.9361 47.8897L61.2398 39.6308L61.7471 40.4984L75.4961 32.5525L74.491 31.9835L73.4859 31.3956L72.9786 31.1064L40 50.1464V50.7343L46.4336 47.0174L46.9361 47.8897Z" fill="white"/>
<path fill-rule="evenodd" clip-rule="evenodd" d="M46.9361 51.9576L64.8667 41.6079L65.374 42.4755L79.0235 34.5959L78.0184 34.008L77.0085 33.4296L76.506 33.1404L40 54.2238V54.8022L46.4336 51.0805L46.9361 51.9576Z" fill="white"/>
<path fill-rule="evenodd" clip-rule="evenodd" d="M46.9361 56.0206L68.3941 43.637L68.8966 44.5141L82.5461 36.625L81.541 36.0513L80.5359 35.4635L80.0286 35.1743L40 58.2868V58.8652L46.4336 55.153L46.9361 56.0206Z" fill="white"/>
<path fill-rule="evenodd" clip-rule="evenodd" d="M84.0584 37.5021L83.5559 37.2082L40 62.3641V62.9425L46.4336 59.2303L46.9361 60.0979L68.3941 47.7143L68.8966 48.5819L84.8123 39.3985V38.2323V37.9431L84.0584 37.5021Z" fill="white"/>
<path fill-rule="evenodd" clip-rule="evenodd" d="M42.7592 65.4126L46.3671 63.3313L46.8697 64.1989L68.2897 51.8343L68.7922 52.7114L84.8122 43.4616V42.2953V41.129V40.5506L42.2661 65.1234L42.7592 65.4126Z" fill="white"/>
<path fill-rule="evenodd" clip-rule="evenodd" d="M68.2895 55.9116L68.7921 56.7887L84.812 47.5389V46.3726V45.2063V44.6279L45.7886 67.1573L46.2959 67.4465L49.9559 65.3273L50.4632 66.2044" fill="white"/>
<path fill-rule="evenodd" clip-rule="evenodd" d="M49.8187 69.4851L53.4835 67.3611L53.986 68.2382L68.2897 59.9746L68.7923 60.8517L84.8123 51.6019V50.4356V49.2788V48.6957L49.3066 69.1864L49.8187 69.4851Z" fill="white"/>
<path fill-rule="evenodd" clip-rule="evenodd" d="M53.3414 71.519L57.0062 69.4045L57.5135 70.2722L68.2899 64.0519L68.7925 64.9195L84.8124 55.6698V54.513V53.3467V52.7682L52.8389 71.2298L53.3414 71.519Z" fill="white"/>
<path fill-rule="evenodd" clip-rule="evenodd" d="M56.3662 73.2637L56.8688 73.5529L60.5431 71.4337L61.0361 72.3108L68.2899 68.115L68.7925 68.9921L84.8124 59.7423V58.576V57.4097V56.8313L56.3662 73.2637Z" fill="white"/>
<path fill-rule="evenodd" clip-rule="evenodd" d="M60.3912 75.5964L64.056 73.4676L64.5586 74.3447L68.2898 72.1828L68.7923 73.0599L84.8123 63.8196V62.6533V61.487V60.9086L59.8887 75.3072L60.3912 75.5964Z" fill="white"/>
<path fill-rule="evenodd" clip-rule="evenodd" d="M68.451 28.4894L67.4411 27.911L66.436 27.3326L65.9335 27.0339L40 42.0061V42.5845L46.4336 38.877L46.9361 39.7398L54.1899 35.5535L54.7067 36.4306L68.451 28.4894Z" fill="white"/>
</svg>
