<svg width="200" height="100" viewBox="0 0 200 100" fill="none" xmlns="http://www.w3.org/2000/svg">
<path d="M12.6235 69L38.8038 57.9746L30.5215 49.5723L12.6235 69ZM22.2393 41.1816L30.5215 49.5723L45.3163 31.5001L22.2393 41.1816Z" fill="url(#paint0_linear)"/>
<path d="M58.1593 45.2646H54.0608V43.1179H64.646V45.2685H60.5604V57.4027H58.1593V45.2646Z" fill="white"/>
<path d="M69.7771 43.1179H72.1588V49.296H78.1807V43.1179H80.5817V57.4079H78.1807V51.444H72.1588V57.4079H69.7771V43.1179Z" fill="white"/>
<path d="M88.8305 56.969C88.0172 56.599 87.404 55.8976 86.991 54.8649C86.5779 53.8322 86.3713 52.3124 86.3713 50.3055C86.3713 48.3047 86.5809 46.775 87 45.7165C87.4191 44.6579 88.0357 43.9359 88.8498 43.5504C89.6631 43.17 90.7539 42.9794 92.1222 42.9785C93.4905 42.9777 94.5908 43.1683 95.423 43.5504C96.2422 43.9316 96.8588 44.6481 97.2728 45.6997C97.6867 46.7513 97.8933 48.2845 97.8924 50.2991C97.8924 52.2999 97.6824 53.8197 97.2625 54.8585C96.8425 55.8972 96.2293 56.6007 95.423 56.969C94.6166 57.3365 93.5163 57.5207 92.1222 57.5215C90.728 57.5224 89.6308 57.3382 88.8305 56.969ZM94.1644 54.9837C94.636 54.7255 94.975 54.2384 95.1816 53.5224C95.3881 52.8064 95.4914 51.7307 95.4914 50.2952C95.4914 48.8107 95.3847 47.7005 95.1712 46.9647C94.9578 46.2289 94.6192 45.738 94.1553 45.4919C93.6906 45.2483 93.0129 45.1261 92.1222 45.1252C91.2573 45.1252 90.5925 45.2509 90.1278 45.5022C89.6631 45.7535 89.321 46.244 89.1015 46.9738C88.8821 47.7027 88.7724 48.8098 88.7724 50.2952C88.7724 51.741 88.8722 52.8167 89.0718 53.5224C89.2715 54.2281 89.6063 54.7152 90.0762 54.9837C90.5409 55.2418 91.225 55.3709 92.1287 55.3709C93.0151 55.3709 93.6936 55.2418 94.1644 54.9837Z" fill="white"/>
<path d="M103.682 43.1179H109.491C110.704 43.1179 111.666 43.4376 112.376 44.077C113.086 44.7164 113.441 45.8739 113.441 47.5494C113.441 48.8145 113.218 49.737 112.772 50.3171C112.327 50.8984 111.717 51.331 111.021 51.5576L113.77 57.404H111.35L108.871 51.9061C108.084 51.9061 107.148 51.8928 106.064 51.8661V57.404H103.682V43.1179ZM109.084 49.9918C109.704 49.9918 110.184 49.8145 110.526 49.4599C110.868 49.1054 111.04 48.4698 111.042 47.5533C111.042 46.6755 110.87 46.0731 110.526 45.7461C110.182 45.4191 109.701 45.2577 109.084 45.262H106.064V49.9853L109.084 49.9918Z" fill="white"/>
<path d="M121.031 56.9497C120.308 56.5684 119.756 55.8486 119.375 54.79C118.994 53.7315 118.804 52.2023 118.804 50.2023C118.804 48.303 118.998 46.8279 119.385 45.7771C119.773 44.7264 120.341 43.997 121.089 43.5891C121.836 43.182 122.804 42.9785 123.994 42.9785C124.775 42.9793 125.555 43.041 126.326 43.1631C127.004 43.2633 127.673 43.4087 128.331 43.5981V45.4415C127.944 45.3649 127.392 45.2943 126.675 45.2298C125.958 45.1653 125.227 45.133 124.48 45.133C123.628 45.133 122.973 45.2651 122.514 45.5293C122.056 45.7935 121.724 46.2875 121.518 47.0112C121.311 47.7341 121.208 48.8098 121.208 50.2384C121.208 51.667 121.305 52.7449 121.499 53.472C121.692 54.1967 122.015 54.6936 122.467 54.963C122.918 55.2324 123.583 55.3679 124.461 55.3696C125.755 55.3804 127.049 55.3093 128.334 55.1566V56.9961C127.159 57.3404 125.694 57.5151 123.938 57.5202C122.723 57.5211 121.754 57.3309 121.031 56.9497Z" fill="white"/>
<path d="M133.966 43.1179H136.347V49.296H142.369V43.1179H144.77V57.4079H142.369V51.444H136.347V57.4079H133.966V43.1179Z" fill="white"/>
<path d="M154.685 43.1179H157.705L162.352 57.4079H159.855L158.751 54.0154H153.587L152.503 57.404H150.05L154.685 43.1179ZM158.17 51.87L156.156 45.1716L154.142 51.87H158.17Z" fill="white"/>
<path d="M167.6 43.1179H169.982V57.4079H167.6V43.1179Z" fill="white"/>
<path d="M176.292 43.1179H178.209L184.715 53.3222V43.1179H187.116V57.4079H185.2L178.694 47.2099V57.4079H176.292V43.1179Z" fill="white"/>
<defs>
<linearGradient id="paint0_linear" x1="12.6235" y1="50.25" x2="45.3163" y2="50.25" gradientUnits="userSpaceOnUse">
<stop stop-color="#00CCFF"/>
<stop offset="1" stop-color="#33FF99"/>
</linearGradient>
</defs>
</svg>
