<svg width="200" height="100" viewBox="0 0 200 100" fill="none" xmlns="http://www.w3.org/2000/svg">
<path fill-rule="evenodd" clip-rule="evenodd" d="M90.9086 56.2884C91.66 54.1097 92.0289 51.8116 91.9982 49.5007C92.0278 47.1974 91.6589 44.907 90.9086 42.736C90.2391 40.8029 89.1955 39.0288 87.8406 37.5203C86.5103 36.0687 84.8913 34.9276 83.0935 34.1746C81.1542 33.3732 79.0793 32.9744 76.9888 33.0013C74.9013 32.9735 72.8297 33.3772 70.8975 34.1884C69.1067 34.9476 67.4921 36.0861 66.1593 37.5295C64.8036 39.0338 63.7598 40.8051 63.0914 42.736C62.3411 44.907 61.9722 47.1974 62.0018 49.5007C61.9711 51.8116 62.34 54.1097 63.0914 56.2884C63.7598 58.2192 64.8036 59.9905 66.1593 61.4948C67.4902 62.9383 69.1054 64.0741 70.8975 64.8268C74.82 66.3911 79.171 66.3911 83.0935 64.8268C84.8889 64.0754 86.5073 62.9394 87.8406 61.4948C89.1964 59.9905 90.2402 58.2192 90.9086 56.2884ZM88.7344 43.4281C89.3604 45.3869 89.6623 47.4396 89.6276 49.5008C89.6644 51.5652 89.3625 53.6211 88.7344 55.5826C88.185 57.2652 87.3049 58.8142 86.1487 60.1337C85.0356 61.3839 83.6617 62.3599 82.1296 62.989C78.8233 64.2911 75.1645 64.2911 71.8584 62.989C70.3283 62.3561 68.9552 61.3806 67.8392 60.1337C66.6775 58.8152 65.7914 57.2663 65.2356 55.5826C64.5962 53.6233 64.2851 51.5669 64.3157 49.5008C64.2911 47.4453 64.6036 45.4001 65.2401 43.451C65.792 41.7561 66.6783 40.1959 67.8436 38.8679C68.9616 37.6211 70.334 36.6431 71.8628 36.0034C75.1658 34.6833 78.8311 34.6833 82.134 36.0034C83.6649 36.6391 85.0381 37.6178 86.1532 38.8679C87.3088 40.1905 88.1874 41.7426 88.7344 43.4281Z" fill="white"/>
<path fill-rule="evenodd" clip-rule="evenodd" d="M116.038 65.9991H118L107.038 51.7178C106.772 51.3531 106.443 51.0423 106.068 50.8012C107.367 50.6576 108.64 50.321 109.846 49.8021C110.903 49.3431 111.873 48.6911 112.707 47.8771C113.488 47.1002 114.105 46.1638 114.518 45.1271C114.951 44.0321 115.166 42.8586 115.152 41.676C115.143 38.8314 114.225 36.6742 112.397 35.2045C110.569 33.7348 107.823 33 104.159 33H96V65.9991H98.321V51.0762H102.502C102.77 51.0737 103.038 51.0905 103.304 51.1266C103.498 51.1473 103.687 51.1984 103.866 51.2778C104.03 51.3452 104.18 51.4431 104.309 51.5666C104.446 51.7078 104.571 51.8611 104.681 52.0249L114.913 65.4125C115.033 65.6063 115.199 65.7643 115.396 65.8708C115.597 65.9629 115.817 66.0068 116.038 65.9991ZM107.622 48.7757C106.389 49.1442 105.11 49.3218 103.826 49.3028H98.3206V34.8886H104.163C106.994 34.8916 109.148 35.46 110.625 36.5935C112.101 37.7271 112.84 39.4672 112.84 41.8138C112.855 42.8812 112.648 43.9397 112.233 44.9166C111.827 45.8336 111.221 46.6402 110.461 47.2724C109.62 47.963 108.655 48.474 107.622 48.7757Z" fill="white"/>
<path d="M133.5 63.8979C134.965 63.9243 136.418 63.6466 137.767 63.0827C138.981 62.5625 140.066 61.7892 140.949 60.8159C141.838 59.8185 142.516 58.6553 142.943 57.3949C143.407 56.0271 143.636 54.5923 143.62 53.1498V33H145.999V53.1498C146.014 54.866 145.723 56.5713 145.137 58.1872C144.591 59.6957 143.746 61.0812 142.65 62.263C141.55 63.444 140.208 64.3806 138.713 65.0106C135.366 66.3298 131.633 66.3298 128.287 65.0106C126.791 64.3818 125.449 63.4451 124.349 62.263C123.252 61.0825 122.407 59.6965 121.863 58.1872C121.277 56.5713 120.985 54.866 121.001 53.1498V33H123.389V53.1223C123.375 54.5668 123.607 56.0034 124.075 57.3721C124.503 58.6303 125.177 59.7929 126.061 60.7929C126.935 61.7743 128.016 62.5557 129.228 63.0827C130.577 63.6515 132.033 63.9294 133.5 63.8979Z" fill="white"/>
<path d="M168.61 37.2861C168.514 37.5228 168.291 37.6761 168.044 37.6756C167.762 37.6264 167.503 37.4777 167.313 37.254C166.931 36.917 166.527 36.6107 166.102 36.3375C165.502 35.9469 164.86 35.6302 164.19 35.3935C162.305 34.7858 160.287 34.8019 158.411 35.4394C157.615 35.7399 156.887 36.2078 156.271 36.8141C155.701 37.3787 155.253 38.0627 154.955 38.8213C154.66 39.5809 154.511 40.3936 154.517 41.2133C154.479 42.1657 154.71 43.1088 155.179 43.9262C155.636 44.6577 156.233 45.2819 156.933 45.7592C157.707 46.2829 158.539 46.7075 159.41 47.024C160.331 47.3631 161.283 47.7022 162.256 48.0367C163.23 48.3713 164.182 48.7424 165.103 49.1411C165.992 49.5242 166.826 50.0346 167.58 50.6579C168.307 51.2707 168.905 52.0355 169.334 52.9033C169.806 53.9378 170.033 55.0757 169.996 56.2211C170.007 57.5249 169.786 58.8195 169.342 60.0383C168.913 61.2055 168.254 62.2656 167.409 63.1499C166.524 64.0586 165.47 64.7681 164.313 65.2349C162.975 65.7646 161.552 66.0227 160.121 65.9956C158.307 66.046 156.507 65.6604 154.858 64.8683C153.389 64.1137 152.078 63.0624 151 61.7751L151.61 60.7761C151.749 60.5668 151.975 60.4392 152.219 60.4324C152.412 60.463 152.589 60.5597 152.723 60.7074L153.465 61.3764C153.754 61.6468 154.104 61.9355 154.512 62.2471C154.957 62.5832 155.431 62.8733 155.928 63.1132C157.256 63.7533 158.703 64.0758 160.164 64.0572C161.281 64.0773 162.392 63.8799 163.441 63.4752C164.345 63.118 165.17 62.5723 165.865 61.8713C166.527 61.1997 167.043 60.387 167.378 59.4884C167.733 58.5491 167.911 57.5471 167.905 56.5373C167.942 55.5509 167.71 54.5737 167.238 53.719C166.787 52.9825 166.188 52.357 165.484 51.886C164.71 51.3699 163.88 50.953 163.01 50.6441C162.086 50.3096 161.138 49.9843 160.16 49.6635C159.182 49.3427 158.24 48.9899 157.314 48.5912C156.422 48.2168 155.587 47.7073 154.837 47.0789C154.103 46.4546 153.505 45.6734 153.083 44.7877C152.605 43.7065 152.376 42.5229 152.416 41.3325C152.416 40.2607 152.616 39.1992 153.004 38.2072C153.397 37.2081 153.984 36.3047 154.727 35.5539C155.538 34.7555 156.491 34.1325 157.534 33.7209C158.748 33.2293 160.042 32.9851 161.344 33.0015C162.817 32.9776 164.28 33.2482 165.655 33.7988C166.962 34.355 168.146 35.1864 169.132 36.2413L168.61 37.2861Z" fill="white"/>
<path d="M47 33H29V43H47V33Z" fill="white"/>
<path d="M47 33H38V66H47V33Z" fill="white"/>
<path d="M54.5 43C56.9853 43 59 40.7614 59 38C59 35.2386 56.9853 33 54.5 33C52.0147 33 50 35.2386 50 38C50 40.7614 52.0147 43 54.5 43Z" fill="white"/>
</svg>
