<?xml version="1.0" encoding="utf-8"?>
<!-- Generator: Adobe Illustrator 27.0.1, SVG Export Plug-In . SVG Version: 6.00 Build 0)  -->
<svg version="1.1" id="Layer_1" xmlns="http://www.w3.org/2000/svg" xmlns:xlink="http://www.w3.org/1999/xlink" x="0px" y="0px"
	 viewBox="0 0 199 18" style="enable-background:new 0 0 199 18;" xml:space="preserve">
<style type="text/css">
	.st0{fill:url(#SVGID_1_);}
	.st1{fill:#FFFFFF;}
</style>
<g>
	
		<linearGradient id="SVGID_1_" gradientUnits="userSpaceOnUse" x1="-1.3929" y1="-1.1482" x2="22.1536" y2="24.3666" gradientTransform="matrix(1 0 0 -1 0 20.1224)">
		<stop  offset="0.1614" style="stop-color:#E6324F"/>
		<stop  offset="0.5104" style="stop-color:#FF8E4B"/>
		<stop  offset="0.9167" style="stop-color:#F8FF02"/>
	</linearGradient>
	<path class="st0" d="M19.8,14.2l-3.3,3.6c-0.1,0.1-0.2,0.1-0.3,0.2C16.1,18,16,18,15.9,18H0.4c-0.1,0-0.1,0-0.2-0.1
		c-0.1,0-0.1-0.1-0.1-0.2c0-0.1,0-0.1,0-0.2c0-0.1,0-0.1,0.1-0.2l3.3-3.6c0.1-0.1,0.2-0.1,0.3-0.2c0.1,0,0.2-0.1,0.3-0.1h15.5
		c0.1,0,0.1,0,0.2,0.1c0.1,0,0.1,0.1,0.1,0.2c0,0.1,0,0.1,0,0.2C19.8,14.1,19.8,14.1,19.8,14.2z M16.5,7c-0.1-0.1-0.2-0.1-0.3-0.2
		c-0.1,0-0.2-0.1-0.3-0.1H0.4c-0.1,0-0.1,0-0.2,0.1C0.1,6.9,0.1,6.9,0,7c0,0.1,0,0.1,0,0.2c0,0.1,0,0.1,0.1,0.2L3.4,11
		c0.1,0.1,0.2,0.1,0.3,0.2c0.1,0,0.2,0.1,0.3,0.1h15.5c0.1,0,0.1,0,0.2-0.1c0.1,0,0.1-0.1,0.1-0.2c0-0.1,0-0.1,0-0.2s0-0.1-0.1-0.2
		L16.5,7z M0.4,4.5h15.5c0.1,0,0.2,0,0.3-0.1c0.1,0,0.2-0.1,0.3-0.2l3.3-3.6c0.1-0.1,0.1-0.1,0.1-0.2c0-0.1,0-0.2,0-0.2
		c0-0.1-0.1-0.1-0.1-0.2C19.6,0,19.6,0,19.5,0H3.9C3.8,0,3.7,0,3.6,0.1c-0.1,0-0.2,0.1-0.3,0.2L0.1,3.8C0.1,3.9,0,3.9,0,4
		c0,0.1,0,0.2,0,0.2s0.1,0.1,0.1,0.2C0.2,4.4,0.3,4.5,0.4,4.5L0.4,4.5z"/>
	<path class="st1" d="M49.4,4.3V1.2h-15v15.3h3.1v-6.1h12V7.4h-12V4.3H49.4z"/>
	<path class="st1" d="M64.2,1.2h-9.4c-1.8,0-3.3,1.4-3.3,3.3v8.8c0,1.8,1.4,3.3,3.3,3.3h9.4c1.8,0,3.3-1.4,3.3-3.3V4.5
		C67.5,2.7,66,1.2,64.2,1.2z M64.4,4.3v9.2h-9.8V4.3H64.4z"/>
	<path class="st1" d="M82.6,1.2v9.6c0,1.5-1.2,2.7-2.7,2.7h-4.4c-1.5,0-2.7-1.2-2.7-2.7V1.2h-3.1v10.2c0,2.8,2.3,5.1,5.1,5.1h5.7
		c2.8,0,5.1-2.3,5.2-5.1V1.2H82.6z"/>
	<path class="st1" d="M100.7,1.2v12.2H100l-6-11.2c-0.3-0.7-1-1.1-1.8-1.1h-2.5c-1.1,0-2,0.9-2,2v13.3h3.1V4.3h0.8l6,11.2
		c0.3,0.7,1,1.1,1.8,1.1h2.4c1.1,0,2-0.9,2-2V1.2H100.7z"/>
	<path class="st1" d="M116.7,1.2h-10.8v15.3h10.8c2.8,0,5.1-2.3,5.2-5.1v-5C121.9,3.5,119.6,1.2,116.7,1.2z M118.8,7v3.8
		c0,1.5-1.2,2.7-2.7,2.7H109V4.3h7.1C117.6,4.3,118.8,5.5,118.8,7z"/>
	<path class="st1" d="M137.4,1.2h-10.7c-1.5,0-2.6,1.2-2.6,2.6v12.7h3.1v-5h9.8v5h3.1V3.9C140,2.4,138.9,1.2,137.4,1.2z M137,4.3
		v4.2h-9.8V4.3H137z"/>
	<path class="st1" d="M142.2,1.2v3.1h6.1v12.2h3.1V4.3h6.1V1.2H142.2z"/>
	<path class="st1" d="M162.8,16.6V1.2h-3.1v15.3H162.8z"/>
	<path class="st1" d="M177.6,1.2h-9.4c-1.8,0-3.3,1.4-3.3,3.3v8.8c0,1.8,1.4,3.3,3.3,3.3h9.4c1.8,0,3.3-1.4,3.3-3.3V4.5
		C180.9,2.7,179.4,1.2,177.6,1.2z M177.8,4.3v9.2H168V4.3H177.8z"/>
	<path class="st1" d="M195.9,1.2v12.2h-0.7l-6-11.2c-0.3-0.7-1-1.1-1.8-1.1H185c-1.1,0-2,0.9-2,2v13.3h3.1V4.3h0.8l6,11.2
		c0.3,0.7,1,1.1,1.8,1.1h2.4c1.1,0,2-0.9,2-2V1.2H195.9z"/>
</g>
</svg>
