<?xml version="1.0" encoding="utf-8"?>
<!-- Generator: Adobe Illustrator 24.0.2, SVG Export Plug-In . SVG Version: 6.00 Build 0)  -->
<svg version="1.1" id="Layer_1" xmlns="http://www.w3.org/2000/svg" xmlns:xlink="http://www.w3.org/1999/xlink" x="0px" y="0px"
	 viewBox="0 0 150 50" style="enable-background:new 0 0 150 50;" xml:space="preserve" fill="currentColor">
<path d="M65.6,44.4C65.6,44.4,65.6,44.4,65.6,44.4c-0.6,0-1.1-0.3-1.4-0.8L43.7,8c-0.5-0.8-0.2-1.8,0.6-2.3c0.8-0.5,1.8-0.2,2.3,0.6
	l19,33.1l8.9-15.3c0.3-0.5,0.8-0.8,1.4-0.8l10.3,0c0,0,0,0,0,0c0.9,0,1.7,0.7,1.7,1.7c0,0.9-0.7,1.7-1.7,1.7l-9.3,0l-9.8,17
	C66.8,44.1,66.2,44.4,65.6,44.4z M42.6,44.4c-0.6,0-1.1-0.3-1.4-0.8L22,10.5l-8.8,15.2c-0.3,0.5-0.8,0.8-1.4,0.8l-10.3,0
	c0,0,0,0,0,0c-0.9,0-1.7-0.7-1.7-1.7c0-0.9,0.7-1.7,1.7-1.7l9.3,0l9.8-16.9c0.3-0.5,0.8-0.8,1.4-0.8c0,0,0,0,0,0
	c0.6,0,1.1,0.3,1.4,0.8L44,41.9c0.5,0.8,0.2,1.8-0.6,2.3C43.1,44.3,42.8,44.4,42.6,44.4z M54.1,44.4c-0.6,0-1.1-0.3-1.4-0.8L32.1,8
	c-0.5-0.8-0.2-1.8,0.6-2.3c0.8-0.5,1.8-0.2,2.3,0.6l20.5,35.5c0.5,0.8,0.2,1.8-0.6,2.3C54.7,44.3,54.4,44.4,54.1,44.4z"/>
<g>
	<path d="M95.5,26.8h-3.1L91.5,29h-1.5l3.3-9h1.1l3.3,9h-1.5L95.5,26.8z M95,25.4l-1.1-3.1l-1.1,3.1H95z"/>
	<path d="M99,20h3.8l1.2,0.3l0.9,1l0.3,1.2l-0.3,1l-0.5,0.6l-0.3,0.1l0.3,0.1l0.6,0.8l0.3,1.2l-0.3,1.2l-0.7,0.9l-1.1,0.5H99V20z
		 M103,23.6l0.5-0.4l0.1-0.2l0.2-0.5l-0.1-0.5l-0.4-0.4l-0.6-0.2h-2.3v2.2H103z M102.9,27.7l0.5-0.2l0.3-0.3l0.2-0.7l-0.2-0.7
		l-0.3-0.4l-0.6-0.3h-2.5v2.7H102.9z"/>
	<path d="M107.7,28.7l-0.8-0.5l-0.4-0.5l1-0.9l0.3,0.4l0.5,0.3l1,0.3h1l0.8-0.3l0.2-0.3l0.2-0.3v-0.6l-0.2-0.5l-0.5-0.3l-2.5-0.7
		l-1-0.7l-0.4-0.7l-0.2-1.1l0.4-1.1l0.8-0.9l1.2-0.4h1.3l1.4,0.4l1,0.6l-0.7,1.2l-0.8-0.5l-1-0.3h-0.9l-0.6,0.2l-0.4,0.4l-0.1,0.5
		l0.1,0.5l0.1,0.2l0.6,0.4l2.6,0.7l1,0.7l0.4,1v1.3l-0.3,0.7l-0.6,0.7l-1.4,0.5h-1.5L107.7,28.7z"/>
	<path d="M116.1,21.4h-2.3V20h6v1.4h-2.3V29h-1.4V21.4z"/>
	<path d="M121.2,20h3.8l1.2,0.3l1,1l0.4,1.3l-0.3,1.3l-0.6,0.9l-0.6,0.3l1.7,3.9h-1.5l-1.6-3.6h-2V29h-1.4V20z M125,24.1l0.6-0.3
		l0.3-0.4l0.2-0.7L126,22l-0.5-0.4l-0.7-0.2h-2.3v2.7H125z"/>
	<path d="M133.6,26.8h-3.1l-0.8,2.3h-1.5l3.3-9h1.1l3.3,9h-1.5L133.6,26.8z M133.2,25.4l-1.1-3.1l-1.1,3.1H133.2z"/>
	<path d="M138,28.5l-0.9-0.9l-0.5-1.1l-0.2-1.1v-1.9l0.2-1.1l0.5-1.1l0.9-0.9l1.3-0.6h1.4l1.3,0.5l0.6,0.4l0.6,0.7l-1,0.9l-0.5-0.6
		l-0.3-0.3l-0.9-0.4h-0.9l-0.8,0.4l-0.6,0.6l-0.4,0.7l-0.2,0.8v1.5l0.2,0.8l0.4,0.7l0.5,0.5l0.8,0.4h0.9l0.9-0.4l0.3-0.3l0.5-0.6
		l1,0.9l-0.6,0.7l-0.6,0.4l-1.3,0.5h-1.4L138,28.5z"/>
	<path d="M146.3,21.4H144V20h6v1.4h-2.3V29h-1.4V21.4z"/>
</g>
</svg>
