<svg width="200" height="100" viewBox="0 0 200 100" fill="currentColor" xmlns="http://www.w3.org/2000/svg">
<path d="M140.585 77.9304C139.064 81.424 137.264 84.64 135.178 87.5967C132.334 91.6275 130.006 94.4175 128.212 95.9668C125.43 98.51 122.45 99.8124 119.259 99.8865C116.968 99.8865 114.205 99.2383 110.989 97.9236C107.763 96.615 104.797 95.9668 102.086 95.9668C99.2425 95.9668 96.1929 96.615 92.931 97.9236C89.6641 99.2383 87.0321 99.9235 85.02 99.9914C81.9597 100.121 78.9095 98.7815 75.8647 95.9668C73.9216 94.2817 71.4909 91.3929 68.579 87.3004C65.4549 82.9303 62.8864 77.8625 60.8742 72.0849C58.7192 65.8443 57.6389 59.8012 57.6389 53.9508C57.6389 47.2492 59.0954 41.4692 62.0129 36.6254C64.3057 32.7349 67.356 29.6658 71.1736 27.4128C74.9913 25.1597 79.1163 24.0117 83.5585 23.9382C85.9892 23.9382 89.1766 24.6857 93.1377 26.1547C97.0875 27.6287 99.6238 28.3762 100.736 28.3762C101.567 28.3762 104.384 27.5022 109.161 25.7597C113.678 24.1438 117.49 23.4746 120.613 23.7382C129.075 24.4172 135.432 27.7337 139.66 33.7089C132.092 38.2679 128.348 44.6536 128.423 52.8453C128.491 59.226 130.819 64.5357 135.395 68.7517C137.469 70.7083 139.785 72.2207 142.361 73.2947C141.802 74.9057 141.213 76.4489 140.585 77.9304ZM121.178 2.00057C121.178 7.00171 119.34 11.6713 115.677 15.9933C111.256 21.1315 105.909 24.1006 100.111 23.6319C100.037 23.0321 99.9945 22.4006 99.9945 21.7369C99.9945 16.936 102.097 11.7978 105.83 7.59669C107.694 5.4696 110.064 3.70094 112.939 2.29007C115.807 0.900229 118.52 0.131621 121.072 0C121.146 0.668575 121.178 1.33719 121.178 2.0005V2.00057Z" fill="currentColor"/>
</svg>
