<svg width="316" height="100" viewBox="0 0 316 100" fill="none" xmlns="http://www.w3.org/2000/svg">
<path d="M28.9999 45.4008L40.3999 34.0008L51.9999 45.4008L58.5999 38.8008L40.3999 20.8008L22.3999 38.8008L28.9999 45.4008Z" fill="#F3BA2F"/>
<path d="M11 50.0004L17.6 43.4004L24.2 50.0004L17.6 56.6004L11 50.0004Z" fill="#F3BA2F"/>
<path d="M28.9999 54.5996L40.3999 65.9996L51.9999 54.5996L58.5999 61.1996L40.3999 79.1996L22.3999 61.1996L28.9999 54.5996Z" fill="#F3BA2F"/>
<path d="M56.6001 50.0004L63.2001 43.4004L69.8001 50.0004L63.2001 56.6004L56.6001 50.0004Z" fill="#F3BA2F"/>
<path d="M47.2001 50.0008L40.4001 43.4008L35.6001 48.2008L35.0001 48.8008L33.6001 50.0008L40.2001 56.6008L47.2001 50.0008ZM80.0001 35.0008H94.4001C98.0001 35.0008 100.6 36.0008 102.6 37.8008C104 39.2008 104.8 41.0008 104.8 43.0008C104.8 44.0008 104.6 44.8008 104.4 45.4008C104.2 46.0008 103.8 46.8008 103.4 47.2008C103 47.8008 102.6 48.2008 102 48.6008C101.6 49.0008 101 49.4008 100.4 49.6008C102.2 50.2008 103.6 51.2008 104.8 52.4008C105.8 53.6008 106.4 55.2008 106.4 57.2008C106.4 58.6008 106.2 60.0008 105.6 61.0008C105 62.0008 104.2 63.0008 103.2 63.8008C102.2 64.6008 100.8 65.0008 99.4001 65.4008C98.0001 65.8008 96.4001 66.0008 94.8001 66.0008H80.0001C80.0001 65.6008 80.0001 35.0008 80.0001 35.0008ZM93.2001 47.4008C94.8001 47.4008 96.0001 47.2008 96.8001 46.6008C97.8001 46.0008 98.2001 45.2008 98.2001 44.0008C98.2001 43.0008 97.8001 42.2008 97.0001 41.6008C96.2001 41.0008 95.0001 40.8008 93.6001 40.8008H86.8001V47.4008C86.8001 47.4008 93.2001 47.4008 93.2001 47.4008ZM95.0001 60.0008C96.6001 60.0008 97.8001 59.8008 98.6001 59.2008C99.4001 58.6008 100 57.8008 100 56.6008C100 55.6008 99.6001 54.6008 98.8001 54.0008C98.0001 53.4008 96.6001 53.0008 94.8001 53.0008H87.0001V60.0008H95.0001ZM115.2 35.0008H122V66.0008H115.2V35.0008ZM132.4 35.0008H138.6L153.2 54.2008V35.0008H160V66.0008H154.2L139.2 46.2008V66.0008H132.4V35.0008V35.0008ZM181 34.8008H187.2L200.4 66.0008H193.2L190.2 59.0008H177L174.2 66.0008H167.2L181 34.8008ZM188.2 53.0008L184 42.8008L180 53.0008H188.2ZM208 35.0008H214.2L228.8 54.2008V35.0008H235.6V66.0008H229.8L214.8 46.2008V66.0008H208V35.0008ZM260.4 66.6008C258 66.6008 255.8 66.2008 254 65.4008C252 64.6008 250.2 63.4008 249 62.0008C247.6 60.6008 246.4 58.8008 245.6 57.0008C244.8 55.0008 244.4 52.8008 244.4 50.8008C244.4 48.8008 244.8 46.4008 245.6 44.6008C246.4 42.6008 247.6 40.8008 249 39.6008C250.4 38.0008 252.2 37.0008 254 36.0008C256 35.2008 258.2 34.8008 260.6 34.8008C262 34.8008 263.4 35.0008 264.6 35.2008C265.8 35.4008 267 35.8008 268 36.2008C269 36.6008 270 37.2008 270.8 37.8008C271.6 38.4008 272.4 39.0008 273.2 39.8008L268.8 44.8008C267.6 43.6008 266.2 42.8008 265 42.2008C263.8 41.6008 262.2 41.2008 260.6 41.2008C259.2 41.2008 258 41.4008 256.8 42.0008C255.6 42.6008 254.6 43.2008 253.8 44.2008C253 45.2008 252.4 46.2008 251.8 47.4008C251.4 48.6008 251.2 49.8008 251.2 51.2008C251.2 52.6008 251.4 53.8008 251.8 55.0008C252.2 56.2008 252.8 57.2008 253.6 58.2008C254.4 59.2008 255.4 59.8008 256.6 60.4008C257.8 61.0008 259 61.2008 260.4 61.2008C262.2 61.2008 263.8 60.8008 265 60.2008C266.2 59.6008 267.6 58.6008 268.8 57.4008L273.2 62.0008C272.4 62.8008 271.6 63.6008 270.6 64.4008C269.8 65.0008 268.8 65.6008 267.8 66.2008C266.8 66.6008 265.6 67.0008 264.4 67.4008C263.2 66.4008 261.8 66.6008 260.4 66.6008ZM281.2 35.0008H304.6V41.0008H288V47.2008H302.6V53.2008H288V59.6008H304.8V65.6008H281.2V35.0008Z" fill="#F3BA2F"/>
</svg>
