
<svg width="1327" height="406" viewBox="0 0 1327 726" fill="none" xmlns="http://www.w3.org/2000/svg">
<path d="M659.387 417C658.048 417 656.911 416.596 655.974 415.787C655.171 414.843 654.77 413.697 654.77 412.348V370.281H613.617C612.279 370.281 611.141 369.876 610.204 369.067C609.401 368.124 609 366.978 609 365.629V359.157C609 357.809 609.401 356.73 610.204 355.921C611.141 354.978 612.279 354.506 613.617 354.506H654.77V313.652C654.77 312.303 655.171 311.225 655.974 310.416C656.911 309.472 658.048 309 659.387 309H666.413C667.751 309 668.822 309.472 669.625 310.416C670.561 311.225 671.03 312.303 671.03 313.652V354.506H712.383C713.721 354.506 714.792 354.978 715.595 355.921C716.532 356.73 717 357.809 717 359.157V365.629C717 366.978 716.532 368.124 715.595 369.067C714.792 369.876 713.721 370.281 712.383 370.281H671.03V412.348C671.03 413.697 670.561 414.843 669.625 415.787C668.822 416.596 667.751 417 666.413 417H659.387Z" fill="white"/>
<path fill-rule="evenodd" clip-rule="evenodd" d="M931.734 487.209C931.734 486.323 932.448 485.604 933.328 485.604H939.433C940.313 485.604 941.027 486.323 941.027 487.209V525.132C941.027 526.019 941.74 526.737 942.621 526.737H978.68C980.075 526.737 980.797 528.415 979.843 529.44L975.228 534.398C974.926 534.722 974.506 534.905 974.065 534.905H941.027H933.328C932.448 534.905 931.734 534.187 931.734 533.3V487.209Z" fill="white"/>
<path fill-rule="evenodd" clip-rule="evenodd" d="M834.369 515.027H814.1C814.099 515.027 814.097 515.026 814.097 515.025C814.097 515.023 814.096 515.022 814.095 515.022C813.964 515.025 813.832 515.027 813.7 515.027C805.581 515.027 799 508.441 799 500.316C799 492.192 805.581 485.605 813.7 485.605C813.832 485.605 813.964 485.607 814.095 485.611C814.096 485.611 814.097 485.61 814.097 485.608C814.097 485.607 814.099 485.605 814.1 485.605H844.959C846.417 485.605 847.117 487.401 846.044 488.391L839.19 494.723C838.894 494.996 838.507 495.148 838.105 495.148H813.69C810.843 495.148 808.535 497.462 808.535 500.316C808.535 503.171 810.843 505.485 813.69 505.485H835.527C835.54 505.485 835.552 505.496 835.552 505.51C835.552 505.523 835.562 505.533 835.574 505.535C843.125 506.153 849.06 512.481 849.06 520.196C849.06 528.32 842.478 534.907 834.36 534.907C833.967 534.907 833.578 534.891 833.192 534.861C833.179 534.86 833.168 534.871 833.168 534.884C833.168 534.896 833.158 534.907 833.145 534.907H802.539C801.052 534.907 800.369 533.051 801.499 532.082L808.88 525.75C809.17 525.501 809.54 525.365 809.921 525.365H820.593H834.369C837.216 525.365 839.525 523.05 839.525 520.196C839.525 517.341 837.216 515.027 834.369 515.027Z" fill="white"/>
<path fill-rule="evenodd" clip-rule="evenodd" d="M873.726 485.604C873.724 485.604 873.722 485.606 873.722 485.608C873.722 485.611 873.72 485.613 873.718 485.613C868.994 485.817 865.201 489.616 864.996 494.347C864.996 494.349 864.994 494.351 864.992 494.351C864.99 494.351 864.988 494.353 864.988 494.355V525.359C864.988 525.361 864.99 525.363 864.992 525.363C864.994 525.363 864.996 525.365 864.996 525.367C864.991 525.498 864.988 525.629 864.988 525.761C864.988 530.676 868.861 534.686 873.718 534.897C873.72 534.897 873.722 534.899 873.722 534.901C873.722 534.903 873.724 534.905 873.726 534.905H907.067C907.07 534.905 907.072 534.903 907.072 534.901C907.072 534.899 907.073 534.897 907.076 534.897C911.933 534.686 915.806 530.676 915.806 525.761C915.806 525.629 915.803 525.498 915.798 525.367C915.798 525.365 915.8 525.363 915.802 525.363C915.804 525.363 915.806 525.361 915.806 525.359V494.355C915.806 494.353 915.804 494.351 915.802 494.351C915.799 494.351 915.797 494.349 915.797 494.347C915.593 489.616 911.8 485.817 907.076 485.613C907.073 485.613 907.072 485.611 907.072 485.608C907.072 485.606 907.07 485.604 907.067 485.604H873.726ZM879.978 494.351C879.976 494.351 879.975 494.352 879.975 494.354C879.975 494.355 879.974 494.356 879.973 494.356C877.02 494.485 874.649 496.875 874.522 499.851C874.522 499.852 874.52 499.853 874.519 499.853C874.517 499.853 874.516 499.854 874.516 499.856V519.358C874.516 519.36 874.517 519.361 874.519 519.361C874.52 519.361 874.521 519.362 874.521 519.363C874.518 519.445 874.516 519.528 874.516 519.611C874.516 522.703 876.937 525.225 879.973 525.358C879.974 525.358 879.975 525.359 879.975 525.36C879.975 525.362 879.976 525.363 879.978 525.363H900.816C900.817 525.363 900.819 525.362 900.819 525.36C900.819 525.359 900.82 525.358 900.821 525.358C903.857 525.225 906.278 522.703 906.278 519.611C906.278 519.528 906.276 519.445 906.272 519.363C906.272 519.362 906.274 519.361 906.275 519.361C906.276 519.361 906.278 519.36 906.278 519.358V499.856C906.278 499.854 906.276 499.853 906.275 499.853C906.273 499.853 906.272 499.852 906.272 499.851C906.145 496.875 903.774 494.485 900.821 494.356C900.82 494.356 900.819 494.355 900.819 494.354C900.819 494.352 900.817 494.351 900.816 494.351H879.978Z" fill="white"/>
<path fill-rule="evenodd" clip-rule="evenodd" d="M1007.39 499.122V507.059C1007.39 507.946 1008.12 508.664 1009.02 508.664H1038C1038.9 508.664 1039.63 507.946 1039.63 507.059V499.122C1039.63 496.048 1037.1 493.556 1033.99 493.556H1013.03C1009.92 493.556 1007.39 496.048 1007.39 499.122ZM1041.25 534.905C1040.35 534.905 1039.63 534.187 1039.63 533.3V517.426C1039.63 516.54 1038.9 515.821 1038 515.821H1009.02C1008.12 515.821 1007.39 516.54 1007.39 517.426V533.3C1007.39 534.187 1006.67 534.905 1005.77 534.905H999.345C998.449 534.905 997.722 534.187 997.722 533.3V495.15C997.722 495.148 997.724 495.146 997.726 495.146C997.728 495.146 997.73 495.144 997.73 495.142C997.725 495.011 997.722 494.88 997.722 494.749C997.722 489.698 1001.87 485.604 1006.99 485.604C1007.12 485.604 1007.26 485.607 1007.39 485.612C1007.39 485.612 1007.39 485.611 1007.39 485.608C1007.39 485.606 1007.39 485.604 1007.4 485.604H1040.43C1040.43 485.604 1040.43 485.606 1040.43 485.608C1040.43 485.611 1040.44 485.613 1040.44 485.613C1045.37 485.823 1049.3 489.833 1049.3 494.749C1049.3 494.88 1049.3 495.011 1049.29 495.142C1049.29 495.144 1049.29 495.146 1049.29 495.146C1049.3 495.146 1049.3 495.148 1049.3 495.15V533.3C1049.3 534.187 1048.57 534.905 1047.67 534.905H1041.25Z" fill="white"/>
<path fill-rule="evenodd" clip-rule="evenodd" d="M1141.5 499.122V507.059C1141.5 507.946 1142.22 508.664 1143.1 508.664H1171.66C1172.55 508.664 1173.26 507.946 1173.26 507.059V499.122C1173.26 496.048 1170.77 493.556 1167.7 493.556H1147.06C1143.99 493.556 1141.5 496.048 1141.5 499.122ZM1174.86 534.905C1173.98 534.905 1173.26 534.187 1173.26 533.3V517.426C1173.26 516.54 1172.55 515.821 1171.66 515.821H1143.1C1142.22 515.821 1141.5 516.54 1141.5 517.426V533.3C1141.5 534.187 1140.79 534.905 1139.9 534.905H1133.57C1132.69 534.905 1131.97 534.187 1131.97 533.3V495.15C1131.97 495.148 1131.98 495.146 1131.98 495.146C1131.98 495.146 1131.98 495.144 1131.98 495.142C1131.98 495.011 1131.97 494.88 1131.97 494.749C1131.97 489.698 1136.06 485.604 1141.1 485.604C1141.24 485.604 1141.37 485.607 1141.5 485.612C1141.5 485.612 1141.5 485.611 1141.5 485.608C1141.5 485.606 1141.5 485.604 1141.51 485.604H1174.05C1174.06 485.604 1174.06 485.606 1174.06 485.608C1174.06 485.611 1174.06 485.613 1174.06 485.613C1178.92 485.823 1182.79 489.833 1182.79 494.749C1182.79 494.88 1182.79 495.011 1182.78 495.142C1182.78 495.144 1182.78 495.146 1182.79 495.146C1182.79 495.146 1182.79 495.148 1182.79 495.15V533.3C1182.79 534.187 1182.08 534.905 1181.19 534.905H1174.86Z" fill="white"/>
<path fill-rule="evenodd" clip-rule="evenodd" d="M1074.63 486.168C1074.32 485.81 1073.87 485.604 1073.39 485.604H1066.09C1065.2 485.604 1064.47 486.323 1064.47 487.209V533.3C1064.47 534.187 1065.2 534.905 1066.09 534.905H1072.52C1073.41 534.905 1074.14 534.187 1074.14 533.3V502.606C1074.14 501.123 1076 500.433 1076.99 501.55L1106.36 534.806C1106.37 534.817 1106.37 534.831 1106.37 534.845C1106.37 534.878 1106.4 534.905 1106.43 534.905H1106.45H1114.42C1115.32 534.905 1116.04 534.187 1116.04 533.3V487.209C1116.04 486.323 1115.32 485.604 1114.42 485.604H1108C1107.1 485.604 1106.37 486.323 1106.37 487.209V518.616C1106.37 520.108 1104.49 520.793 1103.52 519.657L1074.63 486.168Z" fill="white"/>
<path d="M1077.52 259.277C1075.92 260.904 1073.74 261.818 1071.47 261.818H856.883C849.299 261.818 845.457 252.569 850.76 247.076L885.957 210.611C887.569 208.941 889.776 208 892.081 208H1107.46C1115.09 208 1118.92 217.345 1113.52 222.811L1077.52 259.277Z" fill="#1DD79B"/>
<path d="M1077.52 422.139C1075.92 423.725 1073.74 424.617 1071.47 424.617H856.883C849.299 424.617 845.457 415.599 850.76 410.244L885.957 374.69C887.569 373.062 889.776 372.144 892.081 372.144H1107.46C1115.09 372.144 1118.92 381.256 1113.52 386.585L1077.52 422.139Z" fill="#1DD79B"/>
<path d="M1077.52 292.55C1075.92 290.963 1073.74 290.072 1071.47 290.072L856.883 290.072C849.299 290.072 845.457 299.09 850.76 304.445L885.957 339.999C887.569 341.627 889.776 342.545 892.081 342.545L1107.46 342.545C1115.09 342.545 1118.92 333.433 1113.52 328.104L1077.52 292.55Z" fill="#1DD79B"/>
<path d="M335.485 466.15C335.485 300.696 335.485 217.969 335.485 217.969C286.827 217.969 238.169 300.696 189.511 466.15H335.485Z" fill="url(#paint0_linear)"/>
<path d="M481.458 466.149C481.458 271.498 481.458 174.172 481.458 174.172C413.337 174.172 345.217 271.498 277.096 466.149H481.458Z" fill="url(#paint1_linear)"/>
<path fill-rule="evenodd" clip-rule="evenodd" d="M189.511 549.818V482.908H210.282C224.039 482.908 233.969 487.271 233.969 499.363C233.969 505.726 230.416 511.817 224.403 513.817V514.272C232.055 515.908 237.613 521.09 237.613 530.181C237.613 543.454 226.772 549.818 211.922 549.818H189.511ZM200.079 510.817H209.098C219.301 510.817 223.583 506.999 223.583 500.726C223.583 493.726 218.846 491.09 209.371 491.09H200.079V510.817ZM200.079 541.545H210.738C221.214 541.545 227.227 537.818 227.227 529.636C227.227 522.09 221.397 518.818 210.738 518.818H200.079V541.545ZM249.364 549.818V499.817H259.75V549.818H249.364ZM254.557 490.453C250.731 490.453 247.907 487.908 247.907 484.271C247.907 480.544 250.731 478.089 254.557 478.089C258.383 478.089 261.299 480.544 261.299 484.271C261.299 487.908 258.383 490.453 254.557 490.453ZM292.364 551C281.067 551 277.15 544 277.15 533.454V508.181H269.862V499.817H277.332V485.999H287.627V499.817H300.654V508.181H287.627V533.545C287.627 539.545 289.722 542.636 294.915 542.636C296.646 542.636 298.832 542.091 300.29 541.454L302.203 549.182C299.379 550.091 296.008 551 292.364 551ZM312.497 549.818V482.908H325.755L339.212 516.727C340.906 521.181 342.402 525.727 344.096 530.272H344.595C346.289 525.727 347.685 521.181 349.379 516.727L362.637 482.908H375.994V549.818H365.229V516.727C365.229 510.726 366.126 502.09 366.724 495.999H366.325L360.444 511.454L347.685 543.364H340.508L327.649 511.454L321.867 495.999H321.468C321.967 502.09 322.864 510.726 322.864 516.727V549.818H312.497ZM402.413 551C393.759 551 387.655 545.364 387.655 536.545C387.655 525.818 396.765 520.272 417.627 517.999C417.536 512.181 415.441 507.09 408.062 507.09C402.778 507.09 397.858 509.454 393.577 512.181L389.659 505.09C394.852 501.817 401.867 498.544 409.884 498.544C422.364 498.544 428.104 506.454 428.104 519.727V549.818H419.54C418.967 546.683 418.663 545.022 418.629 544.835C414.074 548.744 408.426 551 402.413 551ZM403.537 542.616C408.037 542.616 413.422 539.13 417.991 535.402V525.574C402.276 527.339 395.346 530.757 395.346 536.393C395.346 541.302 399.038 542.616 403.537 542.616ZM436.394 549.909L452.61 523.818L437.578 499.908H448.875L454.887 509.999C456.345 512.726 457.985 515.545 459.624 518.363H459.989C461.355 515.545 462.813 512.726 464.179 509.999L469.463 499.908H480.395L465.364 524.999L481.489 549.909H470.101L463.542 539.363C461.902 536.363 460.171 533.272 458.349 530.454H457.894C456.345 533.272 454.796 536.272 453.247 539.363L447.417 549.909H436.394Z" fill="white"/>
<defs>
<linearGradient id="paint0_linear" x1="262.498" y1="217.969" x2="262.498" y2="466.15" gradientUnits="userSpaceOnUse">
<stop stop-color="#96D9FD"/>
<stop offset="1" stop-color="#329EFC"/>
</linearGradient>
<linearGradient id="paint1_linear" x1="379.277" y1="174.172" x2="379.277" y2="466.149" gradientUnits="userSpaceOnUse">
<stop stop-color="#61C7FF"/>
<stop offset="1" stop-color="#0087FD"/>
</linearGradient>
</defs>
</svg>
