<svg width="1442" height="323" viewBox="0 0 1442 723" fill="none" xmlns="http://www.w3.org/2000/svg">
<g clip-path="url(#clip0)">
<g filter="url(#filter0_d)">
<path d="M736.604 432.038C735.154 432.038 733.921 431.599 732.906 430.723C732.036 429.7 731.601 428.458 731.601 426.997V381.409H687.004C685.553 381.409 684.321 380.971 683.305 380.094C682.435 379.071 682 377.829 682 376.368V369.355C682 367.893 682.435 366.724 683.305 365.848C684.321 364.825 685.553 364.314 687.004 364.314H731.601V320.041C731.601 318.58 732.036 317.411 732.906 316.534C733.921 315.511 735.154 315 736.604 315H744.219C745.669 315 746.829 315.511 747.699 316.534C748.715 317.411 749.222 318.58 749.222 320.041V364.314H794.037C795.487 364.314 796.648 364.825 797.518 365.848C798.533 366.724 799.041 367.893 799.041 369.355V376.368C799.041 377.829 798.533 379.071 797.518 380.094C796.648 380.971 795.487 381.409 794.037 381.409H749.222V426.997C749.222 428.458 748.715 429.7 747.699 430.723C746.829 431.599 745.669 432.038 744.219 432.038H736.604Z" fill="white"/>
</g>
<g filter="url(#filter1_d)">
<path fill-rule="evenodd" clip-rule="evenodd" d="M1024.89 499.574C1024.89 498.613 1025.66 497.834 1026.61 497.834H1033.23C1034.18 497.834 1034.96 498.613 1034.96 499.574V540.67C1034.96 541.631 1035.73 542.41 1036.68 542.41H1075.76C1077.27 542.41 1078.06 544.228 1077.02 545.339L1072.02 550.712C1071.69 551.062 1071.24 551.261 1070.76 551.261H1034.96H1026.61C1025.66 551.261 1024.89 550.483 1024.89 549.522V499.574Z" fill="#FFFFFF"/>
<path fill-rule="evenodd" clip-rule="evenodd" d="M919.371 529.72H897.405C897.403 529.72 897.402 529.718 897.402 529.717C897.402 529.715 897.4 529.714 897.399 529.714C897.257 529.718 897.114 529.72 896.971 529.72C888.173 529.72 881.041 522.582 881.041 513.778C881.041 504.973 888.173 497.836 896.971 497.836C897.114 497.836 897.257 497.838 897.399 497.842C897.4 497.842 897.402 497.84 897.402 497.839C897.402 497.837 897.403 497.836 897.405 497.836H930.847C932.427 497.836 933.185 499.781 932.023 500.855L924.594 507.716C924.274 508.012 923.854 508.177 923.419 508.177H896.961C893.875 508.177 891.374 510.684 891.374 513.778C891.374 516.871 893.875 519.379 896.961 519.379H920.625C920.64 519.379 920.652 519.391 920.652 519.406C920.652 519.42 920.663 519.432 920.677 519.433C928.859 520.102 935.291 526.96 935.291 535.321C935.291 544.125 928.158 551.263 919.36 551.263C918.934 551.263 918.513 551.246 918.095 551.213C918.081 551.212 918.068 551.224 918.068 551.238C918.068 551.252 918.057 551.263 918.044 551.263H884.876C883.265 551.263 882.524 549.252 883.748 548.202L891.748 541.34C892.062 541.07 892.462 540.922 892.876 540.922H904.441H919.371C922.456 540.922 924.957 538.414 924.957 535.321C924.957 532.228 922.456 529.72 919.371 529.72Z" fill="#FFFFFF"/>
<path fill-rule="evenodd" clip-rule="evenodd" d="M962.022 497.834C962.02 497.834 962.018 497.837 962.018 497.839C962.018 497.842 962.016 497.844 962.013 497.844C956.894 498.065 952.783 502.182 952.562 507.309C952.562 507.311 952.559 507.313 952.557 507.313C952.554 507.313 952.552 507.316 952.552 507.318V540.916C952.552 540.919 952.554 540.921 952.557 540.921C952.559 540.921 952.561 540.923 952.561 540.925C952.555 541.067 952.552 541.209 952.552 541.352C952.552 546.679 956.75 551.024 962.013 551.252C962.016 551.252 962.018 551.254 962.018 551.257C962.018 551.259 962.02 551.261 962.022 551.261H998.154C998.157 551.261 998.159 551.259 998.159 551.257C998.159 551.254 998.161 551.252 998.163 551.252C1003.43 551.024 1007.62 546.679 1007.62 541.352C1007.62 541.209 1007.62 541.067 1007.62 540.925C1007.62 540.923 1007.62 540.921 1007.62 540.921C1007.62 540.921 1007.62 540.919 1007.62 540.916V507.318C1007.62 507.316 1007.62 507.313 1007.62 507.313C1007.62 507.313 1007.62 507.311 1007.62 507.309C1007.39 502.182 1003.28 498.065 998.163 497.844C998.161 497.844 998.159 497.842 998.159 497.839C998.159 497.837 998.157 497.834 998.154 497.834H962.022ZM968.797 507.313C968.796 507.313 968.794 507.315 968.794 507.316C968.794 507.318 968.793 507.319 968.791 507.319C965.592 507.459 963.022 510.048 962.884 513.273C962.884 513.275 962.883 513.276 962.881 513.276C962.88 513.276 962.878 513.277 962.878 513.279V534.413C962.878 534.415 962.88 534.416 962.881 534.416C962.883 534.416 962.884 534.417 962.884 534.419C962.88 534.508 962.878 534.597 962.878 534.687C962.878 538.038 965.502 540.771 968.791 540.915C968.793 540.915 968.794 540.916 968.794 540.918C968.794 540.919 968.796 540.921 968.797 540.921H991.38C991.381 540.921 991.382 540.919 991.382 540.918C991.382 540.916 991.384 540.915 991.385 540.915C994.675 540.771 997.298 538.038 997.298 534.687C997.298 534.597 997.297 534.508 997.293 534.419C997.293 534.417 997.294 534.416 997.296 534.416C997.297 534.416 997.298 534.415 997.298 534.413V513.279C997.298 513.277 997.297 513.276 997.296 513.276C997.294 513.276 997.293 513.275 997.293 513.273C997.154 510.048 994.585 507.459 991.385 507.319C991.384 507.319 991.382 507.318 991.382 507.316C991.382 507.315 991.381 507.313 991.38 507.313H968.797Z" fill="#FFFFFF"/>
<path fill-rule="evenodd" clip-rule="evenodd" d="M1106.88 512.484V521.085C1106.88 522.046 1107.67 522.824 1108.64 522.824H1140.05C1141.02 522.824 1141.81 522.046 1141.81 521.085V512.484C1141.81 509.152 1139.07 506.452 1135.7 506.452H1112.99C1109.61 506.452 1106.88 509.152 1106.88 512.484ZM1143.57 551.261C1142.6 551.261 1141.81 550.483 1141.81 549.522V532.319C1141.81 531.359 1141.02 530.58 1140.05 530.58H1108.64C1107.67 530.58 1106.88 531.359 1106.88 532.319V549.522C1106.88 550.483 1106.09 551.261 1105.12 551.261H1098.16C1097.19 551.261 1096.4 550.483 1096.4 549.522V508.18C1096.4 508.177 1096.4 508.175 1096.4 508.175C1096.4 508.175 1096.41 508.173 1096.41 508.17C1096.4 508.029 1096.4 507.887 1096.4 507.744C1096.4 502.271 1100.89 497.834 1106.44 497.834C1106.59 497.834 1106.73 497.837 1106.87 497.843C1106.88 497.844 1106.88 497.842 1106.88 497.839C1106.88 497.836 1106.88 497.834 1106.88 497.834H1142.68C1142.68 497.834 1142.68 497.837 1142.68 497.839C1142.68 497.842 1142.69 497.844 1142.69 497.844C1148.03 498.072 1152.29 502.417 1152.29 507.744C1152.29 507.887 1152.29 508.029 1152.28 508.17C1152.28 508.173 1152.28 508.175 1152.29 508.175C1152.29 508.175 1152.29 508.177 1152.29 508.18V549.522C1152.29 550.483 1151.5 551.261 1150.53 551.261H1143.57Z" fill="#FFFFFF"/>
<path fill-rule="evenodd" clip-rule="evenodd" d="M1252.21 512.484V521.085C1252.21 522.046 1252.99 522.824 1253.95 522.824H1284.9C1285.86 522.824 1286.63 522.046 1286.63 521.085V512.484C1286.63 509.152 1283.94 506.452 1280.61 506.452H1258.24C1254.91 506.452 1252.21 509.152 1252.21 512.484ZM1288.37 551.261C1287.41 551.261 1286.63 550.483 1286.63 549.522V532.319C1286.63 531.359 1285.86 530.58 1284.9 530.58H1253.95C1252.99 530.58 1252.21 531.359 1252.21 532.319V549.522C1252.21 550.483 1251.44 551.261 1250.48 551.261H1243.62C1242.66 551.261 1241.89 550.483 1241.89 549.522V508.18C1241.89 508.177 1241.89 508.175 1241.89 508.175C1241.89 508.175 1241.9 508.173 1241.9 508.17C1241.89 508.029 1241.89 507.887 1241.89 507.744C1241.89 502.271 1246.32 497.834 1251.78 497.834C1251.93 497.834 1252.07 497.837 1252.21 497.843C1252.21 497.844 1252.21 497.842 1252.21 497.839C1252.21 497.836 1252.21 497.834 1252.22 497.834H1287.49C1287.49 497.834 1287.49 497.837 1287.49 497.839C1287.49 497.842 1287.5 497.844 1287.5 497.844C1292.76 498.072 1296.96 502.417 1296.96 507.744C1296.96 507.887 1296.96 508.029 1296.95 508.17C1296.95 508.173 1296.95 508.175 1296.95 508.175C1296.96 508.175 1296.96 508.177 1296.96 508.18V549.522C1296.96 550.483 1296.18 551.261 1295.23 551.261H1288.37Z" fill="#FFFFFF"/>
<path fill-rule="evenodd" clip-rule="evenodd" d="M1179.74 498.445C1179.4 498.058 1178.91 497.834 1178.4 497.834H1170.49C1169.52 497.834 1168.73 498.613 1168.73 499.574V549.522C1168.73 550.483 1169.52 551.261 1170.49 551.261H1177.45C1178.42 551.261 1179.21 550.483 1179.21 549.522V516.259C1179.21 514.652 1181.23 513.904 1182.3 515.115L1214.13 551.154C1214.14 551.166 1214.15 551.181 1214.15 551.196C1214.15 551.232 1214.17 551.261 1214.21 551.261H1214.22H1222.87C1223.84 551.261 1224.63 550.483 1224.63 549.522V499.574C1224.63 498.613 1223.84 497.834 1222.87 497.834H1215.91C1214.93 497.834 1214.15 498.613 1214.15 499.574V533.609C1214.15 535.226 1212.11 535.968 1211.05 534.737L1179.74 498.445Z" fill="#FFFFFF"/>
<path d="M1182.88 252.567C1181.14 254.331 1178.78 255.321 1176.31 255.321H943.77C935.551 255.321 931.387 245.299 937.133 239.346L975.277 199.829C977.024 198.02 979.416 197 981.914 197H1215.33C1223.59 197 1227.74 207.127 1221.89 213.05L1182.88 252.567Z" fill="#1DD79B"/>
<path d="M1182.88 429.059C1181.14 430.778 1178.78 431.744 1176.31 431.744H943.77C935.551 431.744 931.387 421.972 937.133 416.168L975.277 377.638C977.024 375.875 979.416 374.88 981.914 374.88H1215.33C1223.59 374.88 1227.74 384.754 1221.89 390.529L1182.88 429.059Z" fill="#1DD79B"/>
<path d="M1182.88 288.625C1181.14 286.906 1178.78 285.94 1176.31 285.94L943.77 285.94C935.551 285.94 931.387 295.712 937.133 301.516L975.277 340.046C977.024 341.81 979.416 342.804 981.914 342.804L1215.33 342.804C1223.59 342.804 1227.74 332.93 1221.89 327.155L1182.88 288.625Z" fill="#1DD79B"/>
</g>
<g filter="url(#filter2_d)">
<path d="M267.625 271.43C266.272 274.601 265.751 278.065 266.11 281.495C266.47 284.924 267.698 288.205 269.678 291.028C271.659 293.85 274.327 296.122 277.431 297.628C280.534 299.134 283.97 299.824 287.415 299.633H294.644L314.955 228.306H280.043L267.625 271.43Z" fill="#D62817"/>
<path d="M460.334 255.914C450.947 237.134 434.423 228.164 411.25 228.164H367.917L347.64 299.911H378.404C380.794 299.531 383.244 299.951 385.37 301.108C387.497 302.265 389.18 304.092 390.158 306.305C392.328 313.289 392.115 320.795 389.554 327.645C387.545 336.048 383.457 343.813 377.665 350.226C375.541 352.486 372.971 354.28 370.119 355.498C367.266 356.715 364.192 357.329 361.09 357.3C358.566 357.577 356.019 357.033 353.828 355.75C351.637 354.466 349.918 352.512 348.924 350.176C346.979 342.709 347.468 334.816 350.318 327.645L388.101 194.53C389.301 191.083 389.68 187.403 389.21 183.784C388.739 180.164 387.431 176.704 385.389 173.678C383.312 170.825 380.551 168.539 377.361 167.029C374.17 165.519 370.652 164.833 367.127 165.034H325.171L275.381 340.182C248.11 436.055 344.516 428.939 344.516 428.939C344.516 428.939 432.274 430.886 461.157 329.29C469.662 299.391 469.385 274.695 460.334 255.914Z" fill="#EC7000"/>
<path d="M461.15 328.921C469.656 299.207 469.379 274.645 460.311 255.973C450.924 237.302 434.4 228.391 411.226 228.391H378.632L358.355 299.718H378.38C380.766 299.338 383.21 299.754 385.335 300.902C387.46 302.051 389.147 303.867 390.135 306.071C392.304 313.012 392.092 320.478 389.53 327.285" fill="url(#paint0_linear)"/>
<path d="M256.447 481.554H249.028L235.966 527.226H250.482L261.516 488.648C261.807 487.819 261.899 486.932 261.786 486.06C261.672 485.189 261.356 484.355 260.862 483.628C260.356 482.943 259.687 482.395 258.916 482.033C258.146 481.671 257.297 481.507 256.447 481.554V481.554Z" fill="white"/>
<path d="M266.569 471.268C265.933 473.282 264.7 475.055 263.033 476.351C261.366 477.648 259.343 478.407 257.234 478.528C256.346 478.574 255.461 478.395 254.661 478.009C253.86 477.622 253.17 477.04 252.654 476.317C252.137 475.593 251.812 474.752 251.707 473.869C251.601 472.987 251.72 472.092 252.053 471.268C252.686 469.254 253.919 467.482 255.587 466.187C257.255 464.892 259.278 464.136 261.387 464.02C262.274 463.973 263.16 464.149 263.96 464.534C264.761 464.919 265.452 465.5 265.969 466.223C266.485 466.945 266.811 467.787 266.916 468.669C267.021 469.551 266.901 470.445 266.569 471.268V471.268Z" fill="white"/>
<path d="M325.794 479.07C322.937 479.051 320.105 479.601 317.463 480.689C316.191 481.251 314.983 481.948 313.86 482.77L317.192 471.085C317.482 470.259 317.574 469.377 317.46 468.509C317.347 467.642 317.031 466.813 316.538 466.089C316.038 465.403 315.374 464.854 314.606 464.49C313.839 464.127 312.992 463.961 312.144 464.008H305.063L287.019 527.21H301.156L308.108 502.919C308.848 499.752 310.431 496.843 312.69 494.501C313.534 493.611 314.553 492.904 315.684 492.426C316.814 491.947 318.031 491.707 319.258 491.721C320.23 491.622 321.208 491.839 322.046 492.34C322.885 492.841 323.539 493.599 323.911 494.501C324.765 497.257 324.679 500.218 323.665 502.919L316.714 527.21H331.017L337.827 503.402C339.921 497.72 339.851 491.468 337.632 485.834C336.56 483.654 334.86 481.845 332.75 480.639C330.64 479.434 328.217 478.887 325.794 479.07V479.07Z" fill="white"/>
<path d="M454.494 478.974C447.816 478.835 441.252 480.722 435.667 484.386C434.468 482.594 432.816 481.149 430.88 480.199C428.943 479.249 426.79 478.826 424.637 478.974C421.781 478.955 418.948 479.506 416.307 480.593C414.747 481.282 413.283 482.169 411.95 483.233C411.76 481.997 411.113 480.878 410.138 480.096C409.162 479.313 407.929 478.925 406.681 479.007H399.6L385.842 527.169H399.979L406.939 502.828C407.682 499.663 409.265 496.756 411.521 494.415C412.365 493.524 413.384 492.817 414.515 492.338C415.645 491.86 416.862 491.62 418.09 491.634C419.061 491.535 420.039 491.752 420.877 492.253C421.716 492.754 422.37 493.512 422.742 494.415C423.597 497.169 423.51 500.128 422.496 502.828L415.536 527.169H429.852L436.817 502.828C437.559 499.663 439.142 496.756 441.399 494.415C442.243 493.525 443.263 492.818 444.393 492.34C445.523 491.861 446.74 491.621 447.967 491.634C448.94 491.535 449.918 491.753 450.758 492.254C451.597 492.755 452.253 493.512 452.628 494.415C453.483 497.169 453.395 500.129 452.378 502.828L445.422 527.169H459.722L466.54 503.319C468.634 497.637 468.564 491.385 466.345 485.751C465.275 483.566 463.574 481.752 461.461 480.543C459.348 479.335 456.922 478.788 454.494 478.974V478.974Z" fill="white"/>
<path d="M341.86 506.416L349.716 478.94H364.015L356.159 506.416C353.839 514.53 361.466 514.492 361.466 514.492C363.824 514.46 366.105 513.651 367.957 512.191C369.808 510.73 371.125 508.701 371.704 506.416L379.556 478.94H393.697L385.841 506.416C384.137 512.486 380.461 517.817 375.393 521.571C370.325 525.324 364.153 527.287 357.846 527.152C357.846 527.152 335.529 528.609 341.86 506.416Z" fill="white"/>
<path d="M515.133 503.343C517.224 497.661 517.155 491.41 514.937 485.776C513.869 483.598 512.173 481.789 510.068 480.582C507.963 479.375 505.545 478.825 503.124 479.002C500.267 478.982 497.435 479.533 494.794 480.622C493.519 481.182 492.31 481.88 491.187 482.703L494.519 471.093C494.807 470.267 494.898 469.386 494.785 468.518C494.673 467.651 494.359 466.822 493.869 466.097C493.367 465.412 492.702 464.863 491.934 464.499C491.166 464.136 490.319 463.97 489.471 464.016H482.39L470.402 505.945C463.837 528.896 487.063 527.176 487.063 527.176C487.063 527.176 508.189 527.655 515.133 503.343ZM500.971 502.86C500.175 506.171 498.556 509.228 496.264 511.748C495.42 512.64 494.4 513.348 493.269 513.827C492.138 514.307 490.92 514.547 489.691 514.533C488.694 514.643 487.687 514.43 486.82 513.926C485.953 513.422 485.27 512.652 484.872 511.732C484.101 508.79 484.295 505.679 485.426 502.856C486.169 499.69 487.752 496.782 490.008 494.439C490.853 493.548 491.873 492.842 493.004 492.364C494.135 491.885 495.353 491.645 496.581 491.658C497.552 491.561 498.528 491.779 499.366 492.279C500.203 492.78 500.856 493.537 501.229 494.439C502.084 497.195 501.993 500.158 500.971 502.856V502.86Z" fill="white"/>
<path d="M287.707 471.098C287.997 470.272 288.089 469.39 287.975 468.523C287.861 467.655 287.546 466.826 287.053 466.102C286.58 465.428 285.944 464.884 285.204 464.52C284.465 464.156 283.645 463.984 282.822 464.021H275.428L260.187 517.419C258.105 524.779 261.72 526.649 265.152 526.923C267.572 527.119 270.48 527.223 273.333 527.223C275.166 527.223 276.928 527.181 278.415 527.094L279.877 527.002L283.146 515.571H276.761C275.016 515.571 275.199 514.934 275.37 514.322L281.947 491.218H283.734C285.743 491.186 287.685 490.494 289.261 489.249C290.984 487.998 292.236 486.205 292.818 484.157L293.914 480.348H285.058L287.707 471.098Z" fill="white"/>
<path d="M237.719 503.344C239.811 497.662 239.741 491.411 237.523 485.777C236.455 483.599 234.76 481.79 232.654 480.583C230.549 479.376 228.131 478.826 225.711 479.003C222.854 478.984 220.021 479.534 217.38 480.623C216.106 481.184 214.896 481.882 213.773 482.704L217.105 471.094C217.393 470.268 217.484 469.386 217.372 468.519C217.259 467.652 216.945 466.823 216.455 466.098C215.953 465.413 215.288 464.864 214.52 464.5C213.752 464.137 212.905 463.971 212.057 464.017H204.976L192.984 505.946C186.419 528.897 209.645 527.177 209.645 527.177C209.645 527.177 230.763 527.656 237.719 503.344ZM223.557 502.861C222.761 506.172 221.142 509.229 218.85 511.749C218.007 512.642 216.987 513.35 215.856 513.829C214.724 514.309 213.506 514.549 212.278 514.534C211.28 514.643 210.274 514.43 209.407 513.926C208.539 513.422 207.857 512.653 207.458 511.732C206.687 508.791 206.881 505.68 208.012 502.857C208.755 499.691 210.338 496.783 212.594 494.44C213.44 493.55 214.46 492.843 215.591 492.365C216.722 491.886 217.939 491.646 219.167 491.659C220.138 491.562 221.114 491.78 221.952 492.28C222.789 492.781 223.442 493.538 223.815 494.44C224.67 497.196 224.579 500.159 223.557 502.857V502.861Z" fill="white"/>
<path d="M274.462 578.235C270.855 581.401 266.184 583.085 261.387 582.952C259.455 583.128 257.51 582.796 255.746 581.989C253.983 581.182 252.461 579.928 251.332 578.352C248.287 574.051 249.69 568.685 251.548 561.612C253.406 554.54 254.81 549.173 260.116 544.869C263.576 541.877 268.008 540.249 272.583 540.29C283.05 540.29 285.666 547.3 284.829 554.198H274.77C274.807 551.018 273.608 549.486 270.188 549.486C268.53 549.497 266.942 550.152 265.76 551.313C264.511 552.562 263.582 553.961 261.57 561.629C259.558 569.297 259.741 570.767 260.32 572.003C260.669 572.601 261.183 573.087 261.801 573.4C262.418 573.714 263.113 573.843 263.803 573.772C265.582 573.832 267.323 573.24 268.697 572.107C270.053 570.936 271.004 569.367 271.417 567.624L271.575 567.033H265.569L267.83 558.428H283.779L282.251 564.256C281.322 569.666 278.574 574.597 274.462 578.235Z" fill="#EC7000"/>
<path d="M283.205 582.598L294.222 540.631H297.138C298.011 540.587 298.882 540.759 299.672 541.133C300.463 541.508 301.148 542.071 301.667 542.775C302.186 543.478 302.522 544.299 302.647 545.164C302.771 546.03 302.678 546.912 302.378 547.733L295.647 573.406H312.724L310.313 582.602L283.205 582.598Z" fill="#EC7000"/>
<path d="M341.34 578.351C337.867 581.364 333.41 583 328.811 582.951C326.87 583.133 324.916 582.804 323.142 581.997C321.368 581.19 319.836 579.933 318.698 578.351C315.653 574.051 317.065 568.685 318.914 561.612C320.764 554.539 322.184 549.173 327.491 544.869C330.968 541.865 335.424 540.236 340.02 540.29C341.958 540.106 343.911 540.432 345.684 541.235C347.457 542.038 348.99 543.291 350.129 544.869C353.178 549.173 351.77 554.535 349.912 561.612C348.055 568.689 346.647 574.055 341.34 578.351ZM341.124 551.292C340.772 550.684 340.253 550.188 339.629 549.865C339.004 549.541 338.3 549.402 337.6 549.465C335.928 549.477 334.325 550.131 333.122 551.292C331.873 552.541 330.939 553.94 328.928 561.608C326.916 569.276 327.132 570.625 327.724 571.865C328.068 572.481 328.58 572.986 329.202 573.321C329.823 573.655 330.527 573.804 331.231 573.751C332.917 573.721 334.527 573.046 335.73 571.865C336.979 570.617 337.9 569.272 339.895 561.608C341.89 553.944 341.719 552.537 341.124 551.301V551.292Z" fill="#EC7000"/>
<path d="M367.919 582.597H350.2L361.217 540.63H378.082C386.546 540.63 389.774 545.518 387.871 552.774C386.804 556.295 384.428 559.275 381.231 561.1C382.656 562.086 383.697 563.534 384.176 565.2C384.656 566.865 384.546 568.644 383.864 570.237C383.018 573.807 380.974 576.981 378.074 579.229C375.173 581.478 371.589 582.666 367.919 582.597V582.597ZM375.025 549.88H368.777L366.982 556.716H373.23C374.262 556.767 375.279 556.453 376.103 555.829C376.926 555.204 377.503 554.31 377.732 553.302C378.166 551.654 377.77 549.884 375.025 549.884V549.88ZM371.314 565.97H364.57L362.633 573.334H369.385C370.466 573.344 371.518 572.98 372.362 572.304C373.206 571.628 373.79 570.682 374.017 569.625C374.475 567.86 374.059 565.974 371.314 565.974V565.97Z" fill="#EC7000"/>
<path d="M409.171 582.597L408.925 576.353H396.404L392.759 582.597H382.284L408.109 540.63H415.827L419.622 582.597H409.171ZM408.063 556.541L401.465 567.739H408.546L408.063 556.541Z" fill="#EC7000"/>
<path d="M422.621 582.598L433.638 540.631H436.583C437.45 540.587 438.315 540.757 439.1 541.128C439.884 541.499 440.565 542.059 441.081 542.757C441.596 543.455 441.931 544.27 442.055 545.129C442.178 545.988 442.088 546.864 441.79 547.679L435.038 573.406H452.141L449.729 582.602L422.621 582.598Z" fill="#EC7000"/>
<path d="M231.198 565H193.741C191.537 565 190.441 563.21 191.285 561C191.742 559.884 192.501 558.919 193.476 558.212C194.45 557.506 195.602 557.086 196.802 557H234.259C236.463 557 237.559 558.79 236.715 561C236.257 562.115 235.498 563.08 234.524 563.787C233.549 564.493 232.397 564.913 231.198 565Z" fill="#EC7000"/>
<path d="M510.324 565H473.682C471.525 565 470.453 563.21 471.278 561C471.726 559.884 472.468 558.919 473.422 558.212C474.375 557.506 475.502 557.086 476.676 557H513.318C515.475 557 516.547 558.79 515.722 561C515.273 562.115 514.531 563.08 513.577 563.787C512.624 564.493 511.497 564.913 510.324 565Z" fill="#EC7000"/>
</g>
</g>
<defs>
<filter id="filter0_d" x="432" y="65" width="617.041" height="617.038" filterUnits="userSpaceOnUse" color-interpolation-filters="sRGB">
<feFlood flood-opacity="0" result="BackgroundImageFix"/>
<feColorMatrix in="SourceAlpha" type="matrix" values="0 0 0 0 0 0 0 0 0 0 0 0 0 0 0 0 0 0 127 0"/>
<feOffset/>
<feGaussianBlur stdDeviation="125"/>
<feColorMatrix type="matrix" values="0 0 0 0 0 0 0 0 0 0 0 0 0 0 0 0 0 0 0.4 0"/>
<feBlend mode="normal" in2="BackgroundImageFix" result="effect1_dropShadow"/>
<feBlend mode="normal" in="SourceGraphic" in2="effect1_dropShadow" result="shape"/>
</filter>
<filter id="filter1_d" x="631.041" y="-53" width="915.918" height="854.263" filterUnits="userSpaceOnUse" color-interpolation-filters="sRGB">
<feFlood flood-opacity="0" result="BackgroundImageFix"/>
<feColorMatrix in="SourceAlpha" type="matrix" values="0 0 0 0 0 0 0 0 0 0 0 0 0 0 0 0 0 0 127 0"/>
<feOffset/>
<feGaussianBlur stdDeviation="125"/>
<feColorMatrix type="matrix" values="0 0 0 0 0 0 0 0 0 0 0 0 0 0 0 0 0 0 0.4 0"/>
<feBlend mode="normal" in2="BackgroundImageFix" result="effect1_dropShadow"/>
<feBlend mode="normal" in="SourceGraphic" in2="effect1_dropShadow" result="shape"/>
</filter>
<filter id="filter2_d" x="-59" y="-85" width="825.652" height="918" filterUnits="userSpaceOnUse" color-interpolation-filters="sRGB">
<feFlood flood-opacity="0" result="BackgroundImageFix"/>
<feColorMatrix in="SourceAlpha" type="matrix" values="0 0 0 0 0 0 0 0 0 0 0 0 0 0 0 0 0 0 127 0"/>
<feOffset/>
<feGaussianBlur stdDeviation="125"/>
<feColorMatrix type="matrix" values="0 0 0 0 0 0 0 0 0 0 0 0 0 0 0 0 0 0 0.4 0"/>
<feBlend mode="normal" in2="BackgroundImageFix" result="effect1_dropShadow"/>
<feBlend mode="normal" in="SourceGraphic" in2="effect1_dropShadow" result="shape"/>
</filter>
<linearGradient id="paint0_linear" x1="444.77" y1="287.201" x2="420.652" y2="248.303" gradientUnits="userSpaceOnUse">
<stop stop-color="#D62616" stop-opacity="0"/>
<stop offset="1" stop-color="#D62616"/>
</linearGradient>
<clipPath id="clip0">
<rect width="1442" height="723" fill="white"/>
</clipPath>
</defs>
</svg>
