<svg xmlns="http://www.w3.org/2000/svg" viewBox="0 0 600 600"><path d="M10 10h380v380H10V10z" fill="currentColor"/><path d="M24.85 25.74v348.52h350.3V25.74H24.85zm5.85 5.86h338.6v25.72H166.76c-66.05 0-119.68 53.6-119.68 119.66 0 9.77 1.2 19.52 3.56 28.99L76.2 308.35l16.68-9.04-8.97-35.96a119.7 119.7 0 00111.53 29.8l-72.62 75.33H30.7V31.6zm200.68 44.63H369.3v292.25H328.6l-44.68-215.82a119.49 119.49 0 00-52.55-76.43zm-64.54.15c55.86 0 101.15 45.34 101.15 101.2 0 55.85-45.3 101.2-101.15 101.2-55.85 0-101.23-45.35-101.23-101.2 0-55.86 45.38-101.2 101.23-101.2zm42.68 15.64a119.94 119.94 0 00-97.6 55.97h15.57a107.03 107.03 0 0185.89-43.15c7.96 0 15.87.84 23.64 2.6a98.88 98.88 0 00-19.86-15.35c-1.28-.04-2.52-.07-3.78-.07-1.3 0-2.58-.04-3.86 0zm132.36 7.78l-13.71 77.55a119.88 119.88 0 00-65.59-74.8 122.47 122.47 0 0114.23 23.13 106.88 106.88 0 0143.58 86.14c0 17.26-4.17 34.3-12.16 49.6l3.78 18.46a119.72 119.72 0 0019.34-47.15L354.92 99.8h-13.04zM93.62 207.15c-.06 1.58-.15 3.1-.15 4.67a120 120 0 006.45 38.78 98.46 98.46 0 0020.53 14.46 107.1 107.1 0 01-14.16-53.24c0-1.57.08-3.09.15-4.67H93.62zm185.12 12.01l30.97 149.32H147.87l104.86-108.24a119.56 119.56 0 0026-41.08zm12.08 66.58a107.01 107.01 0 01-91.9 32.18l-10.67 11.12a119.7 119.7 0 00105.6-28.4l-3.03-14.9zm-167.56 5.19a120.1 120.1 0 0042.1 30.77l9.55-9.94a107.1 107.1 0 01-25.41-14.01 122.3 122.3 0 01-26.24-6.82z" style="marker:none" fill="#fff" fill-rule="evenodd" overflow="visible"/><g fill="#fff"><path d="M124.89 160c-.66 0-1.44-.13-2.1.14.12 4.73-.27 9.46.12 14.2 6.05-.13 12.1.26 18.14-.26.13 1.05-.12 1.97.13 3.02a173.7 173.7 0 00-18.4-.13c.13 5.52-.26 11.05.13 16.57 6.7 0 13.41 0 20.12-.66a7.06 7.06 0 000 3.3H117.4v-38.8c8.4.13 16.82-.27 25.23.13a9.33 9.33 0 000 3.29c-5.91-1.06-11.82-.8-17.74-.8zM168.92 173.68a8.36 8.36 0 003.95-4.08c1.05-2.89.65-6.3-1.98-8.41-1.71-1.32-3.8-1.7-5.79-1.7-3.54-.28-7.1-.4-10.63.11.13 5.27-.27 10.4.13 15.67 4.72-.14 9.85.78 14.32-1.59zm-12.88 3.55c-.4 0-1.18-.13-1.18.14-.4 6.31-.13 12.62-.13 18.93a37.86 37.86 0 00-5.4 0v-38.92c7.23.26 14.2-.53 21.56.53 2.76.39 5.65 1.3 7.23 3.8 1.84 2.9 1.45 6.46-.4 9.35-2.75 3.8-7.09 4.85-11.3 5.91a828.64 828.64 0 0017.09 19.33 67.96 67.96 0 00-7.23 0 288.75 288.75 0 00-16.56-19.07h-3.68zM192.45 166.84c-.47-.46-1.05-1.57-1.84-1.04v30.5c-1.18-.13-2.24-.27-3.41 0v-38.92c.77 0 1.7-.27 2.1.13 10.77 9.6 19.84 19.33 30.23 29.2.13 0 .65.12.65-.14.13-9.73 0-19.34 0-29.06 1.19.13 2.25.13 3.42 0 0 12.89.4 25.9-.26 38.8 0 0-1.18.25-1.45-.14-9.99-10-19.45-19.33-29.44-29.33zM108.32 161.72c-7.09-5.07-17.08-4.2-22.86 2.36-4.2 4.88-5.13 11.32-3.82 17.63a15.73 15.73 0 0010 12.1c6.7 2.5 14.19.65 19.7-3.55 0 1.18-.25 2.36-.25 3.54-5 2.76-10.78 3.42-16.44 3.16-6.7-.4-13.4-3.29-16.96-9.34-3.53-6.31-3.93-14.07-.26-20.5 6.97-12.11 23.27-12.64 34.84-7.9-.65 1.32-.92 2.9-1.31 4.34-1.06-.27-1.72-1.19-2.64-1.84z"/></g></svg>