<?xml version="1.0" encoding="utf-8"?>
<!-- Generator: Adobe Illustrator 24.1.0, SVG Export Plug-In . SVG Version: 6.00 Build 0)  -->
<svg fill="currentColor" version="1.1" id="Layer_1" xmlns="http://www.w3.org/2000/svg" xmlns:xlink="http://www.w3.org/1999/xlink" x="0px" y="0px"
	 viewBox="0 0 150 50" style="enable-background:new 0 0 150 50;" xml:space="preserve">
<path fill="currentColor" class="st0" d="M37.7,31.2c-0.8,0.4-2,0.6-3.3,0.6c-3.7,0-5.9-2.4-5.9-6.2c0-4.1,2.4-6.4,6-6.4c1.3,0,2.3,0.3,3.1,0.6l0.5-1.7
	c-0.5-0.3-1.8-0.7-3.6-0.7c-4.8,0-8,3.3-8,8.1c0,5.1,3.2,7.9,7.6,7.9c1.9,0,3.3-0.4,4-0.7L37.7,31.2L37.7,31.2z"/>
<path class="st0" fill="currentColor" d="M53.9,33.4h2l-1-15.6h-2.5l-2.7,7.5c-0.7,2-1.2,3.7-1.6,5.3h0c-0.4-1.6-0.9-3.3-1.5-5.3l-2.6-7.5h-2.5
	l-1.1,15.6h1.9l0.4-6.7c0.1-2.3,0.2-4.9,0.3-6.9h0c0.4,1.8,1,3.9,1.8,6l2.5,7.4h1.5l2.7-7.5c0.8-2.1,1.4-4.1,1.9-5.9h0
	c0,1.9,0.1,4.6,0.3,6.7L53.9,33.4L53.9,33.4z"/>
<path class="st0" fill="currentColor" d="M69.2,31.2c-0.8,0.4-2,0.6-3.3,0.6c-3.7,0-5.9-2.4-5.9-6.2c0-4.1,2.4-6.4,6-6.4c1.3,0,2.3,0.3,3.1,0.6l0.5-1.7
	c-0.5-0.3-1.8-0.7-3.6-0.7c-4.8,0-8,3.3-8,8.1c0,5.1,3.2,7.9,7.6,7.9c1.9,0,3.3-0.4,4-0.7L69.2,31.2L69.2,31.2z"/>
<path class="st0" fill="currentColor" d="M81.9,31.2c-0.8,0.4-2,0.6-3.3,0.6c-3.7,0-5.9-2.4-5.9-6.2c0-4.1,2.4-6.4,6-6.4c1.3,0,2.3,0.3,3.1,0.6l0.5-1.7
	c-0.5-0.3-1.8-0.7-3.6-0.7c-4.8,0-8,3.3-8,8.1c0,5.1,3.2,7.9,7.6,7.9c1.9,0,3.3-0.4,4-0.7L81.9,31.2L81.9,31.2z"/>
<path class="st0" fill="currentColor" d="M101.3,25.2h-5.1v1.6h3.1v4.6c-0.5,0.2-1.3,0.4-2.6,0.4c-3.6,0-5.9-2.3-5.9-6.3c0-3.9,2.4-6.3,6.2-6.3
	c1.5,0,2.6,0.3,3.4,0.7l0.5-1.6c-0.7-0.3-2.1-0.7-3.8-0.7c-5.1,0-8.3,3.4-8.3,8c0,2.4,0.8,4.5,2.1,5.8c1.5,1.5,3.4,2.1,5.7,2.1
	c2.1,0,3.8-0.5,4.7-0.9V25.2L101.3,25.2z"/>
<polygon class="st0" fill="currentColor" points="104.2,33.4 106.2,33.4 106.2,17 104.2,17 104.2,33.4 "/>
<path class="st0" fill="currentColor" d="M114.1,33.6c2.6,0,5.5-1.8,5.5-6c0-3.4-2.1-5.7-5.3-5.7c-3,0-5.5,2.2-5.5,5.9C108.8,31.4,111.1,33.6,114.1,33.6
	L114.1,33.6L114.1,33.6z M114.1,32.1c-1.9,0-3.3-1.8-3.3-4.3c0-2.1,1-4.3,3.4-4.3c2.4,0,3.3,2.4,3.3,4.3
	C117.5,30.3,116.1,32.1,114.1,32.1L114.1,32.1L114.1,32.1z"/>
<path class="st0" fill="currentColor" d="M122.1,30.5c0,1,0,2.1-0.1,2.9h1.7l0.1-1.8h0c0.8,1.5,2.1,2.1,3.7,2.1c2.5,0,5-2,5-6c0-3.4-1.9-5.7-4.6-5.7
	c-1.8,0-3,0.8-3.8,2h0v-7h-2V30.5L122.1,30.5z M124.1,26.9c0-0.3,0-0.6,0.1-0.9c0.4-1.5,1.7-2.5,3-2.5c2.1,0,3.3,1.9,3.3,4.2
	c0,2.6-1.2,4.3-3.3,4.3c-1.4,0-2.6-1-3-2.4c0-0.2-0.1-0.5-0.1-0.7V26.9L124.1,26.9z"/>
<path class="st0" fill="currentColor" d="M142.8,26.5c0-2.2-0.8-4.6-4.2-4.6c-1.4,0-2.7,0.4-3.6,1l0.5,1.4c0.8-0.5,1.8-0.8,2.9-0.8
	c2.3,0,2.5,1.7,2.5,2.6v0.2c-4.3,0-6.6,1.5-6.6,4.2c0,1.6,1.1,3.2,3.4,3.2c1.6,0,2.8-0.8,3.4-1.7h0.1l0.2,1.4h1.8
	c-0.1-0.8-0.2-1.7-0.2-2.7V26.5L142.8,26.5z M140.8,29.6c0,0.2,0,0.4-0.1,0.6c-0.3,0.9-1.3,1.9-2.7,1.9c-1,0-1.9-0.6-1.9-1.9
	c0-2.2,2.5-2.6,4.7-2.5V29.6L140.8,29.6z"/>
<polygon class="st0" fill="currentColor" points="146,33.4 148,33.4 148,17 146,17 146,33.4 "/>
<polygon class="st1" fill="currentColor" points="20.5,16.3 15.5,16.3 15.5,21.4 20.5,21.4 20.5,16.3 "/>
<polygon class="st1" fill="currentColor" points="20.5,22.6 15.5,22.6 15.5,27.7 20.5,27.7 20.5,22.6 "/>
<polygon class="st1" fill="currentColor" points="20.5,29.2 15.5,29.2 15.5,34.3 20.5,34.3 20.5,29.2 "/>
<polygon class="st1" fill="currentColor" points="14.3,22.6 9.3,22.6 9.3,27.7 14.3,27.7 14.3,22.6 "/>
<polygon class="st1" fill="currentColor" points="14.3,29.2 9.3,29.2 9.3,34.3 14.3,34.3 14.3,29.2 "/>
<polygon class="st1" fill="currentColor" points="7.8,22.6 2.8,22.6 2.8,27.7 7.8,27.7 7.8,22.6 "/>
<polygon class="st1" fill="currentColor" points="7.8,29.2 2.8,29.2 2.8,34.3 7.8,34.3 7.8,29.2 "/>
</svg>
