<svg width="575" height="30" viewBox="0 0 575 30" fill="none" xmlns="http://www.w3.org/2000/svg">
<g clip-path="url(#clip0)">
<path fill-rule="evenodd" clip-rule="evenodd" d="M46.6 3.59998C46 3.59998 45.5 4.09997 45.5 4.69997V25.2C45.5 25.8 46 26.3 46.6 26.3H66.3C66.9 26.3 67.4 25.8 67.4 25.2V4.59998C67.4 3.99998 66.9 3.49998 66.3 3.49998H46.6V3.59998ZM66.3 29.6H46.6C44.1 29.6 42.1 27.6 42.1 25.1V4.59998C42.1 2.09998 44.1 0.0999756 46.6 0.0999756H66.3C68.8 0.0999756 70.8 2.09998 70.8 4.59998V25.1C70.7 27.6 68.7 29.6 66.3 29.6Z" fill="black"/>
<path fill-rule="evenodd" clip-rule="evenodd" d="M240.1 29.6H219.5V26.2H240.1C240.7 26.2 241.2 25.7 241.2 25.1V17.4C241.2 16.8 240.7 16.3 239 16.3H222.8C221.5 16.3 219.5 14.3 219.5 11.8V4.5C219.5 2 221.5 0 224 0H243.8V3.4H224C223.4 3.4 222.9 3.9 222.9 4.5V11.8C222.9 12.4 223.4 12.9 224 12.9H240.2C242.7 12.9 244.7 14.9 244.7 17.4V25.1C244.6 27.6 242.6 29.6 240.1 29.6Z" fill="black"/>
<path fill-rule="evenodd" clip-rule="evenodd" d="M180.6 29.6H158V0.200012H161.5V26.2H180.6V29.6Z" fill="black"/>
<path fill-rule="evenodd" clip-rule="evenodd" d="M136.1 29.6L115 5.40001V29.7H111.5V0.200012H115L136.7 25.1V0.200012H140.1V29.6H136.1Z" fill="black"/>
<path fill-rule="evenodd" clip-rule="evenodd" d="M89.4 29.6H92.9V0.200012H89.4V29.6Z" fill="black"/>
<path fill-rule="evenodd" clip-rule="evenodd" d="M197 29.6H200.4V0.200012H197V29.6Z" fill="black"/>
<path fill-rule="evenodd" clip-rule="evenodd" d="M286.6 0.200012H274.6H271.1H259.1V3.60001H271.1V29.6H274.6V3.60001H286.6V0.200012Z" fill="black"/>
<path fill-rule="evenodd" clip-rule="evenodd" d="M25.2 29.6H4.5C2 29.6 0 27.6 0 25.1V4.59998C0 2.09998 2 0.0999756 4.5 0.0999756H25.2V3.49998H4.5C3.9 3.49998 3.4 3.99998 3.4 4.59998V25.1C3.4 25.7 3.9 26.2 4.5 26.2H25.2V29.6Z" fill="black"/>
<path fill-rule="evenodd" clip-rule="evenodd" d="M298 30L298 -4.37114e-08L299 0L299 30L298 30Z" fill="black"/>
<path d="M348.85 27C348.617 27 348.418 26.93 348.255 26.79C348.115 26.6267 348.045 26.4284 348.045 26.195V3.34002C348.045 3.08336 348.115 2.88502 348.255 2.74503C348.418 2.58169 348.617 2.50002 348.85 2.50002H350.46C350.88 2.50002 351.172 2.66336 351.335 2.99002L362.955 20.84V3.34002C362.955 3.08336 363.025 2.88502 363.165 2.74503C363.328 2.58169 363.527 2.50002 363.76 2.50002H365.44C365.697 2.50002 365.895 2.58169 366.035 2.74503C366.198 2.88502 366.28 3.08336 366.28 3.34002V26.16C366.28 26.3934 366.198 26.5917 366.035 26.755C365.895 26.9184 365.708 27 365.475 27H363.795C363.445 27 363.165 26.8367 362.955 26.51L351.37 8.83502V26.195C351.37 26.4284 351.288 26.6267 351.125 26.79C350.962 26.93 350.763 27 350.53 27H348.85Z" fill="black"/>
<path d="M381.201 27.35C378.144 27.35 375.776 26.5567 374.096 24.97C372.439 23.36 371.564 20.945 371.471 17.725C371.448 17.025 371.436 16.0334 371.436 14.75C371.436 13.4667 371.448 12.4867 371.471 11.81C371.564 8.66003 372.474 6.26836 374.201 4.63502C375.928 2.97836 378.261 2.15002 381.201 2.15002C384.118 2.15002 386.439 2.97836 388.166 4.63502C389.893 6.26836 390.803 8.66003 390.896 11.81C390.943 13.1634 390.966 14.1434 390.966 14.75C390.966 15.3334 390.943 16.325 390.896 17.725C390.803 20.945 389.916 23.36 388.236 24.97C386.579 26.5567 384.234 27.35 381.201 27.35ZM381.201 24.375C383.044 24.375 384.514 23.815 385.611 22.695C386.708 21.575 387.303 19.86 387.396 17.55C387.443 16.15 387.466 15.2167 387.466 14.75C387.466 14.2367 387.443 13.3034 387.396 11.95C387.303 9.64002 386.696 7.92502 385.576 6.80503C384.479 5.68503 383.021 5.12503 381.201 5.12503C379.358 5.12503 377.876 5.68503 376.756 6.80503C375.659 7.92502 375.064 9.64002 374.971 11.95C374.948 12.6267 374.936 13.56 374.936 14.75C374.936 15.9167 374.948 16.85 374.971 17.55C375.064 19.86 375.659 21.575 376.756 22.695C377.876 23.815 379.358 24.375 381.201 24.375Z" fill="black"/>
<path d="M396.872 27C396.639 27 396.441 26.93 396.277 26.79C396.137 26.6267 396.067 26.4284 396.067 26.195V3.34002C396.067 3.08336 396.137 2.88502 396.277 2.74503C396.441 2.58169 396.639 2.50002 396.872 2.50002H398.482C398.902 2.50002 399.194 2.66336 399.357 2.99002L410.977 20.84V3.34002C410.977 3.08336 411.047 2.88502 411.187 2.74503C411.351 2.58169 411.549 2.50002 411.782 2.50002H413.462C413.719 2.50002 413.917 2.58169 414.057 2.74503C414.221 2.88502 414.302 3.08336 414.302 3.34002V26.16C414.302 26.3934 414.221 26.5917 414.057 26.755C413.917 26.9184 413.731 27 413.497 27H411.817C411.467 27 411.187 26.8367 410.977 26.51L399.392 8.83502V26.195C399.392 26.4284 399.311 26.6267 399.147 26.79C398.984 26.93 398.786 27 398.552 27H396.872Z" fill="black"/>
<path d="M420.339 17.97C420.106 17.97 419.907 17.9 419.744 17.76C419.604 17.5967 419.534 17.3984 419.534 17.165V15.835C419.534 15.6017 419.604 15.415 419.744 15.275C419.907 15.1117 420.106 15.03 420.339 15.03H430.839C431.072 15.03 431.259 15.1117 431.399 15.275C431.562 15.415 431.644 15.6017 431.644 15.835V17.165C431.644 17.3984 431.562 17.5967 431.399 17.76C431.259 17.9 431.072 17.97 430.839 17.97H420.339Z" fill="black"/>
<path d="M446.118 27.35C443.108 27.35 440.775 26.545 439.118 24.935C437.485 23.3017 436.668 20.84 436.668 17.55V3.34002C436.668 3.08336 436.738 2.88502 436.878 2.74503C437.041 2.58169 437.24 2.50002 437.473 2.50002H439.258C439.515 2.50002 439.713 2.58169 439.853 2.74503C440.016 2.88502 440.098 3.08336 440.098 3.34002V17.62C440.098 19.86 440.623 21.54 441.673 22.66C442.723 23.78 444.205 24.34 446.118 24.34C448.031 24.34 449.513 23.78 450.563 22.66C451.613 21.54 452.138 19.86 452.138 17.62V3.34002C452.138 3.08336 452.208 2.88502 452.348 2.74503C452.511 2.58169 452.71 2.50002 452.943 2.50002H454.763C454.996 2.50002 455.183 2.58169 455.323 2.74503C455.486 2.90836 455.568 3.10669 455.568 3.34002V17.55C455.568 20.84 454.74 23.3017 453.083 24.935C451.45 26.545 449.128 27.35 446.118 27.35Z" fill="black"/>
<path d="M469.294 27.35C467.357 27.35 465.677 27.0467 464.254 26.44C462.854 25.8334 461.781 25.04 461.034 24.06C460.287 23.0567 459.891 21.9834 459.844 20.84C459.844 20.6534 459.914 20.49 460.054 20.35C460.217 20.1867 460.404 20.105 460.614 20.105H462.399C462.842 20.105 463.146 20.3384 463.309 20.805C463.519 21.785 464.114 22.625 465.094 23.325C466.097 24.025 467.497 24.375 469.294 24.375C471.231 24.375 472.689 24.0367 473.669 23.36C474.649 22.66 475.139 21.6917 475.139 20.455C475.139 19.6617 474.894 19.02 474.404 18.53C473.937 18.04 473.237 17.6084 472.304 17.235C471.371 16.8617 469.971 16.395 468.104 15.835C466.284 15.3217 464.837 14.7734 463.764 14.19C462.691 13.6067 461.886 12.8834 461.349 12.02C460.812 11.1567 460.544 10.0717 460.544 8.76503C460.544 7.50502 460.882 6.37336 461.559 5.37002C462.259 4.36669 463.251 3.58502 464.534 3.02502C465.817 2.44169 467.346 2.15002 469.119 2.15002C470.939 2.15002 472.502 2.47669 473.809 3.13002C475.116 3.76002 476.107 4.56502 476.784 5.54502C477.461 6.52502 477.822 7.50502 477.869 8.48502C477.869 8.67169 477.799 8.83502 477.659 8.97502C477.542 9.11503 477.367 9.18503 477.134 9.18503H475.279C474.789 9.18503 474.486 8.96336 474.369 8.52003C474.229 7.54002 473.681 6.73502 472.724 6.10503C471.767 5.45169 470.566 5.12503 469.119 5.12503C467.532 5.12503 466.284 5.42836 465.374 6.03502C464.464 6.64169 464.009 7.54003 464.009 8.73003C464.009 9.52336 464.219 10.1767 464.639 10.69C465.082 11.2034 465.747 11.6584 466.634 12.055C467.521 12.4284 468.816 12.86 470.519 13.35C472.502 13.8867 474.066 14.4467 475.209 15.03C476.352 15.59 477.204 16.3017 477.764 17.165C478.324 18.005 478.604 19.0784 478.604 20.385C478.604 22.555 477.764 24.2584 476.084 25.495C474.404 26.7317 472.141 27.35 469.294 27.35Z" fill="black"/>
<path d="M500.591 27.35C497.534 27.35 495.166 26.5567 493.486 24.97C491.829 23.36 490.954 20.945 490.861 17.725C490.837 17.025 490.826 16.0334 490.826 14.75C490.826 13.4667 490.837 12.4867 490.861 11.81C490.954 8.66003 491.864 6.26836 493.591 4.63502C495.317 2.97836 497.651 2.15002 500.591 2.15002C503.507 2.15002 505.829 2.97836 507.556 4.63502C509.282 6.26836 510.192 8.66003 510.286 11.81C510.332 13.1634 510.356 14.1434 510.356 14.75C510.356 15.3334 510.332 16.325 510.286 17.725C510.192 20.945 509.306 23.36 507.626 24.97C505.969 26.5567 503.624 27.35 500.591 27.35ZM500.591 24.375C502.434 24.375 503.904 23.815 505.001 22.695C506.097 21.575 506.692 19.86 506.786 17.55C506.832 16.15 506.856 15.2167 506.856 14.75C506.856 14.2367 506.832 13.3034 506.786 11.95C506.692 9.64002 506.086 7.92502 504.966 6.80503C503.869 5.68503 502.411 5.12503 500.591 5.12503C498.747 5.12503 497.266 5.68503 496.146 6.80503C495.049 7.92502 494.454 9.64002 494.361 11.95C494.337 12.6267 494.326 13.56 494.326 14.75C494.326 15.9167 494.337 16.85 494.361 17.55C494.454 19.86 495.049 21.575 496.146 22.695C497.266 23.815 498.747 24.375 500.591 24.375Z" fill="black"/>
<path d="M516.262 27C516.029 27 515.83 26.93 515.667 26.79C515.527 26.6267 515.457 26.4284 515.457 26.195V3.34002C515.457 3.08336 515.527 2.88502 515.667 2.74503C515.83 2.58169 516.029 2.50002 516.262 2.50002H517.872C518.292 2.50002 518.584 2.66336 518.747 2.99002L530.367 20.84V3.34002C530.367 3.08336 530.437 2.88502 530.577 2.74503C530.74 2.58169 530.939 2.50002 531.172 2.50002H532.852C533.109 2.50002 533.307 2.58169 533.447 2.74503C533.61 2.88502 533.692 3.08336 533.692 3.34002V26.16C533.692 26.3934 533.61 26.5917 533.447 26.755C533.307 26.9184 533.12 27 532.887 27H531.207C530.857 27 530.577 26.8367 530.367 26.51L518.782 8.83502V26.195C518.782 26.4284 518.7 26.6267 518.537 26.79C518.374 26.93 518.175 27 517.942 27H516.262Z" fill="black"/>
<path d="M540.598 27C540.365 27 540.166 26.93 540.003 26.79C539.863 26.6267 539.793 26.4284 539.793 26.195V3.30502C539.793 3.07169 539.863 2.88502 540.003 2.74503C540.166 2.58169 540.365 2.50002 540.598 2.50002H542.453C542.686 2.50002 542.873 2.58169 543.013 2.74503C543.176 2.88502 543.258 3.07169 543.258 3.30502V23.955H554.878C555.135 23.955 555.333 24.0367 555.473 24.2C555.636 24.34 555.718 24.5384 555.718 24.795V26.195C555.718 26.4284 555.636 26.6267 555.473 26.79C555.31 26.93 555.111 27 554.878 27H540.598Z" fill="black"/>
<path d="M563.139 27C562.906 27 562.707 26.93 562.544 26.79C562.404 26.6267 562.334 26.4284 562.334 26.195V17.935L553.899 3.65502C553.899 3.60836 553.887 3.53836 553.864 3.44502C553.817 3.35169 553.794 3.27002 553.794 3.20003C553.794 3.01336 553.864 2.85003 554.004 2.71003C554.144 2.57002 554.307 2.50002 554.494 2.50002H556.314C556.711 2.50002 557.014 2.69836 557.224 3.09502L564.049 14.435L570.874 3.09502C571.131 2.69836 571.446 2.50002 571.819 2.50002H573.604C573.814 2.50002 573.989 2.57002 574.129 2.71003C574.269 2.85003 574.339 3.01336 574.339 3.20003C574.339 3.31669 574.292 3.46836 574.199 3.65502L565.799 17.935V26.195C565.799 26.4284 565.717 26.6267 565.554 26.79C565.391 26.93 565.192 27 564.959 27H563.139Z" fill="black"/>
</g>
<defs>
<clipPath id="clip0">
<rect width="575" height="30" fill="white"/>
</clipPath>
</defs>
</svg>
