<?xml version="1.0" encoding="utf-8"?>
<!-- Generator: Adobe Illustrator 24.0.2, SVG Export Plug-In . SVG Version: 6.00 Build 0)  -->
<svg version="1.1" id="Layer_1" xmlns="http://www.w3.org/2000/svg" xmlns:xlink="http://www.w3.org/1999/xlink" x="0px" y="0px"
	 viewBox="0 0 200 50" style="enable-background:new 0 0 200 50;" xml:space="preserve">
<path fill="currentColor" d="M30.3,35.5L22,39v-0.4c-1.6,0.4-3.3,0.7-5.1,0.7c-7.7-0.1-14-4.1-14-8.9v-1.8c2.5,3.7,7.8,6.2,14,6.1
	c2.2,0.1,4.3-0.2,6.2-0.7l0.7-1.8c-2.2,0.7-4.5,1.1-6.8,1c-7.8,0-14-4-14-8.9V23c2.5,3.4,7.8,5.9,14,5.7c2.8,0.1,5.6-0.4,8-1.4
	l0.4-1.8c-2.3,1.2-5.2,1.9-8.3,1.8c-7.8,0.1-14-3.9-14.1-8.9V17c2.5,3.5,7.8,5.9,14,6.1c3.6-0.1,7-1,9.7-2.5l0.4-2.2
	c-2.5,1.9-6.2,3-10.1,3.2c-7.7-0.1-14-4.2-14-9.3C3,7.5,9.2,3.4,17,3.4c4.7,0.1,9,1.7,11.5,4.3l0.2,0.4h1.8l-0.3-0.4
	C27.8,4.3,22.7,2,17,2C8.4,2,1.5,6.6,1.5,12.3v18.6c0.3,5.5,7.1,10,15.5,10C22.6,40.8,27.7,38.7,30.3,35.5z"/>
<path  fill="currentColor" d="M27,48l2.9-12.3l-8.4,3.6l5.1-21.3h-9.8l2.5-10.4h31.3l-2.5,10.4H37.9l-2.2,5.8L47,19.2L27,48z M32.1,33.2l-1.5,7.2l12-18
	l-9.8,4.3l4.3-10H47l1.9-7.6H20.4l-1.9,7.6h9.8l-4.7,20.1L32.1,33.2L32.1,33.2z M72.2,14.6c-0.1,1.2-0.5,2.2-1.3,2.8
	c-0.8,0.7-1.9,1-3.1,1c-1.4,0-2.5-0.4-3.3-1.4c-0.9-1-1.3-2.3-1.3-3.9v-0.7c0-1,0.2-2,0.6-2.8s0.9-1.4,1.6-1.9
	c0.7-0.4,1.5-0.7,2.5-0.7c1.3,0,2.3,0.4,3.1,1c0.8,0.7,1.3,1.6,1.3,2.9H70c-0.1-0.7-0.2-1.3-0.6-1.6c-0.4-0.3-0.9-0.5-1.6-0.5
	c-0.7,0-1.3,0.3-1.7,0.8c-0.4,0.5-0.6,1.4-0.6,2.5v0.8c0,1.2,0.1,2.1,0.5,2.6c0.4,0.5,1,0.8,1.7,0.8c0.7,0,1.3-0.1,1.6-0.5
	c0.4-0.3,0.5-0.8,0.6-1.5C69.9,14.6,72.2,14.6,72.2,14.6z M84.1,13c0,1.1-0.2,2.1-0.6,2.9c-0.4,0.8-1,1.5-1.6,1.9
	c-0.7,0.4-1.6,0.7-2.5,0.7c-0.9,0-1.7-0.2-2.5-0.7s-1.3-1-1.7-1.9c-0.4-0.8-0.6-1.8-0.6-2.8v-0.5c0-1.1,0.2-2.1,0.6-2.9
	c0.4-0.8,1-1.5,1.6-1.9c0.7-0.4,1.6-0.7,2.5-0.7c0.9,0,1.7,0.2,2.5,0.7c0.7,0.4,1.3,1.1,1.6,1.9c0.4,0.8,0.6,1.8,0.6,2.9
	C84.1,12.5,84.1,13,84.1,13z M81.7,12.5c0-1.2-0.2-2.1-0.6-2.7c-0.4-0.6-1-0.9-1.8-0.9S78,9.2,77.5,9.8s-0.6,1.5-0.6,2.6V13
	c0,1.1,0.2,2,0.6,2.6c0.4,0.6,1,1,1.8,1s1.3-0.3,1.8-0.9c0.4-0.6,0.6-1.5,0.6-2.6V12.5z M89.3,18.3H87V7.2h2.3V18.3z M101.7,18.3
	h-2.3L94.9,11v7.3h-2.3V7.2h2.3l4.5,7.3V7.2h2.3V18.3z M113,9.1h-3.4v9.2h-2.3V9.1h-3.3V7.2h9.1V9.1z M122.1,13.5h-4.4v3h5.1v1.9
	h-7.4V7.2h7.4v1.9h-5.1v2.7h4.4V13.5L122.1,13.5z M127.7,16.5h4.8v1.9h-7.1V7.2h2.3V16.5L127.7,16.5z M141.7,13.5h-4.4v3h5.1v1.9
	H135V7.2h7.4v1.9h-5.1v2.7h4.4V13.5L141.7,13.5z M153.8,16.9c-0.4,0.5-1,0.9-1.7,1.1c-0.7,0.3-1.6,0.4-2.5,0.4s-1.8-0.2-2.5-0.6
	c-0.7-0.4-1.3-1-1.7-1.9c-0.4-0.8-0.6-1.7-0.6-2.8v-0.7c0-1.1,0.2-2.1,0.6-2.9c0.4-0.8,0.9-1.4,1.6-1.9c0.7-0.4,1.6-0.7,2.5-0.7
	c1.3,0,2.4,0.3,3.1,1c0.7,0.6,1.2,1.6,1.3,2.7h-2.2c-0.1-0.7-0.3-1.1-0.7-1.4c-0.4-0.3-0.8-0.4-1.4-0.4c-0.7,0-1.3,0.3-1.8,0.9
	c-0.4,0.6-0.6,1.5-0.6,2.6V13c0,1.2,0.2,2,0.7,2.6c0.4,0.6,1.1,0.9,1.9,0.9c0.9,0,1.5-0.1,1.9-0.5v-1.9h-2.1v-1.7h4.4L153.8,16.9
	L153.8,16.9z M161,14.2h-1.8v4.1h-2.4V7.2h4.1c1.3,0,2.3,0.3,3,0.9s1,1.4,1,2.5c0,0.7-0.1,1.4-0.5,1.9s-0.8,0.9-1.5,1.2l2.4,4.5v0.1
	h-2.5L161,14.2L161,14.2z M159.1,12.4h1.9c0.6,0,1-0.1,1.3-0.4c0.3-0.3,0.4-0.7,0.4-1.2c0-0.5-0.1-1-0.4-1.3S161.6,9,161,9h-1.9
	V12.4L159.1,12.4z M174.3,16h-4l-0.7,2.3h-2.5l4.2-11.1h2.2l4.2,11.1h-2.5L174.3,16L174.3,16z M170.9,14.1h2.7l-1.4-4.2L170.9,14.1
	L170.9,14.1z M181.9,14.4v3.9h-2.3V7.2h4.3c0.8,0,1.6,0.1,2.2,0.4c0.7,0.3,1.1,0.7,1.5,1.3c0.4,0.6,0.5,1.2,0.5,1.9
	c0,1.1-0.4,1.9-1.1,2.6c-0.7,0.6-1.8,1-3.1,1L181.9,14.4L181.9,14.4z M181.9,12.5h2c0.6,0,1-0.1,1.4-0.4c0.3-0.3,0.4-0.7,0.4-1.2
	s-0.1-1-0.4-1.3C185.1,9.2,184.6,9,184,9h-2.1C181.9,9.1,181.9,12.5,181.9,12.5z M200,18.3h-2.3v-4.8h-4.5v4.8h-2.3V7.2h2.3v4.5h4.5
	V7.2h2.3V18.3z"/>
</svg>
