<svg width="316" height="100" viewBox="0 0 316 100" fill="none" xmlns="http://www.w3.org/2000/svg">
<path fill-rule="evenodd" clip-rule="evenodd" d="M48.375 71.1926C50.3874 71.1926 52.27 70.8283 54.0445 70.1211C54.0445 70.1854 57.6582 75.7354 57.7232 75.7569C54.5247 77.4537 50.9428 78.3165 47.3146 78.264C36.2137 78.2854 28.1638 71.0211 28.1638 59.4711C28.1638 47.8354 36.6032 40.614 47.3146 40.614C51.1015 40.614 54.1094 41.4283 57.1173 43.014L53.655 48.7997C51.8373 48.0926 49.9763 47.7711 48.0287 47.7711C41.472 47.7711 36.3868 51.9069 36.3868 59.4711C36.3868 66.6283 41.2989 71.1926 48.375 71.1926ZM76.3546 40.614C87.2609 40.614 95.1592 48.264 95.1592 59.4711C95.1592 70.614 87.2609 78.264 76.333 78.264C65.5133 78.264 57.615 70.614 57.615 59.4711C57.615 48.264 65.5133 40.614 76.3546 40.614V40.614ZM76.3546 47.514C70.274 47.514 65.8379 52.164 65.8379 59.4711C65.8379 66.714 70.274 71.364 76.3546 71.364C82.5868 71.364 86.9579 66.714 86.9579 59.4711C86.9579 52.164 82.5868 47.514 76.3546 47.514V47.514ZM100.331 77.4497V41.4283H108.467V77.4283H100.331V77.4497ZM99.2491 30.3497C99.3334 29.0682 99.907 27.8664 100.853 26.9883C101.8 26.1102 103.048 25.6216 104.345 25.6216C105.642 25.6216 106.89 26.1102 107.837 26.9883C108.783 27.8664 109.357 29.0682 109.441 30.3497C109.441 31.6953 108.909 32.9875 107.959 33.9489C107.008 34.9104 105.714 35.4645 104.356 35.4926C102.997 35.4645 101.704 34.9104 100.753 33.9489C99.8027 32.9875 99.2704 31.6953 99.2707 30.3497H99.2491ZM115.565 43.6997C120.895 41.716 126.534 40.6716 132.227 40.614C141.532 40.614 147.418 44.1069 147.418 54.264V77.4497H139.39V55.014C139.39 49.8069 136.122 47.9426 131.6 47.9426C128.722 47.9426 125.844 48.3283 123.702 48.9926V77.4283H115.587V43.6997H115.565ZM154.235 22.1426H162.371V42.3926C164.102 41.4926 167.456 40.614 170.659 40.614C181.176 40.614 189.052 47.2569 189.052 58.8283C189.052 70.464 181.262 78.264 167.802 78.264C162.544 78.264 157.935 77.1926 154.235 75.9069V22.1426V22.1426ZM162.371 70.614C163.929 71.1069 165.985 71.364 168.041 71.364C175.506 71.364 180.851 67.2926 180.851 58.9997C180.851 51.9926 175.831 47.8569 169.685 47.8569C166.482 47.8569 164.016 48.6711 162.371 49.5711V70.614V70.614ZM212.574 53.2997C212.574 49.3997 209.588 47.5997 205.563 47.5997C201.387 47.5997 198.098 48.8211 195.068 50.5354V43.5283C198.692 41.5779 202.759 40.5749 206.883 40.614C214.846 40.614 220.516 43.8711 220.516 52.8926V76.7211C217.054 77.6211 212.142 78.1783 208.03 78.1783C198.595 78.1783 191.692 75.3497 191.692 67.2069C191.692 59.8783 198.011 56.2997 208.528 56.2997H212.553V53.2997H212.574ZM212.574 61.6569H209.112C203.442 61.6569 199.742 63.3069 199.742 66.9711C199.742 70.6997 203.204 72.1569 208.117 72.1569C209.35 72.1569 211.081 72.0069 212.553 71.7711V61.6783L212.574 61.6569ZM226.423 67.6997C229.595 70.1877 233.482 71.6134 237.524 71.7711C241.138 71.7711 243.519 70.5497 243.519 67.6997C243.519 64.764 241.376 63.714 236.702 62.4926C229.128 60.7783 225.947 57.7783 225.947 51.4997C225.947 44.1926 231.53 40.614 238.931 40.614C243.042 40.614 246.31 41.4926 249.361 43.3783V50.7711C246.461 48.4792 242.879 47.1987 239.169 47.1283C235.642 47.1283 233.759 48.8426 233.759 51.1997C233.759 53.5569 235.296 54.7569 239.494 55.914C247.803 57.6926 251.395 60.7783 251.395 67.2711C251.395 74.8569 245.574 78.264 237.698 78.264C233.747 78.3421 229.851 77.3333 226.445 75.3497V67.6997H226.423ZM262.54 61.2711V61.4211C263.037 67.8497 268.599 71.364 274.29 71.364C279.288 71.364 282.902 70.2069 286.516 67.8497V74.9211C283.227 77.214 278.38 78.264 273.705 78.264C262.366 78.264 254.663 71.1069 254.663 59.7283C254.663 48.264 262.215 40.614 272.234 40.614C282.837 40.614 287.836 47.364 287.836 57.1997V61.2711H262.518H262.54ZM280.197 56.064C280.024 50.4497 277.233 47.364 271.974 47.364C267.3 47.364 263.86 50.6211 262.778 56.064H280.197Z" fill="#0667D0"/>
</svg>
