<?xml version="1.0" encoding="utf-8"?>
<!-- Generator: Adobe Illustrator 24.0.2, SVG Export Plug-In . SVG Version: 6.00 Build 0)  -->
<svg version="1.1" id="Layer_1" xmlns="http://www.w3.org/2000/svg" xmlns:xlink="http://www.w3.org/1999/xlink" x="0px" y="0px"
	 viewBox="0 0 200 50" style="enable-background:new 0 0 200 50;" xml:space="preserve">
<path fill="currentColor" d="M30.1,25.2c0,0.9,0.7,1.6,1.6,1.6s1.6-0.7,1.6-1.6s-0.7-1.6-1.6-1.6S30.1,24.3,30.1,25.2 M43.6,23.6c-0.9,0-1.6,0.7-1.6,1.6
	s0.7,1.6,1.6,1.6c0.9,0,1.6-0.7,1.6-1.6S44.5,23.6,43.6,23.6 M43.6,35.7c-0.9,0-1.6,0.7-1.6,1.6c0,0.9,0.7,1.6,1.6,1.6
	c0.9,0,1.6-0.7,1.6-1.6C45.2,36.4,44.5,35.7,43.6,35.7"/>
<path fill="currentColor" d="M47,10.3c-1.6-2-4.5-2.1-6.2-0.5L40.6,10l-0.4,0.3c-1.6,1.3-4,1.2-5.5-0.3V9.9c-0.5-0.5-1.2-0.9-1.9-1.1
	c-0.1,0-0.3-0.1-0.4-0.1h-1.6c-0.1,0-0.2,0-0.3,0.1h-0.2c-0.1,0-0.2,0.1-0.3,0.1c0,0-0.1,0-0.1,0.1c-0.1,0-0.2,0.1-0.3,0.1
	c0,0-0.1,0-0.1,0.1c-0.1,0.1-0.2,0.1-0.3,0.2c0,0-0.1,0-0.1,0.1c-0.1,0.1-0.2,0.1-0.3,0.2l-0.1,0.1L28.5,10l-0.4,0.3
	c-1.6,1.3-4,1.2-5.4-0.3c0,0-0.1,0-0.1-0.1l-0.2-0.2c-0.6-0.5-1.3-0.9-2.1-1h-1.8c0,0.1-0.1,0.1-0.2,0.2h-0.1
	c-0.5,0.2-1,0.4-1.4,0.8l-0.1,0.1l-0.3,0.3c-0.4,0.4-0.6,0.9-0.8,1.3c0,0.1-0.1,0.2-0.1,0.3c0,0.1-0.1,0.2-0.1,0.4
	c-0.1,0.7-0.1,1.4,0.1,2.1c0,0.1,0.1,0.2,0.1,0.3v0.1c0,0.1,0.1,0.2,0.1,0.3c0.1,0.1,0.1,0.2,0.2,0.4c0.2,0.1,0.4,0.3,0.5,0.4
	l0.2,0.2l0.2,0.2c1.5,1.5,1.5,4.1-0.1,5.7c-0.2,0.2-0.5,0.5-0.6,0.7c-0.1,0.1-0.1,0.2-0.2,0.4V23c-0.1,0.1-0.1,0.2-0.2,0.3v0.1
	c0,0.1-0.1,0.2-0.1,0.3v0.1c0,0.1,0,0.2-0.1,0.3v1.5c0,0.1,0,0.2,0.1,0.3V26c0.2,0.7,0.6,1.4,1.2,2c1.6,1.6,1.6,4.2,0,5.8l-0.1,0.1
	l-0.2,0.2v0.1c-0.1,0.1-0.2,0.2-0.2,0.3c0,0,0,0.1-0.1,0.1c-0.1,0.1-0.1,0.2-0.2,0.3L15.9,35c0,0.1-0.1,0.1-0.1,0.2
	c0,0.1-0.1,0.1-0.1,0.2c0,0.1,0,0.1-0.1,0.2c-0.2,0.4-0.3,0.9-0.3,1.3v0.8c0.1,0.3,0.1,0.6,0.3,0.8c0,0.1,0.1,0.2,0.1,0.2
	s0,0.1,0.1,0.1c0,0.1,0.1,0.2,0.1,0.3c0,0,0,0.1,0.1,0.1c0.1,0.2,0.2,0.3,0.3,0.4c0,0,0,0.1,0.1,0.1c0,0,0,0.1,0.1,0.1
	c0,0.1,0.1,0.1,0.1,0.1l0.1,0.1c0.1,0.1,0.2,0.1,0.2,0.2l0.1,0.1c0,0,0.1,0,0.1,0.1c0.1,0.1,0.2,0.2,0.3,0.2c0,0,0.1,0,0.1,0.1
	c0.1,0.1,0.2,0.1,0.3,0.2h0.1C18,41,18.1,41,18.3,41c0.1,0,0.3,0.1,0.4,0.1h0.1c0.1,0,0.2,0,0.3,0.1H20c0.3,0,0.5-0.1,0.8-0.1h0.1
	c0.1,0,0.2-0.1,0.3-0.1h0.1c0.1,0,0.2-0.1,0.3-0.1h0.1c0.2-0.1,0.5-0.3,0.7-0.4l0.3-0.3l0.1-0.1c1.6-1.7,4.2-1.7,5.8,0
	c1.8,1.9,4.8,1.8,6.5-0.3c1.2-1.5,1.2-3.7,0-5.3c-1.6-2-4.5-2.1-6.2-0.5l-0.2,0.2l-0.4,0.3c-1.6,1.3-4,1.2-5.5-0.3L22.6,34l-0.3-0.4
	c-1.3-1.6-1.2-4,0.3-5.5c0.9-0.8,1.3-1.9,1.3-3v-0.3c0-1-0.4-2-1.2-2.7c0-0.1-0.1-0.1-0.1-0.2l-0.3-0.4c-1.3-1.6-1.2-4,0.3-5.5
	l0.1-0.1l0.1-0.1c1.6-1.7,4.2-1.7,5.8,0l0.1,0.1l0.1,0.1l0.2,0.2c0.1,0,0.1,0.1,0.2,0.1c0.1,0,0.1,0.1,0.2,0.1
	c0.1,0,0.1,0.1,0.2,0.1c0.1,0,0.1,0.1,0.2,0.1c0.1,0,0.1,0.1,0.2,0.1c0.1,0,0.1,0.1,0.2,0.1c0.1,0,0.1,0,0.2,0.1
	c0.1,0,0.1,0,0.2,0.1h1.7c0.1,0,0.2,0,0.3-0.1h0.2c0.1,0,0.2-0.1,0.3-0.1h0.1c0.1,0,0.2-0.1,0.4-0.2c0.4-0.2,0.8-0.5,1.1-0.8
	l0.1-0.1c1.6-1.7,4.2-1.7,5.8,0c1.7,2,4.8,1.9,6.4-0.2C48.2,14,48.2,11.8,47,10.3"/>
<path fill="currentColor" d="M69.8,22.7c-0.6-0.6-1.1-1-1.8-1.3c-0.6-0.3-1.3-0.5-2.2-0.5c-0.8,0-1.6,0.2-2.2,0.5c-0.6,0.3-1.1,0.7-1.5,1.3
	c-0.4,0.5-0.7,1.1-0.9,1.8c-0.2,0.7-0.3,1.4-0.3,2.1c0,0.7,0.1,1.4,0.4,2.1c0.2,0.7,0.6,1.2,1,1.7s1,0.9,1.6,1.2
	c0.6,0.3,1.3,0.4,2.1,0.4c0.9,0,1.6-0.2,2.2-0.5c0.6-0.3,1.2-0.7,1.7-1.3l2.1,2.2c-0.8,0.9-1.7,1.5-2.7,1.9c-1,0.4-2.1,0.6-3.3,0.6
	c-1.2,0-2.4-0.2-3.4-0.6c-1-0.4-1.9-1-2.6-1.7c-0.7-0.7-1.3-1.6-1.7-2.6s-0.6-2.2-0.6-3.4c0-1.2,0.2-2.4,0.6-3.4
	c0.4-1,1-1.9,1.7-2.7c0.7-0.7,1.6-1.3,2.6-1.7s2.2-0.6,3.4-0.6c1.2,0,2.3,0.2,3.3,0.6c1.1,0.4,2,1.1,2.8,1.9L69.8,22.7 M76.6,26.4
	c0,0.8,0.1,1.6,0.4,2.2c0.2,0.7,0.6,1.3,1,1.8s1,0.9,1.6,1.1c0.6,0.3,1.4,0.4,2.2,0.4c0.8,0,1.5-0.1,2.2-0.4
	c0.6-0.3,1.2-0.7,1.6-1.1c0.4-0.5,0.8-1.1,1-1.8c0.2-0.7,0.4-1.4,0.4-2.2c0-0.8-0.1-1.6-0.4-2.2c-0.2-0.7-0.6-1.3-1-1.8
	s-1-0.9-1.6-1.1c-0.6-0.3-1.4-0.4-2.2-0.4c-0.8,0-1.5,0.1-2.2,0.4C79,21.6,78.4,22,78,22.4c-0.4,0.5-0.8,1.1-1,1.8
	C76.8,24.9,76.6,25.6,76.6,26.4z M73.4,26.4c0-1.2,0.2-2.3,0.6-3.3s1-1.9,1.8-2.7c0.8-0.8,1.6-1.4,2.7-1.8c1-0.4,2.1-0.7,3.3-0.7
	s2.3,0.2,3.3,0.7c1,0.4,1.9,1,2.7,1.8c0.8,0.8,1.3,1.7,1.8,2.7c0.4,1,0.6,2.1,0.6,3.3s-0.2,2.3-0.6,3.3s-1,1.9-1.8,2.7
	c-0.8,0.8-1.6,1.3-2.7,1.8c-1,0.4-2.1,0.7-3.3,0.7c-1.2,0-2.3-0.2-3.3-0.7c-1-0.4-1.9-1-2.7-1.8c-0.8-0.8-1.3-1.6-1.8-2.7
	C73.7,28.7,73.4,27.6,73.4,26.4z M93.3,34.5h3v-16h-3V34.5z M92.6,12.7c0-0.6,0.2-1.1,0.6-1.6c0.4-0.4,0.9-0.7,1.5-0.7
	s1.1,0.2,1.5,0.7c0.4,0.4,0.6,1,0.6,1.6c0,0.6-0.2,1.1-0.6,1.6c-0.4,0.4-0.9,0.7-1.5,0.7s-1.1-0.2-1.5-0.7
	C92.8,13.9,92.6,13.3,92.6,12.7z M100.5,18.5h3V21h0.1c0.4-0.9,1-1.6,2-2.1c0.9-0.5,2-0.8,3.3-0.8c0.8,0,1.5,0.1,2.2,0.4
	c0.7,0.2,1.3,0.6,1.8,1.1s0.9,1.1,1.3,1.9c0.3,0.8,0.5,1.7,0.5,2.8v10.3h-3v-9.5c0-0.7-0.1-1.4-0.3-1.9c-0.2-0.5-0.5-1-0.8-1.3
	c-0.3-0.3-0.7-0.6-1.2-0.7c-0.4-0.1-0.9-0.2-1.4-0.2c-0.6,0-1.2,0.1-1.7,0.3c-0.5,0.2-1,0.5-1.4,1c-0.4,0.4-0.7,1-0.9,1.7
	c-0.2,0.7-0.3,1.5-0.3,2.4v8.3h-3V18.5 M125.8,32c0.8,0,1.5-0.1,2.2-0.4c0.7-0.3,1.2-0.7,1.7-1.2c0.4-0.5,0.8-1.1,1-1.8
	c0.2-0.7,0.4-1.4,0.4-2.3c0-0.8-0.1-1.6-0.4-2.3c-0.2-0.7-0.6-1.3-1-1.8c-0.5-0.5-1-0.9-1.7-1.2c-0.7-0.3-1.4-0.4-2.2-0.4
	c-0.8,0-1.5,0.1-2.2,0.4s-1.2,0.7-1.7,1.2c-0.4,0.5-0.8,1.1-1,1.8c-0.2,0.7-0.4,1.4-0.4,2.3c0,0.8,0.1,1.6,0.4,2.3
	c0.2,0.7,0.6,1.3,1,1.8s1,0.9,1.7,1.2C124.2,31.8,125,32,125.8,32z M134.1,34.4h-3v-2.3H131c-0.6,0.9-1.4,1.5-2.4,2
	c-1,0.5-2.1,0.7-3.2,0.7c-1.2,0-2.4-0.2-3.4-0.6c-1-0.4-1.9-1-2.6-1.8s-1.3-1.7-1.6-2.7c-0.4-1-0.6-2.1-0.6-3.3
	c0-1.2,0.2-2.3,0.6-3.4c0.4-1,0.9-1.9,1.6-2.7c0.7-0.8,1.6-1.4,2.6-1.8c1-0.4,2.1-0.6,3.4-0.6c1.1,0,2.2,0.2,3.2,0.7
	c1,0.5,1.8,1.2,2.3,2h0.1v-12h3v25.8H134.1z M149.4,25.1c0-0.7-0.1-1.3-0.3-1.9s-0.5-1.1-0.9-1.5s-0.9-0.7-1.4-1
	c-0.6-0.2-1.2-0.4-2-0.4c-0.7,0-1.4,0.1-2,0.4c-0.6,0.3-1.1,0.6-1.6,1.1c-0.4,0.4-0.8,0.9-1,1.5s-0.4,1.1-0.4,1.6h9.6L149.4,25.1z
	 M139.8,27.6c0,0.7,0.2,1.3,0.5,1.9s0.7,1.1,1.2,1.5s1.1,0.7,1.7,0.9c0.7,0.2,1.3,0.3,2,0.3c0.9,0,1.8-0.2,2.5-0.7
	c0.7-0.4,1.3-1,1.9-1.7l2.3,1.8c-1.7,2.2-4.1,3.3-7.1,3.3c-1.3,0-2.4-0.2-3.4-0.6c-1-0.4-1.9-1-2.6-1.8s-1.3-1.6-1.6-2.7
	c-0.4-1-0.6-2.1-0.6-3.3c0-1.2,0.2-2.3,0.6-3.3c0.4-1,1-1.9,1.7-2.7c0.7-0.8,1.6-1.3,2.6-1.8c1-0.4,2.1-0.6,3.3-0.6
	c1.4,0,2.6,0.2,3.6,0.7s1.8,1.1,2.4,1.9c0.6,0.8,1.1,1.7,1.4,2.7c0.3,1,0.4,2,0.4,3.1v1.1H139.8L139.8,27.6z M164.4,22.5
	c-0.4-0.4-0.8-0.8-1.3-1.1c-0.5-0.3-1.2-0.5-1.9-0.5s-1.3,0.2-1.9,0.5c-0.5,0.3-0.8,0.7-0.8,1.3c0,0.5,0.2,0.9,0.5,1.1
	c0.3,0.3,0.7,0.5,1.1,0.7c0.4,0.2,0.9,0.3,1.3,0.4c0.5,0.1,0.9,0.2,1.2,0.2c0.6,0.2,1.3,0.3,1.8,0.6c0.6,0.2,1.1,0.5,1.5,0.9
	s0.7,0.8,1,1.3c0.2,0.5,0.4,1.1,0.4,1.9c0,0.9-0.2,1.7-0.6,2.3c-0.4,0.6-0.9,1.2-1.5,1.6c-0.6,0.4-1.3,0.7-2.1,0.9
	c-0.8,0.2-1.6,0.3-2.3,0.3c-1.3,0-2.5-0.2-3.5-0.6c-1-0.4-1.9-1.1-2.7-2.2l2.3-1.9c0.5,0.5,1,0.9,1.6,1.3s1.3,0.6,2.2,0.6
	c0.4,0,0.8,0,1.2-0.1c0.4-0.1,0.7-0.2,1-0.4c0.3-0.2,0.5-0.4,0.7-0.6c0.2-0.3,0.3-0.6,0.3-0.9c0-0.4-0.1-0.8-0.4-1.1
	c-0.3-0.3-0.6-0.5-1-0.7s-0.8-0.3-1.2-0.4l-1.2-0.3c-0.6-0.2-1.3-0.3-1.8-0.5c-0.6-0.2-1.1-0.5-1.5-0.8s-0.8-0.8-1.1-1.3
	s-0.4-1.2-0.4-1.9c0-0.8,0.2-1.6,0.5-2.2c0.3-0.6,0.8-1.1,1.4-1.5c0.6-0.4,1.2-0.7,1.9-0.9c0.7-0.2,1.5-0.3,2.2-0.3
	c1.1,0,2.1,0.2,3.1,0.6s1.8,1.1,2.4,2L164.4,22.5 M170.2,9h3v16.2l6.8-6.8h4.1l-7.3,7.2l8,8.6h-4.3l-7.3-8.2v8.2h-3V9"/>
</svg>
