<svg width="316" height="100" viewBox="0 0 316 100" fill="none" xmlns="http://www.w3.org/2000/svg">
<path fill-rule="evenodd" clip-rule="evenodd" d="M61.6001 38.5996C61.0001 38.5996 60.5001 39.0996 60.5001 39.6996V60.1996C60.5001 60.7996 61.0001 61.2996 61.6001 61.2996H81.3001C81.9001 61.2996 82.4001 60.7996 82.4001 60.1996V39.5996C82.4001 38.9996 81.9001 38.4996 81.3001 38.4996H61.6001V38.5996ZM81.3001 64.5996H61.6001C59.1001 64.5996 57.1001 62.5996 57.1001 60.0996V39.5996C57.1001 37.0996 59.1001 35.0996 61.6001 35.0996H81.3001C83.8001 35.0996 85.8001 37.0996 85.8001 39.5996V60.0996C85.7001 62.5996 83.7001 64.5996 81.3001 64.5996Z" fill="black"/>
<path fill-rule="evenodd" clip-rule="evenodd" d="M255.1 64.6H234.5V61.2H255.1C255.7 61.2 256.2 60.7 256.2 60.1V52.4C256.2 51.8 255.7 51.3 254 51.3H237.8C236.5 51.3 234.5 49.3 234.5 46.8V39.5C234.5 37 236.5 35 239 35H258.8V38.4H239C238.4 38.4 237.9 38.9 237.9 39.5V46.8C237.9 47.4 238.4 47.9 239 47.9H255.2C257.7 47.9 259.7 49.9 259.7 52.4V60.1C259.6 62.6 257.6 64.6 255.1 64.6Z" fill="black"/>
<path fill-rule="evenodd" clip-rule="evenodd" d="M195.6 64.6002H173V35.2002H176.5V61.2002H195.6V64.6002Z" fill="black"/>
<path fill-rule="evenodd" clip-rule="evenodd" d="M151.1 64.6002L130 40.4002V64.7002H126.5V35.2002H130L151.7 60.1002V35.2002H155.1V64.6002H151.1Z" fill="black"/>
<path fill-rule="evenodd" clip-rule="evenodd" d="M104.4 64.6002H107.9V35.2002H104.4V64.6002Z" fill="black"/>
<path fill-rule="evenodd" clip-rule="evenodd" d="M212 64.6002H215.4V35.2002H212V64.6002Z" fill="black"/>
<path fill-rule="evenodd" clip-rule="evenodd" d="M301.6 35.2002H289.6H286.1H274.1V38.6002H286.1V64.6002H289.6V38.6002H301.6V35.2002Z" fill="black"/>
<path fill-rule="evenodd" clip-rule="evenodd" d="M40.2 64.5996H19.5C17 64.5996 15 62.5996 15 60.0996V39.5996C15 37.0996 17 35.0996 19.5 35.0996H40.2V38.4996H19.5C18.9 38.4996 18.4 38.9996 18.4 39.5996V60.0996C18.4 60.6996 18.9 61.1996 19.5 61.1996H40.2V64.5996Z" fill="black"/>
</svg>
