<svg width="24" height="19" viewBox="0 0 24 19" fill="none" xmlns="http://www.w3.org/2000/svg">
    <path d="M20.3171 1.49295C18.7871 0.80295 17.1471 0.29295 15.4321 0.00295017C15.4169 1.80819e-05 15.401 0.00190762 15.3869 0.0083575C15.3727 0.0148074 15.3609 0.0254985 15.3531 0.0389502C15.1431 0.40795 14.9091 0.88895 14.7451 1.26895C12.9262 0.997187 11.077 0.997187 9.25813 1.26895C9.07546 0.847811 8.86948 0.437174 8.64113 0.0389502C8.63339 0.0253329 8.62168 0.0143999 8.60756 0.0076103C8.59345 0.000820665 8.5776 -0.00150281 8.56213 0.000950073C6.84813 0.29095 5.20813 0.80095 3.67713 1.49195C3.66396 1.49747 3.65279 1.5069 3.64513 1.51895C0.53313 6.09395 -0.31987 10.556 0.0991297 14.962C0.100296 14.9727 0.103645 14.9832 0.108975 14.9926C0.114304 15.0021 0.121502 15.0104 0.13013 15.017C1.94652 16.3394 3.97247 17.3468 6.12313 17.997C6.13812 18.0016 6.15416 18.0016 6.16914 17.9969C6.18413 17.9923 6.19737 17.9832 6.20713 17.9709C6.66913 17.3509 7.08113 16.6959 7.43313 16.0079C7.45413 15.9679 7.43413 15.9199 7.39213 15.9039C6.74613 15.6607 6.12021 15.3671 5.52013 15.0259C5.50935 15.0198 5.50026 15.0111 5.49369 15.0005C5.48711 14.99 5.48326 14.978 5.48246 14.9656C5.48167 14.9532 5.48397 14.9408 5.48914 14.9295C5.49432 14.9183 5.50222 14.9084 5.51213 14.9009C5.63813 14.8079 5.76413 14.711 5.88413 14.614C5.89493 14.6052 5.90794 14.5997 5.92171 14.5979C5.93549 14.5961 5.94948 14.5982 5.96213 14.604C9.88913 16.368 14.1421 16.368 18.0231 14.604C18.0358 14.5979 18.05 14.5955 18.0639 14.5971C18.0779 14.5987 18.0911 14.6042 18.1021 14.6129C18.2221 14.7109 18.3471 14.8079 18.4741 14.9009C18.4841 14.9083 18.4922 14.918 18.4975 14.9292C18.5029 14.9403 18.5053 14.9527 18.5047 14.9651C18.5041 14.9774 18.5005 14.9895 18.4941 15.0001C18.4877 15.0107 18.4788 15.0196 18.4681 15.0259C17.8701 15.3699 17.2481 15.661 16.5951 15.903C16.5851 15.9066 16.576 15.9123 16.5683 15.9198C16.5607 15.9272 16.5547 15.9362 16.5509 15.9462C16.547 15.9561 16.5453 15.9668 16.5458 15.9774C16.5464 15.9881 16.5492 15.9985 16.5541 16.0079C16.9141 16.695 17.3261 17.3489 17.7791 17.9699C17.7885 17.9827 17.8017 17.9922 17.8167 17.9972C17.8317 18.0022 17.8479 18.0025 17.8631 17.9979C20.0175 17.3496 22.0467 16.3417 23.8651 15.017C23.874 15.0107 23.8814 15.0027 23.887 14.9934C23.8925 14.9841 23.8959 14.9737 23.8971 14.9629C24.3971 9.86895 23.0591 5.44295 20.3481 1.52095C20.3415 1.5082 20.3305 1.49827 20.3171 1.49295ZM8.02013 12.2789C6.83813 12.2789 5.86313 11.2099 5.86313 9.89895C5.86313 8.58695 6.81913 7.51895 8.02013 7.51895C9.23013 7.51895 10.1961 8.59595 10.1771 9.89895C10.1771 11.2109 9.22113 12.2789 8.02013 12.2789ZM15.9951 12.2789C14.8121 12.2789 13.8381 11.2099 13.8381 9.89895C13.8381 8.58695 14.7931 7.51895 15.9951 7.51895C17.2051 7.51895 18.1711 8.59595 18.1521 9.89895C18.1521 11.2109 17.2061 12.2789 15.9951 12.2789Z" fill="#5865F2"/>
</svg>
