<svg width="206" height="100" viewBox="0 0 206 100" fill="currentColor" xmlns="http://www.w3.org/2000/svg">
<g clip-path="url(#clip0)">
<path d="M28.2932 14.2618L17.0395 21.5235L28.3567 28.7853L17.0395 36.1113L5.72217 28.7853L17.0395 21.5235L5.72217 14.2618L17.0395 7L28.2932 14.2618ZM16.9759 38.4248L28.2932 31.163L39.6104 38.4248L28.2296 45.6865L16.9759 38.4248ZM28.2932 28.7853L39.6104 21.5235L28.2932 14.2618L39.5469 7L50.8641 14.2618L39.5469 21.5235L50.8641 28.7853L39.5469 36.1113L28.2932 28.7853Z" fill="currentColor"/>
<path d="M59.6382 14.2619H68.7937C74.6431 14.2619 79.4116 17.6678 79.4116 25.4437V27.0503C79.4116 34.8904 74.8974 38.4249 68.9845 38.4249H59.6382V14.2619ZM64.7246 18.6318V33.9907H68.603C71.9092 33.9907 74.1345 31.8058 74.1345 26.9218V25.6365C74.1345 20.7525 71.782 18.5675 68.4123 18.5675H64.7246V18.6318ZM82.082 18.8888H86.1511L86.7869 23.4515C87.5499 20.3669 89.5209 18.6961 93.145 18.6961H94.4166V23.9014H92.3184C88.1857 23.9014 87.1684 25.3794 87.1684 29.4923V38.4892H82.1456L82.082 18.8888ZM95.4974 29.1067V28.5283C95.4974 21.9735 99.6302 18.3747 105.289 18.3747C111.075 18.3747 115.08 21.9735 115.08 28.5283V29.1067C115.08 35.533 111.202 39.0033 105.289 39.0033C99.0579 38.8747 95.4974 35.533 95.4974 29.1067ZM109.93 29.0424V28.5283C109.93 24.8653 108.15 22.6804 105.225 22.6804C102.428 22.6804 100.52 24.6725 100.52 28.5283V29.0424C100.52 32.5769 102.301 34.5691 105.225 34.5691C108.086 34.5048 109.93 32.5127 109.93 29.0424ZM117.687 18.8888H121.883L122.392 22.6161C123.409 20.1098 125.571 18.439 128.75 18.439C133.646 18.439 136.888 22.0377 136.888 28.6569V29.2352C136.888 35.6616 133.264 39.0675 128.75 39.0675C125.698 39.0675 123.6 37.6537 122.583 35.4045V45.3011H117.623L117.687 18.8888ZM131.802 29.0424V28.5926C131.802 24.7368 129.831 22.7446 127.16 22.7446C124.363 22.7446 122.455 24.9296 122.455 28.5926V28.9782C122.455 32.4484 124.236 34.6334 127.097 34.6334C130.022 34.5691 131.802 32.6412 131.802 29.0424ZM144.391 34.8262L143.946 38.4249H139.622V12.334H144.518V22.3591C145.599 19.7885 147.76 18.439 150.812 18.439C155.454 18.5033 158.887 21.7164 158.887 28.207V28.7854C158.887 35.276 155.644 39.0033 150.749 39.0033C147.506 38.8747 145.408 37.3967 144.391 34.8262ZM153.737 28.7854V28.2713C153.737 24.6725 151.83 22.6804 149.096 22.6804C146.362 22.6804 144.391 24.9296 144.391 28.3356V28.7854C144.391 32.4484 146.234 34.5691 149.032 34.5691C152.02 34.5691 153.737 32.6412 153.737 28.7854ZM161.049 29.1067V28.5283C161.049 21.9735 165.181 18.3747 170.84 18.3747C176.626 18.3747 180.631 21.9735 180.631 28.5283V29.1067C180.631 35.533 176.689 39.0033 170.84 39.0033C164.609 38.8747 161.049 35.533 161.049 29.1067ZM175.545 29.0424V28.5283C175.545 24.8653 173.765 22.6804 170.84 22.6804C168.043 22.6804 166.135 24.6725 166.135 28.5283V29.0424C166.135 32.5769 167.915 34.5691 170.84 34.5691C173.765 34.5048 175.545 32.5127 175.545 29.0424ZM187.244 28.2713L180.441 18.8888H186.29L190.168 24.8011L194.11 18.8888H199.896L192.966 28.207L200.278 38.4249H194.555L190.105 31.9343L185.781 38.4249H179.805L187.244 28.2713Z" fill="currentColor"/>
</g>
<defs>
<clipPath id="clip0">
<rect width="206" height="100" fill="currentColor"/>
</clipPath>
</defs>
</svg>
