<?xml version="1.0" encoding="utf-8"?>
<!-- Generator: Adobe Illustrator 24.0.2, SVG Export Plug-In . SVG Version: 6.00 Build 0)  -->
<svg version="1.1" id="Layer_1" xmlns="http://www.w3.org/2000/svg" xmlns:xlink="http://www.w3.org/1999/xlink" x="0px" y="0px"
	 viewBox="0 0 200 50" style="enable-background:new 0 0 200 50;" xml:space="preserve">
<path fill="currentColor" d="M25.7,12.4v25c0,5.9,4.8,10.6,10.6,10.6c5.9,0,10.6-4.8,10.6-10.6v-25c0-5.9-4.8-10.6-10.6-10.6
	C30.5,1.8,25.7,6.6,25.7,12.4 M33.3,37.5v-25c0-1.6,1.3-2.9,2.8-2.9c0.1,0,0.2,0,0.3,0c1.6-0.1,2.9,1.2,2.9,2.7c0,0.1,0,0.1,0,0.2
	v25c0,1.6-1.3,2.9-2.9,2.9C34.8,40.4,33.4,39.1,33.3,37.5C33.3,37.5,33.3,37.5,33.3,37.5 M108.2,2.4H86.7V10h6.9v37.3h7.6V10h6.9
	V2.4z M130.5,2.4v35.1c0,1.6-1.3,2.9-2.9,2.9c-1.6,0-2.9-1.3-2.9-2.9c0,0,0,0,0,0V2.4h-7.8v35.1c0,5.9,4.8,10.7,10.7,10.7
	c5.9,0,10.7-4.8,10.7-10.7V2.4H130.5z M200,10V2.4h-18.8v44.9H200v-7.6h-11.2V28.1h7.2v-7.6h-7.2V10H200z M79.6,47.3h-8l-5.6-21.2
	c2.9-0.6,4.9-3.1,4.9-6v-6.9c0-1.7-1.3-3.1-3-3.1c0,0-0.1,0-0.1,0h-2.9v37.3h-7.6V2.4h10.5c5.8-0.1,10.5,4.5,10.7,10.3v7.2
	c0.2,3.8-1.4,7.4-4.2,9.8L79.6,47.3z M164.2,2.4V27l-7.8-24.6h-7.8v44.9h7.8V25.4l7.2,21.9h8.5V2.4H164.2z M0,3V48h8V28.7h7.4v-7.6
	H8V10.6h11.6V3H0z"/>
</svg>
