<?xml version="1.0" encoding="utf-8"?>
<!-- Generator: Adobe Illustrator 24.0.2, SVG Export Plug-In . SVG Version: 6.00 Build 0)  -->
<svg version="1.1" id="Layer_1" xmlns="http://www.w3.org/2000/svg" xmlns:xlink="http://www.w3.org/1999/xlink" x="0px" y="0px"
	 viewBox="0 0 150 50" style="enable-background:new 0 0 150 50;" xml:space="preserve" fill="currentColor">
<path d="M14.4,11.4h21.3V4.5H22.5C18.4,4.5,15,7.5,14.4,11.4 M4.5,21.1h6.8v-6.8H4.5V21.1z M14.2,30.8h11.7V24H14.2V30.8z M4.5,33.8
	v11.6c3.9-0.7,6.8-4.1,6.8-8.2v-3.4C11.3,33.8,4.5,33.8,4.5,33.8z M3,48.4H1.6V30.9h9.7V24H1.6V11.4h9.8c0.7-5.5,5.4-9.7,11.1-9.7
	h16.1v12.7H14.2v6.8h14.6v12.7H14.2v3.4C14.2,43.3,9.2,48.4,3,48.4"/>
<path d="M52.5,40.6c-1.7,0-3.2-1.3-3.2-3.6s1.5-3.5,3.1-3.5c1.5,0,2.3,0.9,2.6,1.8h2.7c-0.4-2.3-2.3-4.2-5.3-4.2
	c-3.3,0-5.8,2.5-5.8,6c0,3.5,2.5,6.1,5.9,6.1c3,0,4.9-1.9,5.4-4.2h-2.7C54.9,39.7,54.1,40.6,52.5,40.6z M90.4,27.5h-2.7v12
	c0,2.1,1.3,3.4,3.4,3.4c1,0,1.5-0.2,1.7-0.2v-2.3c-0.1,0-0.6,0.1-0.9,0.1c-1,0-1.5-0.4-1.5-1.4v-5.3h2.4v-2.4h-2.4L90.4,27.5
	L90.4,27.5z M84.8,25.7c-1,0-1.8,0.8-1.8,1.8c0,1,0.8,1.8,1.8,1.8c1,0,1.8-0.8,1.8-1.8C86.5,26.5,85.7,25.7,84.8,25.7z M83.4,42.7
	h2.7V31.4h-2.7V42.7z M76.9,31.1c-1.8,0-3.1,0.8-3.6,1.8v-1.5h-2.6v15.8h2.7v-5.7c0.6,0.9,1.8,1.6,3.5,1.6c3.3,0,5.3-2.6,5.3-6
	C82.2,33.7,80.3,31.1,76.9,31.1z M76.4,40.6c-1.8,0-3.1-1.4-3.1-3.6c0-2.1,1.3-3.5,3.1-3.5c1.8,0,3.1,1.4,3.1,3.5
	C79.4,39.2,78.2,40.6,76.4,40.6z M105.5,42.7h2.7V27.5h-2.7V42.7z M99.1,31c-2.8,0-4.8,1.8-4.9,4.2h2.5c0.1-1.1,0.9-2,2.3-2
	c1.5,0,2.2,0.8,2.2,1.7c0,0.4-0.2,0.7-0.8,0.8l-2.9,0.4c-1.9,0.3-3.4,1.4-3.4,3.4c0,1.8,1.5,3.4,3.9,3.4c1.9,0,3-0.9,3.5-1.8v1.5
	h2.5v-7.5C103.9,33,102.6,31,99.1,31z M101.3,38c0,2.2-1.3,2.9-2.8,2.9c-1.1,0-1.7-0.7-1.7-1.5c0-0.9,0.7-1.4,1.5-1.5l3-0.4V38z
	 M64.2,31c-2.8,0-4.8,1.8-4.9,4.2h2.5c0.1-1.1,0.9-2,2.3-2c1.5,0,2.2,0.8,2.2,1.7c0,0.4-0.2,0.7-0.8,0.8l-2.9,0.4
	c-1.9,0.3-3.4,1.4-3.4,3.4c0,1.8,1.5,3.4,3.9,3.4c1.9,0,3-0.9,3.5-1.8v1.5h2.5v-7.5C69,33,67.7,31,64.2,31z M66.4,38
	c0,2.2-1.3,2.9-2.8,2.9c-1.1,0-1.7-0.7-1.7-1.5c0-0.9,0.7-1.4,1.5-1.5l3-0.4V38z M48.6,23.2h2.7v-9H54v-2.3h-2.7v-1.5
	c0-1.4,1-1.7,1.7-1.7c0.5,0,0.8,0.1,1,0.1V6.4c-0.2-0.1-0.7-0.2-1.4-0.2c-2.3,0-4,1.5-4,4.1v1.6h-2v2.3h2L48.6,23.2L48.6,23.2z
	 M60.2,23.6c3.4,0,5.9-2.5,5.9-6.1c0-3.5-2.5-6-5.9-6c-3.4,0-5.9,2.5-5.9,6C54.3,21,56.8,23.6,60.2,23.6z M60.2,13.9
	c1.7,0,3.2,1.2,3.2,3.6s-1.5,3.6-3.2,3.6c-1.7,0-3.2-1.3-3.2-3.6S58.5,13.9,60.2,13.9z M71.7,23.6c1.3,0,2.7-0.6,3.2-1.6v1.3h2.6
	V11.9h-2.7v6.7c0,1.5-0.8,2.5-2.4,2.5c-1.6,0-2.3-1.2-2.3-2.6v-6.7h-2.7V19C67.4,21.6,69,23.6,71.7,23.6z M86.5,16.5v6.7h2.7v-7.2
	c0-2.5-1.3-4.5-4.1-4.5c-1.3,0-2.6,0.5-3.4,1.9v-1.5h-2.6v11.4h2.7v-6.6c0-1.5,0.8-2.7,2.3-2.7C85.8,14,86.5,15.1,86.5,16.5z
	 M95.9,23.5c1.6,0,2.8-0.8,3.3-1.8v1.5h2.6V8h-2.6v5.2c-0.3-0.7-1.4-1.6-3.3-1.6c-3.2,0-5.4,2.7-5.4,6
	C90.5,20.9,92.7,23.5,95.9,23.5z M96.3,13.9c1.8,0,3,1.4,3,3.5s-1.2,3.6-3,3.6c-1.9,0-3.1-1.5-3.1-3.6
	C93.2,15.3,94.5,13.9,96.3,13.9z M117.3,8h-2.7v12c0,2.1,1.3,3.4,3.4,3.4c1,0,1.5-0.2,1.7-0.2v-2.3c-0.1,0-0.6,0.1-0.9,0.1
	c-1,0-1.5-0.4-1.5-1.4v-5.3h2.4v-2.4h-2.4L117.3,8L117.3,8z M122.6,6.2c-1,0-1.8,0.8-1.8,1.8c0,1,0.8,1.8,1.8,1.8
	c1,0,1.8-0.8,1.8-1.8C124.4,7,123.6,6.2,122.6,6.2z M121.3,23.2h2.7V11.8h-2.7V23.2z M131.1,11.5c-3.4,0-5.9,2.5-5.9,6
	s2.5,6.1,5.9,6.1c3.4,0,5.9-2.5,5.9-6.1C137,14,134.5,11.5,131.1,11.5z M131.1,21.2c-1.7,0-3.2-1.3-3.2-3.6s1.5-3.6,3.2-3.6
	c1.7,0,3.2,1.2,3.2,3.6C134.3,19.9,132.8,21.2,131.1,21.2z M144.3,11.5c-1.3,0-2.6,0.5-3.4,1.9v-1.5h-2.6v11.4h2.7v-6.6
	c0-1.5,0.8-2.7,2.3-2.7c1.7,0,2.3,1.1,2.3,2.5v6.7h2.7v-7.2C148.4,13.5,147.1,11.5,144.3,11.5z M108.2,11.5c-2.8,0-4.8,1.8-4.9,4.2
	h2.5l0,0c0.1-1.1,0.9-2,2.3-2c1.5,0,2.2,0.8,2.2,1.7c0,0.4-0.2,0.7-0.8,0.8l-2.9,0.4c-1.9,0.3-3.4,1.4-3.4,3.4
	c0,1.8,1.5,3.4,3.9,3.4c1.9,0,3-0.9,3.5-1.8v1.5h2.5v-7.5C113,13.5,111.6,11.5,108.2,11.5z M110.3,18.5c0,2.2-1.3,2.9-2.8,2.9
	c-1.1,0-1.7-0.7-1.7-1.5c0-0.9,0.7-1.4,1.5-1.5l3-0.4V18.5z"/>
</svg>
