<?xml version="1.0" encoding="utf-8"?>
<!-- Generator: Adobe Illustrator 24.1.3, SVG Export Plug-In . SVG Version: 6.00 Build 0)  -->
<svg version="1.1" baseProfile="tiny" id="Layer_1" xmlns="http://www.w3.org/2000/svg" xmlns:xlink="http://www.w3.org/1999/xlink"
	 x="0px" y="0px" viewBox="0 0 4044.9 1735.7" overflow="visible" xml:space="preserve">
<path fill="#DE5959" d="M770.1,618.3l-9.4-9.4c-7.1-7.1-19.3-2.1-19.3,8v134.8c0,6.2,5.1,11.3,11.3,11.3h134.8
	c10.1,0,15.1-12.2,8-19.3c-4.4-4.4-4.4-11.5,0-15.9L1039,583.9c4.4-4.4,4.4-11.5,0-15.9l-13.1-13c-7.1-7.1-2-19.3,8-19.3h134.8
	c6.2,0,11.3,5.1,11.3,11.3v134.8c0,10.1-12.2,15.1-19.3,8l-9.1-9.1c-4.4-4.5-11.6-4.5-15.9,0L893.8,922.4c-4.4,4.4-11.5,4.4-16,0
	L582,626.5c-4.4-4.4-4.4-11.6,0-16L991.6,201c4.4-4.4,4.4-11.6,0-16l-96.3-96.3c-4.4-4.4-11.5-4.4-16,0L349.1,618.9
	c-4.4,4.4-4.4,11.6,0,16L879.2,1165c4.4,4.4,11.6,4.4,16,0l530.1-530.1c4.4-4.4,4.4-11.6,0-16l-311.9-311.9c-4.4-4.4-11.5-4.4-16,0
	L786.1,618.3C781.7,622.8,774.5,622.8,770.1,618.3L770.1,618.3z"/>
<g>
	<path fill="#DE5959" d="M1180.6,1522.3c-8.1,0-15.1,2.9-21,8.8c-5.8,5.9-8.8,12.8-8.8,20.8c0,12.2,6.2,21.7,18.5,28.5
		c13.5,3.7,24.3,1.3,32.5-7.1c5.9-5.9,8.8-13,8.8-21.2c0-8.3-2.9-15.3-8.8-21C1196,1525.3,1188.9,1522.4,1180.6,1522.3
		L1180.6,1522.3L1180.6,1522.3L1180.6,1522.3z M702,1295.9h-22.2c-9.6,0-17.4,7.7-17.4,17.3v12.4c-23.6-24.6-50.3-36.9-80.2-36.9
		c-34.5,0-63.3,12.8-86.2,38.4c-23,25.6-34.5,57.6-34.5,96c0,39.1,11.5,71.8,34.4,97.9c23.2,25.6,52.5,38.4,87.9,38.4
		c28,0,54.2-11.4,78.6-34.3v24.5c0,11.9,9.7,21.6,21.5,21.6h37.9v-255.6C721.9,1304.8,713,1295.9,702,1295.9L702,1295.9z
		 M645.9,1484c-13.5,15.1-31.2,22.6-53.2,22.6c-20.5,0-37.6-7.8-51-23.4c-13.2-15.4-19.7-35.4-19.7-60c0-23,6.8-42.3,20.2-57.9
		c13.7-15.4,30.7-23.1,51-23.1c21.6,0,39.1,7.6,52.6,23c13.5,15.6,20.3,35.4,20.3,59.4C666.1,1448.6,659.4,1468.4,645.9,1484
		L645.9,1484L645.9,1484L645.9,1484z M461.4,1339.2v-25.3c0-9.9-8-17.9-17.9-17.9h-23.4c-9.9,0-17.9,7.9-17.9,17.9v11
		c-21.4-24-48.2-36.1-80.5-36.1c-36.8,0-66.5,13.9-88.9,41.6c-20.9,26.1-31.3,57.9-31.3,95.2c0,38.4,11.2,70.4,33.7,96
		c22.3,25.3,50.9,37.9,85.8,37.9c30.7,0,57.8-12,81.3-36v35.8c0,53.2-21.7,79.8-65,79.8c-23.5,0-41.4-8-53.7-24
		c-3.1-4-5.7-9.1-7.8-15.1c-2.9-8.5-11-14.1-19.9-14.1h-22.4c-11.3,0-19.7,10.8-16.9,21.7c6.1,23.3,18,42.3,35.6,56.9
		c22.1,18.4,50.3,27.6,84.5,27.6c40.5,0,72.4-13.3,95.5-40c12.3-13.9,20.5-30.4,24.7-49.7c1.4-6.9,2.5-15.1,3.3-24.4
		c0.8-9.2,1.2-19.8,1.2-31.9v-37.2c-16.6-23.9-24.9-52.4-24.9-85.6C436.5,1390.6,444.8,1362.6,461.4,1339.2L461.4,1339.2
		L461.4,1339.2z M386.4,1482c-13.1,16.4-31,24.6-53.7,24.6c-22.6,0-40.3-8.1-53.2-24.5c-11.7-14.9-17.6-34-17.6-57.3
		c0-23.7,5.9-43,17.6-57.9c13-16.6,30.7-25,53.2-25c21,0,38.3,7.6,51.8,22.9c13.3,14.9,20,34.8,20,59.7
		C404.6,1447.9,398.6,1467,386.4,1482L386.4,1482L386.4,1482z M953.5,1296.1v-0.2H830.8v-75.2c0-9.7-7.8-17.5-17.5-17.5h-24
		c-9.8,0-17.7,7.9-17.7,17.7v75h-25.3v55.2h25.3v220.2h33.8c14.1,0,25.4-11.3,25.4-25.4v-194.7h60.7c4.8-9.2,10.6-17.6,17.5-25.3
		C921.5,1312.1,936.4,1302.2,953.5,1296.1L953.5,1296.1L953.5,1296.1z M1255.6,1203.2c-10.5,0-19.5,3.8-27.1,11.4
		c-7.5,7.5-11.3,16.5-11.3,26.8c0,10.9,3.8,20,11.3,27.6c7.6,7.5,16.7,11.3,27.4,11.3c10.7,0,19.7-3.8,27-11.3
		c7.6-7.6,11.4-16.6,11.4-27.4c0-10.7-3.8-19.7-11.3-27.1C1275.4,1207,1266.3,1203.2,1255.6,1203.2L1255.6,1203.2L1255.6,1203.2z
		 M1267.6,1324.9h-21.5c-11,0-20,8.9-20,20v187.9c4.5,5.3,6.7,11.6,6.7,18.9s-2.1,13.6-6.7,18.9v10.6h38.1
		c11.7,0,21.1-9.5,21.1-21.2v-217.4C1285.4,1332.8,1277.4,1324.9,1267.6,1324.9L1267.6,1324.9L1267.6,1324.9z M1545.8,1361.2
		c-26.7-26.1-59.1-39.2-97.4-39.2c-38.1,0-70.4,13-96.8,39c-26.5,25.9-39.7,57.4-39.7,94.4c0,39.3,13,71.9,38.9,97.9
		c26,26.3,58.2,39.4,96.6,39.4c38.7,0,71.5-12.9,98.1-38.7c26.4-26,39.7-58.1,39.7-96.6C1585.3,1419.5,1572.1,1387.4,1545.8,1361.2
		L1545.8,1361.2z M1504,1517.5c-13.8,14.9-32.3,22.3-55.5,22.3c-23,0-41.5-7.5-55.5-22.6c-13.7-14.9-20.5-35.2-20.5-60.8
		c0-23.8,7.1-43.3,21.1-58.4c14-15.1,32.4-22.6,55-22.6c22.9,0,41.5,7.5,55.5,22.6c13.9,14.9,20.8,34.8,20.8,59.7
		C1524.8,1482.7,1517.8,1502.6,1504,1517.5L1504,1517.5L1504,1517.5L1504,1517.5z"/>
	<path fill="#DE5959" d="M975.6,1507.2c-12.2-12.3-19-29.2-20.6-50.3h169.7c7.7,0,14.1-6.2,14.2-13.9c0-42.4-10.9-75.3-32.6-99.2
		c-22-24-51.8-36-89.5-36c-37.3,0-67.3,12.4-90,37.1c-22.5,25.1-33.7,57.9-33.7,98.4c0,40.8,11.6,73.7,34.7,98.4
		c16.2,17.2,36,28.3,59.5,33.5c9.9,2.3,20.1,3.5,30.4,3.4c42.1,0.9,78.8,1.7,121,2.6l0.1-6.2c-5.2-5.6-7.7-12.4-7.7-20.2
		c0-7.7,2.7-14.3,8-20l0-7.5c-33.2-0.8-113.8-1.6-117-1.6C1003.2,1525.6,987.7,1519.5,975.6,1507.2L975.6,1507.2L975.6,1507.2z
		 M967.4,1388.8c3.7-5.8,8.1-10.7,13.3-14.8c5.2-4.2,10.9-7.3,17.2-9.5c6.3-2.2,13.1-3.3,20.3-3.3c31.5,0,51.4,15.8,59.7,47.3H959
		C960.9,1401.2,963.7,1394.6,967.4,1388.8L967.4,1388.8L967.4,1388.8z"/>
</g>
<g>
	<path d="M2036.9,893.4h-94.6v-51.1h94.6v-100h51.6v100h94.6v51.1h-94.6v100h-51.6V893.4z"/>
</g>
<rect x="2685" y="290.4" fill="#00FFAD" width="1243.3" height="1243.3"/>
<path fill-rule="evenodd" d="M3154.8,1207.1c0-2.3,1.8-4.1,4.1-4.1h15.6c2.2,0,4.1,1.8,4.1,4.1v96.7c0,2.3,1.8,4.1,4.1,4.1h91.9
	c3.6,0,5.4,4.3,3,6.9l-11.8,12.6c-0.8,0.8-1.8,1.3-3,1.3h-84.2h-19.6c-2.2,0-4.1-1.8-4.1-4.1V1207.1z"/>
<path fill-rule="evenodd" d="M2906.6,1278H2855c0,0,0,0,0,0s0,0,0,0c-0.3,0-0.7,0-1,0c-20.7,0-37.5-16.8-37.5-37.5
	c0-20.7,16.8-37.5,37.5-37.5c0.3,0,0.7,0,1,0c0,0,0,0,0,0c0,0,0,0,0,0h78.7c3.7,0,5.5,4.6,2.8,7.1l-17.5,16.1
	c-0.8,0.7-1.7,1.1-2.8,1.1h-62.2c-7.3,0-13.1,5.9-13.1,13.2c0,7.3,5.9,13.2,13.1,13.2h55.7c0,0,0.1,0,0.1,0.1c0,0,0,0.1,0.1,0.1
	c19.2,1.6,34.4,17.7,34.4,37.4c0,20.7-16.8,37.5-37.5,37.5c-1,0-2,0-3-0.1c0,0-0.1,0-0.1,0.1c0,0,0,0.1-0.1,0.1h-78
	c-3.8,0-5.5-4.7-2.7-7.2l18.8-16.1c0.7-0.6,1.7-1,2.7-1h27.2h35.1c7.3,0,13.1-5.9,13.1-13.2C2919.8,1283.9,2913.9,1278,2906.6,1278z
	"/>
<path fill-rule="evenodd" d="M3007,1203C3007,1203,3007,1203,3007,1203C3007,1203,3007,1203.1,3007,1203
	c-12.1,0.5-21.7,10.2-22.3,22.3c0,0,0,0,0,0c0,0,0,0,0,0v79c0,0,0,0,0,0c0,0,0,0,0,0c0,0.3,0,0.7,0,1c0,12.5,9.9,22.8,22.3,23.3
	c0,0,0,0,0,0c0,0,0,0,0,0h85c0,0,0,0,0,0c0,0,0,0,0,0c12.4-0.5,22.3-10.8,22.3-23.3c0-0.3,0-0.7,0-1c0,0,0,0,0,0c0,0,0,0,0,0v-79
	c0,0,0,0,0,0s0,0,0,0c-0.5-12.1-10.2-21.7-22.2-22.3c0,0,0,0,0,0c0,0,0,0,0,0H3007z M3022.9,1225.3
	C3022.9,1225.3,3022.9,1225.3,3022.9,1225.3C3022.9,1225.3,3022.9,1225.3,3022.9,1225.3c-7.5,0.3-13.6,6.4-13.9,14c0,0,0,0,0,0
	s0,0,0,0v49.7c0,0,0,0,0,0s0,0,0,0c0,0.2,0,0.4,0,0.6c0,7.9,6.2,14.3,13.9,14.7c0,0,0,0,0,0s0,0,0,0h53.1c0,0,0,0,0,0s0,0,0,0
	c7.7-0.3,13.9-6.8,13.9-14.7c0-0.2,0-0.4,0-0.6c0,0,0,0,0,0s0,0,0,0v-49.7c0,0,0,0,0,0s0,0,0,0c-0.3-7.6-6.4-13.7-13.9-14
	c0,0,0,0,0,0s0,0,0,0H3022.9z"/>
<path fill-rule="evenodd" d="M3347.7,1237.5v20.2c0,2.3,1.9,4.1,4.1,4.1h73.9c2.3,0,4.1-1.8,4.1-4.1v-20.2c0-7.8-6.4-14.2-14.4-14.2
	h-53.4C3354.2,1223.3,3347.7,1229.7,3347.7,1237.5z M3434,1328.7c-2.3,0-4.1-1.8-4.1-4.1v-40.5c0-2.3-1.9-4.1-4.1-4.1h-73.9
	c-2.3,0-4.1,1.8-4.1,4.1v40.5c0,2.3-1.9,4.1-4.1,4.1h-16.4c-2.3,0-4.1-1.8-4.1-4.1v-97.3c0,0,0,0,0,0c0,0,0,0,0,0c0-0.3,0-0.7,0-1
	c0-12.9,10.6-23.3,23.6-23.3c0.3,0,0.7,0,1,0c0,0,0,0,0,0c0,0,0,0,0,0h84.2c0,0,0,0,0,0c0,0,0,0,0,0c12.6,0.5,22.6,10.8,22.6,23.3
	c0,0.3,0,0.7,0,1c0,0,0,0,0,0c0,0,0,0,0,0v97.3c0,2.3-1.9,4.1-4.1,4.1H3434z"/>
<path fill-rule="evenodd" d="M3689.6,1237.5v20.2c0,2.3,1.8,4.1,4.1,4.1h72.8c2.3,0,4.1-1.8,4.1-4.1v-20.2c0-7.8-6.3-14.2-14.2-14.2
	h-52.6C3695.9,1223.3,3689.6,1229.7,3689.6,1237.5z M3774.6,1328.7c-2.3,0-4.1-1.8-4.1-4.1v-40.5c0-2.3-1.8-4.1-4.1-4.1h-72.8
	c-2.3,0-4.1,1.8-4.1,4.1v40.5c0,2.3-1.8,4.1-4.1,4.1h-16.1c-2.3,0-4.1-1.8-4.1-4.1v-97.3c0,0,0,0,0,0c0,0,0,0,0,0c0-0.3,0-0.7,0-1
	c0-12.9,10.4-23.3,23.3-23.3c0.3,0,0.7,0,1,0c0,0,0,0,0,0c0,0,0,0,0,0h83c0,0,0,0,0,0c0,0,0,0,0,0c12.4,0.5,22.3,10.8,22.3,23.3
	c0,0.3,0,0.7,0,1c0,0,0,0,0,0c0,0,0,0,0,0v97.3c0,2.3-1.8,4.1-4.1,4.1H3774.6z"/>
<path fill-rule="evenodd" d="M3519.1,1204.5c-0.8-0.9-1.9-1.4-3.1-1.4h-18.6c-2.3,0-4.1,1.8-4.1,4.1v117.5c0,2.3,1.9,4.1,4.1,4.1
	h16.4c2.3,0,4.1-1.8,4.1-4.1v-78.2c0-3.8,4.7-5.5,7.3-2.7l74.9,84.8c0,0,0,0.1,0,0.1c0,0.1,0.1,0.2,0.2,0.2h0h20.3
	c2.3,0,4.1-1.8,4.1-4.1v-117.5c0-2.3-1.9-4.1-4.1-4.1h-16.4c-2.3,0-4.1,1.8-4.1,4.1v80.1c0,3.8-4.8,5.6-7.3,2.7L3519.1,1204.5z"/>
<path d="M3526.5,626.1c-4.1,4.1-9.6,6.5-15.4,6.5h-547c-19.3,0-29.1-23.6-15.6-37.6l89.7-93c4.1-4.3,9.7-6.7,15.6-6.7h549.1
	c19.5,0,29.2,23.8,15.4,37.8L3526.5,626.1z"/>
<path d="M3526.5,1041.2c-4.1,4-9.6,6.3-15.4,6.3h-547c-19.3,0-29.1-23-15.6-36.6l89.7-90.6c4.1-4.1,9.7-6.5,15.6-6.5h549.1
	c19.5,0,29.2,23.2,15.4,36.8L3526.5,1041.2z"/>
<path d="M3526.5,710.9c-4.1-4-9.6-6.3-15.4-6.3h-547c-19.3,0-29.1,23-15.6,36.6l89.7,90.6c4.1,4.1,9.7,6.5,15.6,6.5h549.1
	c19.5,0,29.2-23.2,15.4-36.8L3526.5,710.9z"/>
</svg>
