<?xml version="1.0" encoding="utf-8"?>
<!-- Generator: Adobe Illustrator 24.0.2, SVG Export Plug-In . SVG Version: 6.00 Build 0)  -->
<svg version="1.1" id="Layer_1" xmlns="http://www.w3.org/2000/svg" xmlns:xlink="http://www.w3.org/1999/xlink" x="0px" y="0px"
	 viewBox="0 0 985 131.8" style="enable-background:new 0 0 985 131.8;" xml:space="preserve" fill="currentColor">
<path d="M19,63.1v-0.2c0-15,11.4-27.7,27.6-27.7c9.3,0,15.1,2.6,20.6,7.3l-6,7.1c-4.1-3.6-8.2-5.8-15-5.8c-9.9,0-17.4,8.7-17.4,18.8
	v0.2c0,11.1,7.3,19.1,18.2,19.1c5,0,9.6-1.6,12.9-4V68H45.2v-8.2H69v22.5c-5.3,4.5-12.9,8.4-22.3,8.4C30,90.7,19,78.8,19,63.1
	 M81.3,36.3h39.6v8.4H90.6v13.9h26.9V67H90.6v14.4h30.7v8.4h-40V36.3z M133.5,36.3h8.7l28.7,36.9V36.3h9.3v53.5h-7.9l-29.5-38.1
	v38.1h-9.2L133.5,36.3z M192.2,36.3H232v8.4h-30.3v13.9h26.8V67h-26.8v14.4h30.7v8.4h-40.1L192.2,36.3z M244.5,36.3h23.8
	c6.7,0,12,2,15.5,5.4c2.8,2.9,4.4,6.9,4.4,11.5v0.2c0,8.7-5.3,14-12.7,16.2l14.4,20.3h-11.2l-13.2-18.7h-11.7v18.7h-9.4L244.5,36.3
	L244.5,36.3z M267.6,62.7c6.7,0,11.1-3.6,11.1-8.9v-0.1c0-5.8-4.1-8.8-11.1-8.8H254v18C254,62.8,267.6,62.7,267.6,62.7z M317.3,35.9
	h8.7l23.6,53.9h-9.9L334.3,77h-25.3l-5.5,12.9H294L317.3,35.9L317.3,35.9z M330.8,68.5l-9.2-21.4l-9.1,21.4H330.8z M357.8,36.3h9.3
	v44.9h28.2v8.6h-37.5V36.3z M581.2,63.4v-0.2c0-15.2,11.3-27.7,27.6-27.7c9.9,0,15.9,3.5,21,8.4l-6.1,6.9c-4.3-3.9-8.8-6.6-15-6.6
	c-10.2,0-17.7,8.4-17.7,18.8v0.2c0,10.5,7.4,18.9,17.7,18.9c6.5,0,10.8-2.6,15.4-6.9l6.1,6.2c-5.6,5.8-11.7,9.5-21.7,9.5
	C592.9,90.9,581.2,78.8,581.2,63.4 M658.1,36.1h8.7L690.4,90h-9.9l-5.4-12.9h-25.3L644.3,90h-9.6L658.1,36.1L658.1,36.1z
	 M671.4,68.7l-9.2-21.4l-9.1,21.4L671.4,68.7L671.4,68.7z M702.8,45.2h-16.9v-8.7h43.4v8.7h-16.9V90h-9.5V45.2z M748.3,36.1h8.7
	L780.6,90h-9.9l-5.4-12.9h-25.3L734.6,90H725L748.3,36.1L748.3,36.1z M761.8,68.7l-9.2-21.4l-9.1,21.4L761.8,68.7L761.8,68.7z
	 M788.8,36.5h9.3v44.9h28.2V90h-37.5V36.5z M839.9,68.9l-20.3-32.4h11.2l13.9,23.7l14.1-23.7h10.8l-20.3,32.2V90h-9.4L839.9,68.9z
	 M872.7,82.1l6-6.7c5.4,4.4,11,6.9,17.9,6.9c6.2,0,10.6-2.8,10.6-6.7v-0.2c0-3.8-2.8-6-13.3-8.3c-12-2.8-18.8-6.1-18.8-15.9v-0.2
	c0-9.1,8.1-15.5,19.3-15.5c8.3,0,14.8,2.4,20.6,6.7l-5.4,7.1c-5.1-3.6-10.2-5.5-15.4-5.5c-5.9,0-9.9,2.8-9.9,6.3v0.2
	c0,4.1,3.3,6.1,14.2,8.5c12,2.8,18.1,6.7,18.1,15.6v0.2c0,10-8.4,16-20.2,16C887.7,90.7,879.6,87.9,872.7,82.1 M939.6,45.2h-17v-8.7
	H966v8.7h-17V90h-9.4L939.6,45.2z M486.8,31.2c-19.1,0-34.7,15.6-34.7,34.7s15.6,34.7,34.7,34.7c10.3,0,19.8-4.4,26.4-12.2h-26.4
	c-12.4,0-22.6-10.1-22.6-22.5s10.1-22.5,22.5-22.5h26.4C506.6,35.6,497.1,31.2,486.8,31.2 M486.8,2.5c-34.9,0-63.4,28.5-63.4,63.4
	s28.5,63.4,63.4,63.4c34.9,0,63.4-28.5,63.4-63.4c0-2-0.1-4-0.3-6.1h-63.1c-3.4,0-6.1,2.7-6.1,6.1s2.7,6.1,6.1,6.1h50.9l-0.2,1.2
	c-3.6,25-25.4,43.8-50.7,43.8c-28.3,0-51.1-23-51.1-51.1s23-51.1,51.1-51.1c19.4,0,37.4,11.2,46,28.7h13.3
	C536.7,18.9,513.2,2.5,486.8,2.5"/>
</svg>
