<svg width="200" height="100" viewBox="0 0 200 100" fill="currentColor" xmlns="http://www.w3.org/2000/svg">
<path d="M85.1103 50.8451C85.1103 60.2347 77.7647 67.1538 68.75 67.1538C59.7352 67.1538 52.3896 60.2347 52.3896 50.8451C52.3896 41.3892 59.7352 34.5361 68.75 34.5361C77.7647 34.5361 85.1103 41.3892 85.1103 50.8451ZM77.9486 50.8451C77.9486 44.9774 73.6912 40.9627 68.75 40.9627C63.8087 40.9627 59.5515 44.9774 59.5515 50.8451C59.5515 56.6538 63.8087 60.7274 68.75 60.7274C73.6912 60.7274 77.9486 56.6464 77.9486 50.8451Z" fill="currentColor"/>
<path d="M120.404 50.8451C120.404 60.2347 113.059 67.1538 104.044 67.1538C95.0294 67.1538 87.6838 60.2347 87.6838 50.8451C87.6838 41.3964 95.0294 34.5361 104.044 34.5361C113.059 34.5361 120.404 41.3892 120.404 50.8451ZM113.243 50.8451C113.243 44.9774 108.985 40.9627 104.044 40.9627C99.1029 40.9627 94.8455 44.9774 94.8455 50.8451C94.8455 56.6538 99.1029 60.7274 104.044 60.7274C108.985 60.7274 113.243 56.6464 113.243 50.8451Z" fill="currentColor"/>
<path d="M154.228 35.5215V64.8009C154.228 76.8451 147.125 81.7641 138.728 81.7641C130.823 81.7641 126.066 76.4774 124.272 72.1538L130.507 69.5583C131.618 72.2127 134.338 75.3451 138.721 75.3451C144.095 75.3451 147.426 72.0289 147.426 65.7861V63.4406H147.176C145.573 65.4186 142.485 67.1464 138.588 67.1464C130.434 67.1464 122.963 60.0435 122.963 50.9038C122.963 41.698 130.434 34.5361 138.588 34.5361C142.478 34.5361 145.566 36.2641 147.176 38.1832H147.426V35.5289H154.228V35.5215ZM147.934 50.9038C147.934 45.1612 144.103 40.9627 139.228 40.9627C134.287 40.9627 130.147 45.1612 130.147 50.9038C130.147 56.5877 134.287 60.7274 139.228 60.7274C144.103 60.7274 147.934 56.5877 147.934 50.9038Z" fill="currentColor"/>
<path d="M165.441 18.3594V66.1535H158.455V18.3594H165.441Z" fill="currentColor"/>
<path d="M192.662 56.2122L198.22 59.918C196.426 62.5725 192.103 67.146 184.632 67.146C175.368 67.146 168.449 59.9842 168.449 50.8372C168.449 41.1386 175.426 34.5283 183.831 34.5283C192.294 34.5283 196.434 41.2637 197.786 44.9034L198.529 46.7563L176.728 55.7857C178.397 59.0577 180.992 60.7269 184.632 60.7269C188.28 60.7269 190.809 58.9328 192.662 56.2122ZM175.551 50.3445L190.125 44.2931C189.323 42.2563 186.912 40.8372 184.074 40.8372C180.434 40.8372 175.368 44.0505 175.551 50.3445Z" fill="currentColor"/>
<path d="M25.9485 46.602V39.6828H49.2647C49.4925 40.8888 49.6102 42.3153 49.6102 43.8593C49.6102 49.0505 48.1912 55.4696 43.6176 60.0431C39.169 64.6754 33.4853 67.146 25.9558 67.146C11.9999 67.146 0.264648 55.7785 0.264648 41.8225C0.264648 27.8667 11.9999 16.499 25.9558 16.499C33.6764 16.499 39.1764 19.5284 43.3088 23.477L38.4264 28.3593C35.4632 25.5799 31.4485 23.4181 25.9485 23.4181C15.7573 23.4181 7.78671 31.6314 7.78671 41.8225C7.78671 52.0137 15.7573 60.227 25.9485 60.227C32.5588 60.227 36.3235 57.5725 38.7353 55.1608C40.6912 53.205 41.9779 50.4108 42.4853 46.5947L25.9485 46.602Z" fill="currentColor"/>
</svg>
