<svg width="1327" height="426" viewBox="0 0 1327 726" fill="none" xmlns="http://www.w3.org/2000/svg">
<path d="M629.387 425C628.048 425 626.911 424.596 625.974 423.787C625.171 422.843 624.77 421.697 624.77 420.348V378.281H583.617C582.279 378.281 581.141 377.876 580.204 377.067C579.401 376.124 579 374.978 579 373.629V367.157C579 365.809 579.401 364.73 580.204 363.921C581.141 362.978 582.279 362.506 583.617 362.506H624.77V321.652C624.77 320.303 625.171 319.225 625.974 318.416C626.911 317.472 628.048 317 629.387 317H636.413C637.751 317 638.822 317.472 639.625 318.416C640.561 319.225 641.03 320.303 641.03 321.652V362.506H682.383C683.721 362.506 684.792 362.978 685.595 363.921C686.532 364.73 687 365.809 687 367.157V373.629C687 374.978 686.532 376.124 685.595 377.067C684.792 377.876 683.721 378.281 682.383 378.281H641.03V420.348C641.03 421.697 640.561 422.843 639.625 423.787C638.822 424.596 637.751 425 636.413 425H629.387Z" fill="white"/>
<path fill-rule="evenodd" clip-rule="evenodd" d="M131.747 487.042V506.231H112.846V489.51C112.846 488.147 111.741 487.042 110.38 487.042H104V532.769C104 534.132 105.104 535.238 106.466 535.238H112.846V513.969H131.747V532.769C131.747 534.132 132.851 535.238 134.213 535.238H140.593V489.51C140.593 488.147 139.489 487.042 138.127 487.042H131.747Z" fill="#D7E2F2"/>
<path fill-rule="evenodd" clip-rule="evenodd" d="M168.852 498.404V521.243C168.852 523.318 167.795 525.286 166.001 526.324C160.992 529.221 155.809 525.602 155.809 520.829V500.873C155.809 499.509 154.705 498.404 153.343 498.404H146.938V521.643C146.938 529.12 153.047 535.237 160.515 535.237H164.146C171.613 535.237 177.723 529.12 177.723 521.643V500.873C177.723 499.509 176.619 498.404 175.258 498.404H168.852Z" fill="#D7E2F2"/>
<path fill-rule="evenodd" clip-rule="evenodd" d="M267.239 535.239H273.619V502.897C273.619 501.533 272.514 500.428 271.153 500.428H264.773V532.77C264.773 534.134 265.877 535.239 267.239 535.239Z" fill="#357CE1"/>
<path fill-rule="evenodd" clip-rule="evenodd" d="M269.198 496.922C271.924 496.922 274.135 494.708 274.135 491.979C274.135 489.249 271.924 487.036 269.198 487.036C266.471 487.036 264.262 489.249 264.262 491.979C264.262 494.708 266.471 496.922 269.198 496.922Z" fill="#357CE1"/>
<path fill-rule="evenodd" clip-rule="evenodd" d="M208.85 519.945C208.85 524.339 205.26 527.264 200.872 527.264C196.483 527.264 192.893 524.339 192.893 519.945V513.675C192.893 509.281 196.483 506.356 200.872 506.356C205.26 506.356 208.85 509.281 208.85 513.675V519.945ZM200.872 498.382C191.593 498.382 184.002 505.027 184.002 514.317V519.342C184.002 528.631 191.593 535.237 200.872 535.237C210.15 535.237 217.742 528.631 217.742 519.342V514.317C217.742 505.027 210.15 498.382 200.872 498.382Z" fill="#D7E2F2"/>
<path fill-rule="evenodd" clip-rule="evenodd" d="M249.001 519.945C249.001 524.339 245.411 527.264 241.022 527.264C236.634 527.264 233.043 524.339 233.043 519.945V513.674C233.043 509.28 236.634 506.355 241.022 506.355C245.411 506.355 249.001 509.28 249.001 513.674V519.945ZM241.022 498.382C238.122 498.382 235.388 499.031 232.998 500.207V489.469C232.998 488.105 231.894 487 230.532 487H224.152V519.342C224.152 528.632 231.744 535.237 241.022 535.237C250.301 535.237 257.892 528.632 257.892 519.342V514.317C257.892 505.027 250.301 498.382 241.022 498.382Z" fill="#357CE1"/>
<path fill-rule="evenodd" clip-rule="evenodd" d="M425.378 520.098C425.378 524.447 421.825 527.342 417.481 527.342C413.138 527.342 409.584 524.447 409.584 520.098V513.892C409.584 509.544 413.138 506.649 417.481 506.649C421.825 506.649 425.378 509.544 425.378 513.892V520.098ZM417.482 498.757H417.481C414.612 498.757 411.905 499.399 409.54 500.563V489.478C409.54 488.129 408.447 487.035 407.099 487.035H400.785V519.501C400.785 528.696 408.298 535.233 417.481 535.233H417.482C426.664 535.233 434.177 528.696 434.177 519.501V514.528C434.177 505.334 426.664 498.757 417.482 498.757Z" fill="#D7E2F2"/>
<path fill-rule="evenodd" clip-rule="evenodd" d="M496.26 535.068V529.507C496.26 528.191 495.196 527.125 493.881 527.13C492.551 527.134 490.882 527.139 489.472 527.139C485.877 527.139 486.046 525.34 486.046 520.676V489.453C486.046 488.14 484.982 487.075 483.671 487.075H477.195V521.742C477.195 530.137 479.357 535.068 488.407 535.068C491.904 535.068 494.441 534.969 496.26 535.069L496.26 535.068Z" fill="#D7E2F2"/>
<path fill-rule="evenodd" clip-rule="evenodd" d="M326.729 506.433H309.612V511.103C309.612 512.507 310.749 513.644 312.15 513.644H320.281V517.773C320.281 520.819 319.521 523.067 317.951 524.651C316.024 526.644 313.356 527.697 310.239 527.697C307.43 527.697 304.756 526.723 303.088 525.093C300.768 522.816 300.268 520.345 300.268 511.169C300.268 502.046 300.768 499.586 303.087 497.312C304.798 495.64 308.136 494.375 310.903 494.375C320.26 494.375 323.402 497.7 325.746 500.727H326.053V493.957C326.053 492.956 325.576 492.021 324.795 491.396C320.875 488.254 316.968 487.106 310.239 487.106C304.805 487.106 300.158 488.816 296.429 492.188C291.28 496.844 291.28 502.097 291.281 510.799V511.54C291.28 520.242 291.28 525.494 296.429 530.15C300.106 533.476 304.882 535.233 310.239 535.233C315.866 535.233 320.819 533.336 324.563 529.749L324.564 529.748C327.904 526.536 329.267 520.384 329.267 513.988V508.974C329.267 507.571 328.131 506.433 326.729 506.433Z" fill="#D7E2F2"/>
<path fill-rule="evenodd" clip-rule="evenodd" d="M354.618 535.068V529.507C354.618 528.191 353.553 527.125 352.238 527.13C350.908 527.134 349.24 527.139 347.829 527.139C344.235 527.139 344.403 525.34 344.403 520.676V489.453C344.403 488.14 343.34 487.075 342.029 487.075H335.553V521.742C335.553 530.137 337.714 535.068 346.765 535.068C350.262 535.068 352.798 534.969 354.617 535.069L354.618 535.068Z" fill="#D7E2F2"/>
<path fill-rule="evenodd" clip-rule="evenodd" d="M385.597 520.098C385.597 524.446 382.043 527.341 377.7 527.341C373.357 527.341 369.804 524.446 369.804 520.098V513.892C369.804 509.543 373.357 506.648 377.7 506.648C382.043 506.648 385.597 509.543 385.597 513.892V520.098ZM377.7 498.757C368.517 498.757 361.004 505.334 361.004 514.527V519.501C361.004 528.695 368.517 535.233 377.7 535.233C386.883 535.233 394.396 528.695 394.396 519.501V514.527C394.396 505.334 386.883 498.757 377.7 498.757Z" fill="#D7E2F2"/>
<path fill-rule="evenodd" clip-rule="evenodd" d="M462.107 518.722V527.874C461.424 528.007 460.67 528.112 459.853 528.187C457.85 528.376 456.054 528.41 453.97 528.22C453.155 528.146 452.402 527.938 451.731 527.605C451.084 527.282 450.554 526.824 450.114 526.202C449.696 525.612 449.484 524.741 449.484 523.614C449.484 521.857 450.109 520.599 451.398 519.767C452.768 518.88 454.845 518.43 457.57 518.43C458.305 518.43 459.2 518.472 460.259 518.556C460.951 518.612 461.568 518.667 462.107 518.722ZM466.842 501.857C464.218 499.759 460.383 498.695 455.44 498.695C453.602 498.695 451.671 498.829 449.698 499.093C448.116 499.305 445.877 499.607 444.324 499.966C443.694 500.111 443.579 500.606 443.579 501.2V505.931C443.579 506.774 443.588 507.541 444.479 507.323C446.142 506.918 449.369 506.202 450.245 506.057C451.631 505.829 453.14 505.714 454.73 505.714C457.206 505.714 459.093 506.157 460.341 507.029C461.513 507.851 462.107 509.415 462.107 511.677V511.951C461.666 511.91 461.182 511.871 460.654 511.836C459.667 511.769 458.402 511.736 456.86 511.736C454.754 511.736 452.714 511.974 450.798 512.446C448.852 512.926 447.104 513.668 445.599 514.653C444.069 515.657 442.841 516.931 441.951 518.444C441.052 519.967 440.598 521.751 440.598 523.744C440.598 525.768 440.987 527.53 441.755 528.98C442.529 530.443 443.643 531.664 445.062 532.605C446.459 533.535 448.174 534.215 450.158 534.628C452.086 535.03 454.269 535.233 456.647 535.233C458.378 535.233 470.85 535.057 470.85 529.115C470.85 522.228 470.85 511.936 470.85 511.936C470.85 507.377 469.502 503.986 466.842 501.857Z" fill="#D7E2F2"/>
<path fill-rule="evenodd" clip-rule="evenodd" d="M325.803 263.486C325.803 223.605 306.4 189.308 291.641 178.14C291.58 178.105 290.511 177.503 290.603 179.098L290.582 179.147C289.356 256.149 250.067 277.02 228.467 305.134C178.62 370.013 224.978 441.144 272.184 454.291C298.597 461.647 266.084 441.275 261.897 398.246C256.833 346.238 325.803 306.539 325.803 263.486Z" fill="#D7E2F2"/>
<path fill-rule="evenodd" clip-rule="evenodd" d="M348.452 289.704C348.151 289.498 347.72 289.357 347.423 289.849C346.612 299.542 336.723 320.277 324.188 339.316C281.676 403.897 305.903 435.03 319.525 451.75C327.435 461.457 319.525 451.75 339.295 441.83C340.844 441.053 377.871 420.262 381.88 372.891C385.763 327.019 358.245 298.104 348.452 289.704Z" fill="#357CE1"/>
<path d="M921.967 384.892C923.736 383.125 926.133 382.132 928.633 382.132H1159.28C1163.48 382.132 1165.59 387.213 1162.61 390.183L1117.04 435.722C1115.27 437.489 1112.87 438.482 1110.37 438.482H879.725C875.523 438.482 873.42 433.401 876.392 430.431L921.967 384.892Z" fill="#00FFA3"/>
<path d="M921.967 214.759C923.736 212.993 926.133 212 928.633 212H1159.28C1163.48 212 1165.59 217.081 1162.61 220.051L1117.04 265.59C1115.27 267.357 1112.87 268.349 1110.37 268.349H879.725C875.523 268.349 873.42 263.269 876.392 260.299L921.967 214.759Z" fill="#00FFA3"/>
<path d="M1117.04 299.284C1115.27 297.517 1112.87 296.524 1110.37 296.524H879.725C875.523 296.524 873.42 301.605 876.392 304.575L921.967 350.114C923.736 351.881 926.133 352.874 928.633 352.874H1159.28C1163.48 352.874 1165.59 347.793 1162.61 344.823L1117.04 299.284Z" fill="#00FFA3"/>
<path d="M886.76 528.694H902.547C904.764 528.694 906.562 530.516 906.562 532.764C906.562 535.012 904.764 536.835 902.547 536.835H883.506C883.209 536.835 882.921 536.942 882.695 537.138L876.946 542.125C876.066 542.888 876.598 544.349 877.757 544.349H901.593C901.603 544.349 901.611 544.341 901.611 544.331C901.611 544.321 901.62 544.313 901.63 544.313C901.93 544.337 902.233 544.349 902.539 544.349C908.863 544.349 913.988 539.163 913.988 532.764C913.988 526.688 909.366 521.705 903.486 521.218C903.476 521.217 903.468 521.209 903.468 521.199C903.468 521.188 903.459 521.179 903.448 521.179H886.441C884.224 521.179 882.426 519.357 882.426 517.109C882.426 514.861 884.224 513.038 886.441 513.038H905.456C905.769 513.038 906.071 512.919 906.301 512.704L911.64 507.717C912.475 506.937 911.931 505.523 910.795 505.523H886.76C886.759 505.523 886.758 505.524 886.758 505.525C886.758 505.527 886.757 505.528 886.756 505.528C886.654 505.525 886.552 505.523 886.449 505.523C880.126 505.523 875 510.71 875 517.109C875 523.507 880.126 528.694 886.449 528.694C886.552 528.694 886.654 528.692 886.756 528.69C886.757 528.69 886.758 528.691 886.758 528.692C886.758 528.693 886.759 528.694 886.76 528.694Z" fill="white"/>
<path d="M978.707 505.523C978.017 505.523 977.457 506.089 977.457 506.788V543.085C977.457 543.783 978.017 544.349 978.707 544.349H1007.61C1007.96 544.349 1008.29 544.205 1008.53 543.95L1012.14 540.046C1012.89 539.238 1012.33 537.917 1011.23 537.917H985.993C985.303 537.917 984.743 537.351 984.743 536.653V506.788C984.743 506.089 984.184 505.523 983.494 505.523H978.707Z" fill="white"/>
<path fill-rule="evenodd" clip-rule="evenodd" d="M932.408 505.523C932.406 505.523 932.404 505.525 932.404 505.527C932.404 505.529 932.403 505.53 932.401 505.53C928.706 505.691 925.74 508.683 925.58 512.409C925.58 512.41 925.578 512.412 925.577 512.412C925.576 512.412 925.575 512.412 925.574 512.413C925.573 512.414 925.573 512.414 925.573 512.415V536.831C925.573 536.833 925.575 536.835 925.576 536.835C925.578 536.835 925.58 536.836 925.58 536.838C925.575 536.941 925.573 537.044 925.573 537.148C925.573 541.019 928.602 544.177 932.401 544.343C932.403 544.343 932.404 544.344 932.404 544.346L932.405 544.348L932.406 544.349C932.406 544.349 932.407 544.349 932.408 544.349H958.638C958.639 544.349 958.641 544.348 958.641 544.346L958.642 544.344L958.643 544.343L958.644 544.343C962.443 544.177 965.472 541.019 965.472 537.148C965.472 537.044 965.47 536.941 965.466 536.838C965.466 536.836 965.467 536.835 965.469 536.835C965.471 536.835 965.472 536.833 965.472 536.831V512.415C965.472 512.413 965.471 512.412 965.469 512.412C965.467 512.412 965.465 512.41 965.465 512.409C965.306 508.683 962.339 505.691 958.644 505.53C958.642 505.53 958.641 505.529 958.641 505.527C958.641 505.525 958.639 505.523 958.638 505.523H932.408ZM937.297 512.412L937.295 512.413L937.295 512.414C937.295 512.415 937.294 512.416 937.293 512.416C934.984 512.518 933.13 514.399 933.03 516.743C933.03 516.744 933.029 516.745 933.028 516.745C933.026 516.745 933.025 516.746 933.025 516.747V532.106C933.025 532.107 933.026 532.108 933.027 532.108C933.029 532.108 933.03 532.109 933.03 532.11C933.027 532.174 933.025 532.239 933.025 532.305C933.025 534.74 934.919 536.726 937.293 536.83C937.294 536.83 937.295 536.831 937.295 536.833L937.295 536.834L937.296 536.834L937.297 536.835H953.748L953.749 536.834L953.75 536.834L953.75 536.833C953.75 536.831 953.751 536.83 953.752 536.83C956.127 536.726 958.02 534.74 958.02 532.305C958.02 532.239 958.019 532.174 958.016 532.11L958.016 532.109L958.016 532.109L958.018 532.108C958.019 532.108 958.02 532.107 958.02 532.106V516.747C958.02 516.746 958.019 516.745 958.018 516.745C958.017 516.745 958.016 516.744 958.016 516.743C957.916 514.399 956.062 512.518 953.752 512.416C953.751 512.416 953.75 512.415 953.75 512.414L953.75 512.413L953.749 512.412L953.748 512.412H937.297Z" fill="white"/>
<path fill-rule="evenodd" clip-rule="evenodd" d="M1054.18 543.085C1054.18 543.783 1054.73 544.349 1055.42 544.349H1060.32C1061 544.349 1061.56 543.783 1061.56 543.085V513.041C1061.56 513.04 1061.56 513.038 1061.56 513.038L1061.55 513.038L1061.55 513.037C1061.55 513.037 1061.55 513.036 1061.55 513.035C1061.56 512.932 1061.56 512.829 1061.56 512.725C1061.56 508.854 1058.56 505.696 1054.8 505.53C1054.79 505.53 1054.79 505.529 1054.79 505.527C1054.79 505.525 1054.79 505.523 1054.79 505.523H1029.61C1029.61 505.523 1029.61 505.525 1029.61 505.527C1029.61 505.529 1029.6 505.53 1029.6 505.53C1029.5 505.526 1029.4 505.523 1029.3 505.523C1025.39 505.523 1022.22 508.748 1022.22 512.725C1022.22 512.829 1022.23 512.932 1022.23 513.035C1022.23 513.037 1022.23 513.038 1022.23 513.038C1022.23 513.038 1022.22 513.04 1022.22 513.041V543.085C1022.22 543.783 1022.78 544.349 1023.46 544.349H1028.37C1029.05 544.349 1029.61 543.783 1029.61 543.085V530.584C1029.61 529.886 1030.16 529.32 1030.84 529.32H1052.94C1053.62 529.32 1054.18 529.886 1054.18 530.584V543.085ZM1029.61 522.42V516.169C1029.61 513.748 1031.53 511.786 1033.91 511.786H1049.87C1052.25 511.786 1054.18 513.748 1054.18 516.169V522.42C1054.18 523.118 1053.62 523.684 1052.94 523.684H1030.84C1030.16 523.684 1029.61 523.118 1029.61 522.42Z" fill="white"/>
<path fill-rule="evenodd" clip-rule="evenodd" d="M1157.66 544.349C1156.97 544.349 1156.41 543.783 1156.41 543.085V530.584C1156.41 529.886 1155.85 529.32 1155.16 529.32H1132.82C1132.13 529.32 1131.57 529.886 1131.57 530.584V543.085C1131.57 543.783 1131.01 544.349 1130.32 544.349H1125.37C1124.68 544.349 1124.12 543.783 1124.12 543.085V513.041L1124.12 513.041L1124.12 513.039C1124.12 513.039 1124.12 513.038 1124.12 513.038C1124.12 513.038 1124.13 513.037 1124.13 513.035C1124.12 512.932 1124.12 512.829 1124.12 512.725C1124.12 508.748 1127.32 505.523 1131.26 505.523C1131.36 505.523 1131.47 505.526 1131.57 505.53C1131.57 505.53 1131.57 505.529 1131.57 505.527C1131.57 505.525 1131.57 505.523 1131.58 505.523L1157.03 505.523C1157.03 505.523 1157.03 505.525 1157.03 505.527C1157.03 505.529 1157.04 505.53 1157.04 505.53C1160.84 505.696 1163.87 508.854 1163.87 512.725C1163.87 512.829 1163.86 512.932 1163.86 513.035C1163.86 513.037 1163.86 513.038 1163.86 513.038C1163.86 513.038 1163.86 513.039 1163.86 513.039C1163.86 513.04 1163.87 513.041 1163.87 513.041V543.085C1163.87 543.783 1163.3 544.349 1162.61 544.349H1157.66ZM1131.57 516.169V522.42C1131.57 523.118 1132.13 523.684 1132.82 523.684H1155.16C1155.85 523.684 1156.41 523.118 1156.41 522.42V516.169C1156.41 513.748 1154.47 511.786 1152.07 511.786H1135.92C1133.52 511.786 1131.57 513.748 1131.57 516.169Z" fill="white"/>
<path d="M1080.01 505.523C1080.38 505.523 1080.72 505.686 1080.96 505.967L1102.94 532.341C1103.69 533.235 1105.13 532.696 1105.13 531.521V506.788C1105.13 506.089 1105.68 505.523 1106.36 505.523H1111.27C1111.95 505.523 1112.51 506.089 1112.51 506.788V543.085C1112.51 543.783 1111.95 544.349 1111.27 544.349H1105.17C1105.15 544.349 1105.13 544.328 1105.13 544.302C1105.13 544.291 1105.12 544.28 1105.11 544.271L1082.76 518.081C1082 517.202 1080.58 517.745 1080.58 518.913V543.085C1080.58 543.783 1080.03 544.349 1079.35 544.349H1074.41C1073.73 544.349 1073.17 543.783 1073.17 543.085V506.788C1073.17 506.089 1073.73 505.523 1074.41 505.523H1080.01Z" fill="white"/>
</svg>
