<svg width="200" height="100" viewBox="0 0 200 100" fill="currentColor" xmlns="http://www.w3.org/2000/svg">
<path d="M68.6716 42.4163V66.9044H60.8303V36.1241L77.0189 36.14C83.8949 36.14 86.2372 40.9603 86.2372 45.3388V66.9044H78.4099V45.3791C78.4099 43.5449 77.455 42.4164 75.1513 42.4164H68.6716V42.4163ZM121.992 42.0486C119.312 42.0486 117.238 43.4183 116.371 45.2778C115.858 46.3942 115.681 47.2498 115.621 48.6166H127.685C127.53 45.2778 126.007 42.0486 121.992 42.0486ZM115.621 53.922C115.621 57.9091 118.114 60.8437 122.566 60.8437C126.029 60.8437 127.751 59.8897 129.753 57.9091L134.597 62.5063C131.496 65.5497 128.241 67.3978 122.508 67.3978C115.002 67.3978 107.818 63.329 107.818 51.4705C107.818 41.3383 114.09 35.6024 122.332 35.6024C130.686 35.6024 135.512 42.3178 135.512 51.1141V53.922H115.621ZM101.199 66.8659C94.811 66.8659 92.1006 62.4452 92.1006 58.079V27.7378H99.9298V36.1241H105.832V42.4163H99.9298V57.5912C99.9298 59.3793 100.779 60.3719 102.647 60.3719H105.832V66.8659H101.199ZM53.8533 31.8703H45.9581V24.4147H53.8533V31.8703ZM53.8732 67.228C47.9608 66.6632 45.9496 63.0981 45.9496 58.9844L45.9583 36.1241H53.8733V67.228H53.8732ZM147.973 66.5703C142.073 66.0046 140.071 62.4452 140.071 58.3369V23.3537H147.973V66.5703ZM175.597 28.4095C168.436 -6.29792 100.664 -8.49511 56.9808 17.9415V20.8602C100.62 -1.43448 162.51 -1.30314 168.149 30.6639C170.035 41.2342 164.044 52.2549 153.343 58.5893V66.8771C166.223 62.1929 179.432 47.003 175.597 28.4095ZM96.1908 89.1342C66.0425 91.9046 34.6259 87.5542 30.23 64.1349C28.0784 52.5898 33.3689 40.3513 40.3874 32.7495V28.6844C27.7528 39.6985 20.8957 53.6424 24.8433 70.1185C29.8818 91.2459 56.845 103.219 97.9999 99.2429C114.283 97.663 135.595 92.4581 150.411 84.3739V72.889C136.967 80.8473 114.72 87.4286 96.1908 89.1342Z" fill="currentColor"/>
</svg>
