<svg width="316" height="100" viewBox="0 0 316 100" fill="none" xmlns="http://www.w3.org/2000/svg">
<path d="M80.073 21.4297H57.6409V51.5551H87.8754V29.204C87.973 24.9281 84.4619 21.4297 80.073 21.4297C80.1705 21.4297 80.1705 21.4297 80.073 21.4297Z" fill="black"/>
<path d="M50.7162 21.4297H46.8149C42.5236 21.4297 39.0125 24.9281 39.0125 29.204V33.0911H50.7162V21.4297Z" fill="black"/>
<path d="M39.0125 39.9912H50.7162V51.6526H39.0125V39.9912Z" fill="black"/>
<path d="M76.3668 70.213H80.268C84.5594 70.213 88.0705 66.7146 88.0705 62.4387V58.746H76.3668V70.213ZM57.7384 58.6488H69.3445V70.3102H57.7384V58.6488ZM39.0125 58.6488V62.5359C39.0125 66.8118 42.5236 70.3102 46.8149 70.3102H50.7162V58.6488H39.0125ZM117.817 24.5391H113.233V67.2005H137.519V63.119H117.817V24.5391ZM152.246 35.8118C143.37 35.8118 137.031 42.4199 137.031 51.9435V53.0124C137.324 61.3698 144.151 67.9779 152.538 67.9779H153.124C157.317 67.9779 161.316 66.5203 164.535 63.7992V63.7021L162.487 60.3008L162.291 60.398C159.853 62.7303 156.635 63.9936 153.221 63.9936C146.979 64.0908 141.81 59.2319 141.615 53.0124V52.4293H164.73V52.1378V49.9999C165.022 41.351 159.951 35.8118 152.246 35.8118V35.8118ZM141.908 48.5422C142.493 43.4889 146.882 39.6018 152.051 39.6018C155.952 39.6018 160.146 41.934 160.536 48.5422H141.908ZM191.648 39.4074V40.9623C189.698 37.7554 186.187 35.7146 182.383 35.7146H181.798C173.605 35.7146 167.948 42.2256 167.948 51.6519C167.948 61.0782 173.41 67.7836 181.408 67.7836C185.601 67.9779 189.503 65.84 191.648 62.2444V66.909H195.94V24.5391H191.551V39.4074H191.648ZM182.188 63.7992C176.531 63.7992 172.825 58.9403 172.825 51.7491C172.825 44.5579 176.824 39.8933 182.383 39.8933C186.967 39.8933 191.648 43.5861 191.648 51.7491C191.648 60.5924 186.772 63.7992 182.188 63.7992V63.7992ZM222.468 39.9905V40.282C221.59 38.8243 218.957 35.7146 212.617 35.7146C204.522 35.7146 199.256 41.8369 199.256 51.166C199.256 60.4952 204.815 66.909 213.007 66.909C216.811 67.2005 220.517 65.2569 222.566 62.05V66.2287C222.566 72.1566 218.859 75.4607 212.227 75.4607C209.399 75.4607 206.57 74.7804 203.937 73.5171L203.742 73.4199L202.084 77.1127L202.377 77.2099C205.498 78.7648 208.911 79.6394 212.325 79.6394C219.445 79.6394 227.052 76.0438 227.052 66.0344V36.6864H222.566V39.9905H222.468ZM213.593 63.119C207.643 63.119 203.742 58.5516 203.742 51.4576C203.742 44.3635 207.156 40.1848 212.91 40.1848C219.249 40.1848 222.273 43.8776 222.273 51.4576C222.273 59.0375 219.347 63.119 213.593 63.119ZM245.193 35.8118C236.22 35.8118 230.075 42.4199 230.075 51.7491V52.8181C230.368 61.2726 237.293 67.9779 245.778 67.9779H246.363C250.557 67.9779 254.556 66.4231 257.677 63.7992L255.628 60.2036H255.336C252.898 62.5359 249.679 63.7992 246.266 63.7992C240.024 63.8964 234.854 59.0375 234.659 52.7209V52.1378H257.969V51.8463V49.7083C258.067 41.351 252.995 35.8118 245.193 35.8118V35.8118ZM234.854 48.5422C235.44 43.4889 239.828 39.6018 244.998 39.6018C248.801 39.6018 253.093 41.934 253.385 48.5422H234.854ZM276.89 36.3949C276.305 36.3949 275.817 36.3949 275.232 36.1033C270.843 36.2005 267.04 39.0187 265.674 43.1974V36.3949H261.188V67.1033H265.772V54.1786C265.772 52.235 266.064 50.1942 266.747 48.3478C268.21 43.6833 271.428 40.6707 275.33 40.6707C275.817 40.5735 276.305 40.5735 276.793 40.6707H277.085V36.3949H276.89V36.3949Z" fill="black"/>
</svg>
