<svg width="200" height="100" viewBox="0 0 200 100" fill="currentColor" xmlns="http://www.w3.org/2000/svg">
<path d="M70.6076 53.1785L69.4153 56.5566H69.3161C69.1173 55.7949 68.753 54.6357 68.1569 53.2448L61.7651 37.1825H55.5059V62.7827H59.6456V46.9855C59.6456 45.9919 59.6456 44.8659 59.6125 43.475C59.5793 42.7794 59.5131 42.2495 59.4799 41.8521H59.5793C59.778 42.8457 60.0098 43.5742 60.1754 44.0379L67.8588 62.7165H70.7732L78.3903 43.8723C78.556 43.4418 78.7216 42.5808 78.8872 41.8521H78.9865C78.8872 43.7399 78.821 45.4288 78.7878 46.4556V62.6834H83.1925V37.1162H77.165L70.6076 53.1785ZM87.3654 44.336H91.6708V62.6834H87.3654V44.336ZM89.5512 36.5864C88.8226 36.5864 88.2265 36.8513 87.7296 37.315C87.2329 37.7786 86.968 38.3747 86.968 39.1033C86.968 39.7988 87.2329 40.395 87.7296 40.8586C88.2265 41.3222 88.8226 41.554 89.5512 41.554C90.2797 41.554 90.909 41.2891 91.3727 40.8586C91.8694 40.395 92.1344 39.7988 92.1344 39.1033C92.1344 38.4079 91.8694 37.8117 91.3727 37.315C90.9421 36.8513 90.3129 36.5864 89.5512 36.5864ZM106.938 44.1704C106.144 44.0049 105.315 43.9055 104.52 43.9055C102.566 43.9055 100.778 44.336 99.2879 45.1971C97.7976 46.0581 96.6054 47.2504 95.8436 48.7407C95.0488 50.2641 94.6514 52.0193 94.6514 54.0395C94.6514 55.7949 95.0488 57.3514 95.8105 58.7755C96.5722 60.1664 97.632 61.2924 99.0561 62.0541C100.414 62.8159 102.004 63.2133 103.792 63.2133C105.845 63.2133 107.601 62.7827 108.992 61.9879L109.024 61.9548V57.9807L108.859 58.1131C108.23 58.5768 107.501 58.9741 106.772 59.206C106.011 59.471 105.315 59.6034 104.719 59.6034C102.997 59.6034 101.639 59.1067 100.679 58.0137C99.6853 56.9539 99.1885 55.4968 99.1885 53.6753C99.1885 51.7875 99.6853 50.2972 100.712 49.2043C101.739 48.1115 103.097 47.5484 104.752 47.5484C106.144 47.5484 107.567 48.0121 108.859 48.9394L109.024 49.0719V44.8659L108.992 44.8327C108.429 44.601 107.799 44.336 106.938 44.1704ZM121.146 44.0379C120.086 44.0379 119.093 44.3691 118.232 45.0645C117.503 45.6607 117.006 46.5218 116.575 47.5484H116.543V44.336H112.237V62.6834H116.543V53.311C116.543 51.7213 116.873 50.3966 117.602 49.4362C118.331 48.4426 119.258 47.9459 120.384 47.9459C120.782 47.9459 121.179 48.0452 121.675 48.1115C122.14 48.2439 122.47 48.3764 122.702 48.542L122.868 48.6744V44.3691L122.768 44.336C122.47 44.1373 121.874 44.0379 121.146 44.0379ZM132.869 43.9385C129.856 43.9385 127.439 44.8327 125.749 46.588C124.027 48.3432 123.199 50.7609 123.199 53.8077C123.199 56.6559 124.06 58.9741 125.716 60.6632C127.372 62.3191 129.624 63.1802 132.439 63.1802C135.387 63.1802 137.738 62.286 139.426 60.4976C141.149 58.7092 141.977 56.3247 141.977 53.3772C141.977 50.4628 141.183 48.1445 139.559 46.4556C138.003 44.7665 135.717 43.9385 132.869 43.9385ZM136.314 58.0469C135.519 59.0735 134.26 59.5703 132.704 59.5703C131.148 59.5703 129.889 59.0735 128.995 57.9807C128.101 56.9539 127.67 55.4636 127.67 53.576C127.67 51.622 128.134 50.1317 128.995 49.0719C129.889 48.0121 131.114 47.4822 132.671 47.4822C134.194 47.4822 135.387 47.9789 136.248 49.0057C137.109 50.0323 137.572 51.5226 137.572 53.4766C137.506 55.4636 137.142 57.0202 136.314 58.0469ZM151.582 51.9531C150.223 51.3902 149.362 50.9596 148.965 50.5953C148.634 50.2641 148.468 49.8005 148.468 49.2043C148.468 48.7076 148.667 48.2108 149.163 47.8796C149.66 47.5484 150.223 47.3828 151.051 47.3828C151.78 47.3828 152.542 47.5154 153.27 47.714C153.999 47.9127 154.661 48.2108 155.191 48.6082L155.357 48.7407V44.7003L155.257 44.6672C154.76 44.4684 154.098 44.2697 153.303 44.1041C152.508 43.9717 151.78 43.9055 151.184 43.9055C149.131 43.9055 147.442 44.4022 146.117 45.4952C144.792 46.5218 144.163 47.9127 144.163 49.5356C144.163 50.3966 144.295 51.1583 144.594 51.7875C144.892 52.4168 145.322 53.0129 145.918 53.5096C146.514 53.9733 147.375 54.5032 148.567 55C149.561 55.4306 150.322 55.7617 150.787 56.0267C151.25 56.2916 151.548 56.5896 151.78 56.8215C151.946 57.0865 152.045 57.4176 152.045 57.8481C152.045 59.0735 151.117 59.6696 149.23 59.6696C148.501 59.6696 147.74 59.5372 146.846 59.2391C145.951 58.9411 145.123 58.5106 144.427 58.0137L144.262 57.8813V62.0873L144.361 62.1204C144.991 62.4184 145.753 62.6172 146.68 62.8489C147.607 63.0145 148.435 63.147 149.163 63.147C151.383 63.147 153.204 62.6503 154.496 61.5574C155.82 60.4976 156.516 59.1397 156.516 57.3845C156.516 56.1591 156.185 55.0663 155.456 54.2383C154.496 53.4434 153.303 52.6155 151.582 51.9531ZM167.875 43.9385C164.861 43.9385 162.444 44.8327 160.755 46.588C159.066 48.3432 158.205 50.7609 158.205 53.8077C158.205 56.6559 159.066 58.9741 160.722 60.6632C162.377 62.3191 164.63 63.1802 167.445 63.1802C170.393 63.1802 172.744 62.286 174.433 60.4976C176.155 58.7092 176.983 56.3247 176.983 53.3772C176.983 50.4628 176.188 48.1445 174.565 46.4556C173.009 44.7665 170.723 43.9385 167.875 43.9385ZM171.287 58.0469C170.492 59.0735 169.234 59.5703 167.676 59.5703C166.087 59.5703 164.861 59.0735 163.967 57.9807C163.073 56.9539 162.643 55.4636 162.643 53.576C162.643 51.622 163.106 50.1317 163.967 49.0719C164.861 48.0121 166.087 47.4822 167.644 47.4822C169.134 47.4822 170.359 47.9789 171.22 49.0057C172.082 50.0323 172.545 51.5226 172.545 53.4766C172.545 55.4636 172.114 57.0202 171.287 58.0469ZM200 47.8796V44.336H195.661V38.9046L195.529 38.9377L191.422 40.1631L191.323 40.1962V44.336H184.832V42.0177C184.832 40.9579 185.097 40.13 185.56 39.6001C186.024 39.0703 186.719 38.8053 187.581 38.8053C188.176 38.8053 188.806 38.9377 189.502 39.2358L189.667 39.3352V35.5928L189.567 35.5597C188.971 35.361 188.176 35.2285 187.15 35.2285C185.858 35.2285 184.733 35.5266 183.706 36.0234C182.68 36.5864 181.917 37.3481 181.354 38.3747C180.792 39.3683 180.494 40.4942 180.494 41.7859V44.336H177.48V47.8465H180.494V62.6834H184.832V47.8796H191.323V57.3182C191.323 61.1931 193.145 63.147 196.788 63.147C197.384 63.147 198.013 63.0477 198.609 62.9483C199.238 62.8159 199.702 62.6503 199.967 62.5178L200 62.4846V58.9411L199.835 59.0735C199.569 59.2391 199.338 59.3716 198.94 59.471C198.609 59.5703 198.311 59.6034 198.08 59.6034C197.218 59.6034 196.621 59.4048 196.192 58.9079C195.794 58.4442 195.595 57.6826 195.595 56.5566V47.8796H200Z" fill="currentColor"/>
<path d="M0 28.5713H20.3013V48.8726H0V28.5713Z" fill="currentColor"/>
<path d="M22.4209 28.5713H42.7222V48.8726H22.4209V28.5713Z" fill="currentColor"/>
<path d="M0 50.9922H20.3013V71.2936H0V50.9922Z" fill="currentColor"/>
<path d="M22.4209 50.9922H42.7222V71.2936H22.4209V50.9922Z" fill="currentColor"/>
</svg>
