<?xml version="1.0" encoding="utf-8"?>
<!-- Generator: Adobe Illustrator 24.0.2, SVG Export Plug-In . SVG Version: 6.00 Build 0)  -->
<svg version="1.1" id="Layer_1" xmlns="http://www.w3.org/2000/svg" xmlns:xlink="http://www.w3.org/1999/xlink" x="0px" y="0px"
	 viewBox="0 0 150 50" style="enable-background:new 0 0 150 50;" xml:space="preserve" fill="currentColor">
<title>multicoinsite</title>
<path d="M14,17.8v12.6h-1.6v-9.3l0.1-2.1l-0.6,2.1l-3.6,9.3H6.8l-3.6-9.3l-0.6-2l0.1,2v9.3H1.1V17.8h2.3l3.8,10l0.4,1.2L8,27.7
	l3.8-10H14z"/>
<path d="M25.2,30.4h-1.7V28c-0.6,1.7-1.9,2.6-3.5,2.6c-2.4,0-3.5-1.6-3.5-4v-5.9h1.7v5.4c0,1.8,0.6,3.1,2.5,3.1
	c1.6,0,2.8-1.3,2.8-3.8v-4.7h1.7V30.4z"/>
<path d="M29.7,30.4H28V16.6h1.7V30.4z"/>
<path d="M38.1,30.2c-0.5,0.2-1.1,0.3-1.6,0.3c-2,0-2.8-1-2.8-3.1v-5.3h-2.2v-1.4h2.2v-2.6l1.6-0.9v3.5h2.8v1.4h-2.8v5.1
	c0,1.4,0.5,1.9,1.5,1.9c0.4,0,0.9-0.1,1.3-0.3L38.1,30.2z"/>
<path d="M41,16.9c0.6,0,1.1,0.4,1.2,1c0,0,0,0.1,0,0.1c0,0.6-0.5,1.2-1.2,1.2c-0.6,0-1.2-0.5-1.2-1.2c0-0.6,0.4-1.1,1-1.2
	C40.9,16.9,41,16.9,41,16.9z M41.9,30.4h-1.7v-9.7h1.7V30.4z"/>
<path d="M51.7,24.5c-0.3-1.5-1.1-2.6-2.8-2.6c-2.1,0-3.2,1.5-3.2,3.6s1,3.6,3.1,3.6c1.7,0,2.5-0.9,2.9-2.5l1.7,0.4
	c-0.5,2-2,3.6-4.6,3.6c-3.2,0-4.8-2.2-4.8-5s1.8-5,4.9-5c2.7,0,4,1.5,4.5,3.6L51.7,24.5z"/>
<path d="M55,25.5c0-2.8,1.8-5,4.9-5s4.8,2.2,4.8,5s-1.8,5-4.9,5C56.7,30.6,55,28.4,55,25.5z M63.1,25.5c0-2.1-1.1-3.6-3.2-3.6
	c-2.1,0-3.2,1.5-3.2,3.6s1,3.6,3.2,3.6S63.1,27.6,63.1,25.5z"/>
<path d="M67.8,16.9c0.6,0,1.1,0.4,1.2,1c0,0,0,0.1,0,0.1c0,0.6-0.5,1.2-1.2,1.2c-0.6,0-1.2-0.5-1.2-1.2c0-0.6,0.4-1.1,1-1.2
	C67.7,16.9,67.8,16.9,67.8,16.9z M68.6,30.4H67v-9.7h1.7V30.4z"/>
<path d="M71.4,20.7H73v2.5c0.6-1.8,1.9-2.7,3.6-2.7c2.4,0,3.6,1.7,3.6,4.1v5.8h-1.7V25c0-1.8-0.7-3.1-2.6-3.1
	c-1.7,0-2.9,1.3-2.9,3.8v4.6h-1.7V20.7z"/>
<path d="M97,22.7c-0.5-2.1-1.6-3.5-4-3.5c-2.8,0-4.4,2.2-4.4,4.9s1.3,4.9,4.3,4.9c2.6,0,3.8-1.6,4.2-3.8l1.7,0.3
	c-0.6,2.9-2.4,5-5.9,5c-4.2,0-6-3-6-6.5s2.2-6.5,6.1-6.5c3.3,0,5,1.9,5.7,4.6L97,22.7z"/>
<path d="M100.2,28.2c0-0.9,0.5-1.8,1.3-2.2c0.7-0.4,1.6-0.7,3-0.9c1.8-0.4,2.7-0.7,2.7-1.6c0-0.8-0.6-1.6-2.2-1.6
	c-1.6,0-2.5,0.7-3,2.1l-1.5-0.5c0.8-1.9,2.4-3,4.6-3c2.4,0,3.8,1.2,3.8,3.3v4c0,1.1,0.4,1.4,1.1,1.4c0.2,0,0.5,0,0.7-0.1v1.2
	c-0.4,0.2-0.8,0.3-1.2,0.3c-1.4,0-2.1-0.7-2.1-2.3v-0.5c-0.6,1.7-2.2,2.9-4,2.8C101.2,30.6,100.2,29.6,100.2,28.2z M107.2,25.6v-0.8
	c-0.3,0.5-1.1,0.8-2.6,1.1c-1.8,0.4-2.8,0.8-2.8,2c0,0.8,0.6,1.4,1.9,1.4C105.7,29.2,107.3,27.6,107.2,25.6z"/>
<path d="M117.2,30.5c-1.6,0.1-3-0.9-3.6-2.3v5.9H112V20.7h1.7v2.2c0.6-1.5,2.1-2.4,3.7-2.4c2.2,0,4.2,1.6,4.2,4.9
	C121.5,28.7,119.6,30.5,117.2,30.5z M119.8,25.5c0-2.3-1.2-3.6-3.1-3.6c-2.1,0-3.2,1.6-3.2,3.6s1.1,3.6,3.3,3.6
	C118.7,29.1,119.8,27.7,119.8,25.5z"/>
<path d="M124.6,16.9c0.6,0,1.1,0.4,1.2,1c0,0,0,0.1,0,0.1c0,0.6-0.5,1.2-1.2,1.2c-0.6,0-1.2-0.5-1.2-1.2c0-0.6,0.4-1.1,1-1.2
	C124.5,16.9,124.6,16.9,124.6,16.9z M125.4,30.4h-1.7v-9.7h1.7V30.4z"/>
<path d="M133.9,30.2c-0.5,0.2-1.1,0.3-1.6,0.3c-2,0-2.8-1-2.8-3.1v-5.3h-2.2v-1.4h2.2v-2.6l1.6-0.9v3.5h2.8v1.4h-2.8v5.1
	c0,1.4,0.5,1.9,1.5,1.9c0.4,0,0.9-0.1,1.3-0.3V30.2z"/>
<path d="M135.4,28.2c0-0.9,0.5-1.8,1.3-2.2c0.7-0.4,1.6-0.7,3-0.9c1.8-0.4,2.7-0.7,2.7-1.6c0-0.8-0.6-1.6-2.2-1.6
	c-1.6,0-2.5,0.7-3,2.1l-1.5-0.5c0.8-1.9,2.4-3,4.6-3c2.4,0,3.8,1.2,3.8,3.3v4c0,1.1,0.4,1.4,1.1,1.4c0.2,0,0.5,0,0.7-0.1v1.2
	c-0.4,0.2-0.8,0.3-1.2,0.3c-1.4,0-2.1-0.7-2.1-2.3v-0.5c-0.6,1.7-2.2,2.9-4,2.8C136.4,30.6,135.4,29.6,135.4,28.2z M142.4,25.6v-0.8
	c-0.3,0.5-1.1,0.8-2.6,1.1c-1.8,0.4-2.8,0.8-2.8,2c0,0.8,0.6,1.4,1.9,1.4C141,29.2,142.5,27.6,142.4,25.6z"/>
<path d="M148.9,30.4h-1.7V16.6h1.7V30.4z"/>
</svg>
