<svg width="1437" height="377" viewBox="0 0 1437 777" fill="none" xmlns="http://www.w3.org/2000/svg">
<g clip-path="url(#clip0)">
<g filter="url(#filter0_d)">
<path d="M738.604 463.038C737.154 463.038 735.921 462.599 734.906 461.723C734.036 460.7 733.601 459.458 733.601 457.997V412.409H689.004C687.553 412.409 686.321 411.971 685.305 411.094C684.435 410.071 684 408.829 684 407.368V400.355C684 398.893 684.435 397.724 685.305 396.848C686.321 395.825 687.553 395.314 689.004 395.314H733.601V351.041C733.601 349.58 734.036 348.411 734.906 347.534C735.921 346.511 737.154 346 738.604 346H746.219C747.669 346 748.829 346.511 749.699 347.534C750.715 348.411 751.222 349.58 751.222 351.041V395.314H796.037C797.487 395.314 798.648 395.825 799.518 396.848C800.533 397.724 801.041 398.893 801.041 400.355V407.368C801.041 408.829 800.533 410.071 799.518 411.094C798.648 411.971 797.487 412.409 796.037 412.409H751.222V457.997C751.222 459.458 750.715 460.7 749.699 461.723C748.829 462.599 747.669 463.038 746.219 463.038H738.604Z" fill="black"/>
</g>
<g filter="url(#filter1_d)">
<path fill-rule="evenodd" clip-rule="evenodd" d="M1027.21 530.574C1027.21 529.613 1027.99 528.834 1028.94 528.834H1035.56C1036.51 528.834 1037.28 529.613 1037.28 530.574V571.67C1037.28 572.631 1038.06 573.41 1039.01 573.41H1078.09C1079.6 573.41 1080.38 575.228 1079.35 576.339L1074.35 581.712C1074.02 582.062 1073.57 582.261 1073.09 582.261H1037.28H1028.94C1027.99 582.261 1027.21 581.483 1027.21 580.522V530.574Z" fill="#232323"/>
<path fill-rule="evenodd" clip-rule="evenodd" d="M921.699 560.72H899.732C899.731 560.72 899.73 560.718 899.73 560.717C899.73 560.715 899.728 560.714 899.727 560.714C899.585 560.718 899.442 560.72 899.299 560.72C890.501 560.72 883.368 553.582 883.368 544.778C883.368 535.973 890.501 528.836 899.299 528.836C899.442 528.836 899.585 528.838 899.727 528.842C899.728 528.842 899.73 528.84 899.73 528.839C899.73 528.837 899.731 528.836 899.732 528.836H933.175C934.755 528.836 935.513 530.781 934.351 531.855L926.922 538.716C926.602 539.012 926.182 539.177 925.747 539.177H899.289C896.203 539.177 893.702 541.684 893.702 544.778C893.702 547.871 896.203 550.379 899.289 550.379H922.953C922.968 550.379 922.98 550.391 922.98 550.406C922.98 550.42 922.991 550.432 923.004 550.433C931.187 551.102 937.619 557.96 937.619 566.321C937.619 575.125 930.486 582.263 921.688 582.263C921.262 582.263 920.84 582.246 920.423 582.213C920.409 582.212 920.396 582.224 920.396 582.238C920.396 582.252 920.385 582.263 920.372 582.263H887.204C885.593 582.263 884.852 580.252 886.076 579.202L894.076 572.34C894.39 572.07 894.79 571.922 895.204 571.922H906.768H921.699C924.784 571.922 927.285 569.414 927.285 566.321C927.285 563.228 924.784 560.72 921.699 560.72Z" fill="#232323"/>
<path fill-rule="evenodd" clip-rule="evenodd" d="M964.35 528.834C964.348 528.834 964.345 528.837 964.345 528.839C964.345 528.842 964.343 528.844 964.341 528.844C959.221 529.065 955.111 533.182 954.889 538.309C954.889 538.311 954.887 538.313 954.885 538.313C954.882 538.313 954.88 538.316 954.88 538.318V571.916C954.88 571.919 954.882 571.921 954.884 571.921C954.887 571.921 954.889 571.923 954.889 571.925C954.883 572.067 954.88 572.209 954.88 572.352C954.88 577.679 959.077 582.024 964.341 582.252C964.343 582.252 964.345 582.254 964.345 582.257C964.345 582.259 964.348 582.261 964.35 582.261H1000.48C1000.48 582.261 1000.49 582.259 1000.49 582.257C1000.49 582.254 1000.49 582.252 1000.49 582.252C1005.75 582.024 1009.95 577.679 1009.95 572.352C1009.95 572.209 1009.95 572.067 1009.94 571.925C1009.94 571.923 1009.95 571.921 1009.95 571.921C1009.95 571.921 1009.95 571.919 1009.95 571.916V538.318C1009.95 538.316 1009.95 538.313 1009.95 538.313C1009.94 538.313 1009.94 538.311 1009.94 538.309C1009.72 533.182 1005.61 529.065 1000.49 528.844C1000.49 528.844 1000.49 528.842 1000.49 528.839C1000.49 528.837 1000.48 528.834 1000.48 528.834H964.35ZM971.125 538.313C971.123 538.313 971.122 538.315 971.122 538.316C971.122 538.318 971.121 538.319 971.119 538.319C967.919 538.459 965.35 541.048 965.212 544.273C965.212 544.275 965.21 544.276 965.209 544.276C965.207 544.276 965.206 544.277 965.206 544.279V565.413C965.206 565.415 965.207 565.416 965.209 565.416C965.21 565.416 965.212 565.417 965.212 565.419C965.208 565.508 965.206 565.597 965.206 565.687C965.206 569.038 967.829 571.771 971.119 571.915C971.121 571.915 971.122 571.916 971.122 571.918C971.122 571.919 971.123 571.921 971.125 571.921H993.707C993.709 571.921 993.71 571.919 993.71 571.918C993.71 571.916 993.711 571.915 993.713 571.915C997.003 571.771 999.626 569.038 999.626 565.687C999.626 565.597 999.624 565.508 999.62 565.419C999.62 565.417 999.622 565.416 999.623 565.416C999.625 565.416 999.626 565.415 999.626 565.413V544.279C999.626 544.277 999.625 544.276 999.623 544.276C999.622 544.276 999.62 544.275 999.62 544.273C999.482 541.048 996.913 538.459 993.713 538.319C993.711 538.319 993.71 538.318 993.71 538.316C993.71 538.315 993.709 538.313 993.707 538.313H971.125Z" fill="#232323"/>
<path fill-rule="evenodd" clip-rule="evenodd" d="M1109.21 543.484V552.085C1109.21 553.046 1109.99 553.824 1110.96 553.824H1142.38C1143.35 553.824 1144.14 553.046 1144.14 552.085V543.484C1144.14 540.152 1141.4 537.452 1138.03 537.452H1115.32C1111.94 537.452 1109.21 540.152 1109.21 543.484ZM1145.9 582.261C1144.93 582.261 1144.14 581.483 1144.14 580.522V563.319C1144.14 562.359 1143.35 561.58 1142.38 561.58H1110.96C1109.99 561.58 1109.21 562.359 1109.21 563.319V580.522C1109.21 581.483 1108.42 582.261 1107.45 582.261H1100.48C1099.51 582.261 1098.73 581.483 1098.73 580.522V539.18C1098.73 539.177 1098.73 539.175 1098.73 539.175C1098.73 539.175 1098.73 539.173 1098.73 539.17C1098.73 539.029 1098.73 538.887 1098.73 538.744C1098.73 533.271 1103.22 528.834 1108.77 528.834C1108.91 528.834 1109.06 528.837 1109.2 528.843C1109.2 528.844 1109.21 528.842 1109.21 528.839C1109.21 528.836 1109.21 528.834 1109.21 528.834H1145.01C1145.01 528.834 1145.01 528.837 1145.01 528.839C1145.01 528.842 1145.01 528.844 1145.02 528.844C1150.36 529.072 1154.62 533.417 1154.62 538.744C1154.62 538.887 1154.62 539.029 1154.61 539.17C1154.61 539.173 1154.61 539.175 1154.61 539.175C1154.62 539.175 1154.62 539.177 1154.62 539.18V580.522C1154.62 581.483 1153.83 582.261 1152.86 582.261H1145.9Z" fill="#232323"/>
<path fill-rule="evenodd" clip-rule="evenodd" d="M1254.54 543.484V552.085C1254.54 553.046 1255.32 553.824 1256.27 553.824H1287.23C1288.18 553.824 1288.96 553.046 1288.96 552.085V543.484C1288.96 540.152 1286.26 537.452 1282.94 537.452H1260.56C1257.24 537.452 1254.54 540.152 1254.54 543.484ZM1290.69 582.261C1289.74 582.261 1288.96 581.483 1288.96 580.522V563.319C1288.96 562.359 1288.18 561.58 1287.23 561.58H1256.27C1255.32 561.58 1254.54 562.359 1254.54 563.319V580.522C1254.54 581.483 1253.76 582.261 1252.81 582.261H1245.95C1244.99 582.261 1244.21 581.483 1244.21 580.522V539.18C1244.21 539.177 1244.22 539.175 1244.22 539.175C1244.22 539.175 1244.22 539.173 1244.22 539.17C1244.22 539.029 1244.21 538.887 1244.21 538.744C1244.21 533.271 1248.65 528.834 1254.11 528.834C1254.25 528.834 1254.4 528.837 1254.54 528.843C1254.54 528.844 1254.54 528.842 1254.54 528.839C1254.54 528.836 1254.54 528.834 1254.55 528.834H1289.82C1289.82 528.834 1289.82 528.837 1289.82 528.839C1289.82 528.842 1289.82 528.844 1289.83 528.844C1295.09 529.072 1299.29 533.417 1299.29 538.744C1299.29 538.887 1299.28 539.029 1299.28 539.17C1299.28 539.173 1299.28 539.175 1299.28 539.175C1299.29 539.175 1299.29 539.177 1299.29 539.18V580.522C1299.29 581.483 1298.51 582.261 1297.55 582.261H1290.69Z" fill="#232323"/>
<path fill-rule="evenodd" clip-rule="evenodd" d="M1182.07 529.445C1181.73 529.058 1181.24 528.834 1180.73 528.834H1172.82C1171.85 528.834 1171.06 529.613 1171.06 530.574V580.522C1171.06 581.483 1171.85 582.261 1172.82 582.261H1179.78C1180.75 582.261 1181.54 581.483 1181.54 580.522V547.259C1181.54 545.652 1183.56 544.904 1184.62 546.115L1216.46 582.154C1216.47 582.166 1216.47 582.181 1216.47 582.196C1216.47 582.232 1216.5 582.261 1216.54 582.261H1216.55H1225.19C1226.17 582.261 1226.95 581.483 1226.95 580.522V530.574C1226.95 529.613 1226.17 528.834 1225.19 528.834H1218.23C1217.26 528.834 1216.47 529.613 1216.47 530.574V564.609C1216.47 566.226 1214.44 566.968 1213.37 565.737L1182.07 529.445Z" fill="#232323"/>
<path d="M1185.21 283.567C1183.46 285.331 1181.1 286.321 1178.64 286.321H946.097C937.878 286.321 933.715 276.299 939.461 270.346L977.605 230.829C979.351 229.02 981.744 228 984.241 228H1217.65C1225.92 228 1230.06 238.127 1224.22 244.05L1185.21 283.567Z" fill="#1DD79B"/>
<path d="M1185.21 460.059C1183.46 461.778 1181.1 462.744 1178.64 462.744H946.097C937.878 462.744 933.715 452.972 939.461 447.168L977.605 408.638C979.351 406.875 981.744 405.88 984.241 405.88H1217.65C1225.92 405.88 1230.06 415.754 1224.22 421.529L1185.21 460.059Z" fill="#1DD79B"/>
<path d="M1185.21 319.625C1183.46 317.906 1181.1 316.94 1178.64 316.94L946.097 316.94C937.878 316.94 933.715 326.712 939.461 332.516L977.605 371.046C979.351 372.81 981.744 373.804 984.241 373.804L1217.65 373.804C1225.92 373.804 1230.06 363.93 1224.22 358.155L1185.21 319.625Z" fill="#1DD79B"/>
</g>
<g filter="url(#filter2_d)">
<path d="M555.163 543H343.318C307.458 543 284.839 504.451 302.493 473.062L406.761 290.781C425.518 257.74 472.963 257.74 491.72 290.781L595.988 473.062C613.641 503.901 591.023 543 555.163 543V543Z" fill="#008477"/>
<path opacity="0.95" d="M417.796 543H205.95C170.091 543 147.472 504.451 165.126 473.062L269.393 290.781C288.151 257.74 335.595 257.74 354.352 290.781L458.62 473.062C483.446 512.712 505.513 543 551.302 543" fill="url(#paint0_linear)"/>
</g>
</g>
<defs>
<filter id="filter0_d" x="434" y="96" width="617.041" height="617.038" filterUnits="userSpaceOnUse" color-interpolation-filters="sRGB">
<feFlood flood-opacity="0" result="BackgroundImageFix"/>
<feColorMatrix in="SourceAlpha" type="matrix" values="0 0 0 0 0 0 0 0 0 0 0 0 0 0 0 0 0 0 127 0"/>
<feOffset/>
<feGaussianBlur stdDeviation="125"/>
<feColorMatrix type="matrix" values="0 0 0 0 0 0 0 0 0 0 0 0 0 0 0 0 0 0 0.4 0"/>
<feBlend mode="normal" in2="BackgroundImageFix" result="effect1_dropShadow"/>
<feBlend mode="normal" in="SourceGraphic" in2="effect1_dropShadow" result="shape"/>
</filter>
<filter id="filter1_d" x="633.368" y="-22" width="915.919" height="854.263" filterUnits="userSpaceOnUse" color-interpolation-filters="sRGB">
<feFlood flood-opacity="0" result="BackgroundImageFix"/>
<feColorMatrix in="SourceAlpha" type="matrix" values="0 0 0 0 0 0 0 0 0 0 0 0 0 0 0 0 0 0 127 0"/>
<feOffset/>
<feGaussianBlur stdDeviation="125"/>
<feColorMatrix type="matrix" values="0 0 0 0 0 0 0 0 0 0 0 0 0 0 0 0 0 0 0.4 0"/>
<feBlend mode="normal" in2="BackgroundImageFix" result="effect1_dropShadow"/>
<feBlend mode="normal" in="SourceGraphic" in2="effect1_dropShadow" result="shape"/>
</filter>
<filter id="filter2_d" x="-91" y="16" width="943.113" height="777" filterUnits="userSpaceOnUse" color-interpolation-filters="sRGB">
<feFlood flood-opacity="0" result="BackgroundImageFix"/>
<feColorMatrix in="SourceAlpha" type="matrix" values="0 0 0 0 0 0 0 0 0 0 0 0 0 0 0 0 0 0 127 0"/>
<feOffset/>
<feGaussianBlur stdDeviation="125"/>
<feColorMatrix type="matrix" values="0 0 0 0 0 0 0 0 0 0 0 0 0 0 0 0 0 0 0.4 0"/>
<feBlend mode="normal" in2="BackgroundImageFix" result="effect1_dropShadow"/>
<feBlend mode="normal" in="SourceGraphic" in2="effect1_dropShadow" result="shape"/>
</filter>
<linearGradient id="paint0_linear" x1="338.309" y1="404.445" x2="570.374" y2="404.445" gradientUnits="userSpaceOnUse">
<stop stop-color="#67F9A5"/>
<stop offset="1" stop-color="#029176"/>
</linearGradient>
<clipPath id="clip0">
<rect width="1437" height="777" fill="white"/>
</clipPath>
</defs>
</svg>
