<svg width="1327" height="326" viewBox="0 0 1327 726" fill="none" xmlns="http://www.w3.org/2000/svg">
<path d="M649.387 425C648.048 425 646.911 424.596 645.974 423.787C645.171 422.843 644.77 421.697 644.77 420.348V378.281H603.617C602.279 378.281 601.141 377.876 600.204 377.067C599.401 376.124 599 374.978 599 373.629V367.157C599 365.809 599.401 364.73 600.204 363.921C601.141 362.978 602.279 362.506 603.617 362.506H644.77V321.652C644.77 320.303 645.171 319.225 645.974 318.416C646.911 317.472 648.048 317 649.387 317H656.413C657.751 317 658.822 317.472 659.625 318.416C660.561 319.225 661.03 320.303 661.03 321.652V362.506H702.383C703.721 362.506 704.792 362.978 705.595 363.921C706.532 364.73 707 365.809 707 367.157V373.629C707 374.978 706.532 376.124 705.595 377.067C704.792 377.876 703.721 378.281 702.383 378.281H661.03V420.348C661.03 421.697 660.561 422.843 659.625 423.787C658.822 424.596 657.751 425 656.413 425H649.387Z" fill="white"/>
<path d="M231.386 507.545C231.386 513.925 230.399 519.945 228.334 525.516C226.27 531.177 223.398 536.029 219.538 540.252C215.678 544.475 211.011 547.8 205.356 550.316C199.702 552.832 193.329 554 186.148 554C178.967 554 172.595 552.742 166.94 550.316C161.285 547.8 156.618 544.475 152.758 540.252C148.899 536.029 145.937 531.087 143.962 525.516C141.987 519.855 141 513.925 141 507.545C141 501.255 141.987 495.235 143.962 489.574C145.937 483.913 148.899 478.971 152.758 474.748C156.618 470.525 161.375 467.2 166.94 464.684C172.595 462.168 178.967 461 186.148 461C193.329 461 199.702 462.258 205.356 464.684C211.011 467.2 215.678 470.525 219.538 474.748C223.398 478.971 226.27 483.913 228.334 489.574C230.399 495.235 231.386 501.255 231.386 507.545ZM186.238 539.264C190.636 539.264 194.496 538.455 197.727 536.838C201.048 535.22 203.741 532.974 205.985 530.188C208.229 527.313 209.844 523.988 210.921 520.125C211.998 516.261 212.537 512.038 212.537 507.545C212.537 503.052 211.998 498.829 210.921 494.965C209.844 491.101 208.229 487.777 205.985 484.901C203.741 482.026 201.048 479.87 197.727 478.252C194.406 476.635 190.636 475.826 186.238 475.826C181.84 475.826 177.98 476.635 174.749 478.252C171.428 479.87 168.735 482.116 166.491 484.901C164.247 487.777 162.632 491.101 161.555 494.965C160.477 498.829 159.939 503.052 159.939 507.545C159.939 512.038 160.477 516.261 161.555 520.125C162.632 523.988 164.247 527.313 166.491 530.188C168.735 533.064 171.428 535.22 174.749 536.838C177.98 538.455 181.84 539.264 186.238 539.264ZM243.234 552.472V462.617H262.083V505.748L293.229 462.617H315.04L282.009 507.006L317.284 552.472H293.947L261.993 508.354V552.472H243.234ZM324.824 462.617H378.768V477.623H343.763V499.368H377.153V514.284H343.763V537.467H379.217V552.472H324.914V462.617H324.824ZM445.997 462.617H466.461L436.931 507.275L467 552.472H446.356L426.968 521.832L407.58 552.472H386.936L417.005 507.275L387.475 462.617H407.939L426.968 492.988L445.997 462.617Z" fill="white"/>
<path d="M304.359 300.367C335.113 300.367 360.043 275.437 360.043 244.684C360.043 213.93 335.113 189 304.359 189C273.606 189 248.676 213.93 248.676 244.684C248.676 275.437 273.606 300.367 304.359 300.367Z" fill="#88BDF3"/>
<path d="M304.359 434.936C335.113 434.936 360.043 410.006 360.043 379.252C360.043 348.499 335.113 323.569 304.359 323.569C273.606 323.569 248.676 348.499 248.676 379.252C248.676 410.006 273.606 434.936 304.359 434.936Z" fill="#3075EE"/>
<path d="M371.644 367.652C402.397 367.652 427.327 342.722 427.327 311.968C427.327 281.215 402.397 256.285 371.644 256.285C340.89 256.285 315.96 281.215 315.96 311.968C315.96 342.722 340.89 367.652 371.644 367.652Z" fill="#5795F1"/>
<path d="M237.075 367.652C267.828 367.652 292.758 342.722 292.758 311.968C292.758 281.215 267.828 256.285 237.075 256.285C206.322 256.285 181.391 281.215 181.391 311.968C181.391 342.722 206.322 367.652 237.075 367.652Z" fill="#205FEC"/>
<path fill-rule="evenodd" clip-rule="evenodd" d="M291.193 298.801C271.015 293.91 255.133 278.027 250.241 257.85C270.419 262.742 286.301 278.624 291.193 298.801Z" fill="#134BEF"/>
<path fill-rule="evenodd" clip-rule="evenodd" d="M250.241 366.086C255.133 345.909 271.015 330.027 291.193 325.135C286.301 345.312 270.419 361.194 250.241 366.086Z" fill="#0932E8"/>
<path fill-rule="evenodd" clip-rule="evenodd" d="M317.526 325.135C337.703 330.027 353.586 345.909 358.477 366.086C338.3 361.194 322.418 345.312 317.526 325.135Z" fill="#164BEA"/>
<path fill-rule="evenodd" clip-rule="evenodd" d="M358.477 257.85C353.586 278.027 337.703 293.91 317.526 298.801C322.418 278.624 338.3 262.742 358.477 257.85Z" fill="#3170F1"/>
<path d="M888.664 384.892C890.432 383.125 892.83 382.132 895.329 382.132H1125.98C1130.18 382.132 1132.28 387.213 1129.31 390.183L1083.73 435.722C1081.97 437.489 1079.57 438.482 1077.07 438.482H846.421C842.219 438.482 840.116 433.401 843.088 430.431L888.664 384.892Z" fill="#00FFA3"/>
<path d="M888.664 214.759C890.432 212.993 892.83 212 895.329 212H1125.98C1130.18 212 1132.28 217.081 1129.31 220.051L1083.73 265.59C1081.97 267.357 1079.57 268.349 1077.07 268.349H846.421C842.219 268.349 840.116 263.269 843.088 260.299L888.664 214.759Z" fill="#00FFA3"/>
<path d="M1083.73 299.284C1081.97 297.517 1079.57 296.524 1077.07 296.524H846.421C842.219 296.524 840.116 301.605 843.088 304.575L888.664 350.114C890.432 351.881 892.83 352.874 895.329 352.874H1125.98C1130.18 352.874 1132.28 347.793 1129.31 344.823L1083.73 299.284Z" fill="#00FFA3"/>
<path d="M853.457 528.694H869.243C871.461 528.694 873.258 530.516 873.258 532.764C873.258 535.012 871.461 536.835 869.243 536.835H850.202C849.905 536.835 849.617 536.942 849.392 537.138L843.642 542.125C842.762 542.888 843.295 544.349 844.453 544.349H868.29C868.299 544.349 868.307 544.341 868.307 544.331C868.307 544.321 868.316 544.313 868.327 544.313C868.627 544.337 868.93 544.349 869.236 544.349C875.559 544.349 880.685 539.163 880.685 532.764C880.685 526.688 876.062 521.705 870.182 521.218C870.172 521.217 870.164 521.209 870.164 521.199C870.164 521.188 870.155 521.179 870.145 521.179H853.138C850.92 521.179 849.123 519.357 849.123 517.109C849.123 514.861 850.92 513.038 853.138 513.038H872.153C872.466 513.038 872.767 512.919 872.998 512.704L878.336 507.717C879.171 506.937 878.627 505.523 877.491 505.523H853.457C853.456 505.523 853.455 505.524 853.455 505.525C853.455 505.527 853.454 505.528 853.453 505.528C853.351 505.525 853.248 505.523 853.145 505.523C846.822 505.523 841.696 510.71 841.696 517.109C841.696 523.507 846.822 528.694 853.145 528.694C853.248 528.694 853.351 528.692 853.453 528.69C853.454 528.69 853.455 528.691 853.455 528.692C853.455 528.693 853.456 528.694 853.457 528.694Z" fill="white"/>
<path d="M945.403 505.523C944.713 505.523 944.154 506.089 944.154 506.788V543.085C944.154 543.783 944.713 544.349 945.403 544.349H974.31C974.656 544.349 974.986 544.205 975.222 543.95L978.84 540.046C979.588 539.238 979.023 537.917 977.929 537.917H952.689C951.999 537.917 951.44 537.351 951.44 536.653V506.788C951.44 506.089 950.88 505.523 950.19 505.523H945.403Z" fill="white"/>
<path fill-rule="evenodd" clip-rule="evenodd" d="M899.104 505.523C899.102 505.523 899.101 505.525 899.101 505.527C899.101 505.529 899.099 505.53 899.097 505.53C895.403 505.691 892.436 508.683 892.276 512.409C892.276 512.41 892.275 512.412 892.273 512.412C892.272 512.412 892.271 512.412 892.27 512.413C892.27 512.414 892.269 512.414 892.269 512.415V536.831C892.269 536.833 892.271 536.835 892.273 536.835C892.275 536.835 892.276 536.836 892.276 536.838C892.272 536.941 892.269 537.044 892.269 537.148C892.269 541.019 895.299 544.177 899.097 544.343C899.099 544.343 899.101 544.344 899.101 544.346L899.101 544.348L899.102 544.349C899.102 544.349 899.103 544.349 899.104 544.349H925.334C925.336 544.349 925.337 544.348 925.337 544.346L925.338 544.344L925.339 544.343L925.34 544.343C929.139 544.177 932.168 541.019 932.168 537.148C932.168 537.044 932.166 536.941 932.162 536.838C932.162 536.836 932.163 536.835 932.165 536.835C932.167 536.835 932.168 536.833 932.168 536.831V512.415C932.168 512.413 932.167 512.412 932.165 512.412C932.163 512.412 932.162 512.41 932.162 512.409C932.002 508.683 929.035 505.691 925.34 505.53C925.339 505.53 925.337 505.529 925.337 505.527C925.337 505.525 925.336 505.523 925.334 505.523H899.104ZM903.993 512.412L903.992 512.413L903.991 512.414C903.991 512.415 903.99 512.416 903.989 512.416C901.68 512.518 899.826 514.399 899.726 516.743C899.726 516.744 899.725 516.745 899.724 516.745C899.723 516.745 899.722 516.746 899.722 516.747V532.106C899.722 532.107 899.723 532.108 899.724 532.108C899.725 532.108 899.726 532.109 899.726 532.11C899.723 532.174 899.722 532.239 899.722 532.305C899.722 534.74 901.615 536.726 903.989 536.83C903.99 536.83 903.991 536.831 903.991 536.833L903.992 536.834L903.992 536.834L903.993 536.835H920.445L920.446 536.834L920.446 536.834L920.447 536.833C920.447 536.831 920.448 536.83 920.449 536.83C922.823 536.726 924.716 534.74 924.716 532.305C924.716 532.239 924.715 532.174 924.712 532.11L924.712 532.109L924.712 532.109L924.714 532.108C924.715 532.108 924.716 532.107 924.716 532.106V516.747C924.716 516.746 924.715 516.745 924.714 516.745C924.713 516.745 924.712 516.744 924.712 516.743C924.612 514.399 922.758 512.518 920.449 512.416C920.448 512.416 920.447 512.415 920.447 512.414L920.446 512.413L920.446 512.412L920.445 512.412H903.993Z" fill="white"/>
<path fill-rule="evenodd" clip-rule="evenodd" d="M1020.87 543.085C1020.87 543.783 1021.43 544.349 1022.11 544.349H1027.02C1027.7 544.349 1028.26 543.783 1028.26 543.085V513.041C1028.26 513.04 1028.25 513.038 1028.25 513.038L1028.25 513.038L1028.25 513.037C1028.25 513.037 1028.25 513.036 1028.25 513.035C1028.25 512.932 1028.26 512.829 1028.26 512.725C1028.26 508.854 1025.26 505.696 1021.49 505.53C1021.49 505.53 1021.49 505.529 1021.49 505.527C1021.49 505.525 1021.49 505.523 1021.49 505.523H996.305C996.303 505.523 996.302 505.525 996.302 505.527C996.302 505.529 996.3 505.53 996.298 505.53C996.197 505.526 996.096 505.523 995.994 505.523C992.087 505.523 988.92 508.748 988.92 512.725C988.92 512.829 988.923 512.932 988.927 513.035C988.927 513.037 988.925 513.038 988.924 513.038C988.922 513.038 988.92 513.04 988.92 513.041V543.085C988.92 543.783 989.475 544.349 990.16 544.349H995.062C995.747 544.349 996.302 543.783 996.302 543.085V530.584C996.302 529.886 996.857 529.32 997.541 529.32H1019.64C1020.32 529.32 1020.87 529.886 1020.87 530.584V543.085ZM996.302 522.42V516.169C996.302 513.748 998.229 511.786 1000.61 511.786H1016.57C1018.95 511.786 1020.87 513.748 1020.87 516.169V522.42C1020.87 523.118 1020.32 523.684 1019.64 523.684H997.541C996.857 523.684 996.302 523.118 996.302 522.42Z" fill="white"/>
<path fill-rule="evenodd" clip-rule="evenodd" d="M1124.36 544.349C1123.67 544.349 1123.11 543.783 1123.11 543.085V530.584C1123.11 529.886 1122.55 529.32 1121.86 529.32H1099.52C1098.83 529.32 1098.27 529.886 1098.27 530.584V543.085C1098.27 543.783 1097.71 544.349 1097.02 544.349H1092.07C1091.38 544.349 1090.82 543.783 1090.82 543.085V513.041L1090.82 513.041L1090.82 513.039C1090.82 513.039 1090.82 513.038 1090.82 513.038C1090.82 513.038 1090.82 513.037 1090.82 513.035C1090.82 512.932 1090.82 512.829 1090.82 512.725C1090.82 508.748 1094.01 505.523 1097.96 505.523C1098.06 505.523 1098.16 505.526 1098.26 505.53C1098.27 505.53 1098.27 505.529 1098.27 505.527C1098.27 505.525 1098.27 505.523 1098.27 505.523L1123.73 505.523C1123.73 505.523 1123.73 505.525 1123.73 505.527C1123.73 505.529 1123.73 505.53 1123.73 505.53C1127.53 505.696 1130.56 508.854 1130.56 512.725C1130.56 512.829 1130.56 512.932 1130.55 513.035C1130.55 513.037 1130.56 513.038 1130.56 513.038C1130.56 513.038 1130.56 513.039 1130.56 513.039C1130.56 513.04 1130.56 513.041 1130.56 513.041V543.085C1130.56 543.783 1130 544.349 1129.31 544.349H1124.36ZM1098.27 516.169V522.42C1098.27 523.118 1098.83 523.684 1099.52 523.684H1121.86C1122.55 523.684 1123.11 523.118 1123.11 522.42V516.169C1123.11 513.748 1121.16 511.786 1118.76 511.786H1102.62C1100.21 511.786 1098.27 513.748 1098.27 516.169Z" fill="white"/>
<path d="M1046.71 505.523C1047.07 505.523 1047.42 505.686 1047.65 505.967L1069.64 532.341C1070.39 533.235 1071.82 532.696 1071.82 531.521V506.788C1071.82 506.089 1072.38 505.523 1073.06 505.523H1077.96C1078.65 505.523 1079.2 506.089 1079.2 506.788V543.085C1079.2 543.783 1078.65 544.349 1077.96 544.349H1071.87C1071.84 544.349 1071.82 544.328 1071.82 544.302C1071.82 544.291 1071.82 544.28 1071.81 544.271L1049.45 518.081C1048.7 517.202 1047.28 517.745 1047.28 518.913V543.085C1047.28 543.783 1046.73 544.349 1046.04 544.349H1041.11C1040.42 544.349 1039.87 543.783 1039.87 543.085V506.788C1039.87 506.089 1040.42 505.523 1041.11 505.523H1046.71Z" fill="white"/>
</svg>
