<svg width="153" height="36" viewBox="0 0 153 36" fill="none" xmlns="http://www.w3.org/2000/svg">
<path d="M53.8438 9.11084C48.9056 9.11084 44.897 13.1251 44.897 18.0701C44.897 23.0152 48.9056 27.0294 53.8438 27.0294C58.782 27.0294 62.7907 23.0152 62.7907 18.0701C62.7907 13.1251 58.782 9.11084 53.8438 9.11084ZM53.8438 23.213C51.0087 23.213 48.7081 20.9092 48.7081 18.0701C48.7081 15.2311 51.0087 12.9273 53.8438 12.9273C56.6789 12.9273 58.9795 15.2311 58.9795 18.0701C58.9795 20.9092 56.6789 23.213 53.8438 23.213Z" fill="currentColor"></path>
<path d="M110.035 26.6571H112.37C112.498 26.6571 112.602 26.5523 112.602 26.4244V9.71588C112.602 9.58789 112.498 9.48317 112.37 9.48317H109.012C108.884 9.48317 108.78 9.58789 108.78 9.71588V11.1005C107.467 9.78569 105.55 9.11084 103.644 9.11084C98.7058 9.11084 94.6971 13.1251 94.6971 18.0701C94.6971 23.0152 98.7058 27.0294 103.644 27.0294C105.55 27.0294 107.467 26.3545 108.78 25.0397L109.849 26.564C109.884 26.6222 109.965 26.6571 110.035 26.6571ZM103.644 23.213C100.809 23.213 98.5083 20.9092 98.5083 18.0701C98.5083 15.2311 100.809 12.9273 103.644 12.9273C106.479 12.9273 108.78 15.2311 108.78 18.0701C108.78 20.9092 106.479 23.213 103.644 23.213Z" fill="currentColor"></path>
<path d="M68.8908 26.4243V16.7436C68.8908 14.5096 70.715 12.6247 72.9575 12.6596C75.1303 12.6945 76.8848 14.4747 76.8848 16.6621V26.4243C76.8848 26.5523 76.9894 26.657 77.1172 26.657H80.5449C80.6727 26.657 80.7773 26.5523 80.7773 26.4243V16.7436C80.7773 14.5096 82.6015 12.6247 84.844 12.6596C87.0168 12.6945 88.7713 14.4747 88.7713 16.6621V26.4243C88.7713 26.5523 88.8759 26.657 89.0037 26.657H92.3733C92.5011 26.657 92.6057 26.5523 92.6057 26.4243V15.6266C92.6057 12.0312 89.666 9.11076 86.0757 9.11076H86.0641C83.7634 9.11076 81.3699 10.3092 80.115 12.0662L79.8594 12.4152L79.6154 12.0545C78.4069 10.2161 76.3736 9.09912 74.1775 9.09912C72.2952 9.09912 70.4942 9.92524 69.3323 11.2633L69.0534 11.5775L67.6475 9.56454C67.601 9.50636 67.5313 9.45982 67.4616 9.45982H65.2307C65.1029 9.45982 64.9983 9.56454 64.9983 9.69253V26.401C64.9983 26.529 65.1029 26.6337 65.2307 26.6337H68.6467C68.7862 26.657 68.8908 26.5639 68.8908 26.4243Z" fill="currentColor"></path>
<path d="M130.159 26.6573H132.495C132.623 26.6573 132.727 26.5526 132.727 26.4246V2.56035C132.727 2.43236 132.623 2.32764 132.495 2.32764H129.137C129.009 2.32764 128.904 2.43236 128.904 2.56035V11.1007C127.591 9.78594 125.674 9.11109 123.769 9.11109C118.83 9.11109 114.822 13.1253 114.822 18.0704C114.822 23.0154 118.83 27.0296 123.769 27.0296C125.674 27.0296 127.591 26.3548 128.904 25.04L129.973 26.5642C130.02 26.6224 130.09 26.6573 130.159 26.6573ZM123.78 23.2132C120.945 23.2132 118.645 20.9094 118.645 18.0704C118.645 15.2313 120.945 12.9275 123.78 12.9275C126.615 12.9275 128.916 15.2313 128.916 18.0704C128.916 20.9094 126.615 23.2132 123.78 23.2132Z" fill="currentColor"></path>
<path d="M150.295 26.6571H152.631C152.759 26.6571 152.863 26.5523 152.863 26.4244V9.71588C152.863 9.58789 152.759 9.48317 152.631 9.48317H149.273C149.145 9.48317 149.041 9.58789 149.041 9.71588V11.1005C147.728 9.78569 145.81 9.11084 143.905 9.11084C138.967 9.11084 134.958 13.1251 134.958 18.0701C134.958 23.0152 138.967 27.0294 143.905 27.0294C145.81 27.0294 147.728 26.3545 149.041 25.0397L150.11 26.564C150.144 26.6222 150.214 26.6571 150.295 26.6571ZM143.905 23.213C141.07 23.213 138.769 20.9092 138.769 18.0701C138.769 15.2311 141.07 12.9273 143.905 12.9273C146.74 12.9273 149.041 15.2311 149.041 18.0701C149.041 20.9092 146.74 23.213 143.905 23.213Z" fill="currentColor"></path>
<path d="M24.993 25.179L14.4659 35.7207C14.4078 35.7789 14.3265 35.8022 14.2568 35.7905C12.9438 35.5229 11.6541 35.104 10.4224 34.5455C10.2714 34.4757 10.2365 34.2895 10.3527 34.1732L22.1579 22.34C24.505 19.9896 24.505 16.1616 22.1579 13.8112C19.8108 11.4608 15.9881 11.4608 13.641 13.8112L1.83577 25.6328C1.71958 25.7491 1.52205 25.7142 1.46396 25.563C0.906231 24.3296 0.487936 23.0381 0.220693 21.7233C0.209073 21.6418 0.232312 21.572 0.290408 21.5139L10.8059 10.9722C14.7216 7.05102 21.0773 7.05102 24.993 10.9722C28.8971 14.8817 28.8971 21.2579 24.993 25.179ZM30.6632 5.28244C23.6219 -1.76863 12.1653 -1.76863 5.12403 5.28244C2.21921 8.20293 0.511175 11.8681 -7.37847e-05 15.6612C-0.0233124 15.8241 0.174215 15.9289 0.302028 15.8125L7.97076 8.13312C13.4434 2.65283 22.3554 2.65283 27.8281 8.13312C33.3008 13.6134 33.3008 22.5378 27.8281 28.0181L20.1594 35.6974C20.0432 35.8138 20.1361 36.0116 20.3104 36C24.0983 35.488 27.7584 33.7776 30.6632 30.8687C37.7045 23.806 37.7045 12.3335 30.6632 5.28244ZM19.3112 19.4893C20.0897 18.7097 20.0897 17.4298 19.3112 16.6502C18.5327 15.8707 17.2546 15.8707 16.4761 16.6502C16.4761 16.6502 7.12255 26.0168 3.93886 29.2049C3.85753 29.2863 3.84591 29.4259 3.92724 29.519C4.29906 29.9844 4.70574 30.4266 5.13565 30.8571C5.56556 31.2876 6.0071 31.6948 6.47187 32.0672C6.56482 32.1486 6.70425 32.137 6.78559 32.0555C9.95765 28.8674 19.3112 19.4893 19.3112 19.4893Z" fill="currentColor"></path>
</svg>