<svg width="200" height="100" viewBox="0 0 200 100" fill="currentColor" xmlns="http://www.w3.org/2000/svg">
<g clip-path="url(#clip0)">
<path d="M53.9816 42.1641C54.5176 42.1641 54.977 42.5981 54.977 43.1596V62.1761C54.977 62.7121 54.4921 63.1461 53.9816 63.1461H51.4038C50.9188 63.1461 50.4338 62.7633 50.4338 62.2272V60.466C49.1322 62.3803 46.8862 63.7077 43.6191 63.7077C38.1572 63.7077 34.7881 60.083 34.7881 54.6971V43.1086C34.7881 42.5726 35.2731 42.1386 35.7836 42.1386H38.3614C38.8974 42.1386 39.3312 42.5726 39.3312 43.1086V53.9569C39.3312 57.4539 41.169 59.7768 44.7933 59.7768C48.341 59.7768 50.4338 57.3773 50.4338 54.0079V43.1086C50.4338 42.5726 50.9188 42.1386 51.4038 42.1386H53.9816V42.1641ZM15.952 31.6221C7.12098 31.6221 0 38.4884 0 47.6521C0 56.8413 7.12098 63.6822 15.952 63.6822C17.4578 63.6822 18.9128 63.478 20.2909 63.095L22.0265 67.562C22.2052 68.047 22.5625 68.3533 23.2006 68.3533H25.9571C26.6208 68.3533 27.1056 67.9194 26.7994 67.077L24.5533 61.2317C28.9689 58.4494 31.904 53.5229 31.904 47.6266C31.904 38.4884 24.783 31.6221 15.952 31.6221ZM22.8944 56.9689L20.8779 51.7362C20.6993 51.3023 20.3421 50.8939 19.5763 50.8939H16.9475C16.2838 50.8939 15.7733 51.3278 16.0797 52.1701L18.7341 59.0364C17.8663 59.2662 16.9219 59.3683 15.952 59.3683C9.49464 59.3683 4.90045 54.2888 4.90045 47.6521C4.90045 41.0155 9.49464 35.9359 15.952 35.9359C22.4094 35.9359 27.0036 41.0155 27.0036 47.6521C27.0036 51.532 25.4467 54.8503 22.8944 56.9689ZM199.923 62.0741C200.154 62.6101 199.872 63.1206 199.235 63.1206H196.35C195.814 63.1206 195.381 62.8653 195.201 62.3293L189.867 47.9839L184.456 62.3293C184.227 62.8908 183.843 63.1206 183.308 63.1206H180.73C180.194 63.1206 179.811 62.8908 179.582 62.3293L174.119 47.9074L168.734 62.3293C168.504 62.8653 168.121 63.1206 167.586 63.1206H164.88C164.344 63.1206 163.961 62.8653 163.732 62.3293L158.397 47.9074L152.884 62.3293C152.654 62.8908 152.271 63.1206 151.735 63.1206H149.158C148.622 63.1206 148.239 62.8908 148.009 62.3293L142.624 47.9074L137.238 62.3293C137.059 62.8653 136.626 63.1206 136.09 63.1206H133.282C132.618 63.1206 132.363 62.5846 132.594 62.0741L139.893 42.9809C140.122 42.4194 140.505 42.1386 141.041 42.1386H144.181C144.717 42.1386 145.099 42.3938 145.33 42.9809L150.587 56.9179L155.793 42.9809C156.024 42.4194 156.406 42.1386 156.943 42.1386H160.03C160.566 42.1386 160.949 42.3938 161.179 42.9809L166.335 56.9179L171.491 42.9809C171.72 42.4194 172.103 42.1386 172.639 42.1386H175.752C176.289 42.1386 176.671 42.3938 176.902 42.9809L182.134 56.9179L187.238 42.9809C187.468 42.4194 187.851 42.1386 188.387 42.1386H191.526C192.063 42.1386 192.445 42.3938 192.675 42.9809L199.923 62.0741ZM78.9689 42.1641H76.391C75.855 42.1641 75.3956 42.5981 75.3956 43.1596V44.8954C74.0939 42.9299 71.5416 41.526 68.5298 41.526C62.8382 41.526 57.9632 46.0185 57.9632 52.5785C57.9632 59.2152 62.8637 63.6822 68.5043 63.6822C71.5671 63.6822 74.0428 62.2782 75.4211 60.3128V62.1506C75.4211 62.6866 75.9061 63.1206 76.4165 63.1206H78.9944C79.5304 63.1206 79.9642 62.6866 79.9642 62.1506V43.1596C79.9387 42.5981 79.5049 42.1641 78.9689 42.1641ZM69.0148 59.4959C65.2629 59.4959 62.5829 56.4329 62.5829 52.6295C62.5829 48.7753 65.2374 45.8143 69.0148 45.8143C72.7412 45.8143 75.4466 48.7753 75.4466 52.6295C75.4211 56.4584 72.7157 59.4959 69.0148 59.4959ZM109.724 60.1596C110.285 60.8488 109.801 61.3849 109.495 61.6146C107.708 62.9674 105.334 63.7077 102.757 63.7077C96.2481 63.7077 91.9091 58.9344 91.9091 52.6552C91.9091 46.3758 96.2481 41.5515 102.757 41.5515C105.334 41.5515 107.682 42.2917 109.495 43.6446C109.801 43.8743 110.235 44.3337 109.724 45.0996L108.499 46.8097C108.014 47.4734 107.453 47.2947 106.968 46.9884C105.819 46.2993 104.467 45.7121 102.91 45.7121C99.1067 45.7121 96.5799 48.7753 96.5799 52.6552C96.5799 56.5349 99.1067 59.5726 102.91 59.5726C104.492 59.5726 105.743 58.9599 106.891 58.2962C107.376 58.041 107.887 57.8113 108.423 58.526L109.724 60.1596ZM121.874 41.577C115.748 41.577 110.872 46.3758 110.872 52.6295C110.872 58.9344 115.773 63.6822 121.874 63.6822C127.999 63.6822 132.874 58.9089 132.874 52.6295C132.899 46.4013 127.999 41.577 121.874 41.577ZM121.874 59.4704C118.121 59.4704 115.441 56.4584 115.441 52.6552C115.441 48.8008 118.096 45.8398 121.874 45.8398C125.625 45.8398 128.305 48.8008 128.305 52.6552C128.305 56.4584 125.651 59.4704 121.874 59.4704ZM88.0041 32.1836C88.5656 32.1836 88.9739 32.6686 88.9739 33.1791V62.1251C88.9739 62.6611 88.5911 63.1206 88.0041 63.1206H85.4263C84.8903 63.1206 84.4308 62.6356 84.4308 62.1251V33.2047C84.4308 32.6686 84.9158 32.2092 85.4263 32.2092H88.0041" fill="currentColor"/>
</g>
<defs>
<clipPath id="clip0">
<rect width="200" height="100" fill="none"/>
</clipPath>
</defs>
</svg>
