<?xml version="1.0" encoding="UTF-8"?>
<svg width="140px" height="60px" viewBox="0 0 113 134" version="1.1" xmlns="http://www.w3.org/2000/svg" xmlns:xlink="http://www.w3.org/1999/xlink">
    <!-- Generator: Sketch 52.1 (67048) - http://www.bohemiancoding.com/sketch -->
    <title>radar-monogram</title>
    <desc>Created with Sketch.</desc>
    <g id="Page-1" stroke="none" stroke-width="1" fill="none" fill-rule="evenodd">
        <g id="radar-monogram" fill="currentColor" fill-rule="nonzero">
            <path d="M109,59.48 C108.96691,26.6360113 82.343998,0.0220485006 49.5,0 L0,0 L0,5.61 L49.5,5.66 C72.5855367,5.65186044 93.1019953,20.3753798 100.484435,42.2486889 C107.866875,64.121998 100.468862,88.2669043 82.1,102.25 L76,96.19 C91.9086936,84.6787004 98.5894231,64.228562 92.5447541,45.545454 C86.5000851,26.8623459 69.1066093,14.2010936 49.47,14.19 L0,14.21 L0,19.83 L49.51,19.83 C66.8764991,19.8188254 82.2282142,31.1131251 87.3865242,47.6958647 C92.5448342,64.2786044 86.3085298,82.2881815 72,92.13 L65.83,86 C77.6990236,78.6968312 83.2731619,64.3988404 79.4790712,50.9893335 C75.6849805,37.5798267 63.4459246,28.3219075 49.51,28.32 L0.08,28.32 L56,84.14 C53.8936524,84.6866834 51.7261337,84.9622439 49.55,84.96 L0,84.96 L0,90.61 L49.51,90.61 C53.2674567,90.6141795 56.9944917,89.9365368 60.51,88.61 L66.97,95.06 C61.5495725,97.7090265 55.5930811,99.0775484 49.56,99.06 L0,99.06 L0,104.74 L49.51,104.74 C57.0640709,104.750384 64.4992053,102.85893 71.13,99.24 L77.35,105.46 C68.9565661,110.560033 59.3214017,113.251652 49.5,113.24 L0,113.24 L0,118.87 L49.5,118.87 C60.840513,118.891904 71.9482814,115.653296 81.5,109.54 L99.3,127.44 L0,127.44 L0,133.13 L113,133.13 L86.14,106.29 C100.561757,95.0394147 108.994885,77.771056 109,59.48 Z M13.77,34 L49.51,34 C61.151601,34.0181455 71.3016887,41.9213483 74.1728705,53.2033481 C77.0440522,64.4853478 71.9066846,76.2790898 61.69,81.86 L13.77,34 Z" id="Shape"></path>
        </g>
    </g>
</svg>