<?xml version="1.0" encoding="utf-8"?>
<!-- Generator: Adobe Illustrator 24.0.2, SVG Export Plug-In . SVG Version: 6.00 Build 0)  -->
<svg version="1.1" id="Layer_1" xmlns="http://www.w3.org/2000/svg" xmlns:xlink="http://www.w3.org/1999/xlink" x="0px" y="0px"
	 viewBox="0 0 150 50" style="enable-background:new 0 0 150 50;" xml:space="preserve">
<g>
	<path fill="currentColor" d="M98.5,0.9L98.5,0.9L98.5,0.9L50.4,0.8v0.1h-0.1v48h0.1V49h48v-0.1h0.1V0.9z M95.4,45.9h-42v-42h42V45.9z"/>
	<g>
		<path fill="currentColor" d="M58.9,25.2l0.4-6.2H68v2.2h-6.3l-0.2,2.6l0.1,0c0.7-0.6,1-0.7,2.2-0.7h1.6c1.1,0,1.7,0.2,2.2,0.7c0.6,0.6,0.8,1.5,0.8,3.1
			c0,2.1-0.2,2.8-0.8,3.4c-0.4,0.4-1,0.7-2.1,0.7h-3.7c-1.1,0-1.8-0.2-2.3-0.6c-0.5-0.6-0.8-1.3-0.8-3.3l2.7,0c0,1,0.2,1.3,0.3,1.5
			c0.1,0.1,0.4,0.2,0.9,0.2h1.9c0.5,0,0.7-0.1,0.8-0.2c0.2-0.2,0.3-0.5,0.3-1.6c0-1.1-0.1-1.4-0.3-1.6c-0.1-0.1-0.3-0.2-0.8-0.2
			h-1.2c-0.8,0-1.3,0.2-2,0.6L58.9,25.2z"/>
		<path fill="currentColor" d="M75.5,18.9c1.3,0,1.9,0.2,2.5,0.6c0.7,0.6,1.3,1.9,1.3,5.4c0,3.5-0.6,4.7-1.3,5.4c-0.5,0.5-1.1,0.6-2.5,0.6h-2.8
			c-1.3,0-1.9-0.2-2.4-0.6c-0.7-0.6-1.3-1.9-1.3-5.4c0-3.5,0.6-4.7,1.3-5.4c0.5-0.5,1.1-0.6,2.4-0.6L75.5,18.9L75.5,18.9z
			 M73.3,21.1c-0.6,0-0.8,0.1-1,0.2c-0.2,0.2-0.5,0.6-0.5,3.6s0.3,3.4,0.5,3.6c0.1,0.1,0.3,0.2,1,0.2h1.6c0.6,0,0.8-0.1,1-0.2
			c0.2-0.2,0.5-0.6,0.5-3.6s-0.3-3.4-0.5-3.6c-0.2-0.1-0.3-0.2-1-0.2H73.3z"/>
		<path fill="currentColor" d="M86.3,18.9c1.3,0,1.9,0.2,2.5,0.6c0.7,0.6,1.3,1.9,1.3,5.4c0,3.5-0.6,4.7-1.3,5.4c-0.5,0.5-1.1,0.6-2.5,0.6h-2.8
			c-1.3,0-1.9-0.2-2.4-0.6c-0.7-0.6-1.3-1.9-1.3-5.4c0-3.5,0.6-4.7,1.3-5.4c0.5-0.5,1.1-0.6,2.4-0.6L86.3,18.9L86.3,18.9z
			 M84.1,21.1c-0.6,0-0.8,0.1-1,0.2c-0.2,0.2-0.5,0.6-0.5,3.6s0.3,3.4,0.5,3.6c0.1,0.1,0.3,0.2,1,0.2h1.6c0.6,0,0.8-0.1,1-0.2
			c0.2-0.2,0.5-0.6,0.5-3.6s-0.3-3.4-0.5-3.6c-0.1-0.1-0.3-0.2-1-0.2H84.1z"/>
	</g>
</g>
</svg>
