<?xml version="1.0" encoding="utf-8"?>
<!-- Generator: Adobe Illustrator 24.0.2, SVG Export Plug-In . SVG Version: 6.00 Build 0)  -->
<svg version="1.1" id="Layer_1" xmlns="http://www.w3.org/2000/svg" xmlns:xlink="http://www.w3.org/1999/xlink" x="0px" y="0px"
	 viewBox="0 0 150 50" style="enable-background:new 0 0 150 50;" xml:space="preserve" fill="currentColor">
<defs>
	<filter id="Adobe_OpacityMaskFilter" filterUnits="userSpaceOnUse" x="21.2" y="4.2" width="18.2" height="41.5">
		<feColorMatrix  type="matrix" values="1 0 0 0 0  0 1 0 0 0  0 0 1 0 0  0 0 0 1 0"/>
	</filter>
</defs>
<mask maskUnits="userSpaceOnUse" x="21.2" y="4.2" width="18.2" height="41.5" id="mask-2_2_">
	<g class="st0">
		<path id="path-1_2_" class="st1" d="M21.3,45.7V4.2h18.2v41.5H21.3z"/>
	</g>
</mask>
<path id="Fill-1" d="M27.6,13c0-2,1.2-3.2,3-3.2c2,0,3,1.5,3,3.7V17h5.6v-3.6c0-5.5-3.4-9.2-8.6-9.2
	c-6,0-9.1,4.4-9.1,9.8c0,5.1,3.7,9.8,7,13.1c3.3,3.5,5,6.1,5,9.6c0,2.2-1.1,3.6-3.3,3.6s-3.3-1.4-3.3-4V33h-5.7v3.5
	c0,5.7,3.5,9.2,9.1,9.2c5.1,0,9.1-3.5,9.1-9.9c0-5.1-2.8-9.1-6.6-13.1C29.3,18.8,27.6,16.9,27.6,13"/>
<path id="Fill-4" d="M50,5.7h-6.3v40.1h15V40H50V5.7z"/>
<path id="Fill-6" d="M122.8,5.7l-3.2,26.8l-3.4-26.8h-4.9l-3.8,26.8l-2.9-26.8h-6.3l5.8,40.1h5.6l3.7-23.8l3.3,23.8h5.6l6.4-40.1
	L122.8,5.7z"/>
<path id="Fill-8" d="M75.9,39.6c-7.8,0-14.1-6.6-14.1-14.6s6.3-14.6,14.1-14.6S90,17,90,25S83.8,39.6,75.9,39.6 M75.9,4.2
	c-11.5,0-20.8,9.3-20.8,20.8s9.3,20.8,20.8,20.8S96.7,36.5,96.7,25S87.4,4.2,75.9,4.2"/>
</svg>
