<svg width="316" height="100" viewBox="0 0 316 100" fill="none" xmlns="http://www.w3.org/2000/svg">
<path d="M85.96 44.7546H77V39.4746H101.4V44.7546H92.44V67.4746H85.96V44.7546Z" fill="#3375BB"/>
<path d="M107.538 48.7948C108.284 47.7548 109.284 46.9678 110.538 46.4348C111.818 45.9008 113.284 45.6348 114.938 45.6348V51.3948C114.244 51.3408 113.778 51.3148 113.538 51.3148C111.751 51.3148 110.351 51.8208 109.338 52.8348C108.324 53.8208 107.818 55.3148 107.818 57.3148V67.4748H101.578V45.9548H107.538V48.7948Z" fill="#3375BB"/>
<path d="M138.084 45.9551V67.4751H132.164V64.9151C131.337 65.8481 130.351 66.5681 129.204 67.0751C128.057 67.5551 126.817 67.7951 125.484 67.7951C122.657 67.7951 120.417 66.9811 118.764 65.3551C117.111 63.7281 116.284 61.3151 116.284 58.1151V45.9551H122.524V57.1951C122.524 60.6611 123.977 62.3951 126.884 62.3951C128.377 62.3951 129.577 61.9151 130.484 60.9551C131.391 59.9681 131.844 58.5151 131.844 56.5951V45.9551H138.084Z" fill="#3375BB"/>
<path d="M148.705 67.7948C146.919 67.7948 145.172 67.5808 143.465 67.1548C141.759 66.7008 140.399 66.1408 139.385 65.4748L141.465 60.9948C142.425 61.6078 143.585 62.1148 144.945 62.5148C146.305 62.8878 147.639 63.0748 148.945 63.0748C151.585 63.0748 152.905 62.4208 152.905 61.1148C152.905 60.5008 152.545 60.0608 151.825 59.7948C151.105 59.5278 149.999 59.3008 148.505 59.1148C146.745 58.8478 145.292 58.5408 144.145 58.1948C142.999 57.8478 141.999 57.2348 141.145 56.3548C140.319 55.4748 139.905 54.2208 139.905 52.5948C139.905 51.2348 140.292 50.0348 141.065 48.9948C141.865 47.9278 143.012 47.1008 144.505 46.5148C146.025 45.9278 147.812 45.6348 149.865 45.6348C151.385 45.6348 152.892 45.8078 154.385 46.1548C155.905 46.4748 157.159 46.9278 158.145 47.5148L156.065 51.9548C154.172 50.8878 152.105 50.3548 149.865 50.3548C148.532 50.3548 147.532 50.5408 146.865 50.9148C146.199 51.2878 145.865 51.7678 145.865 52.3548C145.865 53.0208 146.225 53.4878 146.945 53.7548C147.665 54.0208 148.812 54.2748 150.385 54.5148C152.145 54.8078 153.585 55.1278 154.705 55.4748C155.825 55.7948 156.799 56.3948 157.625 57.2748C158.452 58.1548 158.865 59.3808 158.865 60.9548C158.865 62.2878 158.465 63.4748 157.665 64.5148C156.865 65.5548 155.692 66.3678 154.145 66.9548C152.625 67.5148 150.812 67.7948 148.705 67.7948Z" fill="#3375BB"/>
<path d="M174.195 66.4353C173.582 66.8883 172.822 67.2353 171.915 67.4753C171.035 67.6883 170.102 67.7953 169.115 67.7953C166.555 67.7953 164.569 67.1413 163.155 65.8353C161.769 64.5283 161.075 62.6083 161.075 60.0753V51.2353H157.755V46.4353H161.075V41.1953H167.315V46.4353H172.675V51.2353H167.315V59.9953C167.315 60.9013 167.542 61.6083 167.995 62.1153C168.475 62.5953 169.142 62.8353 169.995 62.8353C170.982 62.8353 171.822 62.5683 172.515 62.0353L174.195 66.4353Z" fill="#3375BB"/>
<path d="M226.986 39.4746L217.826 67.4746H210.866L204.706 48.5146L198.346 67.4746H191.426L182.226 39.4746H188.946L195.266 59.1546L201.866 39.4746H207.866L214.266 59.3146L220.786 39.4746H226.986Z" fill="#3375BB"/>
<path d="M234.842 45.6348C238.176 45.6348 240.736 46.4348 242.522 48.0348C244.309 49.6078 245.202 51.9948 245.202 55.1948V67.4748H239.362V64.7948C238.189 66.7948 236.002 67.7948 232.802 67.7948C231.149 67.7948 229.709 67.5148 228.482 66.9548C227.282 66.3948 226.362 65.6208 225.722 64.6348C225.082 63.6478 224.762 62.5278 224.762 61.2748C224.762 59.2748 225.509 57.7008 227.002 56.5548C228.522 55.4078 230.856 54.8348 234.002 54.8348H238.962C238.962 53.4748 238.549 52.4348 237.722 51.7148C236.896 50.9678 235.656 50.5948 234.002 50.5948C232.856 50.5948 231.722 50.7808 230.602 51.1548C229.509 51.5008 228.576 51.9808 227.802 52.5948L225.562 48.2348C226.736 47.4078 228.136 46.7678 229.762 46.3148C231.416 45.8608 233.109 45.6348 234.842 45.6348ZM234.362 63.5948C235.429 63.5948 236.376 63.3548 237.202 62.8748C238.029 62.3678 238.616 61.6348 238.962 60.6748V58.4748H234.682C232.122 58.4748 230.842 59.3148 230.842 60.9948C230.842 61.7948 231.149 62.4348 231.762 62.9148C232.402 63.3678 233.269 63.5948 234.362 63.5948Z" fill="#3375BB"/>
<path d="M248.45 37.7949H254.69V67.4749H248.45V37.7949Z" fill="#3375BB"/>
<path d="M258.081 37.7949H264.321V67.4749H258.081V37.7949Z" fill="#3375BB"/>
<path d="M288.792 56.7948C288.792 56.8748 288.752 57.4348 288.672 58.4748H272.392C272.686 59.8078 273.379 60.8608 274.472 61.6348C275.566 62.4078 276.926 62.7948 278.552 62.7948C279.672 62.7948 280.659 62.6348 281.512 62.3148C282.392 61.9678 283.206 61.4348 283.952 60.7148L287.272 64.3148C285.246 66.6348 282.286 67.7948 278.392 67.7948C275.966 67.7948 273.819 67.3278 271.952 66.3948C270.086 65.4348 268.646 64.1148 267.632 62.4348C266.619 60.7548 266.112 58.8478 266.112 56.7148C266.112 54.6078 266.606 52.7148 267.592 51.0348C268.606 49.3278 269.979 48.0078 271.712 47.0748C273.472 46.1148 275.432 45.6348 277.592 45.6348C279.699 45.6348 281.606 46.0878 283.312 46.9948C285.019 47.9008 286.352 49.2078 287.312 50.9148C288.299 52.5948 288.792 54.5548 288.792 56.7948ZM277.632 50.3548C276.219 50.3548 275.032 50.7548 274.072 51.5548C273.112 52.3548 272.526 53.4478 272.312 54.8348H282.912C282.699 53.4748 282.112 52.3948 281.152 51.5948C280.192 50.7678 279.019 50.3548 277.632 50.3548Z" fill="#3375BB"/>
<path d="M304.427 66.4353C303.813 66.8883 303.053 67.2353 302.147 67.4753C301.267 67.6883 300.333 67.7953 299.347 67.7953C296.787 67.7953 294.8 67.1413 293.387 65.8353C292 64.5283 291.307 62.6083 291.307 60.0753V51.2353H287.987V46.4353H291.307V41.1953H297.547V46.4353H302.907V51.2353H297.547V59.9953C297.547 60.9013 297.773 61.6083 298.227 62.1153C298.707 62.5953 299.373 62.8353 300.227 62.8353C301.213 62.8353 302.053 62.5683 302.747 62.0353L304.427 66.4353Z" fill="#3375BB"/>
<path fill-rule="evenodd" clip-rule="evenodd" d="M39.648 21.6777C40.7115 20.7741 42.2581 20.7741 43.3215 21.6778C51.1999 28.3726 60.1832 28.3207 63.6565 28.3007C63.8299 28.2997 63.9895 28.2987 64.1345 28.2987C64.902 28.2987 65.6374 28.612 66.1759 29.1683C66.7145 29.7246 67.0113 30.4775 66.9997 31.2582C66.8354 42.3416 66.3988 50.2504 65.5424 56.046C64.6865 61.838 63.3746 65.8036 61.2629 68.7897C59.1363 71.7969 56.4029 73.5049 53.4875 75.1443C52.9825 75.4283 52.4674 75.7125 51.9402 76.0035C49.3805 77.4163 46.5336 78.9875 43.1549 81.4535C42.1566 82.1822 40.8128 82.1822 39.8145 81.4535C36.4391 78.9898 33.5959 77.4194 31.0401 76.0076C30.5104 75.715 29.993 75.4292 29.4858 75.1437C26.5726 73.5039 23.8428 71.7954 21.7203 68.7872C19.6132 65.8009 18.3057 61.8355 17.4529 56.0446C16.5995 50.2496 16.1648 42.3413 16.0003 31.2583C15.9887 30.4775 16.2855 29.7246 16.824 29.1683C17.3626 28.612 18.098 28.2987 18.8655 28.2987C19.0089 28.2987 19.1669 28.2996 19.3387 28.3007C22.784 28.3207 31.7684 28.3731 39.648 21.6777ZM21.7823 34.1123C21.9765 43.5751 22.3994 50.2836 23.1205 55.1805C23.9149 60.5743 25.0345 63.4858 26.3757 65.3866C27.7016 67.2657 29.4414 68.4548 32.26 70.0414C32.7192 70.2999 33.2034 70.567 33.7119 70.8476C35.8834 72.0457 38.4966 73.4876 41.4848 75.5344C44.477 73.4851 47.0942 72.0422 49.2693 70.8431C49.7755 70.564 50.2579 70.2981 50.7154 70.0408C53.5376 68.4538 55.2815 67.2642 56.611 65.3841C57.9553 63.4831 59.0783 60.5719 59.8752 55.179C60.5987 50.2828 61.0233 43.575 61.2177 34.1129C56.7651 33.9697 48.8963 33.0404 41.4847 27.6045C34.0816 33.0339 26.2238 33.9675 21.7823 34.1123Z" fill="#3375BB"/>
</svg>
