<svg width="200" height="100" viewBox="0 0 200 100" fill="currentColor" xmlns="http://www.w3.org/2000/svg">
<g clip-path="url(#clip0)">
<path d="M77.1415 100C123.638 100 149.069 61.5238 149.069 28.1571C149.069 27.0643 149.069 25.9764 148.995 24.8934C153.943 21.3191 158.213 16.8933 161.607 11.8235C156.994 13.8655 152.099 15.2046 147.088 15.7962C152.365 12.6406 156.315 7.67741 158.202 1.83029C153.239 4.77141 147.811 6.84418 142.149 7.95912C138.338 3.91105 133.297 1.23054 127.807 0.332352C122.316 -0.565831 116.683 0.368402 111.777 2.99048C106.872 5.61257 102.969 9.7763 100.671 14.8374C98.3741 19.8984 97.8107 25.5748 99.0688 30.9879C89.0181 30.4845 79.1859 27.8757 70.2102 23.3309C61.2345 18.7861 53.316 12.4066 46.9688 4.60671C43.7361 10.1653 42.746 16.7456 44.2 23.0077C45.6541 29.2698 49.443 34.743 54.7954 38.3129C50.7724 38.1937 46.8371 37.1098 43.3216 35.1525C43.3216 35.2559 43.3216 35.3641 43.3216 35.4725C43.3232 41.3021 45.3436 46.9516 49.0402 51.463C52.7367 55.9745 57.8818 59.0698 63.6027 60.2241C59.8809 61.2379 55.9761 61.3861 52.1881 60.6573C53.8035 65.6745 56.9484 70.0618 61.1831 73.2057C65.4177 76.3498 70.5304 78.0932 75.8059 78.1921C66.8543 85.2191 55.7961 89.0338 44.4109 89.0223C42.3995 89.0184 40.3901 88.8968 38.3931 88.658C49.9537 96.068 63.4052 99.9986 77.1415 99.9804" fill="currentColor"/>
</g>
<defs>
<clipPath id="clip0">
<rect width="200" height="100" fill="currentColor"/>
</clipPath>
</defs>
</svg>
