<svg width="23" height="19" viewBox="0 0 23 19" fill="none" xmlns="http://www.w3.org/2000/svg">
    <path d="M22.853 2.19074C22.018 2.56074 21.121 2.81074 20.178 2.92374C21.151 2.34153 21.8789 1.42521 22.226 0.345739C21.3118 0.888729 20.3113 1.27093 19.268 1.47574C18.5664 0.726604 17.6371 0.230065 16.6243 0.0632131C15.6116 -0.103639 14.5721 0.0685306 13.6672 0.552992C12.7624 1.03745 12.0428 1.8071 11.6202 2.74244C11.1975 3.67778 11.0955 4.72649 11.33 5.72574C9.47769 5.63274 7.66563 5.15129 6.01143 4.31264C4.35722 3.474 2.89784 2.2969 1.728 0.857739C1.328 1.54774 1.098 2.34774 1.098 3.19974C1.09756 3.96673 1.28644 4.72198 1.64788 5.39847C2.00933 6.07496 2.53216 6.65178 3.17 7.07774C2.43028 7.0542 1.70688 6.85432 1.06 6.49474V6.55474C1.05993 7.63048 1.43204 8.67312 2.11319 9.50574C2.79434 10.3384 3.74257 10.9097 4.797 11.1227C4.11079 11.3085 3.39134 11.3358 2.693 11.2027C2.9905 12.1284 3.57 12.9378 4.35037 13.5177C5.13074 14.0976 6.07292 14.4189 7.045 14.4367C5.39484 15.7322 3.35689 16.4348 1.259 16.4317C0.887384 16.4318 0.516079 16.4101 0.147003 16.3667C2.27648 17.7359 4.75534 18.4626 7.287 18.4597C15.857 18.4597 20.542 11.3617 20.542 5.20574C20.542 5.00574 20.537 4.80374 20.528 4.60374C21.4393 3.94471 22.2259 3.12863 22.851 2.19374L22.853 2.19074Z" fill="#1D9BF0"/>
</svg>
