<?xml version="1.0" encoding="utf-8"?>
<!-- Generator: Adobe Illustrator 24.0.2, SVG Export Plug-In . SVG Version: 6.00 Build 0)  -->
<svg version="1.1" id="Layer_1" xmlns="http://www.w3.org/2000/svg" xmlns:xlink="http://www.w3.org/1999/xlink" x="0px" y="0px"
	 viewBox="0 0 200 50" style="enable-background:new 0 0 200 50;" xml:space="preserve">
<g>
	<path fill="currentColor" d="M61.3,7.8c-0.9-4-1.1-4.7-2.4-5l-1-0.3v-1h12.1v1l-1,0.2c-2.2,0.5-2,2.6-1.4,5.6L73.1,35L77,13.7l-1.4-7.3
		C75,3.9,74.8,3,73.5,2.7l-0.9-0.2v-1H85v1l-1.5,0.3c-2.3,0.4-1.9,2.9-1.4,5.5L87.4,35l5.1-25.3c1-5.2,0.5-6.5-1.6-6.9l-1.4-0.3v-1
		h8.7v1l-1,0.3c-1.4,0.5-1.7,1.8-2.6,6.3l-8.3,39.6h-1.8l-6.4-30.9l-5.8,30.9H70L61.3,7.8z"/>
	<path fill="currentColor" d="M109.1,48.7c-3.9,0-5.3-2.7-6.6-2.7c-0.8,0-1.6,0.2-2.3,2.5h-0.8V32.9h1c0.8,8.8,4.1,14.3,8.7,14.3c3.1,0,5.2-2.8,5.2-7.8
		c0-10.6-15.2-15.2-15.2-27c0-6.3,3.2-11.2,9-11.2c3.7,0,4.5,2.5,6.1,2.5c0.9,0,1.5-0.7,1.8-2.2h0.8v15.5h-1
		c-0.8-7.8-2.9-14.3-7.8-14.3c-3.4,0-4,3.4-4,5.7c0,10.1,15.2,13.6,15.2,27.8C119.2,43.5,115.2,48.7,109.1,48.7z"/>
	<path fill="currentColor" d="M138.6,37.6c0,7.3-3.7,11.1-9.3,11.1c-5.1,0-8.1-4.2-8-8.7c0.1-3.5,2.6-5.3,4.8-5c1.5,0.2,3,1.3,2.8,3.7
		c-0.2,3.4-3.9,3.3-4,5.4c-0.1,1.3,1.6,3.2,3.7,3.2c3.8,0,3.8-4.8,3.8-8.5v-33c0-1.9-0.6-2.5-2.1-2.8l-1.7-0.4V1.6H142v1l-1.5,0.4
		c-1.4,0.3-1.8,1-1.8,2.9L138.6,37.6L138.6,37.6z"/>
</g>
</svg>
