<?xml version="1.0" encoding="utf-8"?>
<!-- Generator: Adobe Illustrator 24.0.2, SVG Export Plug-In . SVG Version: 6.00 Build 0)  -->
<svg version="1.1" id="Layer_1" xmlns="http://www.w3.org/2000/svg" xmlns:xlink="http://www.w3.org/1999/xlink" x="0px" y="0px"
	 viewBox="0 0 200 50" style="enable-background:new 0 0 200 50;" xml:space="preserve">
<g>
	<path fill="currentColor" d="M9.9,12.2h10.7l6.2,16l6.3-16h10.5L27.9,50H17.4l4.3-10L9.9,12.2z M54.5,11.5c-8,0-13.1,7.2-13.1,14.4
		c0,8.1,5.6,14.5,13,14.5c5.5,0,7.6-3.4,7.6-3.4v2.6h9.4V12.2H62v2.5C61.9,14.7,59.6,11.5,54.5,11.5z M56.5,20.4
		c3.7,0,5.6,3,5.6,5.6c0,2.9-2,5.7-5.6,5.7c-3,0-5.6-2.4-5.6-5.5C50.8,23,53,20.4,56.5,20.4z M74.5,39.7V0h9.8v14.8
		c0,0,2.3-3.2,7.2-3.2c6,0,9.5,4.5,9.5,10.8v17.4h-9.7v-15c0-2.1-1-4.2-3.3-4.2c-2.4,0-3.6,2.1-3.6,4.2v15H74.5z M117.6,11.5
		c-9.2,0-14.7,7-14.7,14.5c0,8.5,6.6,14.4,14.8,14.4c7.9,0,14.7-5.6,14.7-14.3C132.4,16.7,125.2,11.5,117.6,11.5z M117.7,20.5
		c3.3,0,5.5,2.7,5.5,5.6c0,2.5-2.1,5.5-5.5,5.5c-3.1,0-5.5-2.5-5.5-5.5C112.3,23.1,114.2,20.5,117.7,20.5z M148.7,11.5
		c-9.2,0-14.7,7-14.7,14.5c0,8.5,6.6,14.4,14.8,14.4c7.9,0,14.7-5.6,14.7-14.3C163.4,16.7,156.3,11.5,148.7,11.5z M148.8,20.5
		c3.3,0,5.5,2.7,5.5,5.6c0,2.5-2.1,5.5-5.5,5.5c-3.1,0-5.5-2.5-5.5-5.5C143.3,23.1,145.3,20.5,148.8,20.5z M171.2,27.3
		c3.6,0,6.5,2.9,6.5,6.5s-2.9,6.5-6.5,6.5s-6.5-2.9-6.5-6.5S167.6,27.3,171.2,27.3z M179.8,25h-11.7l10.4-25h11.6L179.8,25z"/>
</g>
</svg>
