<svg width="18" height="16" viewBox="0 0 18 16" fill="none" xmlns="http://www.w3.org/2000/svg">
<path d="M3.90909 16C3.40588 16 3.03959 15.5227 3.16978 15.0366L4.05 11.75H0.97436C0.482156 11.75 0.12338 11.2839 0.249332 10.8081C0.336412 10.4791 0.634062 10.25 0.974361 10.25H4.44706L5.63824 5.75H2.03319C1.54098 5.75 1.1822 5.2839 1.30816 4.80808C1.39524 4.47911 1.69289 4.25 2.03318 4.25H6.03529L6.99945 0.564273C7.08641 0.231862 7.38672 0 7.73032 0C8.2252 0 8.58643 0.467883 8.46119 0.946651L7.59706 4.25H12.3882L13.3524 0.564273C13.4393 0.231862 13.7397 0 14.0833 0C14.5781 0 14.9394 0.467883 14.8141 0.946651L13.95 4.25H17.0256C17.5178 4.25 17.8766 4.7161 17.7507 5.19192C17.6636 5.52089 17.3659 5.75 17.0256 5.75H13.5529L12.3618 10.25H15.9668C16.459 10.25 16.8178 10.7161 16.6918 11.1919C16.6048 11.5209 16.3071 11.75 15.9668 11.75H11.9647L11.0025 15.4283C10.9144 15.7651 10.6101 16 10.262 16C9.75882 16 9.39253 15.5227 9.52272 15.0366L10.4029 11.75H5.61177L4.64955 15.4283C4.56145 15.7651 4.25719 16 3.90909 16ZM6.00882 10.25H10.8L11.9912 5.75H7.2L6.00882 10.25Z" fill="url(#paint0_linear_823_61326)"/>
<defs>
<linearGradient id="paint0_linear_823_61326" x1="-4.03247" y1="-25.8333" x2="27.0942" y2="-25.4896" gradientUnits="userSpaceOnUse">
<stop stop-color="#FCA341"/>
<stop offset="0.265625" stop-color="#FF616C"/>
<stop offset="0.527577" stop-color="#F449C4"/>
<stop offset="0.804924" stop-color="#9945FF"/>
<stop offset="1" stop-color="#61CCB2"/>
</linearGradient>
</defs>
</svg>
